<?xml version="1.0" encoding="utf-8"?>
<!-- Generator: Adobe Illustrator 23.0.3, SVG Export Plug-In . SVG Version: 6.00 Build 0)  -->
<svg version="1.1" id="Layer_1" xmlns="http://www.w3.org/2000/svg" xmlns:xlink="http://www.w3.org/1999/xlink" x="0px" y="0px"
	 viewBox="0 0 1080 1080" style="enable-background:new 0 0 1080 1080;" xml:space="preserve">
<style type="text/css">
	.st0{fill:#DB584C;}
	.st1{fill:#FFFFFF;}
	.st2{fill:#216572;}
	.st3{font-family:'JosefinSlab-Bold';}
	.st4{font-size:175.0255px;}
	.st5{fill:none;}
	.st6{fill:#1C90BF;}
	.st7{fill:#4DBFD9;}
	.st8{font-family:'BlackOpsOne-Regular';}
	.st9{font-size:45.8516px;}
	.st10{font-size:46.2199px;}
</style>
<g>
	<polygon class="st0" points="540.7,259.59 786.15,400.03 786.15,680.89 540.7,821.33 295.26,680.89 295.26,400.03 	"/>
	<path class="st1" d="M543.62,307.66c69.68,38.01,139.37,76.02,209.05,114.03c-0.68,78.5-1.35,156.99-2.03,235.49
		c-69.98,37.89-139.96,75.77-209.94,113.66c-69.27-38.07-138.53-76.14-207.8-114.21c1.14-78.31,2.28-156.62,3.42-234.94
		C405.43,383.68,474.53,345.67,543.62,307.66z"/>
	<path class="st2" d="M211.6,540.7c218.04-34.22,440.16-34.22,658.2,0c-14.82,16.12-29.34,32.38-43.56,48.79
		c9.09,19.66,17.86,39.38,26.31,59.15c-206.61-32.43-417.08-32.43-623.69,0c8.44-19.77,17.21-39.49,26.31-59.15
		C240.95,573.08,226.43,556.81,211.6,540.7z"/>
	<g>
		<text transform="matrix(0.94 0 0 1 457.8164 502.4648)" class="st2 st3 st4">50</text>
	</g>
	<path id="SVGID_x5F_1_x5F_" class="st5" d="M339.4,612.67c0,0,104.43-17.19,228.82-17.19s217.68,17.19,217.68,17.19"/>
	<text>	<textPath  xlink:href="#SVGID_x5F_1_x5F_" startOffset="17.1385%">
<tspan  class="st1" style="font-family:'OctinCollegeRg-Regular'; font-size:75.4755px; letter-spacing:42.29;">Days Streak</tspan>	</textPath>
</text>
	<polygon class="st2" points="540.7,775.03 583.35,750.63 498.06,750.63 	"/>
	<polygon class="st2" points="544.93,305.99 587.58,330.39 502.29,330.39 	"/>
	<g>
		<polygon class="st0" points="538.91,704.82 542.91,712.86 551.86,714.15 545.38,720.4 546.91,729.23 538.91,725.06 530.91,729.23 
			532.44,720.4 525.96,714.15 534.91,712.86 		"/>
		<polygon class="st0" points="599.55,696.31 605.98,702.62 614.86,700.94 610.8,708.95 615.15,716.8 606.21,715.44 600.02,721.97 
			598.56,713.13 590.38,709.31 598.41,705.2 		"/>
		<polygon class="st0" points="478.27,696.31 471.85,702.62 462.96,700.94 467.03,708.95 462.68,716.8 471.61,715.44 477.8,721.97 
			479.27,713.13 487.44,709.31 479.41,705.2 		"/>
	</g>
	<g>
		<path class="st6" d="M575.94,644.82c0.68,1.03-30.22,14.11-28.1,23.24c0.91,3.93,7.68,5.95,26.09,16.09
			c1.86,1.03,6.39,3.54,5.98,4.37c-0.04,0.08-0.12,0.13-0.15,0.15c-2.3,1.27-31.92-11.67-31.92-11.67c-0.59-0.26-1.8-0.76-3.24-0.53
			c-0.75,0.12-1.3,0.4-1.47,0.5c-2.02,1.28-1,6.68,0.94,11.11c0.55,1.27,3.9,8.65,5.59,11.97c0.19,0.38,0.67,1.33,0.33,1.65
			c-0.03,0.03-0.07,0.05-0.12,0.06c-0.41,0.1-2.26-0.41-4-1.91c-8.55-7.4-12.63-21.06-12.63-21.06c-0.55-1.83-1.28-4.56-1.89-7.96
			c0,0,0,0,0,0c-1.6-9.99-0.68-17.91,0-22.67c2.22-15.58,4.88-24.82,5.05-24.79c0.23,0.04-2.93,15.67,1.26,23.38
			c0.51,0.94,1.81,3.45,4.84,4.94c2.04,1,3.98,1.23,5.26,1.31c5.34,0.34,9.71-1.37,18.15-4.6
			C573.26,645.58,575.76,644.54,575.94,644.82z"/>
		<ellipse class="st7" cx="548.5" cy="644.85" rx="7.47" ry="5.24"/>
		<text transform="matrix(0.7314 0 0 1 447.918 679.0234)" class="st7 st8 st9">WOR</text>
		<g>
			<text transform="matrix(0.841 0 0 1 567.9648 679.3281)" class="st7 st8 st10">FIT</text>
		</g>
	</g>
</g>
</svg>
