<?xml version="1.0" encoding="utf-8"?>
<!-- Generator: Adobe Illustrator 23.0.3, SVG Export Plug-In . SVG Version: 6.00 Build 0)  -->
<svg version="1.1" id="Layer_1" xmlns="http://www.w3.org/2000/svg" xmlns:xlink="http://www.w3.org/1999/xlink" x="0px" y="0px"
	 viewBox="0 0 1080 1080" style="enable-background:new 0 0 1080 1080;" xml:space="preserve">
<style type="text/css">
	.st0{fill:#FFFFFF;}
	.st1{fill:#4A4A49;}
	.st2{fill:#FED2A5;}
	.st3{fill:#010001;}
	.st4{fill:#EB7171;}
	.st5{fill:#FF8442;}
	.st6{fill:#00A6BC;}
	.st7{fill:#77B5C6;}
	.st8{fill:#F7BD8D;}
	.st9{fill:#E6A87F;}
	.st10{fill:#2A5285;}
	.st11{fill:#EE4645;}
	.st12{fill:#FAB587;}
	.st13{fill:#1B2952;}
	.st14{fill:#E5D6CE;}
	.st15{fill:#E8A67C;}
	.st16{opacity:0.2;}
	.st17{fill:#E8C2A3;}
	.st18{fill:#E2BD9F;}
	.st19{fill:#EFCAA6;}
	.st20{clip-path:url(#SVGID_2_);}
	.st21{fill:#D2948B;}
	.st22{fill:#DBB79C;}
	.st23{fill:#111F59;}
	.st24{fill:#18287D;}
	.st25{fill:#0F1D5B;}
	.st26{fill:#5B453B;}
	.st27{fill:none;}
	.st28{fill:#2A1104;}
	.st29{fill:#391F15;}
	.st30{fill:#482A21;}
	.st31{fill:#E3AD83;}
	.st32{fill-rule:evenodd;clip-rule:evenodd;fill:#FFFFFF;}
	.st33{fill:#D3D4D6;}
	.st34{fill-rule:evenodd;clip-rule:evenodd;fill:#000007;}
	.st35{fill-rule:evenodd;clip-rule:evenodd;fill:#060007;}
	.st36{fill-rule:evenodd;clip-rule:evenodd;fill:#D3D4D6;}
	.st37{fill-rule:evenodd;clip-rule:evenodd;fill:#362F37;}
	.st38{fill:#060007;}
	.st39{fill-rule:evenodd;clip-rule:evenodd;}
	.st40{fill-rule:evenodd;clip-rule:evenodd;fill:#231F20;}
	.st41{fill-rule:evenodd;clip-rule:evenodd;fill:#BBBDBF;}
	.st42{fill-rule:evenodd;clip-rule:evenodd;fill:#D0D2D3;}
	.st43{fill:#251F27;}
	.st44{fill:#717275;}
	.st45{fill:#362F37;}
	.st46{fill:#AAACAF;}
	.st47{opacity:0.33;}
</style>
<g>
	<path class="st0" d="M923,256H753c-6.6,0-12,5.4-12,12v209c0,6.6,5.4,12,12,12h170c6.6,0,12-5.4,12-12V268
		C935,261.4,929.6,256,923,256z"/>
</g>
<g>
	<g>
		<path class="st0" d="M625,424H455c-6.6,0-12,5.4-12,12v209c0,6.6,5.4,12,12,12h170c6.6,0,12-5.4,12-12V436
			C637,429.4,631.6,424,625,424z"/>
	</g>
	<g>
		<path class="st1" d="M606.75,634.12l-152.41-0.59c-0.7,0-1.06-0.65-0.59-1.05l9.19-7.84c0.94-0.81,2.28-1.26,3.68-1.26h129.53
			c1.53,0,2.98,0.53,3.96,1.44l7.83,7.32C608.79,632.93,608.07,634.12,606.75,634.12z"/>
	</g>
	<g>
		<g>
			<path class="st2" d="M552.8,618.01c0,0,4.99-1.32,5.45-13.08l6.43,1.09c0,0,0.57,8.41,1.09,13.14
				C566.29,623.89,552.8,618.01,552.8,618.01z"/>
			<g>
				<path class="st2" d="M568.01,551.96c-1.64-8.05,3.59-32.34,3.59-46.64c0-22.97-16.52-28.7-25.57-25.63
					c-8.82,2.99-22.64,17.07-19.2,28.17c1.27,4.12,25.66-3.82,25.66,2.39c0,21.67-1.09,38.19,3.58,45.62
					c1.65,8.61,1.65,15.59,1.65,28.38c0,22.96-0.85,34.1,4.12,34.1c1.69,0,3.11-2.3,3.33-6.56c0.3-5.77,4.37-19.54,5.69-30
					C573.29,562.48,569.1,557.38,568.01,551.96z"/>
				<path class="st3" d="M545.77,507.86c0.01,0.01,0.96,1.51,0.96,1.53l3.28,5.21c0.74,5.46,1.4,10.18,1.4,10.18
					c0,0,24.15-4.41,24.15-4.41l1.44,0.16c-0.64-11.48-1.76-20.19-2.96-26.26c-0.93-4.68-3.78-7.54-6.37-10.19
					c-4.16-4.27-11.5-7.07-11.5-7.07S543.5,498.98,545.77,507.86z"/>
				<g>
					<g>
						<g>
							<g>
								<g>
									<g>
										<g>
											<g>
												<g>
													<path class="st2" d="M550.3,570.65c-0.05-1.26-1.52-0.85-1.66-2.63c-0.02-0.44,0.21-0.82,0.13-1.09
														c-0.11-0.39-0.56-0.62-0.7-0.88c-0.12-0.25,0.27-0.69,0.12-1.05c-0.07-0.2-0.68-0.24-0.75-0.51
														c-0.4-1.37-0.2-0.4-0.37-1.62c-0.48-3.25-1.49-3.81-8.02-2.58l0.04-0.04c0,0-2.14,0.15-2.09-2.04
														c0.1-4.11,0.45-6.78,2.46-9.57l-5.76,1.19l-5.71,2.17c-2.51,14.54-0.81,9.56-2.32,14.14
														c-0.61,1.05-6.36,13.8-6.41,15.03c-0.52,12.34,5.6,16.67,15.37,17.12c9.04,0.42,14.39-4.37,15.9-15.39
														c0.13-0.89-1.43-6.8-1.51-7.72C548.84,572.59,550.35,571.91,550.3,570.65z"/>
												</g>
											</g>
										</g>
									</g>
								</g>
								<path class="st0" d="M550.71,539.73c1.36-4.93-1.22-10.08-5.75-11.48c-4.54-1.4-9.32,1.47-10.68,6.4
									c0.26-0.96,0.24,20.99,1.94,16.83C538.88,545,549.35,544.68,550.71,539.73z"/>
								<path class="st4" d="M538.37,555.12c-3.78-0.03-8.35,2.29-12.08,2.7c-2.34-6.75-6.73-14.64-6.06-26.77
									c1.03-18.58-0.82-21.07,2.61-31.79l23.21,4.7c0,0,0.6,15.89-1.39,29.37C543.06,544.18,542.42,548.83,538.37,555.12z"/>
								<path class="st5" d="M550.24,589.41c0.05,6.37-7.95,9.67-14.91,15.51c-11.81,9.91-0.97,20.88-8.08,20.76
									c-8.38-0.14-19.63-25.32-2.3-60.36c2.33-4.7,12.69,2.37,12.69,2.37c-1.85,1.13-6.74,7.21-4.14,9.2
									c0.61,0.47,1.98,0.21,3.19-0.61C536.69,576.28,550.22,587.83,550.24,589.41z"/>
								<path class="st6" d="M551.74,588.28c0,0,0.5,4.65-2.96,5.38c0,0-8.06-10.95-15.27-16.77c0,0,0.93,0.31,1.87,0.05
									c0.73-0.21,1.25-0.69,1.31-0.66C538.94,577.28,544.85,580.12,551.74,588.28z"/>
							</g>
						</g>
					</g>
				</g>
				<path class="st7" d="M555.08,615.57c3.48,0.83,7.07,1.24,10.74,1.19c0.14,0,0.28-0.03,0.42-0.03l0.08,11.27h-29.18
					C537.09,622.22,545.73,618.04,555.08,615.57z"/>
			</g>
			<path class="st8" d="M499.16,622.93c0,0-9.53-0.46-12.61,0.27c-2.38,0.57-8.85,2.85-7.9,4.15c0.46,0.63,1.57,0.98,3.81,0
				c1.16-0.51,3.34-1.19,4.6-1.2c1.59-0.03,4.66,1.75,6.25,1.84c1.22,0.08,3.69-0.63,4.87-0.96c1.46-0.4,5.47-2.66,5.47-2.66
				l29.98-32.33c0,0,5.59-35.16,5.39-43.96c-0.13-5.6-5.93-12.36-11.1-4.74c-1.4,2.07-1.09,43.35-3.65,44.96
				C522.19,589.63,501.32,621.8,499.16,622.93z"/>
		</g>
	</g>
</g>
<g>
	<g>
		<path class="st0" d="M625,424H455c-6.6,0-12,5.4-12,12v209c0,6.6,5.4,12,12,12h170c6.6,0,12-5.4,12-12V436
			C637,429.4,631.6,424,625,424z"/>
	</g>
	<g>
		<path class="st1" d="M618.75,647.12l-152.41-0.59c-0.7,0-1.06-0.65-0.59-1.05l9.19-7.84c0.94-0.81,2.28-1.26,3.68-1.26h129.53
			c1.53,0,2.98,0.53,3.96,1.44l7.83,7.32C620.79,645.93,620.07,647.12,618.75,647.12z"/>
	</g>
	<g>
		<path class="st3" d="M527.49,575.65c-11-4.98-23.93-15.94-29.43-18.87c-2.84-1.5-9.71-0.17-9.71-0.17l42.71-11.46l-15.86-12.95
			c0,0-33.46,9.75-38.13,23.12c-0.72,2.05,3.15,6.21,4.98,7.25c13.83,7.87,41.59,17.22,41.59,17.22S529.2,576.42,527.49,575.65z"/>
		<g>
			<path class="st9" d="M538.87,594.51c0.4,4.89-3.16,3.06-2.78-0.49c-3.69-5.96-7.76-11.4-9.42-12.32
				c-3.74-2.09-14.59-6.03-14.59-6.03l3.77-6.25c0,0,6.74,4.02,10.47,5.92c0.31,0.16,2.05,0.62,4.15,0.44
				c3.38-0.28,6.61-0.58,7.32,3.01C538.67,583.28,538.8,593.58,538.87,594.51z"/>
		</g>
		<path class="st10" d="M517.86,451.02c-1.04,1.85,2.05,20.65,7.06,24.95c4.94,4.24,4.69,19.73-7.13,20.4
			c-5.85,0.33-6.66-5.55-11.87-7.47c-5.97-2.2,1.3-6.59-3.63-11.88c-4.94-5.29,4.8-10.77,2.92-14.84
			c-3.74-8.08,4.29-12.91,6.86-15.6c3.7-3.86,7.06-2.19,8.54-1.63C522.09,445.51,519.57,448,517.86,451.02z"/>
		<path class="st11" d="M522.62,451.02c-1.71,3.02-2.82,5.58-4.3,5.02c-1.48-0.56-3.81-2-1.07-7.04c2.43-4.48,3.97-4.57,5.45-4.02
			C524.17,445.54,524.33,448,522.62,451.02z"/>
		<path class="st12" d="M547.1,625.56c-0.31-7.99,4.19-79.51,4.19-79.51l-15.2,0.85l6.25,30.1l-3.12,13.85l1.21,33.51
			C540.44,624.37,543.92,629.14,547.1,625.56z"/>
		<path class="st3" d="M540.04,612.87l-5.28-69.06c0,0,20.91-18.02,22.5-5.29c1.59,12.73-8.21,58.03-9.75,74.35H540.04z"/>
		<g>
			<path class="st12" d="M553.75,640.53c1.38-1.19-5.93-5.6-6.54-13.15c-0.3-3.69-0.17-9.39-0.17-9.39l-6.81-1.27
				c0,0,0.3,5.62,0.18,9.2c-0.01,0.3-1.08,2.55-1.08,4.27c0,2.23,1.33,3.85,1.79,10.19C541.32,643.19,552.36,641.73,553.75,640.53z"
				/>
		</g>
		<path class="st13" d="M517.24,531.7c0.88-8.06,4.01-10.06,4.01-10.06c0.67-0.02,19.91-9.96,19.91-9.96s11.91,13.15,14.32,15.29
			l1.78,11.54l-17.89,6.64h-8.3C531.07,545.16,516.36,539.76,517.24,531.7z"/>
		<path class="st10" d="M534.62,474.39c10.12-0.02,12.71-8.46,13.05-13c0.33-4.54,2.92-8.66-0.29-13.27
			c-2.54-3.64-16.24-5.58-22.95-3.56c-4.88,1.47-6.79,9.29-6.5,13.85C518.41,465.96,528,474.4,534.62,474.39z"/>
		<path class="st4" d="M513.99,539.59c0.65-9.37,6.93-23.73,6.93-23.73s-4.05-17.65-2.95-21.81c1.09-4.15,2.37-12.26,5.81-13.48
			c1.34-0.47,3.17-1.16,3.17-1.16l8.31,4.61l8.12-5.03c0,0,1.74,0.47,3.5,0.99c1.19,0.35,3.52,10.18,4.68,14.9
			c1.16,4.72-2.61,21.07-2.61,21.07s6.71,14.18,7.9,22.46C557.28,541.57,524.98,549.26,513.99,539.59z"/>
		<path class="st12" d="M543.37,479.01c1.46,5.99-13.86,8.49-16.43,0.42c0.92-0.16,5.07-1.37,4.19-0.89c0,0,2.16-2.94,0.24-6.84
			c-0.82-1.05,11.01-1.91,9.84,0.45c-1.16,2.36-0.95,6.4-0.95,6.4S542.58,478.91,543.37,479.01z"/>
		<path class="st14" d="M532.62,471.67l8.14,0.46l-0.51,4.89C532.49,476.04,532.62,471.67,532.62,471.67z"/>
		<path class="st12" d="M526.13,451.63l-0.45,13.34c0.57,6.31,10.47,10.56,14.56,10.58c2.92,0.01,7.1-5.85,7.32-9.49
			c0.21-3.53,0.52-12.36-1.67-13.81L526.13,451.63z"/>
		<path class="st12" d="M528,462.62l-2.15,2.79c0,0-0.64,0.8-2.18,0.13c-1.54-0.68-2.64-4.91,0.71-5.03
			C526.69,460.43,528,462.62,528,462.62z"/>
		<path class="st14" d="M526.13,451.63c0,0-2.29,2.01-2.09,4.08c0.2,2.07,3.27,9.35,3.27,9.35s1.23-2.29,1.83-5.98
			c0.81-4.98,4.83-1.99,10.1-3.12c5.27-1.14,6.36-0.54,8.66,1.76l-1.9-6.1H526.13z"/>
		<path class="st10" d="M547.52,450.06c1.07,3.2,0.07,7.8,0.07,7.8s-0.51-2.27-2.41-3.63c-1.33-0.95-5.73,1.23-8.48,0.15
			c-5.17-2.04-10.44,2.02-9.76,4.7c1.05,4.11,0.38,5.98,0.38,5.98s-2.22-1.24-2.93-4.55c-0.52-2.44-1.85-5.64-1.68-8.68
			c0,0,8.9-5.16,16.31-4.76C546.43,447.48,547.52,450.06,547.52,450.06z"/>
		<path class="st12" d="M532.7,509.89c0,0-15.12,6.78-23.36,6.21c-1.8-0.12-4.55-2.4-4.55-4.77c0.01-3.97,4.03-14.23,9.05-22.96
			c2.21-7.02,9.27-7.42,10.02-7.9c2.17,18.68-5.43,20.39-5.43,20.39l-0.47-2.56c0,0-5.13,10.29-7.07,13.36
			c0.85-0.71,1.54-1.44,2.95-1.8c1.42-0.36,12.34-0.36,17.23-2C532.07,507.51,532.7,509.89,532.7,509.89z"/>
		<path class="st12" d="M537.68,509.85c0,0,15.34,6.1,23.58,5.53c1.8-0.13,4.49-2.23,4.49-4.6c-0.01-3.97-4.2-14.39-9.22-23.13
			c-2.2-7.02-9.28-7.63-10.06-7.88c-2.17,18.68,4.76,20.34,4.76,20.34l0.5-3.02c0,0,5.8,10.79,7.75,13.86
			c-0.85-0.71-2.25-1.44-3.35-1.74c-1.1-0.31-7.08,0.18-16.78-1.34C538.04,507.32,537.68,509.85,537.68,509.85z"/>
		<g>
			<path class="st15" d="M536.9,503.73l1.61,0.95c0,0-0.06-2.8,0.25-3.89c0.19-0.68-0.83-1.05-1.29-0.15
				C536.91,501.71,536.9,503.73,536.9,503.73z"/>
			<path class="st12" d="M537.54,503.42c0,0-0.43,1.46-0.84,1.44c-0.45-0.02-0.62-2.42-0.62-2.42s-0.09-3.08-0.16-4.26
				c-0.04-0.69,0.6-1.16,0.91-0.32C537.28,499.1,537.54,503.42,537.54,503.42z"/>
			<path class="st12" d="M538.06,503.24c0,0-0.44,1.68-0.84,1.66c-0.45-0.02-0.62-2.42-0.62-2.42s0.2-2.99,0.13-4.17
				c-0.04-0.69,0.6-1.09,0.81-0.25C537.86,499.33,538.06,503.24,538.06,503.24z"/>
			<path class="st12" d="M536.66,503.35c0,0,1.15-1.21,1.39-0.34c0.25,0.87,1.31,4.85,1.31,4.85s-0.01,2.55-1.68,1.98
				c-1.68-0.57-2.69-3.62-2.69-5.17c0-0.81,0.23-1.4,0.23-1.4s-0.15-4.41-0.09-4.8c0.14-1.04,1.03-0.79,1.14,0.02
				C536.62,500.98,536.66,502.15,536.66,503.35z"/>
		</g>
		<g>
			<path class="st15" d="M533.54,503.73l-1.61,0.95c0,0,0.06-2.8-0.25-3.89c-0.19-0.68,0.83-1.05,1.29-0.15
				C533.53,501.71,533.54,503.73,533.54,503.73z"/>
			<path class="st12" d="M532.89,503.42c0,0,0.43,1.46,0.84,1.44c0.46-0.02,0.62-2.42,0.62-2.42s0.09-3.08,0.16-4.26
				c0.04-0.69-0.6-1.16-0.91-0.32C533.15,499.1,532.89,503.42,532.89,503.42z"/>
			<path class="st12" d="M532.37,503.24c0,0,0.44,1.68,0.84,1.66c0.45-0.02,0.62-2.42,0.62-2.42s-0.2-2.99-0.13-4.17
				c0.04-0.69-0.6-1.09-0.81-0.25C532.58,499.33,532.37,503.24,532.37,503.24z"/>
			<path class="st12" d="M533.78,503.35c0,0-1.14-1.21-1.39-0.34c-0.25,0.87-1.31,4.85-1.31,4.85s-0.09,2.48,1.63,2.02
				c1.72-0.45,2.74-3.66,2.74-5.22c0-0.81-0.23-1.4-0.23-1.4s0.15-4.41,0.09-4.8c-0.14-1.04-1.03-0.79-1.14,0.02
				C533.82,500.98,533.78,502.15,533.78,503.35z"/>
		</g>
	</g>
</g>
<g>
	<g>
		<path class="st0" d="M625,424H455c-6.6,0-12,5.4-12,12v209c0,6.6,5.4,12,12,12h170c6.6,0,12-5.4,12-12V436
			C637,429.4,631.6,424,625,424z"/>
	</g>
	<g>
		<g>
			<path class="st1" d="M623.31,647.01l-165.44-1.14c-0.75-0.01-1.15-1.26-0.64-2.03l9.98-15.25c1.02-1.57,2.47-2.46,4-2.46h140.6
				c1.66,0,3.23,1.03,4.3,2.81l8.5,14.24C625.52,644.7,624.74,647.02,623.31,647.01z"/>
		</g>
		<g class="st16">
			<path class="st1" d="M604.22,628.37c0,0,11.06,1.26,12.33,4.5c1.27,3.25-24.55,5.31-24.55,5.31s-126.77,9.15-127.2,5.9
				c-0.42-3.25,2.54-15.8,6.56-15.72S604.22,628.37,604.22,628.37z"/>
		</g>
		<g>
			<g>
				<path class="st17" d="M562.91,529.56c0,0-0.41-4.13,0-6.35s1.04-5.61,1.04-5.61s1.27-18.74,1.16-20.66
					c-0.11-1.92,0.95-5.61,0.63-6.35c-0.32-0.74-5.93-18.89-6.24-19.19c-0.32-0.3-8.57-25.68-8.57-25.68s-1.8-4.72-2.54-4.72
					c-0.74,0-1.27,2.36-1.27,2.36s-0.85,0.44-0.53,1.48c0.32,1.03,2.75,9.59,2.75,9.59l2.86,9.3l3.96,13.73v47.82L562.91,529.56z"/>
			</g>
			<g>
				<path class="st18" d="M589.6,587.41c0,0-1.83,4.13-1.83,5.51c0,1.38,0.14,7.67,0.92,10.82c0.78,3.15,2.47,16.53,2.47,17.12v2.86
					c0,0.85-0.05,1.7-0.15,2.53l-0.56,4.84c0,0-0.56,1.57,0.71,1.97c1.27,0.39,3.1,0.59,5.78,0c1.98-0.43,5.02,0.52,6.49,1.05
					c0.62,0.22,1.24,0.35,1.88,0.38c1.88,0.09,5.7,0.24,6.02-0.05c0.42-0.39,1.41-1.77,0.56-1.97c-0.85-0.2-4.37-2.56-4.37-2.56
					l-6.15-2.89c-1.17-0.55-2.21-1.56-2.96-2.94c-0.78-1.45-1.55-3.52-1.48-5.98c0.14-4.92,0.56-36.01,0.56-36.01L589.6,587.41z"/>
			</g>
			<g>
				<path class="st19" d="M509.59,609.85h-4.09c0,0-5.22,1.97-5.93,2.56c-0.71,0.59-11.85,10.23-11.85,10.23s-4.37,3.15-4.8,3.35
					s-3.67,2.56-3.67,2.56l-1.83,1.57c0,0-0.99-1.18-1.55,0c-0.56,1.18-2.12,6.69-2.12,6.69s-1.55,5.31,0,5.51
					c1.55,0.2,5.64,0,5.64,0s1.98-1.57,2.12-2.36c0.14-0.79,0.42-5.31,0.42-5.31s1.13,0.59,1.55,0.2c0.42-0.39,1.69-2.76,2.82-3.54
					c1.13-0.79,9.31-5.23,10.86-5.17c1.55,0.05,6.35-2.31,7.9-3.68c1.55-1.38,5.08-3.35,5.08-3.35L509.59,609.85z"/>
			</g>
			<g>
				<defs>
					<path id="SVGID_1_" d="M557.6,494.36c0,0-2.65-0.96-3.17-0.96c-2.21,0-5.79,2.75-5.79,2.75c-0.34,0.33-0.8,0.81-1.3,1.45
						c-1.16,1.48-2.09,3.23-2.54,4.51c-1.71,4.8,0.79,9.89-0.75,11.36c-0.69,0.65-1.62,0.08-2.02,1.03c-0.19,0.44-0.13,1.33,0,2.36
						c0.13,1.03,0.02,1.92,0.76,2.21c0.74,0.3,0.26,2.36,1.34,2.66c1.09,0.3,1.58,1.18,2.39,0c0.81-1.18,1.32-2.07,1.01-3.39
						c-0.31-1.33,0.54-1.48,0.54-1.48s0.27,1.68,1.16,2.36s2.97,2.51,2.97,2.51L557.6,494.36z"/>
				</defs>
				<use xlink:href="#SVGID_1_"  style="overflow:visible;fill:#5B453B;"/>
				<clipPath id="SVGID_2_">
					<use xlink:href="#SVGID_1_"  style="overflow:visible;"/>
				</clipPath>
				<g class="st20">
					<g>
						<g>
							<path class="st21" d="M544.16,512.44c0.32-0.25,0.6-0.26,0.85-0.21c0.13,0.03,0.24,0.08,0.36,0.15
								c0.11,0.07,0.21,0.17,0.28,0.32c0.15,0.3,0.2,0.76,0.35,1.01c0.15,0.26,0.36,0.39,0.64,0.49c0.13,0.06,0.27,0.11,0.39,0.2
								c0.12,0.08,0.21,0.19,0.31,0.3c0.19,0.22,0.38,0.45,0.5,0.75c0.11,0.3,0.18,0.64,0.2,1.01c0.01,0.37,0,0.78-0.16,1.2
								l-0.14,0.06c-0.58-0.31-0.93-0.64-1.21-1.08c-0.13-0.22-0.2-0.49-0.28-0.77c-0.04-0.14-0.09-0.26-0.11-0.42
								c-0.03-0.15-0.04-0.32-0.07-0.49c-0.04-0.34-0.16-0.63-0.36-0.76c-0.2-0.14-0.51-0.05-0.73-0.09
								c-0.11-0.02-0.2-0.09-0.28-0.18c-0.08-0.09-0.16-0.19-0.23-0.31c-0.14-0.25-0.26-0.53-0.36-1L544.16,512.44z"/>
						</g>
					</g>
				</g>
			</g>
			<g>
				<g>
					<path class="st19" d="M568.28,555.23c0-0.01,0.02-0.22,0.05-0.51c0.02-0.17,0.03-0.34,0.05-0.51
						c-2.58,1.02-5.46,2.09-7.07,2.51c-2.75,0.72-6.64,1.25-11.59,0.41c0.08,1.74,0.04,3.48-0.13,5.33
						c-0.43,4.59-2.5,8.54-4.73,11.97c-0.34,0.53-0.72,1.12-0.72,1.83c0,0.44,0.14,0.86,0.3,1.25c1.58,3.86,4.8,5.85,7.94,6.66
						c3.68,0.95,7.53,0.59,11.08-1.02c1.48-0.67,4.19-2.28,4.45-4.91c0.13-1.27-0.41-1.91-1.03-4.39c-0.2-0.82-0.9-3.6-0.85-6.49
						C566.11,562.6,568.22,555.98,568.28,555.23z"/>
				</g>
				<g>
					<path class="st21" d="M561.31,556.71c1.61-0.42,4.49-1.49,7.07-2.51c0.18-1.96,0.42-3.93,1-5.73c0.34-1.04,0.43-2.13,0.46-3.27
						c0.03-1.04,0.07-1.95-0.25-2.89c-1.43-4.16-3.39-8.11-4.82-12.27c-0.89-2.59-1.9-4.82-3.64-6.09c0.04,0.23,0.08,0.49,0.1,0.78
						c0.04,0.39,0.05,0.75,0.04,1.06c-0.04,0.23-0.11,0.36-0.18,0.43c-0.39,0.4-1.31-0.2-2.33-1.46c0.95,5.61,0.22,11.73-1.98,16.61
						c-0.83,1.84-2.12,3.66-3.67,3.45c-0.69-0.09-1.33-0.6-1.87-1.2c-2.02-2.21-3.08-5.8-3.32-9.36c-0.17-2.43,0.83-8.05,1.11-10.3
						c-1.5,1.86-2.57,5.8-2.47,8.39c0.25,6.37,1.48,13.14,2.54,19.35c0.32,1.86,0.53,3.64,0.61,5.42
						C554.67,557.96,558.56,557.43,561.31,556.71z"/>
				</g>
			</g>
			<g>
				<path class="st18" d="M560.14,515.46c0.05,0.44,2.22,0.81,3.33,1.03c0.88,0.18,2.73-0.58,3.45-0.9c0.05-0.69-0.37-1.87-0.62-2.5
					c-0.29-0.74-0.19-0.44-0.1-0.96c0.09-0.52,0.18-0.66,0-1.03c-0.18-0.37-0.67-0.37-0.67-0.37s0,0,0.27-0.66
					c0.27-0.66-0.06-0.59-0.32-0.74c-0.26-0.15-0.42-0.89-0.42-0.89s0-0.74,0.75-1.48c0.75-0.74,0.26-1.62,0-1.84
					c-0.26-0.22-1.65-1.4-2.12-1.99s-0.48-2.51-0.78-2.95c-0.12-0.17-0.52-0.75-0.95-1.38l-0.86,5.52
					C561.09,504.32,560.09,515.02,560.14,515.46z"/>
			</g>
			<g>
				<path class="st19" d="M559.14,463.46c0-0.01,0-0.03,0-0.03C559.13,463.57,559.14,463.55,559.14,463.46z"/>
			</g>
			<g>
				<path class="st22" d="M557.85,522.47c0.14,0.89,1.2,2.56,1.69,4.03c0.02,0.05,0.03,0.11,0.04,0.19l1.88,0.28
					c0,0-0.23-1.84-0.34-3.02c-0.11-1.17,1.66-4.51,2.08-5.47c0.42-0.96,2.17-1.25,2.6-1.4c0.43-0.15,0.79-0.59,1.05-1.18
					c0.04-0.08,0.06-0.19,0.07-0.31c-0.72,0.32-2.57,1.07-3.45,0.9c-1.11-0.22-3.28-0.59-3.33-1.03s0.95-11.14,0.95-11.14l0.86-5.52
					c-0.17-0.24-0.34-0.49-0.5-0.72C560.4,504.86,557.73,521.75,557.85,522.47z"/>
			</g>
			<g>
				<path class="st19" d="M562.86,486.16c0.07-0.87-3.58-21.92-3.72-22.7c-0.01,0.09-0.01,0.11,0-0.03c0,0,0,0.01,0,0.03
					c0.02-0.26,0.05-1.14,0.01-1.49c-0.04-0.42-0.2-0.99-0.71-1.63c0,0-0.05-3.47-0.21-4.72c-0.16-1.25-1.9-4.21-1.9-4.21
					s-1.06-2.51-1.22-2.66c-0.16-0.15-2.12-3.76-2.59-3.98c-0.48-0.22-0.69,0.89-0.69,0.89c-0.45-0.91-0.89-1.81-1.34-2.72
					c0.32,0.47,0.39,0.58,0.39,0.58c0.01-0.01-0.82-1.48-1.38-1.48c-0.48,0-0.58,1.55-0.74,1.11s-0.58-0.59-0.95-0.37
					c-0.43,0.26-0.23,1.92-0.21,2.07c0.45,3.65,3.42,4.74,4.02,8.27c0.15,0.89,0.12,1.72,0.11,1.99c-0.04,0.87-0.11,2.36-0.69,2.73
					c-0.4,0.25-0.66-0.26-1.88-0.41c-0.49-0.06-0.85-0.1-0.92,0.12c-0.04,0.12-0.05,0.43,1.32,2.07c1.18,1.4,1.76,2.12,2.59,2.58
					c0.53,0.3,2.03,0.66,2.03,0.66c0.36,1.78,0.84,4.54,1.07,7.97c0.3,4.33-0.05,6.75,0,11.91c0.02,1.77,0.34,10.43,0.34,10.43
					s-0.28,4.72-0.34,5.12s-1.85,10.73-1.85,10.73s-2.75,9.05-2.89,9.64c-0.14,0.59-2.54,8.27-2.54,8.27l-0.37,11.71l4.68,8.07
					l6.42-4.53c0,0,1.09-11.56,0.94-14.88c-0.01-0.23-0.03-0.43-0.05-0.57c-0.01-0.07-0.03-0.14-0.04-0.19
					c-0.49-1.48-1.55-3.15-1.69-4.03c-0.11-0.72,2.55-17.61,3.61-24.39c0.19-1.22,0.33-2.11,0.38-2.52
					c0.02-0.12,0.03-0.21,0.03-0.24c0.07-0.79,0.85-3.15,0.99-3.74S562.79,487.05,562.86,486.16z"/>
			</g>
			<g>
				<path class="st4" d="M561.31,556.71c1.61-0.42,4.49-1.49,7.07-2.51c0.18-1.96,0.42-3.93,1-5.73c0.34-1.04,0.43-2.13,0.46-3.27
					c0.03-1.04,0.07-1.95-0.25-2.89c-1.43-4.16-3.39-8.11-4.82-12.27c-0.89-2.59-1.9-4.82-3.64-6.09c0.04,0.23,0.08,0.49,0.1,0.78
					c0.04,0.39,0.05,0.75,0.04,1.06c-0.04,0.23-0.11,0.36-0.18,0.43c-0.39,0.4-1.31-0.2-2.33-1.46c0.95,5.61,0.22,11.73-1.98,16.61
					c-0.83,1.84-2.12,3.66-3.67,3.45c-0.69-0.09-1.33-0.6-1.87-1.2c-2.02-2.21-3.08-5.8-3.32-9.36c-0.17-2.43,0.83-8.05,1.11-10.3
					c-1.5,1.86-2.57,5.8-2.47,8.39c0.25,6.37,1.48,13.14,2.54,19.35c0.32,1.86,0.53,3.64,0.61,5.42
					C554.67,557.96,558.56,557.43,561.31,556.71z"/>
			</g>
			<g>
				<g>
					<path class="st3" d="M567.87,582.1c0.73-1.21,1.22-2.85,1.53-4.25c-0.15,0.04-0.28,0.08-0.37,0.1c-1-3.54-1.99-7.07-2.99-10.61
						c-5.77-0.22-11.55-0.44-17.32-0.66c-0.28,1.26-0.81,2.99-1.9,4.46c-0.95,1.27-1.6,1.38-3.28,2.84
						c-0.61,0.53-2.18,1.92-3.49,3.84c-0.82,1.2-2.01,3.28-2.86,6.58c-3.51,4.35-6.61,7.99-9.09,10.83
						c-5.89,6.75-8.4,9.13-11.71,11.07c-2.14,1.26-3.99,1.96-5.22,2.36c-0.99-0.2-2.96,0.01-2.96,0.01s-2.82,5.3-1.69,8.25
						s1.83,3.94,1.83,3.94s0.42,0,1.69,0c1.27,0,2.12-1.18,2.96-1.18s1.83,0,2.82-0.2s1.27-0.59,2.54-0.79
						c1.4-0.22,5.83-1.56,6.49-1.77c3.4-1.09,5.39-4.87,10.92-9.1c0,0,4.97-3.8,14.33-6.84c0.5-0.16,1.08-0.33,1.74-0.48
						C558.27,593.36,566.91,583.68,567.87,582.1z"/>
				</g>
				<g>
					<path class="st3" d="M598.2,583.67l-0.71-1.57c0,0-0.71-6.3-2.26-7.08c-1.92-0.97-3.58-1.67-4.8-1.57
						c-6.01,0.49-15.22,2.83-19.42,3.96c-0.05,0.79-0.15,1.59-0.33,2.34c-0.85,3.54-9.17,14.96-6.63,16.33
						c2.54,1.38,22.01-10.23,24.55-9.21c1.85,0.75,0.68,2.97-0.1,4.12c1.76,0.19,3.06-0.25,3.93-0.72
						C594.75,589.01,599.97,581.24,598.2,583.67z"/>
				</g>
				<g>
					<path class="st3" d="M588.61,586.87c-2.54-1.03-22.01,10.58-24.55,9.21c-2.54-1.38,5.78-12.79,6.63-16.33
						c0.18-0.75,0.28-1.54,0.33-2.34c-0.69,0.19-1.24,0.34-1.63,0.44c-0.31,1.4-0.79,3.05-1.53,4.25
						c-0.96,1.58-9.6,11.27-16.04,18.42c0.84-0.18,1.81-0.32,2.92-0.31c1.81,0.01,3.14,0.39,3.56,0.49
						c3.78,0.98,9.25-0.4,12.67-1.87c5.78-2.48,6.63-5.6,13.4-7.87c1.6-0.54,2.94-0.82,3.81-0.98v0.98
						c0.11,0.02,0.22,0.02,0.33,0.04C589.29,589.83,590.45,587.61,588.61,586.87z"/>
				</g>
			</g>
		</g>
	</g>
</g>
<g>
	<g>
		<path class="st0" d="M625,424H455c-6.6,0-12,5.4-12,12v209c0,6.6,5.4,12,12,12h170c6.6,0,12-5.4,12-12V436
			C637,429.4,631.6,424,625,424z"/>
	</g>
	<g>
		<path class="st1" d="M612.75,644.12l-152.41-0.59c-0.7,0-1.06-0.65-0.59-1.05l9.19-7.84c0.94-0.81,2.28-1.26,3.68-1.26h129.53
			c1.53,0,2.98,0.53,3.96,1.44l7.83,7.32C614.79,642.93,614.07,644.12,612.75,644.12z"/>
	</g>
	<g>
		<g>
			<path class="st19" d="M592.41,512.29l6.18-2.35c0,0,5.38,1.7,5.38,2.35s-4.97-0.74-4.97-0.74l-3.85,1.65L592.41,512.29z"/>
			<path class="st19" d="M531.49,507.75c0,0-0.11,0.82-9,0.82c-8.89,0-15.06,0.72-20.5,0c-5.44-0.72-12.55,1.01-18.2,1.01
				c-5.65,0-7.48,1.95-10.41,2.38c-2.93,0.43-7.48-1.23-8.11-0.36c-0.63,0.87,4.81,1.95,6.12,1.95s1.99,0,1.99,0s-6.33,0.58-7.84,0
				c-1.52-0.58,0.47,1.66,1.99,2.02c1.52,0.36,6.59,0,6.59,0s-1.15,1.01-2.09,1.37c-0.94,0.36,0.63,1.15,2.04,0.72
				c1.41-0.43,3.56-3.47,4.97-3.47c1.41,0,22.85,1.88,28.71,1.88c5.86,0,14.9,1.95,15.69,3.03c0.78,1.08,7.63,1.59,7.63,1.59
				L531.49,507.75z"/>
			<path class="st19" d="M489.45,587.39c1.73,12.37,5.46,40.9,3.5,43.61c-2.51,3.47-10.98,5.2-10.98,5.2h17.15c0,0,0-4.26-0.73-6.57
				c-0.73-2.31,1.46-28.39,2.1-32.27c0.76-4.61-2.44-9.85-2.44-9.85s0.03-0.01,0.09-0.02c-2.78-1.94-5.56-3.75-8.2-5.31
				C489.39,583.76,489.19,585.58,489.45,587.39z"/>
			<path class="st3" d="M525.26,559.09c0,0-21.95,11.21-32.78,19.38c-1.14,0.86-2.01,2.17-2.55,3.71c2.64,1.56,5.42,3.37,8.2,5.31
				c1.65-0.3,26.2-4.81,34.19-13.3C534.9,571.44,525.26,559.09,525.26,559.09z"/>
			<path class="st3" d="M535.3,559.09l-12.58,1.32l9.6,13.77c0,0,21.34,26.53,32.94,33.1l3.61-7.62c0,0-20.29-37.25-25.99-41.01
				L535.3,559.09z"/>
			<path class="st3" d="M523.78,561.93c3.34,4.26,8.79,11.77,8.85,11.85l-0.02-0.03c7.43,8.76,23.19,26.89,31.92,33.1
				c-10.88-6.46-24.05-21.32-32.49-32.23c-1.16-1.74-2.16-3.25-2.11-3.16C529.88,571.37,525.72,565.06,523.78,561.93z"/>
			<path class="st19" d="M565.27,607.29c1.27,3.54,23.45,16.35,24.55,19.6c1.1,3.25,1.8,9.31,2.67,9.31c0.86,0,6.12,1.62,6.12,0
				s-4.75-9.26-6.9-12.24c-2.16-2.98-20-23.46-22.83-24.29C568.88,599.67,564.49,605.1,565.27,607.29z"/>
			<path class="st4" d="M540.84,506.91c0,0-6.54-0.77-13.91,1.57c0,0-6.85,15.38-6.85,17.84c0,2.46,4.06,12.28,4.71,17.47
				c0.94,7.54-2.07,16.63-2.07,16.63s2.59,5.61,10.12,4.02c7.53-1.59,10.04-5.78,10.04-5.78s-4.39-8.52-5.75-14.15
				s4.58-22.97,4.58-22.97L540.84,506.91z"/>
			<path class="st4" d="M542.89,558.66c0,0-4.39-8.52-5.75-14.15s4.58-22.97,4.58-22.97l-0.16-2.68c-1.44,2.32-3.02,4.46-4.61,5.87
				c0,0-0.99,15.79-3.51,19.26c-2.52,3.47,6.55,12.81,6.55,17.49c0,0,0,0,0,0C542.07,560.02,542.89,558.66,542.89,558.66z"/>
			<path class="st19" d="M540.48,506.97c0,0-1.72,10.51,1.23,14.58c0,0,16.76-3.17,20.32-3.17c3.56,0,12.45-0.14,14.85-0.72
				c2.41-0.58,10.77-1.56,12.76-1.56c1.99,0,2.75,0.22,4.32,0.22s1.96-0.25,3.16-0.25s0.42-1.81-1.2-1.81c-1.62,0-1.81,0.54-2.2,0
				c-0.39-0.54,5.54-0.57,8.21-0.57c2.67,0,2.48,0.97,3.03,0.22s-4.55-2.31-4.55-2.31s-4.92-0.14-7.11-0.14
				c-2.2,0-19.92,1.59-25.41,0.14C562.39,510.14,542.73,506.39,540.48,506.97z"/>
			<path class="st19" d="M566.43,604.53c-0.44,1.12-0.09,2.53,0.75,3.04c0.55,0.34,1.18,0.42,1.69-0.29
				c0.19-0.27,0.35-0.6,0.45-0.96C570.07,603.8,567.37,602.13,566.43,604.53z"/>
			<path class="st19" d="M534.86,519.23c1.63-1.47,2.42-8.96,2.41-12.43c-2.29,0.05-5.48,0.33-8.93,1.27
				c-1.25,2.89-4.34,10.24-3.74,11.06C525.34,520.16,531.51,522.25,534.86,519.23z"/>
			<path class="st23" d="M530.54,490.7c0.86,2.37-1.53,5.94-2.95,5.71l0.1-0.62c1,0.3,3.5-2.7,2.79-5.04L530.54,490.7z"/>
			<path class="st23" d="M530.5,485.43c0.37-1.56,0.9-4.82-0.24-4.86c-1.1-0.27-0.62,2.77,0.53,2.15c0.49-0.27,0.75-1.12,0.72-1.86
				c-0.09-2.29-3.2-3.05-3.03-0.78l-0.81-0.2c0.55-3.85,5.3-1.16,3.95,2.29c-0.44,1.1-1.24,1.24-1.71,0.7
				c-0.77-0.85-0.64-2.87,0.37-2.61c1.32,0.08,0.82,3.41,0.39,5.25L530.5,485.43z"/>
			<path class="st19" d="M533.08,492.61c0,0-4.06,11.76-3.29,16.17c0.43,2.48,1.88,3.45,3.07,3.83c0.89,0.28,1.75-0.61,1.89-1.9
				c0.35-3.34,1.11-9.7,2.18-12.2C538.4,495.03,533.08,492.61,533.08,492.61z"/>
			<path class="st19" d="M533.08,492.61c0,0-0.37,1.07-0.87,2.69c0.21,2.55,0.71,5.44,1.63,8.62c0.44,1.51,0.86,2.69,1.26,3.6
				c0.41-3.27,1.03-7.18,1.82-9.02C538.4,495.03,533.08,492.61,533.08,492.61z"/>
			<path class="st19" d="M533.19,484.27c0.57-1.13,2.06-2.42,3.72-2.94c3.59-1.12,6.55,3.71,5.68,9.11
				c-0.08,0.49-0.19,0.96-0.34,1.39c-0.97,2.71,0.14,5.01,0.14,5.01s-0.25,0.63-0.78,0.58c-0.53-0.05-0.56,0.31-0.52,0.83
				c0.05,0.52,0.19,0.68-0.02,0.96c-0.21,0.28-0.73,0.17-0.73,0.17s0.17,0.85-0.05,1.15c-0.23,0.3-0.42,0.17-0.42,0.17
				s-0.51,0.08-0.53,0.57c-0.02,0.49-0.35,0.9-0.6,1.18c-0.36,0.4-2.4,2.11-4.89-4.34C531.35,491.68,531.9,486.84,533.19,484.27z"/>
			<path class="st24" d="M542.29,491.17c0,0-1.43-1.04-2.93,0.65c0,0,1.62-0.92,2.66-0.29L542.29,491.17z"/>
			<path class="st24" d="M541.39,492.85c0,0-0.13,0.74-0.39,0.86c-0.27,0.12-0.41-0.07-0.41-0.07L541.39,492.85z"/>
			<path class="st25" d="M540.1,492.34c0,0,0.98,0.34,1.57,0.79c0.59,0.45,0.89,0.34,0.89,0.34s-0.7-0.34-1.22-0.8
				C540.81,492.2,540.1,492.34,540.1,492.34z"/>
			<path class="st25" d="M539.38,498.15c0.22,0.54,0.57,0.97,0.97,1.23c-0.42-0.2-0.81-0.57-1.1-1.13
				c-0.02-0.05-0.02-0.11,0.02-0.15c0.03-0.03,0.08-0.02,0.1,0.02c0,0,0,0.01,0,0.01L539.38,498.15z"/>
			<path class="st23" d="M528.36,481.38c0,0-1.88-2.27-2.98-1.49c-1.1,0.78-1.07,2.68-1.07,2.68s-0.55-1.41-1.48,1.82
				c-0.93,3.23,3.12,12.33,6.82,8.03C533.35,488.14,528.68,481.68,528.36,481.38z"/>
			<path class="st24" d="M530.39,489.58c-0.92-1.1-2.85-2.77-3.22-1.2c-0.65,2.32,1.43,3.95,1.63,2.12
				c0.28-1.61-2.05-2.37-2.64-1.24c-0.69,1.27-0.03,3.45,1.41,3.16l0.06,0.86c-2.78,0.38-2.94-5.09-0.8-5.25
				c1.2-0.09,2.72,0.96,2.37,2.6c-0.08,0.57-0.4,1.15-0.9,1.22c-0.49,0.04-0.82-0.35-1.07-0.7c-0.92-1.32-0.48-3.24,0.05-3.63
				c0.92-0.72,2.48,0.85,3.25,1.82L530.39,489.58z"/>
			<path class="st24" d="M538.05,478.45c-3.79-1.43-5.54,2.82-7.36,6.71c-1.83,3.89,1.56,9.43,1.91,8.9c0,0,2.57-4.53,3.97-3.92
				c1.4,0.6,6.17-1.88,6.17-1.88C544.85,485.29,541.85,479.87,538.05,478.45z"/>
			<path class="st19" d="M536.57,490.13c0,0,1.01-1.15-0.3-2.4c-1.31-1.25-2.19,2.11-1.63,3.48
				C535.19,492.58,536.57,490.13,536.57,490.13z"/>
			<path class="st19" d="M536.06,490.1c0,0,0.84-1.43,0.16-1.65c-0.68-0.21-1.58,1.33-1.2,1.93
				C535.4,490.99,536.06,490.1,536.06,490.1z"/>
		</g>
		<path class="st19" d="M591.86,635.2c0,0-0.39,1.2,0.31,1.46c0.71,0.26,1.32,0,1.32,0s1.2,0.82,1.71,0.12c0,0,0.25,0.28,0.81,0.28
			s0.57,0,0.57,0s0.14,0,0.53,0s0.58-0.17,0.58-0.17s0.46,0.08,0.67-0.22c0.21-0.3-0.01-0.66-0.4-0.66c-0.39,0-0.35,0.39-0.35,0.39
			s-0.21-0.39-0.67-0.39c-0.46,0-0.5,0.24-0.5,0.24s-1.13-0.72-1.29-0.24c0,0-0.9-0.93-1.33-0.35
			C593.82,635.67,592.45,634.38,591.86,635.2z"/>
	</g>
</g>
<g>
	<g>
		<path class="st0" d="M625,424H455c-6.6,0-12,5.4-12,12v209c0,6.6,5.4,12,12,12h170c6.6,0,12-5.4,12-12V436
			C637,429.4,631.6,424,625,424z"/>
	</g>
	<g>
		<path class="st1" d="M614.75,589.12l-152.41-0.59c-0.7,0-1.06-0.65-0.59-1.05l9.19-7.84c0.94-0.81,2.28-1.26,3.68-1.26h129.53
			c1.53,0,2.98,0.53,3.96,1.44l7.83,7.32C616.79,587.93,616.07,589.12,614.75,589.12z"/>
	</g>
	<g>
		<g>
			<path class="st17" d="M490.92,525.97c0,0-2.73,0.3-3.41,0c-0.68-0.3-14.82-4.87-15.7-4.75c-0.88,0.12-0.97,0.41-1.95,0
				s-6.43-3.82-6.04-4.2c0.39-0.38,8.87,0.46,9.16,0.76c0.29,0.3,1.08,0.83,1.98,0.99c0.9,0.15,14.4,2.75,14.4,2.75l3.61,3.09
				L490.92,525.97z"/>
		</g>
		<g>
			<path class="st18" d="M488.87,524.96c0,0,1.34,2.75,4.81,2.79c2.14,0.02,2.79,1.06,3.12,1.01s0.78-0.56,1.23-0.56
				s0.91,0.4,1.04,0.25c0.13-0.15,0.58,0.05,0.58,0.05s0.39-0.51,1.3-0.51c0.58,0.15,0.97,0.35,1.36,0.05
				c0.39-0.3,1.1-2.48,0.78-2.78c-0.32-0.3,1.13-0.17,2.02,0.04c0.9,0.21,2.4,0.62,2.4,0.62l-0.45-4.6l-7.99-1.87l-3.12,1.92
				c0,0-0.13,0.46,0.45,0.76c0.58,0.3,1.04,0.61,1.04,0.61s-1.69-0.2-2.08-0.2c-0.39,0-2.53,0.4-2.92,0.56
				c-0.39,0.15-0.71-0.3-1.3-0.15C490.56,523.09,488.87,524.96,488.87,524.96z"/>
		</g>
		<g>
			<path class="st26" d="M489.16,525.42c0,0-1.33-0.21-2.18-2.89c-0.84-2.68,1.88-5.67,3.25-6.17c1.36-0.51,6.24-0.61,6.24-0.61
				c-0.15-0.1-0.33-0.25-0.31-0.42c0.02-0.23,0.39-0.3,0.69-0.54c0.53-0.42,0.21-0.88,0.53-1.26c0.53-0.63,2.48-0.76,3.72-0.04
				c1,0.58,1.18,1.5,1.22,1.78c0.09,0.66-0.18,1.18-0.32,1.44c-1.1,2.04-5.57,4.4-6.04,4.65c0.25,0.03,0.72,0.11,1.15,0.39
				c0.41,0.27,0.79,0.74,0.63,0.91c-0.1,0.1-0.38,0.06-0.54,0.03c-0.25-0.04-3.01-0.43-4.28,0.27c-0.17,0.09-0.58,0.35-0.84,0.25
				c-0.1-0.04-0.1-0.1-0.19-0.16c-0.28-0.2-0.91-0.01-1.06,0.04C489.74,523.44,489.19,525.33,489.16,525.42z"/>
		</g>
		<g>
			<path class="st19" d="M505.19,521.22l-18.96-0.41c0,0-13.16-2.5-14.04-2.43c-0.88,0.08-3.9-0.08-4.87,0
				c-0.97,0.08-2.63-0.3-3.61-0.76s-1.85-0.76-1.56-0.99s-0.41-0.76-0.06-0.76c0.35,0,1.23-0.38,1.23-0.38l4.09-0.38
				c0,0,4,1.21,4.58,1.06c0.58-0.15,14.82-0.38,15.5-0.23c0.68,0.15,4.87,0.76,5.56,0.76s12.38-1.29,13.45-0.99
				c1.07,0.3,3.02,2.61,2.14,3.73C507.78,520.58,505.19,521.22,505.19,521.22z"/>
		</g>
		<g>
			<g>
				<path class="st19" d="M537.92,549.49c-0.17,0.56-0.35,1.36-0.11,1.83c0.39,0.76-0.98,4.3-0.82,4.91
					c0.17,0.61-0.74,11.23-0.74,11.23s-1.04,6.32-1.43,6.78c-0.39,0.46-1.56,1.67-2.08,1.87c-0.52,0.2-4.35,1.06-4.87,1.21
					c-0.52,0.15-5.33,0.71-5.65,1.32c-0.32,0.61,5.59,0.51,5.59,0.51s5.39-0.19,7.6,0.01c2.21,0.2,5.33,0.9,6.24,0.45
					c0.91-0.46-0.45-4.76,0.39-7.34s3.38-9.56,3.77-10.98s0.2-3.79,0.78-7.08c0.27-1.54,0.63-2.84,0.92-3.88
					c-0.54,0.34-1.1,0.54-1.7,0.54C541.98,550.85,539.27,550.03,537.92,549.49z"/>
			</g>
			<g>
				<path class="st18" d="M616.18,521.72c-0.58-0.38-4.39-2.58-4.58-3.41c-0.19-0.83-0.29-2.96-2.73-3.57
					c-2.44-0.61-4.48,2.43-6.04,2.58c-1.56,0.15-11.21,1.21-12.09,1.29c-0.88,0.08-6.73,0.15-7.8,0.38s-6.43,2.12-7.12,2.28
					c-0.68,0.15-1.66,0.23-2.73,0.53c-0.38,0.11-0.81,0.25-1.24,0.39c0.52,0.65,1.09,1.32,1.63,1.91c0.4,0.43,0.67,0.96,0.86,1.53
					c0,0,0,0,0,0c0.34,0.6,0.47,1.67,0.51,2.74c0.15-0.04,0.28-0.08,0.38-0.12c0.68-0.3,5.17-2.05,5.95-2.2
					c0.78-0.15,11.89-2.96,11.89-2.96s8.68-1.14,11.31-1.44c2.63-0.3,6.53,1.21,7.02,1.29c0.49,0.08,3.61,1.01,5.07,2.02
					s1.95,2.68,2.63,1.93C619.79,526.12,616.77,522.1,616.18,521.72z"/>
			</g>
			<g>
				<path class="st1" d="M574.35,525.73c-0.05,0-0.1-0.02-0.12-0.06c-0.34-0.61-1.21-1.79-2.49-3.42c-0.02-0.03-0.03-0.06-0.01-0.09
					c0.01-0.03,0.04-0.05,0.08-0.06c0.06-0.02,0.14,0,0.17,0.04c0.6,0.74,1.14,1.38,1.62,1.9l0,0c0.38,0.41,0.67,0.93,0.89,1.56
					c0.02,0.05-0.02,0.11-0.09,0.13C574.38,525.73,574.37,525.73,574.35,525.73z"/>
			</g>
			<g>
				<path class="st3" d="M552.17,522.78c-0.74-1.1-3.09-2.26-4.97-3.05c-3.72-0.14-8.71,0.62-8.71,0.62l-1.17,0.08
					c-0.62,0.29-3.22-0.16-3.8,0.79c-0.58,0.95,1.36,10.97,2.24,11.5c0.88,0.53,1.27,8.73,2.05,9.79c0.78,1.06,0.32,6.37,0.32,6.37
					s-0.11,0.25-0.22,0.6c1.36,0.54,4.06,1.36,7.88,1.37c0.6,0,1.17-0.19,1.7-0.54c0.33-1.18,0.58-2.01,0.51-2.44
					c-0.13-0.81,3.15-16.14,3.15-16.14s0.08,0,0.2,0.01c0.52-1.43,1.28-3.51,1.45-3.9C553.08,527.24,553.47,524.71,552.17,522.78z"
					/>
			</g>
			<g>
				<path class="st27" d="M574.35,525.63c0.32,0.94,0.39,1.97,0.39,2.77c0.04-0.01,0.08-0.02,0.12-0.03
					C574.82,527.3,574.69,526.23,574.35,525.63C574.35,525.63,574.35,525.63,574.35,525.63z"/>
			</g>
			<g>
				<path class="st3" d="M558.18,531.66c1.17-0.3,11.21-1.67,13.55-2.73c0.71-0.25,2.14-0.34,3.01-0.53c0-0.8-0.07-1.83-0.39-2.77
					c-0.42-0.75-1.5-2.17-2.5-3.44c-0.77,0.25-1.53,0.49-1.97,0.44c-0.68-0.08-14.62-0.23-14.92-0.38
					c-0.29-0.15-2.34-1.75-5.95-2.35c-0.54-0.09-1.16-0.14-1.81-0.17c1.88,0.8,4.22,1.96,4.97,3.05c1.3,1.92,0.91,4.45,0.65,5.06
					c-0.17,0.39-0.93,2.48-1.45,3.9C552.4,531.78,557.14,531.93,558.18,531.66z"/>
			</g>
		</g>
		<g>
			<path class="st4" d="M503.56,521.22c0,0,3.75,1.98,3.05,3.73c-0.28,0.7-1.87,0.27-1.87,0.27s6.74,6.06,8.89,6.51
				c2.14,0.46,10.72-1.21,14.04,0c1.07,0.08,7.8,1.14,8.09,0.99c0.29-0.15-2.24-4.93-1.95-6.98c0.29-2.05,1.07-4.63,2.92-5.31
				s-10.33,0.3-12.97-0.76c-2.63-1.06-15.21-5.24-16.86-4.93c-1.66,0.3-3.8,1.06-3.8,1.06s2.53-0.46,3.9,1.06
				c1.36,1.52,0.18,3.56-0.29,3.87C506.4,520.94,503.56,521.22,503.56,521.22z"/>
		</g>
	</g>
</g>
<g>
	<g>
		<path class="st0" d="M625,424H455c-6.6,0-12,5.4-12,12v209c0,6.6,5.4,12,12,12h170c6.6,0,12-5.4,12-12V436
			C637,429.4,631.6,424,625,424z"/>
	</g>
	<g>
		<path class="st1" d="M607.75,638.12l-152.41-0.59c-0.7,0-1.06-0.65-0.59-1.05l9.19-7.84c0.94-0.81,2.28-1.26,3.68-1.26h129.53
			c1.53,0,2.98,0.53,3.96,1.44l7.83,7.32C609.79,636.93,609.07,638.12,607.75,638.12z"/>
	</g>
	<g>
		<g>
			<g>
				<path class="st28" d="M577.92,475.85c0,0-3.78,8.15-0.34,12.02c3.41,3.84,6.98,5.93,6.15,9.12c-0.84,3.19-2.18,6.95-0.76,9.52
					c1.41,2.57,2.81,3.22,0.67,6.27c-2.14,3.05-1.73,6.11-0.47,8.83c1.26,2.73,1.9,5.69,0.21,8.22c0,0,3.85-2.19,2.96-5.4
					c-0.89-3.21-1.14-6.67,0.4-9.12c1.55-2.45,2.76-4.23,1.37-7.56c-1.39-3.34,0.04-5.49,1.42-9.19c1.37-3.71,3.42-6.67,1.56-9.64
					c-1.86-2.96-2.59-5.56-2.79-7.49c-0.3-2.9,1.51-8.32-7.33-7.28C576.18,474.7,580.8,474.69,577.92,475.85z"/>
			</g>
			<g>
				<path class="st28" d="M573.35,475.85c0,0-3.78,8.15-0.34,12.02c3.41,3.84,6.98,5.93,6.14,9.12c-0.84,3.19-2.16,6.95-0.76,9.52
					c1.41,2.57,2.81,3.22,0.66,6.27c-2.14,3.05-1.72,6.11-0.46,8.83c1.25,2.73,1.9,5.69,0.2,8.22c0,0,3.85-2.19,2.96-5.4
					c-0.89-3.21-1.15-6.67,0.4-9.12c1.55-2.45,2.76-4.23,1.37-7.56c-1.4-3.34,0.04-5.49,1.41-9.19c1.38-3.71,3.43-6.67,1.56-9.64
					c-1.86-2.96-2.59-5.56-2.79-7.49c-0.31-2.9,1.51-8.32-7.34-7.28C571.61,474.7,576.23,474.69,573.35,475.85z"/>
			</g>
			<g>
				<path class="st28" d="M584.82,477.45c0,0,2.09,6.55-1.35,10.42c-3.4,3.84-6.98,5.93-6.14,9.12c0.84,3.19,2.17,6.95,0.76,9.52
					c-1.4,2.57-2.8,3.22-0.67,6.27c2.15,3.05,1.73,6.11,0.47,8.83c-1.26,2.73-1.9,5.69-0.21,8.22c0,0-3.85-2.19-2.96-5.4
					c0.89-3.21,1.14-6.67-0.41-9.12c-1.55-2.45-2.76-4.23-1.36-7.56c1.4-3.34-0.04-5.49-1.42-9.19c-1.37-3.71-3.42-6.67-1.56-9.64
					c1.86-2.96,2.59-5.56,2.79-7.49c0.31-2.9-1.5-8.32,7.34-7.28C584.87,474.7,581.94,476.29,584.82,477.45z"/>
			</g>
			<g>
				<path class="st29" d="M575.46,488.91c1.15-3.98-6.3-7.36-1.46-15.27c2.29-3.75,7.36-4.73,8.72,4.85
					c1.18,8.35-5.19,16.66-2.34,29.36c0.88,3.94,2.44,10.24,1.18,13.45c-1.25,3.21-1.9,6.71-0.21,9.69c0,0-6.24-2.33-4.96-6.03
					c4.79-13.84-1.38-6.17-1.06-16.93c0.12-3.9-2.6-6.2-2.97-8.73C571.48,493.4,575.79,493.23,575.46,488.91z"/>
			</g>
			<g>
				<path class="st30" d="M587.15,488.91c-1.14-3.98,3.86-7.07-0.98-14.97c-2.29-3.75-12.51-6.07-13.87,3.51
					c-1.18,8.35,15.87,17.66,7.86,31.85c-2.05,3.63-0.37,8.8,0.88,12.01c1.25,3.21,1.9,6.71,0.21,9.69c0,0,6.24-2.33,4.96-6.03
					c-4.78-13.84,1.38-6.17,1.06-16.93c-0.12-3.9,2.59-6.2,2.97-8.73C591.12,493.4,586.82,493.23,587.15,488.91z"/>
			</g>
		</g>
		<g>
			<path class="st31" d="M543.98,501.04c1.33-3.3,9.75-1.2,12.35-2.61c5.74-3.09,8.94-1.37,9.88-3.69c0.94-2.32-4.71-9.27-6.46-12
				c-2.01-3.14-5.24-9.65-10.44-9.65c-3.99,0-7.12,1.41-12.19,6.73c-3.53,3.7-8.21,17.78-9.04,21.96c-1.51,2.93-9,8.19-9.25,15.14
				c0.22,13.7,0.55,8.34,11.11,16.75c2.29,1.71,6.74-2.24,12.17,0.57c0,0,0.57-0.27,0.75-0.52c0.34-0.11,0.76-0.52,0.76-0.52
				c-0.68-2.6,9.92-2.53,8.41-4.52c-2.31-4.06,0.1-8.3-2.84-14.24C547.47,512.16,542.46,503.53,543.98,501.04z"/>
		</g>
		<g>
			<path class="st30" d="M583.89,462.78c0,0-6.5-0.73-12.73,1.17c-5.5,1.67-7.33,2.08-11,5.83c-3.39,3.46-0.64-3.23,2.1-6.02
				c2.74-2.79,9.78-5.75,11.59-6.66c6.21-3.15,10.95-1.51,12.12,1.83C587.19,462.38,587.92,461.23,583.89,462.78z"/>
		</g>
		<g>
			<path class="st31" d="M561.15,475.46c0,0-3.73,3.95-7.36,3.69c-3.62-0.26,4.74,9.47,5.6,8.26c1.11-1.57,4.77-3.59,7.49-4.1
				C566.88,483.32,563.63,479.14,561.15,475.46z"/>
		</g>
		<g>
			<g>
				<path class="st31" d="M499.35,577.37c-0.66,0.36-1.31,1.06-1.81,1.57c-3.06,3.13-7,13.8-8.58,21.26
					c-1.59,7.46-6.26,17.88-6.26,17.88l7.38,2.48c0,0,3.87-12.1,8.94-21.17c6.15-11.01,6.5-13.73,7.98-19.28
					C506.87,577.96,500.83,576.28,499.35,577.37z"/>
			</g>
			<g>
				<path class="st31" d="M497.89,578.59c-0.7,2.36,7.12,5.13,9.11,1.46c3.18-7.7,16.86-32.69,19.48-40.6c0,0-9.69-16.46-15.96-6.98
					c-4.21,6.36-7.84,24.05-10.39,32.11C498.97,568.27,498.01,575.57,497.89,578.59z"/>
			</g>
		</g>
		<g>
			<path class="st3" d="M536.26,539.4l-0.57-20.66h-17.45c-3.49,5.01-7.01,10.52-9.25,16.57c-3.56,7.75-6.62,22.2-8.86,29.28
				c-1.17,3.68-1.83,10.63-3.09,13.83c-1.26,3.19-6.14,10.35-8.08,21.79c-0.64,3.77-2.37,8.24-3.74,11.79l7.17,2.07
				c1.62-4.25,3.96-9.88,6.63-14.68c6.15-11.01,6.5-13.73,7.98-19.28c0-0.01-0.01-0.03-0.01-0.04c0.01,0,0.01-0.01,0.01-0.02
				c2.94-7.13,18.85-29.5,22.68-38.99C532.15,537.36,536.23,539.38,536.26,539.4z"/>
		</g>
		<g>
			<path class="st32" d="M482.49,618.16l0.96-2.57l8.06,1.32l-0.65,2.64C490.86,619.54,483.14,620.61,482.49,618.16z"/>
		</g>
		<g>
			<g>
				<path class="st33" d="M479.22,625.39c0,0-0.45,2.49-0.06,3.74c0.39,1.24,1.36,3.59,7.44,3.36l0.09-1.1
					C486.69,631.4,479.19,625.58,479.22,625.39z"/>
			</g>
			<g>
				<path class="st33" d="M493.49,625.39c0,0,0.45,2.49,0.06,3.74c-0.38,1.24-1.36,3.59-7.44,3.36l-0.09-1.1
					C486.02,631.4,493.52,625.58,493.49,625.39z"/>
			</g>
			<g>
				<path class="st34" d="M481.88,618.3c0,0,4.23-1.09,8.7-0.04c0,0-0.66,2.25-1.33,2.72c-0.69,0.47-4.98,0.87-5.11,0.83
					C484,621.78,481.88,618.3,481.88,618.3z"/>
			</g>
			<g>
				<path class="st35" d="M491.73,619.51c0.06-4.3-2.08-0.92-2.25-0.54c-0.29,0.65-5.93,0.65-6.22,0c-0.17-0.38-2.01-4.14-2.38,0.7
					c0,0-1.93,6.51-1.52,8.53c0.92,3.02,1.52,3.36,7.01,3.36c5.49,0,6.53-0.54,7.01-3.36C493.79,626.18,491.73,619.51,491.73,619.51
					z"/>
			</g>
			<g>
				<path class="st36" d="M488.55,631.49c0,0.45-0.77,0.46-1.73,0.46c-0.95,0-1.73-0.01-1.73-0.46c0-0.45,0.77-0.81,1.73-0.81
					C487.77,630.68,488.55,631.04,488.55,631.49z"/>
			</g>
			<g>
				<g>
					<path class="st37" d="M493.38,628.2c0.12-0.6,0.02-1.63-0.18-2.77c-0.32-0.14-0.65-0.26-0.95-0.37
						c-1.74-0.6-4.89-2.33-3.71,0.55c0,0,4.29,1.92,2.92,5.45C492.69,630.6,493.12,629.74,493.38,628.2z"/>
				</g>
				<g>
					<path class="st37" d="M479.55,625.13c1.28-2.28,4.07-2.76,4.07-2.76l-0.08-0.97c-1.52,0.16-2.74,1.07-3.57,1.94
						c1.11-2.22,3.53-2.54,3.53-2.54l-0.07-1.13c-1.36,0.39-2.37,1.11-3.05,1.72C480.12,622.45,479.79,623.84,479.55,625.13
						L479.55,625.13z"/>
				</g>
				<g>
					<path class="st37" d="M489.22,620.8c0,0,2.42,0.32,3.54,2.54c-0.84-0.87-2.05-1.78-3.57-1.94l-0.07,0.97
						c0,0,2.73,0.47,4.02,2.69c-0.25-1.29-0.6-2.69-0.89-3.76c-0.67-0.59-1.66-1.26-2.96-1.64L489.22,620.8z"/>
				</g>
				<g>
					<path class="st37" d="M484.19,625.61c1.8-3.24-1.96-1.14-3.71-0.55c-0.31,0.11-0.64,0.23-0.98,0.38
						c-0.19,1.13-0.28,2.15-0.15,2.75c0.48,1.57,0.87,2.42,1.91,2.87C479.29,627.37,484.19,625.61,484.19,625.61z"/>
				</g>
			</g>
			<g>
				<path class="st38" d="M483.75,618.56c0,0,0.73,7.79,1.81,8.67c1.09,0.88,1.99-0.11,2.68-2.98c0.69-2.87,1.29-5.81,1.29-5.81
					s0.38-1.03-1.53-1.41C485.92,616.62,483.05,617.23,483.75,618.56z"/>
			</g>
			<g>
				<path class="st39" d="M485.14,619.32c0,0-0.24-0.48-1.7-0.35c0,0,0.06,4.83,0.74,6.64c0.68,1.81,1.03,2.69,2.78,2.52
					c1.76-0.17,2.19-2.64,2.66-4.64c0.47-2.01,0.51-4.43,0.51-4.43s-1.18-0.31-1.88,0.25c0,0-0.3,8.15-1.57,8.33
					C485.42,627.84,484.87,621.17,485.14,619.32z"/>
			</g>
			<g>
				<g>
					<g>
						<path class="st32" d="M488.2,620.41c0.25,0.07,0.58,0.03,0.73-0.09c0.15-0.13,0.06-0.28-0.2-0.35
							c-0.26-0.07-0.58-0.03-0.74,0.1C487.85,620.18,487.94,620.34,488.2,620.41z"/>
					</g>
					<g>
						<path class="st40" d="M488.25,620.36c0.2,0.06,0.46,0.02,0.58-0.07c0.11-0.1,0.05-0.22-0.16-0.28
							c-0.21-0.06-0.46-0.03-0.58,0.07C487.98,620.18,488.05,620.31,488.25,620.36z"/>
					</g>
				</g>
				<g>
					<g>
						<path class="st32" d="M487.95,622.19c0.24,0.09,0.57,0.06,0.75-0.05c0.17-0.11,0.12-0.28-0.11-0.36
							c-0.24-0.09-0.57-0.06-0.75,0.05C487.66,621.95,487.71,622.1,487.95,622.19z"/>
					</g>
					<g>
						<path class="st40" d="M488.01,622.14c0.19,0.07,0.45,0.05,0.59-0.04c0.14-0.09,0.1-0.22-0.09-0.29
							c-0.19-0.07-0.46-0.05-0.59,0.04C487.78,621.95,487.83,622.08,488.01,622.14z"/>
					</g>
				</g>
				<g>
					<g>
						<path class="st32" d="M487.51,623.9c0.21,0.1,0.55,0.09,0.76-0.01c0.21-0.1,0.19-0.27-0.02-0.36
							c-0.22-0.1-0.55-0.09-0.76,0.01C487.29,623.64,487.29,623.8,487.51,623.9z"/>
					</g>
					<g>
						<path class="st40" d="M487.59,623.86c0.17,0.08,0.44,0.07,0.6-0.01c0.16-0.08,0.15-0.21-0.02-0.29
							c-0.17-0.08-0.44-0.07-0.6,0.01C487.41,623.66,487.42,623.78,487.59,623.86z"/>
					</g>
				</g>
				<g>
					<g>
						<path class="st32" d="M487.33,625.62c0.18,0.11,0.51,0.14,0.75,0.05c0.23-0.08,0.28-0.25,0.11-0.36
							c-0.18-0.12-0.51-0.14-0.75-0.05C487.2,625.35,487.15,625.51,487.33,625.62z"/>
					</g>
					<g>
						<path class="st40" d="M487.42,625.59c0.14,0.09,0.41,0.11,0.59,0.04c0.19-0.07,0.23-0.2,0.09-0.28
							c-0.14-0.09-0.41-0.11-0.6-0.04C487.31,625.37,487.28,625.5,487.42,625.59z"/>
					</g>
				</g>
				<g>
					<g>
						<path class="st32" d="M488.17,621.23c0.26,0.07,0.58,0.03,0.73-0.09c0.15-0.13,0.06-0.28-0.19-0.35
							c-0.25-0.07-0.58-0.03-0.73,0.09C487.83,621,487.91,621.15,488.17,621.23z"/>
					</g>
					<g>
						<path class="st40" d="M488.22,621.18c0.2,0.06,0.46,0.02,0.58-0.07c0.12-0.1,0.05-0.22-0.15-0.28
							c-0.2-0.06-0.46-0.03-0.58,0.07C487.95,621,488.02,621.12,488.22,621.18z"/>
					</g>
				</g>
				<g>
					<g>
						<path class="st32" d="M487.83,623.02c0.24,0.08,0.57,0.06,0.75-0.06c0.18-0.11,0.13-0.28-0.11-0.36
							c-0.24-0.09-0.57-0.06-0.75,0.05C487.54,622.77,487.59,622.93,487.83,623.02z"/>
					</g>
					<g>
						<path class="st40" d="M487.9,622.98c0.19,0.07,0.45,0.05,0.59-0.04c0.14-0.09,0.1-0.22-0.08-0.28
							c-0.19-0.07-0.46-0.05-0.59,0.04C487.67,622.78,487.7,622.91,487.9,622.98z"/>
					</g>
				</g>
				<g>
					<g>
						<path class="st32" d="M487.44,624.73c0.21,0.09,0.55,0.09,0.76-0.01c0.2-0.1,0.19-0.27-0.03-0.36
							c-0.21-0.1-0.55-0.09-0.76,0.01C487.22,624.47,487.22,624.64,487.44,624.73z"/>
					</g>
					<g>
						<path class="st40" d="M487.52,624.69c0.17,0.08,0.44,0.07,0.6-0.01c0.16-0.08,0.15-0.21-0.02-0.29
							c-0.17-0.08-0.44-0.07-0.6,0.01C487.34,624.49,487.35,624.62,487.52,624.69z"/>
					</g>
				</g>
				<g>
					<g>
						<path class="st32" d="M486.96,626.43c0.18,0.12,0.52,0.14,0.75,0.05c0.24-0.09,0.29-0.25,0.11-0.36
							c-0.17-0.11-0.51-0.14-0.75-0.05C486.84,626.16,486.79,626.32,486.96,626.43z"/>
					</g>
					<g>
						<path class="st40" d="M487.05,626.4c0.14,0.09,0.41,0.11,0.59,0.04c0.19-0.07,0.23-0.19,0.09-0.28
							c-0.14-0.09-0.41-0.11-0.59-0.05C486.95,626.19,486.91,626.31,487.05,626.4z"/>
					</g>
				</g>
				<g>
					<g>
						<path class="st32" d="M484.76,620.41c-0.25,0.07-0.58,0.03-0.73-0.09c-0.15-0.13-0.06-0.28,0.19-0.35
							c0.26-0.07,0.58-0.03,0.73,0.1C485.1,620.18,485.01,620.34,484.76,620.41z"/>
					</g>
					<g>
						<path class="st40" d="M484.7,620.36c-0.2,0.06-0.46,0.02-0.58-0.07c-0.12-0.1-0.05-0.22,0.15-0.28
							c0.2-0.06,0.47-0.03,0.58,0.07C484.97,620.18,484.91,620.31,484.7,620.36z"/>
					</g>
				</g>
				<g>
					<path class="st41" d="M488.49,621c-0.12-0.11-0.11-0.17-0.84-0.02c-1.47,0.28-2.25-0.46-2.78-0.89c0,0-0.9-0.05-0.62,0.33
						c0,0,1.2,1.04,2.29,0.98c0,0,0.01-0.01,0.02-0.01c0.21,0.02,0.48,0.02,0.82-0.02C488.59,621.25,488.59,621.1,488.49,621z"/>
				</g>
				<g>
					<g>
						<path class="st32" d="M485.01,622.19c-0.24,0.09-0.57,0.06-0.75-0.05c-0.18-0.11-0.12-0.28,0.11-0.36
							c0.24-0.09,0.57-0.06,0.75,0.05C485.3,621.95,485.24,622.1,485.01,622.19z"/>
					</g>
					<g>
						<path class="st40" d="M484.94,622.14c-0.19,0.07-0.46,0.05-0.6-0.04c-0.14-0.09-0.09-0.22,0.09-0.29
							c0.19-0.07,0.46-0.05,0.59,0.04C485.17,621.95,485.13,622.08,484.94,622.14z"/>
					</g>
				</g>
				<g>
					<path class="st41" d="M488.2,622.81c-0.1-0.11-0.07-0.2-0.83-0.07c-0.14,0.03-0.28,0.04-0.42,0.05
						c-1.09-0.17-1.06-0.39-1.92-0.93c0,0-0.9,0-0.54,0.36c0,0,0.49,0.33,1.11,0.59c0.08,0.18,0.41,0.35,1.41,0.31
						C488.25,623.06,488.28,622.91,488.2,622.81z"/>
				</g>
				<g>
					<g>
						<path class="st32" d="M485.44,623.9c-0.21,0.1-0.55,0.09-0.76-0.01c-0.2-0.1-0.19-0.27,0.02-0.36
							c0.22-0.1,0.55-0.09,0.76,0.01C485.67,623.64,485.66,623.8,485.44,623.9z"/>
					</g>
					<g>
						<path class="st40" d="M485.36,623.86c-0.17,0.08-0.44,0.07-0.6-0.01c-0.16-0.08-0.15-0.21,0.02-0.29
							c0.17-0.08,0.44-0.07,0.6,0.01C485.55,623.66,485.54,623.78,485.36,623.86z"/>
					</g>
				</g>
				<g>
					<path class="st41" d="M487.86,624.55c-0.04-0.07-0.04-0.13-0.19-0.15c-0.03-0.01-0.08-0.03-0.15-0.03
						c-1.2-0.1-1.13-0.29-2.14-0.79c0,0-0.89,0.05-0.45,0.39c0,0,0.21,0.11,0.51,0.24C487.22,625.03,487.92,624.65,487.86,624.55z"
						/>
				</g>
				<g>
					<g>
						<path class="st32" d="M485.62,625.62c-0.18,0.11-0.51,0.14-0.75,0.05c-0.24-0.08-0.28-0.25-0.11-0.36
							c0.18-0.12,0.51-0.14,0.75-0.05C485.75,625.35,485.8,625.51,485.62,625.62z"/>
					</g>
					<g>
						<path class="st40" d="M485.53,625.59c-0.14,0.09-0.41,0.11-0.59,0.04c-0.19-0.07-0.23-0.2-0.08-0.28
							c0.14-0.09,0.4-0.11,0.59-0.04C485.64,625.37,485.67,625.5,485.53,625.59z"/>
					</g>
				</g>
				<g>
					<path class="st41" d="M487.45,626.09c-1-0.15-0.86-0.34-2-0.78c0,0-0.87,0.12-0.3,0.42c0,0,1.19,0.65,2.16,0.68
						c0.1-0.01,0.2-0.03,0.28-0.05C487.59,626.36,487.89,626.15,487.45,626.09z"/>
				</g>
				<g>
					<g>
						<path class="st32" d="M484.79,621.23c-0.25,0.07-0.58,0.03-0.73-0.09c-0.15-0.13-0.06-0.28,0.2-0.35
							c0.26-0.07,0.58-0.03,0.73,0.09C485.13,621,485.04,621.15,484.79,621.23z"/>
					</g>
					<g>
						<path class="st40" d="M484.73,621.18c-0.21,0.06-0.46,0.02-0.58-0.07c-0.12-0.1-0.05-0.22,0.15-0.28
							c0.2-0.06,0.46-0.03,0.58,0.07C485,621,484.93,621.12,484.73,621.18z"/>
					</g>
				</g>
				<g>
					<path class="st32" d="M488.1,620.09c-0.54,0.43-0.63,0.66-1.07,0.84c-0.41,0.18-0.83,0.26-1.71,0.05
						c-0.72-0.18-0.72-0.09-0.84,0.02c-0.1,0.09-0.1,0.21,1.11,0.37c2.04,0.26,3.14-0.96,3.14-0.96
						C488.99,620.03,488.1,620.09,488.1,620.09z"/>
				</g>
				<g>
					<g>
						<path class="st32" d="M485.12,623.02c-0.24,0.08-0.57,0.06-0.75-0.06c-0.18-0.11-0.13-0.28,0.11-0.36
							c0.24-0.09,0.57-0.06,0.75,0.05C485.41,622.77,485.36,622.93,485.12,623.02z"/>
					</g>
					<g>
						<path class="st40" d="M485.06,622.98c-0.19,0.07-0.45,0.05-0.59-0.04c-0.14-0.09-0.1-0.22,0.08-0.28
							c0.19-0.07,0.46-0.05,0.59,0.04C485.28,622.78,485.24,622.91,485.06,622.98z"/>
					</g>
				</g>
				<g>
					<g>
						<path class="st0" d="M488.46,622.22c0.36-0.36-0.54-0.36-0.54-0.36c-0.87,0.55-0.62,0.75-1.85,0.91
							c-0.21,0.02-0.37-0.01-0.49-0.03c-0.76-0.13-0.74-0.05-0.84,0.07c-0.08,0.1-0.05,0.26,1.19,0.31
							C487.56,623.19,488.46,622.22,488.46,622.22z"/>
					</g>
					<g>
						<path class="st0" d="M487.72,622.66c0,0,0,0.02,0,0.04C487.73,622.69,487.73,622.67,487.72,622.66z"/>
					</g>
				</g>
				<g>
					<g>
						<path class="st32" d="M485.51,624.73c-0.21,0.09-0.55,0.09-0.76-0.01c-0.21-0.1-0.2-0.27,0.02-0.36
							c0.21-0.1,0.55-0.09,0.75,0.01C485.74,624.47,485.73,624.64,485.51,624.73z"/>
					</g>
					<g>
						<path class="st40" d="M485.43,624.69c-0.17,0.08-0.44,0.07-0.6-0.01c-0.17-0.08-0.16-0.21,0.01-0.29
							c0.17-0.08,0.44-0.07,0.6,0.01C485.61,624.49,485.6,624.62,485.43,624.69z"/>
					</g>
				</g>
				<g>
					<path class="st32" d="M487.57,623.57c-1,0.5-0.93,0.7-2.13,0.79c-0.07,0.01-0.12,0.02-0.16,0.03
						c-0.14,0.02-0.14,0.08-0.18,0.15c-0.06,0.1,0.47,0.27,2.41-0.35c0.31-0.13,0.51-0.24,0.51-0.24
						C488.46,623.63,487.57,623.57,487.57,623.57z"/>
				</g>
				<g>
					<g>
						<path class="st32" d="M485.99,626.43c-0.18,0.12-0.51,0.14-0.75,0.05c-0.24-0.09-0.28-0.25-0.11-0.36
							c0.17-0.11,0.51-0.14,0.75-0.05C486.12,626.16,486.17,626.32,485.99,626.43z"/>
					</g>
					<g>
						<path class="st40" d="M485.9,626.4c-0.14,0.09-0.4,0.11-0.59,0.04c-0.19-0.07-0.23-0.19-0.08-0.28
							c0.14-0.09,0.41-0.11,0.59-0.05C486,626.19,486.04,626.31,485.9,626.4z"/>
					</g>
				</g>
				<g>
					<path class="st32" d="M487.5,625.31c-0.96,0.62-2.07,0.88-1.97,0.89c-0.01,0.03-0.01,0.05-0.02,0.09
						c-0.02,0.1,0.1,0.37,2.22-0.54c0.05-0.02,0.07-0.03,0.07-0.03C488.37,625.43,487.5,625.31,487.5,625.31z"/>
				</g>
			</g>
			<g>
				<g>
					<path class="st41" d="M486.71,619.93c0,0,5.37-0.19,4.69-2.52c-0.68-2.33-4.06,1.27-4.71,2.27l0.32,0.04c0,0,2-2.41,3.15-2.47
						c1.15-0.06,0.87,0.72,0.5,0.99c-0.32,0.24-1.35,1.04-3.12,1.51c-0.11,0.03-0.52-0.09-0.64-0.06
						C486.74,619.72,486.87,619.9,486.71,619.93z"/>
				</g>
				<g>
					<path class="st41" d="M487.02,619.4c0,0-1.6-2.72-3.71-2.55c-2.11,0.17-2.2,1.5,0.8,2.39c3.01,0.89,3.01,0.89,3.01,0.89
						l0.02-0.41c0,0-2.19-0.53-3.19-1.02c-1-0.49-2.01-1.08-1.09-1.24c0.92-0.16,1.62-0.17,2.82,0.94c0.58,0.54,0.92,1.13,1.17,1.35
						c0.28,0.24,0.42,0.09,0.42,0.09L487.02,619.4z"/>
				</g>
				<g>
					<path class="st42" d="M486.66,620.16c0,0-0.17,0.46-1.06,1.34c-0.89,0.88-0.8,2.4-0.71,2.46c0.08,0.06-0.14,0.31-0.14,0.31
						s-0.33,0.01-0.53-0.47c-0.2-0.48-0.53-1.44,0.96-2.54c1.48-1.11,1.67-1.6,1.67-1.6S487.49,619.57,486.66,620.16z"/>
				</g>
				<g>
					<path class="st42" d="M486.82,619.54c0,0,0.56,1.6,0.68,2.52c0.13,0.91,0.99,2.17,0.9,2.67c-0.1,0.51,0.41,0.47,0.41,0.47
						s0.32-0.24-0.54-1.92c-0.86-1.69-0.62-2.35-0.84-2.89C487.2,619.82,487.22,619.61,486.82,619.54z"/>
				</g>
			</g>
		</g>
		<g>
			<polygon class="st43" points="550.39,514.79 518.93,514.79 517.96,518.75 551.35,518.75 			"/>
		</g>
		<g>
			<g>
				<g>
					<path class="st31" d="M560.78,576.21c-0.27,0.62-0.26,1.5-0.31,2.16c-0.53,6.06,1.05,15.78,5.89,22.21
						c6.31,8.4,11.51,20.09,11.51,20.09l7.68-0.67c0,0-3.63-8.73-7.78-21.22c-4.81-14.45-6.54-26.02-9.37-31.19
						C566.75,565.93,561.18,574.61,560.78,576.21z"/>
				</g>
				<g>
					<path class="st31" d="M560.47,581.77c1.14,2.24,12.06-2.91,11.02-6.83c1.42-5.46-1.7-7.68-2.62-10.75
						c-4.58-15.32-9.3-28.35-19.47-43.45c0,0-23.15,6.68-15.68,15.54c9.62,11.41,13.92,21.2,18.59,28.59
						C555.37,569.72,559.19,575.78,560.47,581.77z"/>
				</g>
				<g>
					<path class="st31" d="M575.67,625c1,2.62,4.37,4.08,7.54,3.24c3.17-0.83,4.92-3.63,3.91-6.25c-1-2.62-4.37-4.08-7.54-3.25
						C576.43,619.58,574.67,622.38,575.67,625z"/>
				</g>
			</g>
			<g>
				<path class="st3" d="M568.87,564.19c0.92,3.07,4.04,5.3,2.62,10.75c0.11,0.43,0.08,0.88-0.07,1.33
					c1.6,5.88,3.39,13.65,6.33,22.5c1.23,3.68,2.57,6.82,3.42,9.59l-8.58,2.34c-1.73-3.04-4.06-6.54-6.25-10.13
					c-6.66-10.9-8.32-14.99-7.63-23.07c-1.36-5.87-3.43-7.89-6.43-12.64c-3.94-6.24-12.44-16.34-19.28-25.54
					c-10.2-8.25-4.56-14.17-3.73-20.59h22.06c-0.72,0,0.69,1.99,3.21,6.86C562.37,539.31,564.72,550.3,568.87,564.19z"/>
			</g>
			<g>
				<path class="st0" d="M586.12,620.83l-0.66-2.13c0,0-5.49,1.03-8.56-0.15l-0.96,1.44C575.95,619.99,579.12,623.41,586.12,620.83z
					"/>
			</g>
			<g>
				<g>
					<path class="st44" d="M571.96,628.87c-0.07,1.12,0.09,2.23,8.09,2.47c2.9,0.09,6.29-0.06,11.2,0.45
						c7.27,0.76,11.69-0.04,14.06-0.76c1.95-0.6,3.61-1.22,3.67-1.65c0-0.07,0.01-0.13,0.01-0.2c-0.01,0.22-0.03,0.43-0.04,0.58
						c-0.06,0.43-1.71,1.06-3.67,1.65c-2.37,0.73-6.65,1.39-13.95,0.88c-4.99-0.35-8.41-0.49-11.31-0.57
						c-8.25-0.25-8.16-1.41-8.08-2.58C571.95,629.06,571.96,628.96,571.96,628.87z"/>
				</g>
				<g>
					<path d="M573.56,618.49c0.11,0.29,0.26,0.54,0.41,0.79c0.3,0.51,0.55,0.96,0.48,1.59l0.4,0.03c0.04-0.35-0.01-0.66-0.11-0.94
						l0.04,0c0-0.03,0.16-0.84-0.23-1.7c-0.23-0.5-0.56-0.76-0.85-0.68C573.56,617.64,573.28,617.8,573.56,618.49z M573.85,617.95
						c0.07,0.05,0.2,0.18,0.32,0.45c0.14,0.31,0.21,0.61,0.23,0.87c-0.02-0.04-0.05-0.08-0.07-0.12c-0.14-0.24-0.28-0.49-0.39-0.76
						C573.85,618.16,573.84,618.02,573.85,617.95z"/>
				</g>
				<g>
					<path class="st35" d="M579.38,628.88c1.69,0.1,3.05,0.46,5.52,0.87c2.46,0.4,6.18,0.95,9.08,1.08c2.9,0.13,7.04-0.14,8.79-0.28
						c2.93-0.24,5.87-1.18,5.91-1.22l0.24-0.69c0,0-0.23-0.56-0.82-0.91c-0.59-0.35-1.92-0.66-5.49-1.73
						c-4.58-1.36-6.06-1.98-8.31-3.52c-2.26-1.54-5.07-2.97-5.87-2.8c-0.8,0.16-2.21,0.91-5.01,1.57c-5.49,1.3-2.62,1.4-6.51,0.06
						c-1.76-0.61-1.74-2.41-1.9-2.03c0,0,0.04,1.45-0.96,2.48c-1.24,1.28-1.69,3.44-1.49,5.74
						C574.27,628.4,577.73,628.79,579.38,628.88z"/>
				</g>
				<g>
					<path class="st35" d="M584.86,617.95c0.58-0.62,0.53-1.29,1.38-1.78c0.45-0.26,1.51,0.13,2.85,2.12
						c1.15,1.72,3.54,3.1,3.54,3.1l-0.13-0.01c3.17,2.07,5.94,3.01,5.94,3.01l-0.3,0.49c-3.46-1.51-6.56-3.06-8.73-4.17
						c-0.95-0.31-2.45,0.1-3.03-0.18C584.59,619.65,584.48,618.35,584.86,617.95z"/>
				</g>
				<g>
					<path class="st35" d="M608.34,628.92c-0.15,0.56-0.67,0.72-0.97,0.79c-0.14,0.04-0.29,0.08-0.45,0.12c0,0-0.01,0-0.01,0
						c-0.15,0.04-0.32,0.08-0.49,0.11c0,0,0,0-0.01,0c-0.17,0.04-0.35,0.08-0.53,0.12c-0.01,0-0.01,0-0.02,0
						c-0.18,0.04-0.36,0.08-0.55,0.11c-0.01,0-0.03,0-0.04,0.01c-0.19,0.03-0.38,0.07-0.58,0.1c0,0,0,0-0.01,0.01
						c-0.2,0.03-0.4,0.06-0.61,0.09c-0.01,0-0.03,0-0.04,0.01c-0.2,0.03-0.39,0.05-0.59,0.08c-0.02,0-0.03,0-0.05,0.01
						c-0.21,0.02-0.42,0.05-0.62,0.06c-1.75,0.15-5.88,0.41-8.79,0.28c-2.9-0.13-6.62-0.66-9.08-1.08
						c-1.95-0.34-10.76-1.08-12.48-1.98c-0.02-0.19,0.17-0.89,0.16-1.08c0.2,0.15,1.19,0.83,1.57,0.99
						c2.53,1.13,10.56,1.59,13.32,2.05c2.77,0.47,8.83,1.31,16.8-0.21c0,0,3.55-0.88,1.08-2c-2.13-0.96-7.22-2.66-7.22-2.66
						l0.06-0.57c7.31,2.88,7.81,1.66,9.58,2.71c0.28,0.17,1.1,0.83,1.07,1.41C608.71,628.41,608.44,628.56,608.34,628.92z"/>
				</g>
				<g>
					<path d="M572.51,626.85c-0.13-2.15,0.35-3.89,1.53-5.09c0.05-0.06,0.11-0.12,0.16-0.18c0.37,0.07,0.56,0.32,0.03,1.01
						c-0.94,1.21-1.31,3.56-1.4,4.4C572.74,626.93,572.62,626.9,572.51,626.85z"/>
				</g>
				<g>
					<path class="st35" d="M598.53,626.24c0,0-1.62-1.78,0.83-1.26c0.9,0.19,8.31,2.48,7.67,3.46c-0.42,0.64-0.2,0.69-1.84,1.26
						c-1.63,0.56-9.23,0.93-7.84,0.66c3.01-0.58,2.53-1.6,0.69-2.98c-1.85-1.37-2.63-1.74-2.63-1.74L598.53,626.24z"/>
				</g>
				<g>
					<path class="st45" d="M596.26,625.8c0,0-8.02,4.62-1.61,4.67c0,0-4.61,0.17-5.56-0.53c-0.95-0.69,0.34-3.06,4.42-5.47
						L596.26,625.8z"/>
				</g>
				<g>
					<path class="st45" d="M592.81,623.87c0,0-8.37,5.29-3.74,6.16c0,0-3.57,0.04-4.38-0.77c-1.65-1.64,1.28-4.32,5.36-6.72
						L592.81,623.87z"/>
				</g>
				<g>
					<path class="st45" d="M589.3,622.17c0,0-9.97,6.26-4.83,7.35c0,0-4.46,0.05-5.27-0.75c-1.03-1.02,4.39-4.78-0.85-6.75
						c-1.05-0.4,7.25-0.44,8.78-1.34L589.3,622.17z"/>
				</g>
				<g>
					<path class="st39" d="M573.56,622.34c0.15-0.21,0.3-0.4,0.48-0.58c0.04-0.04,0.07-0.08,0.11-0.12c0.6-1.19,0.56-2.28,0.56-2.28
						c0.05-2.45,1.4-1.07,1.5-0.7c0.23,0.83,0.17,2.7,4.46,2.66c3.57-0.03,6.03-1.18,6.58-1.45c1.22-0.59,1.73-0.57,1.88-0.53
						c2.02,0.88,2.26,1.47,3.96,2.71c3.83,2.35,6.02,3.08,6.85,3.43c0,0-1.21,1.24-3.13,0.73l0,0c0,0,0,0-0.01,0
						c-0.06-0.01-0.13-0.03-0.19-0.05l0,0c-0.07-0.02-0.13-0.05-0.2-0.07c-0.01,0-0.02-0.01-0.04-0.01
						c-0.06-0.02-0.12-0.05-0.18-0.07c-0.07-0.03-0.15-0.07-0.22-0.1c-2.53-1.19-6.57-3.58-7.57-4.08c-1-0.49-3.09-0.28-4.6,0.07
						c-4.39,1.02-4.99-0.04-7.74,0.61c-0.96,0.22-2.21,1.18-3.17,3.16c-0.02,0.03,0.16-1.8,0.13-1.8c-0.01,0,1.08-1.24,1.07-1.24
						c-0.03,0.01-0.06,0-0.09,0c-0.01,0-0.02,0-0.02,0c-0.04-0.01-0.07-0.02-0.11-0.04c0,0-0.01,0-0.01-0.01
						c-0.03-0.02-0.07-0.03-0.1-0.06c0,0-0.01,0-0.01,0v0C573.69,622.46,573.62,622.41,573.56,622.34z"/>
				</g>
				<g>
					<g>
						<g>
							<path class="st32" d="M588.7,620.29c-0.01,0.19-0.21,0.34-0.44,0.32c-0.23-0.01-0.4-0.17-0.39-0.36
								c0.02-0.19,0.21-0.34,0.44-0.32C588.54,619.93,588.71,620.1,588.7,620.29z"/>
						</g>
						<g>
							<path class="st40" d="M588.61,620.28c-0.01,0.15-0.16,0.26-0.34,0.26c-0.18-0.01-0.32-0.14-0.31-0.29
								c0.01-0.15,0.17-0.26,0.35-0.25C588.49,620,588.62,620.13,588.61,620.28z"/>
						</g>
					</g>
					<g>
						<path class="st41" d="M588.48,620.56c0,0,1.92,0.13,2.3-0.5c0,0-0.05-0.4-0.33-0.25c-0.78,0.43-1.03,0.22-2.15,0.18
							C588.31,619.99,587.86,620.44,588.48,620.56z"/>
					</g>
					<g>
						<g>
							<path class="st32" d="M590.84,621.91c0.01,0.19-0.17,0.35-0.39,0.36c-0.23,0.01-0.42-0.14-0.43-0.32
								c-0.01-0.19,0.16-0.35,0.39-0.36C590.63,621.58,590.83,621.72,590.84,621.91z"/>
						</g>
						<g>
							<path class="st40" d="M590.75,621.92c0.01,0.15-0.13,0.28-0.31,0.29c-0.18,0-0.34-0.11-0.34-0.26
								c-0.01-0.15,0.13-0.28,0.31-0.29C590.59,621.65,590.74,621.76,590.75,621.92z"/>
						</g>
					</g>
					<g>
						<path class="st41" d="M590.66,622.21c0,0,1.92-0.04,2.22-0.71c0,0-0.1-0.4-0.36-0.22c-0.72,0.5-0.99,0.32-2.11,0.37
							C590.41,621.66,590.02,622.14,590.66,622.21z"/>
					</g>
					<g>
						<g>
							<path class="st32" d="M593.08,623.26c0.04,0.19-0.12,0.36-0.34,0.4c-0.23,0.03-0.44-0.09-0.48-0.28
								c-0.04-0.19,0.12-0.36,0.34-0.4C592.83,622.95,593.04,623.08,593.08,623.26z"/>
						</g>
						<g>
							<path class="st40" d="M592.99,623.27c0.03,0.15-0.09,0.29-0.27,0.31c-0.18,0.03-0.35-0.07-0.38-0.22
								c-0.03-0.15,0.09-0.29,0.27-0.32C592.79,623.03,592.96,623.13,592.99,623.27z"/>
						</g>
					</g>
					<g>
						<path class="st41" d="M592.94,623.58c0,0,1.85-0.21,2.04-0.9c0,0-0.15-0.38-0.39-0.18c-0.64,0.57-0.88,0.38-1.98,0.55
							C592.61,623.05,592.29,623.57,592.94,623.58z"/>
					</g>
					<g>
						<g>
							<path class="st32" d="M595.47,624.44c0.08,0.18-0.04,0.38-0.25,0.44c-0.21,0.06-0.45-0.03-0.53-0.21
								c-0.08-0.18,0.04-0.38,0.25-0.44C595.15,624.16,595.39,624.26,595.47,624.44z"/>
						</g>
						<g>
							<path class="st40" d="M595.39,624.46c0.06,0.14-0.03,0.3-0.2,0.35c-0.17,0.05-0.36-0.02-0.42-0.17
								c-0.06-0.14,0.03-0.3,0.2-0.35C595.13,624.25,595.32,624.32,595.39,624.46z"/>
						</g>
					</g>
					<g>
						<path class="st41" d="M595.4,624.76c0,0,1.62-0.34,1.67-1.05c0,0-0.23-0.36-0.42-0.13c-0.51,0.66-0.63,0.38-1.68,0.7
							C594.96,624.3,594.76,624.85,595.4,624.76z"/>
					</g>
					<g>
						<g>
							<path class="st32" d="M589.66,621.06c-0.01,0.19-0.21,0.34-0.44,0.32c-0.23-0.01-0.4-0.17-0.39-0.36
								c0.01-0.19,0.21-0.34,0.44-0.32C589.5,620.71,589.67,620.88,589.66,621.06z"/>
						</g>
						<g>
							<path class="st40" d="M589.57,621.06c-0.01,0.15-0.16,0.26-0.35,0.26c-0.18-0.01-0.32-0.13-0.31-0.29
								c0.01-0.15,0.17-0.26,0.35-0.26C589.45,620.78,589.58,620.91,589.57,621.06z"/>
						</g>
					</g>
					<g>
						<path class="st32" d="M590.02,619.59c0,0,1.24,0.27,0.16,1.16c-0.67,0.56-0.89,0.45-0.96,0.32c-0.09-0.14-0.22-0.21,0.33-0.47
							C590.21,620.29,590.29,619.64,590.02,619.59z"/>
					</g>
					<g>
						<g>
							<path class="st32" d="M591.89,622.6c0.01,0.19-0.16,0.35-0.39,0.36c-0.23,0.01-0.42-0.14-0.43-0.33
								c-0.02-0.19,0.16-0.35,0.39-0.36C591.69,622.26,591.88,622.41,591.89,622.6z"/>
						</g>
						<g>
							<path class="st40" d="M591.81,622.6c0.01,0.15-0.13,0.28-0.32,0.29c-0.18,0.01-0.33-0.11-0.34-0.26
								c-0.01-0.15,0.13-0.28,0.31-0.29C591.65,622.34,591.8,622.45,591.81,622.6z"/>
						</g>
					</g>
					<g>
						<path class="st32" d="M592.06,621.03c0,0,1.26,0.22,0.31,1.2c-0.6,0.62-0.82,0.52-0.92,0.41c-0.11-0.14-0.24-0.19,0.27-0.5
							C592.34,621.78,592.34,621.06,592.06,621.03z"/>
					</g>
					<g>
						<g>
							<path class="st32" d="M594.22,623.84c0.04,0.18-0.11,0.36-0.34,0.39c-0.23,0.04-0.44-0.09-0.48-0.28
								c-0.04-0.19,0.11-0.36,0.34-0.4C593.97,623.53,594.18,623.65,594.22,623.84z"/>
						</g>
						<g>
							<path class="st40" d="M594.14,623.85c0.03,0.15-0.09,0.29-0.27,0.32c-0.18,0.02-0.35-0.08-0.38-0.22
								c-0.03-0.15,0.09-0.29,0.27-0.32C593.94,623.61,594.11,623.7,594.14,623.85z"/>
						</g>
					</g>
					<g>
						<path class="st32" d="M594.11,622.36c0,0,1.34,0,0.54,1.07c-0.51,0.67-0.74,0.6-0.85,0.5c-0.13-0.12-0.27-0.16,0.19-0.52
							C594.54,622.98,594.38,622.36,594.11,622.36z"/>
					</g>
					<g>
						<g>
							<path class="st32" d="M596.72,624.84c0.07,0.18-0.04,0.38-0.25,0.44c-0.22,0.06-0.46-0.03-0.53-0.21
								c-0.07-0.18,0.04-0.38,0.25-0.44C596.4,624.57,596.64,624.66,596.72,624.84z"/>
						</g>
						<g>
							<path class="st40" d="M596.63,624.87c0.06,0.14-0.03,0.3-0.2,0.35c-0.17,0.05-0.36-0.02-0.42-0.16
								c-0.06-0.14,0.03-0.3,0.2-0.35C596.39,624.65,596.57,624.72,596.63,624.87z"/>
						</g>
					</g>
					<g>
						<path class="st32" d="M596.15,623.41c0,0,1.47-0.21,0.9,0.97c-0.35,0.74-0.6,0.7-0.74,0.61c-0.15-0.1-0.3-0.13,0.08-0.54
							C596.86,623.95,596.42,623.38,596.15,623.41z"/>
					</g>
					<g>
						<path class="st41" d="M589.96,619.8c0,0-3.78-1.43-2.49-2.9c1.29-1.48,2.47,1.88,2.59,2.73l-0.24-0.05c0,0-0.6-2.18-1.41-2.5
							c-0.81-0.32-0.87,0.3-0.7,0.58c0.15,0.25,0.61,1.06,1.72,1.82c0.07,0.05,0.4,0.06,0.47,0.11
							C590.01,619.65,589.85,619.74,589.96,619.8z"/>
					</g>
					<g>
						<path class="st41" d="M589.59,619.33c0,0-0.65-2.25,0.71-3.01c1.36-0.76,2.19-0.02,0.93,1.73c-1.26,1.75-1.26,1.75-1.26,1.75
							l-0.25-0.23c0,0,0.99-1.21,1.29-1.91c0.31-0.7,0.55-1.46-0.09-1.17c-0.64,0.28-1.06,0.56-1.11,1.71
							c-0.03,0.55,0.11,1.04,0.09,1.27c-0.02,0.25-0.2,0.23-0.2,0.23L589.59,619.33z"/>
					</g>
					<g>
						<path class="st42" d="M590.16,619.69c0,0,0.37,0.2,1.42,0.35c1.05,0.15,1.88,1.07,1.87,1.14c-0.02,0.07,0.27,0.13,0.27,0.13
							s0.2-0.13,0.03-0.49c-0.16-0.37-0.53-1.06-2.06-1.09c-1.53-0.04-1.94-0.25-1.94-0.25S589.32,619.69,590.16,619.69z"/>
					</g>
					<g>
						<path class="st42" d="M589.64,619.44c0,0,1.26,0.71,2.04,1c0.77,0.29,1.66,1.11,2.12,1.17c0.47,0.06,0.32,0.36,0.32,0.36
							s-0.29,0.14-1.55-0.78c-1.27-0.92-1.9-0.93-2.33-1.19C589.78,619.73,589.59,619.69,589.64,619.44z"/>
					</g>
				</g>
				<g>
					<path class="st33" d="M572.17,627.84c0.13-0.23,0.34-0.88,0.4-1.15c0.96,0.31,5.3,2.14,12.04,2.69c2.5,0.21,6.53,0.8,9.43,0.93
						c2.9,0.13,6.81,0.09,8.55-0.06c1.73-0.15,3.56-0.5,4.7-0.8c0.31-0.08,0.8-0.32,0.84-0.96c0.03-0.58,0.26-1.14,0.66-0.54
						c0.25,0.37,0.19,1.35,0.16,1.62c-0.06,0.43-1.71,1.05-3.67,1.65c-2.37,0.73-6.71,1.39-14.02,0.88
						c-4.99-0.35-8.34-0.48-11.24-0.57c-8.25-0.25-8.16-1.41-8.08-2.58C571.97,628.54,572.09,627.97,572.17,627.84z"/>
				</g>
				<g>
					<path class="st46" d="M574.08,628.65c0,0,5.07,1.32,7.3,1.43c3.48,0.17,1.26,0.7-2.36,0.81
						C572.94,631.08,571.83,628.44,574.08,628.65z"/>
				</g>
				<g>
					<path class="st46" d="M595.97,631.93c0,0,6.17,0.34,10.36-1.28c0,0-2.43,0.22-4.12,0.38
						C596,631.61,595.27,630.43,595.97,631.93z"/>
				</g>
			</g>
		</g>
		<g>
			<g>
				<path class="st31" d="M553.84,440.67c0.41-0.35,1.1-0.66,1.61-0.91c3.16-1.5,12.59-2.28,20.65-1.98
					c6.9,0.26,14.32-2.78,14.32-2.78l2.06,4.5c0,0-7,1.19-17.64,3.56c-10.05,2.24-16.48,2.58-21.63,3.02
					C551.28,445.85,552.69,441.42,553.84,440.67z"/>
			</g>
			<g>
				<path class="st31" d="M553.19,441.62c0.92-1.67,7.22,0.26,6.25,3.19c-3.31,7.14-4.29,36.13-13.74,34.97c0,0-9.45,6.36-6.49-1.44
					c0.73-1.94,5.97-16.96,7.91-22.5C548.18,452.82,552.39,443.75,553.19,441.62z"/>
			</g>
			<g>
				<path class="st31" d="M585.39,440.82c0,0,4.45-0.66,6.46-0.28c1.62,0.31,2.36,0.11,5.2,0.21c3.1,0.1,3.26,0.33,4.24,0.6
					c0.98,0.27,2.24-1.11-0.49-1.82c-2.73-0.71-3.35-0.63-3.35-0.63s4.19-0.46,6.4-0.73c2.21-0.26,4.1-0.29,3.8-1.17
					c-0.16-0.44-0.97-0.67-3.93-0.42c-2.97,0.24-6.32,0.48-6.32,0.48s11.26-1.12,11.08-2.18c-0.11-0.68-1.01-0.87-4.52-0.41
					c-3.51,0.47-6.82,1.04-6.82,1.04s9.19-1.97,9.92-2.13c0.93-0.2,1.23-1.71-2.34-0.93c-3.56,0.77-8.22,1.79-8.22,1.79
					s7.95-2.02,7.77-2.88c-0.24-1.1-4.2,0.42-8.72,1.68c-4.51,1.26-4.29,1.57-5.35,2.23c-1.07,0.67-5.85,1.57-5.85,1.57
					L585.39,440.82z"/>
			</g>
		</g>
		<g>
			<g>
				<path class="st31" d="M582.44,513.49c1.53,1.34-1.97,6.31-4.89,4.47c-6.65-11.23-18.01-17.01-22.07-27.19
					c0,0,3.05-4.12,10.46,1.29C571.19,495.88,580.11,511.91,582.44,513.49z"/>
			</g>
		</g>
		<g>
			<g>
				<path class="st4" d="M552.48,473.09c0.08,0.13-7.92,6.34-15.36,6.73c0.03,0-2.94,2.73-5.03,5.21
					c-4.3,4.72-6.51,12.27-8.17,16.29c-2.45,4.57-5.01,12.45-4.85,12.53c0,0.23,8.88,0.77,29.73-0.58c-0.31,0.18-2.25-6.13-1.73-6.9
					c0.85-3.42,4.07-5.09,6.04-6.44c1.38-0.98,3.08-1.33,3.1-1.34c0,0,1.08-6.18,10.17-6.21c0,0-1.03-1.41-1.53-2.08
					c-0.22-0.29-10.24,4.12-16.62-1.51c-7.08-6.63-1.8-9.8,5.96-13.73C553.63,474.4,553.06,473.74,552.48,473.09z"/>
			</g>
			<g class="st47">
				<path class="st4" d="M533.71,493.14c-2.69-1.34-3.98-3.92-2.98-6.35c-1.71,2.54-0.48,5.6,2.52,6.99
					c3.01,1.41,6.44,1.17,8.3-0.23C539.51,494.48,536.42,494.49,533.71,493.14z"/>
			</g>
			<g class="st47">
				<path class="st4" d="M545.37,499.1c-2.64-1.31-4.16-3.49-3.61-5.4c-1.18,1.95,0.34,4.48,3.28,5.86
					c2.95,1.38,6.01,1.61,7.34,0.78C550.8,500.77,548.02,500.41,545.37,499.1z"/>
			</g>
		</g>
		<g>
			<g>
				<path class="st31" d="M581.91,518.04c-0.31,0.33-0.85,0.64-1.25,0.87c-2.47,1.47-10.03,2.52-16.52,2.55
					c-5.57,0.03-11.3,2.84-11.3,2.84l1.13-4.37c0,0,2.47-0.72,10.92-3.24c7.98-2.38,13.19-2.7,17.32-3.29
					C583.44,513.9,582.8,517.32,581.91,518.04z"/>
			</g>
			<g>
				<path class="st31" d="M560.37,518.06c0,0-2.81,0.37-4.31,0.12c-1.21-0.2-1.75-0.01-3.86,0.02c-0.62,0.01-0.66-0.19-1.02-0.2
					c0.39,0.88-0.35,0.55,0.22,1.71c0.55,0.07,0.59,0.03,0.59,0.03s-0.36,0.06-0.88,0.16c-0.1,0.06-0.22,0.08-0.34,0.06
					c-1.04,0.18-2.52,0.44-3.48,0.62c-1.62,0.3-3.02,0.39-2.76,1.1c0.14,0.36,0.75,0.51,2.93,0.21c2.19-0.31,4.65-0.63,4.65-0.63
					s-8.28,1.33-8.1,2.2c0.12,0.55,0.79,0.68,3.36,0.17c2.57-0.51,5-1.11,5-1.11s-6.7,1.96-7.24,2.11c-0.68,0.2-0.83,1.45,1.77,0.68
					c2.6-0.77,6-1.77,6-1.77s-5.79,1.95-5.61,2.65c0.23,0.9,3.09-0.49,6.37-1.69c3.28-1.2,3.09-1.44,3.85-2.03
					c0.76-0.59,3.73-1.23,3.73-1.23L560.37,518.06z"/>
			</g>
		</g>
		<g>
			<g>
				<path class="st30" d="M561.62,464.49c0,0-6.83,7.1-2.12,13.95l1.24,2.9l6.53-17.81L561.62,464.49z"/>
			</g>
			<g>
				<path class="st30" d="M578.16,488.32c0,0-11.12,1.08-15.01-4.89l-2.53-2.26l22.05,3.47L578.16,488.32z"/>
			</g>
		</g>
		<g>
			<path class="st31" d="M585.31,484.67c-8.96,4.5-20.07,2.88-24.8-3.61c-4.73-6.49-1.31-15.4,7.66-19.89
				c8.97-4.5,20.07-2.88,24.81,3.61C597.71,471.26,594.28,480.17,585.31,484.67z"/>
		</g>
		<g>
			<path class="st30" d="M581.02,461.03c0,0,4.14,2.2,3.42,6.92c-1.46,9.53,2.94,14.5-7.96,18.53c-2.95,1.09-4.63,2.27,1.68,1.84
				c4.32-0.3,12.51-4.78,14.33-5.69c6.25-3.1,10.76-13.98-0.26-22.18C589,458.04,586.95,456.47,581.02,461.03z"/>
		</g>
		<g>
			<g>
				<path class="st30" d="M582.36,463.42c0,0-14.3,5.96-20.11,1.66c0,0,4.01-6.84,14.51-8.39c8.55-1.27,10.41,3.93,10.41,3.93
					s8.71,0.64,9.84,9.3c1.47,11.25-14.56,18.11-14.56,18.11S568.12,475.24,582.36,463.42z"/>
			</g>
			<g>
				<path class="st28" d="M590.51,483.31c3.55-2.89,7.62-7.58,6.85-13.49c-0.25-1.92-0.9-3.61-1.92-5.01
					c-2.67-3.67-7.62-5.28-8.53-5.38c-0.07-0.16,0.32,0.43,0,0c-1.1-1.51-3.88-3.91-10.12-2.99c-10.63,1.57-14.82,8.54-14.86,8.61
					l-0.08,0.14l0.12,0.08c2.44,1.81,6.77,2.09,12.52,0.82c2.79-0.62,5.26-1.45,6.68-1.98c-8.87,8.12-5.01,16.53-1.82,20.9
					c1.44,1.97,2.78,3.18,2.79,3.19l0.14,0.13l0.26-0.11C582.72,488.16,586.68,486.45,590.51,483.31z M596.65,470.02
					c0.6,4.58-1.62,8.97-6.59,13.03c-1.61,1.32-3.26,2.38-4.63,3.17c12.51-9.27,11.62-16.25,8.47-20.58
					c-1.49-2.04-3.51-3.51-4.9-4.37c1.69,0.5,4.1,1.57,5.78,3.87C595.79,466.5,596.41,468.14,596.65,470.02z M565.27,463.93
					c4.13-1.67,12.66-4.44,20.48-2.76l-0.37,0.22C579.67,460.66,569.97,462.77,565.27,463.93z M584.5,461.82
					c-3.46,0.9-13.46,3.3-20.46,2.9C567.8,463.75,578.34,461.26,584.5,461.82z M578.27,458.75c3.6-0.16,5.87,0.98,6.99,1.77
					c-5.45-0.95-11.08,0.1-14.97,1.2c-2.01,0.57-3.75,1.2-5.07,1.73C570.05,460.5,574.43,458.92,578.27,458.75z M586.21,461.52
					l0.03-0.06c0,0.02,0,0.04,0,0.06L586.21,461.52z M586.89,461.05l0.14-0.08c0.74,0.72,1.4,1.47,1.96,2.23
					c4.37,6,2.3,12.39-0.21,16.69c-1.51,2.6-3.36,4.77-4.71,6.2c4.81-7.67,5.49-13.77,5.16-17.66c-0.31-3.7-1.55-6.07-2.08-6.94
					l0.15,0.04L586.89,461.05z M588.95,462c1.32,0.86,3.02,2.2,4.31,3.96c3.08,4.22,3.92,11.06-8.52,20.18
					c1.37-1.46,3.18-3.62,4.67-6.17c2.57-4.41,4.7-10.96,0.22-17.09C589.42,462.58,589.19,462.29,588.95,462z M583.11,486.54
					c0.89-4.22,3.4-16.64,3.8-24c0.58,1.15,1.38,3.21,1.63,6.07C588.86,472.52,588.15,478.73,583.11,486.54z M586.24,461.82
					c-0.23,7.43-3.09,21.34-3.92,25.22c-4.58-9.13,2.84-23.56,3.7-25.16L586.24,461.82z M581.55,471.25
					c-1.16,3.97-2.08,9.25-0.79,13.79c-2.52-4.37-4.96-12.64,3.95-21.93C583.9,464.78,582.56,467.77,581.55,471.25z M576.73,456.93
					c5.87-0.87,8.49,1.4,9.54,2.83c0.04,0.06,0.08,0.11,0.12,0.16l0.24,0.64l-0.07,0.06l-0.29-0.39v0.19
					c-0.95-0.79-3.43-2.37-7.81-2.18c-4.45,0.2-9.54,2.17-15.16,5.86C564.85,462.19,569.01,458.07,576.73,456.93z M562.93,465.15
					c6.48,0.61,15.95-1.45,20.39-2.56l-1.1,0.64C581.49,463.53,568.61,468.68,562.93,465.15z M582.57,463.57l2.3-1.34
					c-4.91,4.84-7.3,9.97-7.08,15.26c0.1,2.32,0.69,4.37,1.42,6.03C576.22,478.86,573.64,471,582.57,463.57z"/>
			</g>
		</g>
	</g>
</g>
</svg>
