<?xml version="1.0" encoding="utf-8"?>
<!-- Generator: Adobe Illustrator 23.0.3, SVG Export Plug-In . SVG Version: 6.00 Build 0)  -->
<svg version="1.1" id="Layer_1" xmlns="http://www.w3.org/2000/svg" xmlns:xlink="http://www.w3.org/1999/xlink" x="0px" y="0px"
	 viewBox="0 0 1080 1080" style="enable-background:new 0 0 1080 1080;" xml:space="preserve">
<style type="text/css">
	.st0{fill:#FFFFFF;}
	.st1{fill:#4A4A49;}
	.st2{fill:#FED2A5;}
	.st3{fill:#010001;}
	.st4{fill:#EB7171;}
	.st5{fill:#FF8442;}
	.st6{fill:#00A6BC;}
	.st7{fill:#77B5C6;}
	.st8{fill:#F7BD8D;}
</style>
<g>
	<path class="st0" d="M923,256H753c-6.6,0-12,5.4-12,12v209c0,6.6,5.4,12,12,12h170c6.6,0,12-5.4,12-12V268
		C935,261.4,929.6,256,923,256z"/>
</g>
<g>
	<g>
		<path class="st0" d="M625,424H455c-6.6,0-12,5.4-12,12v209c0,6.6,5.4,12,12,12h170c6.6,0,12-5.4,12-12V436
			C637,429.4,631.6,424,625,424z"/>
	</g>
	<g>
		<path class="st1" d="M606.75,634.12l-152.41-0.59c-0.7,0-1.06-0.65-0.59-1.05l9.19-7.84c0.94-0.81,2.28-1.26,3.68-1.26h129.53
			c1.53,0,2.98,0.53,3.96,1.44l7.83,7.32C608.79,632.93,608.07,634.12,606.75,634.12z"/>
	</g>
	<g>
		<g>
			<path class="st2" d="M552.8,618.01c0,0,4.99-1.32,5.45-13.08l6.43,1.09c0,0,0.57,8.41,1.09,13.14
				C566.29,623.89,552.8,618.01,552.8,618.01z"/>
			<g>
				<path class="st2" d="M568.01,551.96c-1.64-8.05,3.59-32.34,3.59-46.64c0-22.97-16.52-28.7-25.57-25.63
					c-8.82,2.99-22.64,17.07-19.2,28.17c1.27,4.12,25.66-3.82,25.66,2.39c0,21.67-1.09,38.19,3.58,45.62
					c1.65,8.61,1.65,15.59,1.65,28.38c0,22.96-0.85,34.1,4.12,34.1c1.69,0,3.11-2.3,3.33-6.56c0.3-5.77,4.37-19.54,5.69-30
					C573.29,562.48,569.1,557.38,568.01,551.96z"/>
				<path class="st3" d="M545.77,507.86c0.01,0.01,0.96,1.51,0.96,1.53l3.28,5.21c0.74,5.46,1.4,10.18,1.4,10.18
					c0,0,24.15-4.41,24.15-4.41l1.44,0.16c-0.64-11.48-1.76-20.19-2.96-26.26c-0.93-4.68-3.78-7.54-6.37-10.19
					c-4.16-4.27-11.5-7.07-11.5-7.07S543.5,498.98,545.77,507.86z"/>
				<g>
					<g>
						<g>
							<g>
								<g>
									<g>
										<g>
											<g>
												<g>
													<path class="st2" d="M550.3,570.65c-0.05-1.26-1.52-0.85-1.66-2.63c-0.02-0.44,0.21-0.82,0.13-1.09
														c-0.11-0.39-0.56-0.62-0.7-0.88c-0.12-0.25,0.27-0.69,0.12-1.05c-0.07-0.2-0.68-0.24-0.75-0.51
														c-0.4-1.37-0.2-0.4-0.37-1.62c-0.48-3.25-1.49-3.81-8.02-2.58l0.04-0.04c0,0-2.14,0.15-2.09-2.04
														c0.1-4.11,0.45-6.78,2.46-9.57l-5.76,1.19l-5.71,2.17c-2.51,14.54-0.81,9.56-2.32,14.14
														c-0.61,1.05-6.36,13.8-6.41,15.03c-0.52,12.34,5.6,16.67,15.37,17.12c9.04,0.42,14.39-4.37,15.9-15.39
														c0.13-0.89-1.43-6.8-1.51-7.72C548.84,572.59,550.35,571.91,550.3,570.65z"/>
												</g>
											</g>
										</g>
									</g>
								</g>
								<path class="st0" d="M550.71,539.73c1.36-4.93-1.22-10.08-5.75-11.48c-4.54-1.4-9.32,1.47-10.68,6.4
									c0.26-0.96,0.24,20.99,1.94,16.83C538.88,545,549.35,544.68,550.71,539.73z"/>
								<path class="st4" d="M538.37,555.12c-3.78-0.03-8.35,2.29-12.08,2.7c-2.34-6.75-6.73-14.64-6.06-26.77
									c1.03-18.58-0.82-21.07,2.61-31.79l23.21,4.7c0,0,0.6,15.89-1.39,29.37C543.06,544.18,542.42,548.83,538.37,555.12z"/>
								<path class="st5" d="M550.24,589.41c0.05,6.37-7.95,9.67-14.91,15.51c-11.81,9.91-0.97,20.88-8.08,20.76
									c-8.38-0.14-19.63-25.32-2.3-60.36c2.33-4.7,12.69,2.37,12.69,2.37c-1.85,1.13-6.74,7.21-4.14,9.2
									c0.61,0.47,1.98,0.21,3.19-0.61C536.69,576.28,550.22,587.83,550.24,589.41z"/>
								<path class="st6" d="M551.74,588.28c0,0,0.5,4.65-2.96,5.38c0,0-8.06-10.95-15.27-16.77c0,0,0.93,0.31,1.87,0.05
									c0.73-0.21,1.25-0.69,1.31-0.66C538.94,577.28,544.85,580.12,551.74,588.28z"/>
							</g>
						</g>
					</g>
				</g>
				<path class="st7" d="M555.08,615.57c3.48,0.83,7.07,1.24,10.74,1.19c0.14,0,0.28-0.03,0.42-0.03l0.08,11.27h-29.18
					C537.09,622.22,545.73,618.04,555.08,615.57z"/>
			</g>
			<path class="st8" d="M499.16,622.93c0,0-9.53-0.46-12.61,0.27c-2.38,0.57-8.85,2.85-7.9,4.15c0.46,0.63,1.57,0.98,3.81,0
				c1.16-0.51,3.34-1.19,4.6-1.2c1.59-0.03,4.66,1.75,6.25,1.84c1.22,0.08,3.69-0.63,4.87-0.96c1.46-0.4,5.47-2.66,5.47-2.66
				l29.98-32.33c0,0,5.59-35.16,5.39-43.96c-0.13-5.6-5.93-12.36-11.1-4.74c-1.4,2.07-1.09,43.35-3.65,44.96
				C522.19,589.63,501.32,621.8,499.16,622.93z"/>
		</g>
	</g>
</g>
</svg>
