<?xml version="1.0" encoding="utf-8"?>
<!-- Generator: Adobe Illustrator 23.0.3, SVG Export Plug-In . SVG Version: 6.00 Build 0)  -->
<svg version="1.1" id="Layer_1" xmlns="http://www.w3.org/2000/svg" xmlns:xlink="http://www.w3.org/1999/xlink" x="0px" y="0px"
	 viewBox="0 0 1080 1080" style="enable-background:new 0 0 1080 1080;" xml:space="preserve">
<style type="text/css">
	.st0{fill:#FFFFFF;}
	.st1{fill:#4A4A49;}
	.st2{fill:#EEA886;}
	.st3{fill:#EEA987;}
	.st4{fill:#010001;}
	.st5{fill:#754836;}
	.st6{fill:#EB7171;}
	.st7{fill:#A77860;}
	.st8{fill:#F5AD8A;}
</style>
<g>
	<path class="st0" d="M923,256H753c-6.6,0-12,5.4-12,12v209c0,6.6,5.4,12,12,12h170c6.6,0,12-5.4,12-12V268
		C935,261.4,929.6,256,923,256z"/>
</g>
<g>
	<g>
		<path class="st0" d="M582,342H412c-6.6,0-12,5.4-12,12v209c0,6.6,5.4,12,12,12h170c6.6,0,12-5.4,12-12V354
			C594,347.4,588.6,342,582,342z"/>
	</g>
	<g>
		<path class="st1" d="M582.32,554.92l-164.9-0.65c-0.75,0-1.14-0.71-0.64-1.15l9.95-8.63c1.02-0.89,2.47-1.39,3.98-1.39h140.15
			c1.65,0,3.22,0.58,4.28,1.59l8.48,8.06C584.52,553.62,583.74,554.93,582.32,554.92z"/>
	</g>
	<g>
		<path class="st2" d="M459.01,432.88c1.38-1.57,3.58-2.59,6.1,1.03c2.51,3.62,3.27,5.32,4.18,6.71c0.91,1.4,2.91,5.69,4.05,9.01
			c1.14,3.32,3.31,11.31,4.31,12.91c1,1.6,4.94,10.69,5.47,13.12c0.52,2.43,6.27,21.8,6.27,21.8l-2.81,2.17
			c0,0-11.07-24.02-12.08-26.89c-1.01-2.87-6.17-15.22-8.79-19.3C463.08,449.36,454.23,438.32,459.01,432.88z"/>
		<path class="st3" d="M480.45,477.13c0,0-13.22,1.54-23.21,6.52c-9.98,4.98-14.87,8.2-15.38,9.05c-0.51,0.85-0.78,4.71-0.05,10.5
			c0.87,6.95,1.06,15.26,1.07,19.1c0.01,6.79-0.98,17.51-0.98,17.51l5.53-0.18c0,0-0.16-0.3,2.04-12.42
			c1.26-6.97,2.24-13.48,1.31-24.75c0,0,6.64-1.35,11.53,0.04c4.89,1.39,16.14,0.78,22.05-4.14
			C490.27,493.45,484.79,484.3,480.45,477.13z"/>
		<path class="st4" d="M477.64,499.52c-1.91,2.06-4.24,3.36-6.63,4.13c-0.58,0.19-1.17,0.34-1.76,0.47
			c-3.92,0.86-7.82,0.48-10.25-0.12c-0.65-0.16-1.28-0.36-1.9-0.46c0,0,0,0,0,0c-2.2-8.39-2.08-18.38-2.08-18.38
			c8.27-5.13,18.91-7.4,18.91-7.4C477.43,484.88,482.48,494.31,477.64,499.52z"/>
		<path class="st2" d="M472.48,473.53l-12.97,11.83c0,0-2.34-3.28-4.82-7.12c-0.4-0.62-0.79-1.23-1.17-1.84
			c-1.65-2.64-2.77-9.01-2.92-10.05c-0.4-2.78,0.26-6.61,0-8.08c-0.26-1.47-3.32-7.9-0.33-11.15c2.99-3.25,9.22-11.5,9.57-12.44
			c0.17-0.46,0.51-2.39,0.81-4.21c0.15-0.9,0.28-1.78,0.38-2.45c0.11-0.7,0.18-1.17,0.18-1.17l7,0.35c0,0-0.63,6.63-0.26,8.27
			c0.37,1.64,2.52,7.18,2.3,10.03c-0.22,2.86-0.75,6.17-1.49,8.52c-0.74,2.35-2.46,9.78-1.88,12.06
			C467.46,468.38,469.25,470.25,472.48,473.53z"/>
		<path class="st2" d="M473.49,475.18c0,0,6.94,0.89,9.23,3.48c2.29,2.59,5.2,9.88,7.06,11.81c1.86,1.93,11.64,9.84,14.19,12.23
			c2.56,2.38,9.08,8.27,12.46,9.38c3.38,1.11,6.06,1.99,8.8,3.47c3.61,1.95,17.98,14.79,19.77,15.44l-2.1,4.76
			c0,0-22.67-10.5-24.88-11c-2.21-0.5-6.17-0.99-8.36-2.44c-2.18-1.45-6.95-4.34-13.3-6.93c-6.35-2.59-16.63-10.52-21.47-15.27
			c-4.84-4.75-12.93-13.84-12.93-13.84S463.82,476.58,473.49,475.18z"/>
		<path class="st2" d="M543.45,530.17c0,0,3.72-4.02,6.33-2.09c2.01,1.49,1.68,4.23,3.14,5.59c1.99,1.86,7.53,7.79,8.25,8.17
			c0.72,0.38,1.29,1.86,0.32,2.27c-0.97,0.41-2.83-0.8-3.81-0.88c-0.98-0.07-13.35-6.1-15.55-7.92
			C539.93,533.48,543.45,530.17,543.45,530.17z"/>
		<path class="st2" d="M472.83,407.69c-1.81-1.89-6.69-4.57-11.02,1.39c0,0-0.84,1.91-1.3,3.61c-0.45,1.7-3.7,4.91-3.57,5.34
			c0.13,0.43,1.01,1.65,1.01,1.65s-1.42,5.51-0.2,6.59c1.22,1.08,6.43,4.11,11.69,0.54C474.69,423.25,480.15,415.32,472.83,407.69z"
			/>
		<path class="st5" d="M461.81,409.08c0,0,1.51,5.61,4.23,9.02c2.72,3.4,2.34,9.34,2.34,9.34s8.9-3.28,8.64-12.95
			C476.77,404.83,465.45,400.81,461.81,409.08z"/>
		<path class="st2" d="M467.41,419.1c0.45-0.76,1.75-1.3,2.12,0.66c0.37,1.96-2.99,4.42-3.57,3.31
			C465.37,421.97,466.94,419.88,467.41,419.1z"/>
		<path class="st5" d="M482.86,415.43c-0.5,2.86-2.68,4.69-4.87,4.09c-2.19-0.6-3.56-3.41-3.06-6.27c0.5-2.86,2.68-4.69,4.87-4.09
			C481.99,409.76,483.36,412.57,482.86,415.43z"/>
		<path class="st4" d="M495.66,495.62L495.66,495.62c0,0-2.17,7.49-8.41,14.51c-2.85-1.97-5.79-4.11-8.32-6.11
			c-0.72-0.57-1.41-1.13-2.04-1.68c-0.84-0.72-1.61-1.4-2.25-2.04c-4.84-4.75-13.2-12.49-13.2-12.49s-2.06-2.44-3.39-4.55
			c0,0,8.27-5.77,13.22-10.97c0.76,0.98,2.7,2.08,3.65,2.43c0,0,5.5,1.35,7.79,3.94c2.29,2.59,5.2,9.88,7.06,11.81
			C490.61,491.34,493.02,493.4,495.66,495.62z"/>
		<path class="st6" d="M468.75,454.03c-0.52,1.66-1.53,5.84-1.88,8.96c0,0-6.55,2.07-16.39,2.14c-0.14-2.77,0.25-6.09,0.11-6.86
			c-0.26-1.47-3.32-7.9-0.33-11.15c2.99-3.25,9.22-11.5,9.57-12.44c0.03-0.08,0.07-0.22,0.11-0.39c0,0,5.83,0.13,7.88-0.76
			c-0.01,0.83,0.02,1.54,0.11,1.94c0.37,1.64,2.52,7.18,2.3,10.03C470.02,448.36,469.49,451.68,468.75,454.03z"/>
		<path class="st7" d="M466.44,428.2c0,0-3.48,1.57-5.79,2.27c0.15-0.9,0.28-1.78,0.38-2.45
			C461.03,428.02,463.57,428.96,466.44,428.2z"/>
		<path class="st2" d="M467.96,451.62c-1.02,4.4-7.44,9.05-10.14,4.73c0,0,0,0,0,0c-0.57-0.91-0.97-2.21-1.13-3.99
			c-0.07-0.75-0.09-1.59-0.06-2.51c0.01-0.44,0.03-0.87,0.06-1.29c0.07-1.18,0.2-2.25,0.36-3.23c1.56-9.39,6.69-10.35,6.69-10.35
			C469.93,434.72,469.28,445.91,467.96,451.62z"/>
		<g>
			<g>
				<path class="st3" d="M432.89,548.58c2.02,0.1,7.75,0.14,10.9,0.81c3.15,0.67,4.41,0.13,4.36-2.85c0-0.16-0.01-0.33-0.02-0.49
					c-0.12-2.92-0.81-6.63-0.8-7.84c0.01-1.29-3.77-1.6-3.77-1.6s-1.58,4.34-3.82,5.37c-1.25,0.57-4.8,2.16-6.19,2.84
					c-0.1,0.05-0.21,0.1-0.33,0.14l0,0c-1.45,0.52-3.86,0.43-4.26,1.4C428.53,547.38,430.87,548.48,432.89,548.58z"/>
			</g>
		</g>
		<path class="st8" d="M453.13,380.6c0,0,0.75-2.51,1.62-4.07c0.87-1.56,1.19-4.99,1.07-6.11c-0.12-1.12-0.59-9.66-0.98-10.27
			c-0.39-0.61-1.05,0.75-0.97,1.58c0.08,0.82,0.26,7.99,0.26,7.99s-0.59-8.51-1.01-8.98c-0.43-0.47-1.21-0.26-1.38,0.97
			c0,0-1.37-0.53-1.31,1.58l0.12,4.2c0,0-0.35-2.15-0.9-0.57c-0.29,0.84,0.27,5.54,0.15,6.52c-0.11,0.98,0.92,6.54,0.92,6.54
			L453.13,380.6z"/>
		<path class="st7" d="M462.3,452.94c0,0-2.79,0.95-5.61-4.39c0.07-1.18,0.2-2.25,0.36-3.23L462.3,452.94z"/>
		<path class="st8" d="M463.69,452.46c-1.68,0.94-4.01,1.02-5.51-3.46c-1.51-4.48-1.82-6.41-2.34-8.11
			c-0.53-1.7-1.38-6.62-1.66-10.25c-0.28-3.63-0.41-12.15-0.98-14.08c-0.56-1.93-2.11-12.22-2.02-14.75
			c0.09-2.53-0.7-23.37-0.7-23.37l3.17-0.93c0,0,4.7,27.44,4.96,30.59c0.26,3.15,2.18,17.04,3.68,22.01
			C463.8,435.07,469.52,449.21,463.69,452.46z"/>
		<path class="st4" d="M485.75,497.12c-0.05,0.1-2.56,4.55-6.82,6.91c-0.72-0.57-1.41-1.13-2.04-1.68
			C476.89,502.35,482.99,499.84,485.75,497.12z"/>
	</g>
</g>
</svg>
