<?xml version="1.0" encoding="utf-8"?>
<!-- Generator: Adobe Illustrator 23.0.3, SVG Export Plug-In . SVG Version: 6.00 Build 0)  -->
<svg version="1.1" id="Layer_1" xmlns="http://www.w3.org/2000/svg" xmlns:xlink="http://www.w3.org/1999/xlink" x="0px" y="0px"
	 viewBox="0 0 1080 1080" style="enable-background:new 0 0 1080 1080;" xml:space="preserve">
<style type="text/css">
	.st0{fill:#DB584C;}
	.st1{fill:#FFFFFF;}
	.st2{fill:#216572;}
	.st3{font-family:'JosefinSlab-Bold';}
	.st4{font-size:175.0255px;}
	.st5{fill:none;}
	.st6{fill:#1C90BF;}
	.st7{fill:#4DBFD9;}
	.st8{font-family:'BlackOpsOne-Regular';}
	.st9{font-size:45.8516px;}
	.st10{font-size:46.2199px;}
</style>
<text transform="matrix(1 0 0 1 -161.9019 -1.7061)" style="font-family:'MyriadPro-Regular'; font-size:12px;">Lorem ipsum</text>
<g>
	<g>
		<polygon class="st0" points="556,287.13 801.44,427.57 801.44,708.43 556,848.87 310.55,708.43 310.55,427.57 		"/>
		<path class="st1" d="M558.92,335.2c69.68,38.01,139.37,76.02,209.05,114.03c-0.68,78.5-1.35,156.99-2.03,235.49
			C695.96,722.6,625.98,760.49,556,798.38c-69.27-38.07-138.53-76.14-207.8-114.21c1.14-78.31,2.28-156.62,3.42-234.94
			C420.72,411.22,489.82,373.21,558.92,335.2z"/>
		<path class="st2" d="M226.9,568.24c218.04-34.22,440.16-34.22,658.2,0c-14.82,16.12-29.34,32.38-43.56,48.79
			c9.09,19.66,17.86,39.38,26.31,59.15c-206.61-32.43-417.08-32.43-623.69,0c8.44-19.77,17.21-39.49,26.31-59.15
			C256.24,600.62,241.72,584.35,226.9,568.24z"/>
		<g>
			<text transform="matrix(0.94 0 0 1 426.5684 530.0078)" class="st2 st3 st4">100</text>
		</g>
		<path id="SVGID_x5F_1_x5F_" class="st5" d="M350.46,640.21c0,0,104.43-17.19,228.82-17.19s217.68,17.19,217.68,17.19"/>
		<text>		<textPath  xlink:href="#SVGID_x5F_1_x5F_" startOffset="17.1385%">
<tspan  class="st1" style="font-family:'OctinCollegeRg-Regular'; font-size:75.4755px; letter-spacing:42.29;">Days Streak</tspan>		</textPath>
</text>
		<polygon class="st2" points="556,802.57 598.64,778.17 513.35,778.17 		"/>
		<polygon class="st2" points="560.23,333.53 602.88,357.93 517.58,357.93 		"/>
	</g>
	<g>
		<polygon class="st0" points="526.94,726.03 529.17,734.71 537.65,737.81 530.01,742.6 529.66,751.55 522.7,745.83 514,748.26 
			517.35,739.93 512.32,732.49 521.35,733.07 		"/>
	</g>
	<g>
		<polygon class="st0" points="600.6,726.03 602.83,734.71 611.31,737.81 603.67,742.6 603.31,751.55 596.36,745.83 587.66,748.26 
			591,739.93 585.98,732.49 595,733.07 		"/>
	</g>
	<g>
		<path class="st6" d="M591.24,672.36c0.68,1.03-30.22,14.11-28.1,23.24c0.92,3.93,7.68,5.95,26.09,16.09
			c1.86,1.03,6.39,3.54,5.98,4.37c-0.04,0.08-0.12,0.13-0.15,0.15c-2.3,1.27-31.92-11.67-31.92-11.67c-0.59-0.26-1.8-0.76-3.24-0.53
			c-0.75,0.12-1.3,0.4-1.47,0.5c-2.02,1.28-1,6.68,0.94,11.11c0.55,1.27,3.9,8.65,5.59,11.97c0.19,0.38,0.67,1.33,0.33,1.65
			c-0.03,0.03-0.07,0.05-0.12,0.06c-0.41,0.1-2.26-0.41-4-1.91c-8.55-7.4-12.63-21.06-12.63-21.06c-0.55-1.83-1.28-4.56-1.89-7.96
			c0,0,0,0,0,0c-1.6-9.99-0.68-17.91,0-22.67c2.22-15.58,4.88-24.82,5.05-24.79c0.23,0.04-2.93,15.67,1.26,23.38
			c0.51,0.94,1.81,3.45,4.84,4.94c2.04,1,3.98,1.23,5.26,1.31c5.34,0.34,9.71-1.37,18.15-4.6
			C588.55,673.12,591.06,672.08,591.24,672.36z"/>
		<ellipse class="st7" cx="563.79" cy="672.39" rx="7.47" ry="5.24"/>
		<text transform="matrix(0.7314 0 0 1 463.2129 706.5645)" class="st7 st8 st9">WOR</text>
		<g>
			<text transform="matrix(0.841 0 0 1 583.2598 706.8691)" class="st7 st8 st10">FIT</text>
		</g>
	</g>
</g>
</svg>
