<?xml version="1.0" encoding="utf-8"?>
<!-- Generator: Adobe Illustrator 23.0.3, SVG Export Plug-In . SVG Version: 6.00 Build 0)  -->
<svg version="1.1" id="Layer_1" xmlns="http://www.w3.org/2000/svg" xmlns:xlink="http://www.w3.org/1999/xlink" x="0px" y="0px"
	 viewBox="0 0 1080 1080" style="enable-background:new 0 0 1080 1080;" xml:space="preserve">
<style type="text/css">
	.st0{fill:#DB584C;}
	.st1{fill:#FFFFFF;}
	.st2{fill:#216572;}
	.st3{font-family:'JosefinSlab-Bold';}
	.st4{font-size:175.0255px;}
	.st5{fill:none;}
	.st6{fill:#1C90BF;}
	.st7{fill:#4DBFD9;}
	.st8{font-family:'BlackOpsOne-Regular';}
	.st9{font-size:45.8516px;}
	.st10{font-size:46.2199px;}
</style>
<g>
	<g>
		<g>
			<polygon class="st0" points="541,259.13 786.44,399.57 786.44,680.43 541,820.87 295.55,680.43 295.55,399.57 			"/>
			<path class="st1" d="M543.92,307.2c69.68,38.01,139.37,76.02,209.05,114.03c-0.68,78.5-1.35,156.99-2.03,235.49
				C680.96,694.6,610.98,732.49,541,770.38c-69.27-38.07-138.53-76.14-207.8-114.21c1.14-78.31,2.28-156.62,3.42-234.94
				C405.72,383.22,474.82,345.21,543.92,307.2z"/>
			<path class="st2" d="M211.9,540.24c218.04-34.22,440.16-34.22,658.2,0c-14.82,16.12-29.34,32.38-43.56,48.79
				c9.09,19.66,17.86,39.38,26.31,59.15c-206.61-32.43-417.08-32.43-623.69,0c8.44-19.77,17.21-39.49,26.31-59.15
				C241.24,572.62,226.72,556.35,211.9,540.24z"/>
			<g>
				<text transform="matrix(0.94 0 0 1 411.5703 502.0078)" class="st2 st3 st4">100</text>
			</g>
			<path id="SVGID_x5F_1_x5F_" class="st5" d="M335.46,612.21c0,0,104.43-17.19,228.82-17.19s217.68,17.19,217.68,17.19"/>
			<text>			<textPath  xlink:href="#SVGID_x5F_1_x5F_" startOffset="17.1385%">
<tspan  class="st1" style="font-family:'OctinCollegeRg-Regular'; font-size:75.4755px; letter-spacing:42.29;">Days Streak</tspan>			</textPath>
</text>
			<polygon class="st2" points="541,774.57 583.64,750.17 498.35,750.17 			"/>
			<polygon class="st2" points="545.23,305.53 587.88,329.93 502.58,329.93 			"/>
		</g>
		<g>
			<polygon class="st0" points="511.94,698.03 514.17,706.71 522.65,709.81 515.01,714.6 514.66,723.55 507.7,717.83 499,720.26 
				502.35,711.93 497.32,704.49 506.35,705.07 			"/>
		</g>
		<g>
			<polygon class="st0" points="585.6,698.03 587.83,706.71 596.31,709.81 588.67,714.6 588.31,723.55 581.36,717.83 572.66,720.26 
				576,711.93 570.98,704.49 580,705.07 			"/>
		</g>
		<g>
			<path class="st6" d="M576.24,644.36c0.68,1.03-30.22,14.11-28.1,23.24c0.92,3.93,7.68,5.95,26.09,16.09
				c1.86,1.03,6.39,3.54,5.98,4.37c-0.04,0.08-0.12,0.13-0.15,0.15c-2.3,1.27-31.92-11.67-31.92-11.67
				c-0.59-0.26-1.8-0.76-3.24-0.53c-0.75,0.12-1.3,0.4-1.47,0.5c-2.02,1.28-1,6.68,0.94,11.11c0.55,1.27,3.9,8.65,5.59,11.97
				c0.19,0.38,0.67,1.33,0.33,1.65c-0.03,0.03-0.07,0.05-0.12,0.06c-0.41,0.1-2.26-0.41-4-1.91c-8.55-7.4-12.63-21.06-12.63-21.06
				c-0.55-1.83-1.28-4.56-1.89-7.96c0,0,0,0,0,0c-1.6-9.99-0.68-17.91,0-22.67c2.22-15.58,4.88-24.82,5.05-24.79
				c0.23,0.04-2.93,15.67,1.26,23.38c0.51,0.94,1.81,3.45,4.84,4.94c2.04,1,3.98,1.23,5.26,1.31c5.34,0.34,9.71-1.37,18.15-4.6
				C573.55,645.12,576.06,644.08,576.24,644.36z"/>
			<ellipse class="st7" cx="548.79" cy="644.39" rx="7.47" ry="5.24"/>
			<text transform="matrix(0.7314 0 0 1 448.2109 678.5645)" class="st7 st8 st9">WOR</text>
			<g>
				<text transform="matrix(0.841 0 0 1 568.2578 678.8691)" class="st7 st8 st10">FIT</text>
			</g>
		</g>
	</g>
	<g>
		<polygon class="st0" points="543.34,702.11 547.88,710.37 558.04,711.7 550.69,718.13 552.42,727.21 543.34,722.92 534.25,727.21 
			535.99,718.13 528.64,711.7 538.8,710.37 		"/>
		<polygon class="st0" points="612.18,693.36 619.48,699.84 629.56,698.12 624.95,706.35 629.89,714.43 619.74,713.03 
			612.71,719.75 611.06,710.66 601.77,706.73 610.89,702.5 		"/>
		<polygon class="st0" points="474.49,693.36 467.2,699.84 457.11,698.12 461.73,706.35 456.79,714.43 466.93,713.03 473.96,719.75 
			475.62,710.66 484.9,706.73 475.78,702.5 		"/>
	</g>
</g>
</svg>
