<?xml version="1.0" encoding="utf-8"?>
<!-- Generator: Adobe Illustrator 23.0.3, SVG Export Plug-In . SVG Version: 6.00 Build 0)  -->
<svg version="1.1" id="Layer_1" xmlns="http://www.w3.org/2000/svg" xmlns:xlink="http://www.w3.org/1999/xlink" x="0px" y="0px"
	 viewBox="0 0 1080 1080" style="enable-background:new 0 0 1080 1080;" xml:space="preserve">
<style type="text/css">
	.st0{fill:#DB584C;}
	.st1{fill:#FFFFFF;}
	.st2{fill:#216572;}
	.st3{font-family:'JosefinSlab-Bold';}
	.st4{font-size:175.0255px;}
	.st5{fill:none;}
	.st6{fill:#1C90BF;}
	.st7{fill:#4DBFD9;}
	.st8{font-family:'BlackOpsOne-Regular';}
	.st9{font-size:45.8516px;}
	.st10{font-size:46.2199px;}
</style>
<g>
	<g>
		<polygon class="st0" points="540.51,259.57 785.95,400 785.95,680.87 540.51,821.3 295.07,680.87 295.07,400 		"/>
		<path class="st1" d="M543.43,307.64c69.68,38.01,139.37,76.02,209.05,114.03c-0.68,78.5-1.35,156.99-2.03,235.49
			c-69.98,37.89-139.96,75.77-209.94,113.66c-69.27-38.07-138.53-76.14-207.8-114.21c1.14-78.31,2.28-156.62,3.42-234.94
			C405.23,383.66,474.33,345.65,543.43,307.64z"/>
		<path class="st2" d="M211.41,540.67c218.04-34.22,440.16-34.22,658.2,0c-14.82,16.12-29.34,32.38-43.56,48.79
			c9.09,19.66,17.86,39.38,26.31,59.15c-206.61-32.43-417.08-32.43-623.69,0c8.44-19.77,17.21-39.49,26.31-59.15
			C240.75,573.06,226.23,556.79,211.41,540.67z"/>
		<g>
			<text transform="matrix(0.94 0 0 1 457.625 502.4414)" class="st2 st3 st4">75</text>
		</g>
		<path id="SVGID_x5F_1_x5F_" class="st5" d="M334.98,612.64c0,0,104.43-17.19,228.82-17.19s217.68,17.19,217.68,17.19"/>
		<text>		<textPath  xlink:href="#SVGID_x5F_1_x5F_" startOffset="17.1385%">
<tspan  class="st1" style="font-family:'OctinCollegeRg-Regular'; font-size:75.4755px; letter-spacing:42.29;">Days Streak</tspan>		</textPath>
</text>
		<polygon class="st2" points="540.51,775 583.16,750.6 497.86,750.6 		"/>
		<polygon class="st2" points="544.74,305.96 587.39,330.36 502.09,330.36 		"/>
	</g>
	<g>
		<polygon class="st0" points="496.12,693.19 496.89,702.12 504.74,706.55 496.41,710.03 494.57,718.8 488.66,712.03 479.68,713.01 
			484.36,705.34 480.64,697.18 489.44,699.22 		"/>
	</g>
	<g>
		<polygon class="st0" points="568.78,700.99 569.54,709.92 577.39,714.36 569.06,717.83 567.23,726.6 561.32,719.83 552.33,720.81 
			557.01,713.14 553.29,704.98 562.09,707.02 		"/>
	</g>
	<g>
		<polygon class="st0" points="529.79,701.76 530.55,710.69 538.4,715.13 530.07,718.6 528.24,727.37 522.33,720.6 513.34,721.58 
			518.02,713.91 514.3,705.75 523.1,707.79 		"/>
	</g>
	<g>
		<polygon class="st0" points="602.11,690.66 602.88,699.59 610.73,704.03 602.4,707.5 600.56,716.28 594.65,709.5 585.67,710.48 
			590.34,702.82 586.62,694.65 595.43,696.69 		"/>
	</g>
	<g>
		<path class="st6" d="M575.75,644.79c0.68,1.03-30.22,14.11-28.1,23.24c0.91,3.93,7.68,5.95,26.09,16.09
			c1.86,1.03,6.39,3.54,5.98,4.37c-0.04,0.08-0.12,0.13-0.15,0.15c-2.3,1.27-31.92-11.67-31.92-11.67c-0.59-0.26-1.8-0.76-3.24-0.53
			c-0.75,0.12-1.3,0.4-1.47,0.5c-2.02,1.28-1,6.68,0.94,11.11c0.55,1.27,3.9,8.65,5.59,11.97c0.19,0.38,0.67,1.33,0.33,1.65
			c-0.03,0.03-0.07,0.05-0.12,0.06c-0.41,0.1-2.26-0.41-4-1.91c-8.55-7.4-12.63-21.06-12.63-21.06c-0.55-1.83-1.28-4.56-1.89-7.96
			c0,0,0,0,0,0c-1.6-9.99-0.68-17.91,0-22.67c2.22-15.58,4.88-24.82,5.05-24.79c0.23,0.04-2.93,15.67,1.26,23.38
			c0.51,0.94,1.81,3.45,4.84,4.94c2.04,1,3.98,1.23,5.26,1.31c5.34,0.34,9.71-1.37,18.15-4.6
			C573.07,645.56,575.57,644.52,575.75,644.79z"/>
		<ellipse class="st7" cx="548.31" cy="644.83" rx="7.47" ry="5.24"/>
		<text transform="matrix(0.7314 0 0 1 447.7266 679)" class="st7 st8 st9">WOR</text>
		<g>
			<text transform="matrix(0.841 0 0 1 567.7734 679.3008)" class="st7 st8 st10">FIT</text>
		</g>
	</g>
</g>
<text transform="matrix(1 0 0 1 -161.9019 -1.7061)" style="font-family:'MyriadPro-Regular'; font-size:12px;">Lorem ipsum</text>
</svg>
