<?xml version="1.0" encoding="UTF-8"?>
<svg width="1001px" height="1001px" viewBox="0 0 1001 1001" version="1.1" xmlns="http://www.w3.org/2000/svg" xmlns:xlink="http://www.w3.org/1999/xlink">
    <!-- Generator: Sketch 55.1 (78136) - https://sketchapp.com -->
    <title>编组 45</title>
    <desc>Created with Sketch.</desc>
    <defs>
        <linearGradient x1="35.9218931%" y1="57.2603212%" x2="53.3233655%" y2="40.0446313%" id="linearGradient-1">
            <stop stop-color="#ECF1FF" offset="0%"></stop>
            <stop stop-color="#FFFFFF" offset="100%"></stop>
        </linearGradient>
        <path d="M224.069008,98.5910943 C223.192147,73.5179607 157.68096,79.1697722 132.410035,81.5886024 C107.138752,84.0074325 104.844294,49.6592504 126.64827,44.5536081 C148.451887,39.4479658 187.991235,42.0828069 208.47759,37.3698772 C228.963946,32.6569475 203.049441,7.38103219 230.963131,4.33439096 C258.876821,1.28793871 316.595166,4.10855284 333.801985,3.48962411 C360.829498,2.51748079 374.69622,34.964276 327.345396,36.436665 C314.28745,36.8426066 311.667977,65.6678656 355.74428,57.7499246 C383.403906,52.781108 437.67322,52.6663936 448.962753,65.3522592 C455.440125,72.6308611 453.195477,92.1856071 442.059672,102.983693 C433.78737,111.005198 407.479764,112.569245 397.174235,114.423386 C372.996608,118.77384 377.776161,142.118698 386.020154,146.925554 C405.528956,158.300046 459.070836,136.833141 460.505992,168.067403 C461.140256,181.869419 412.423795,184.097752 392.448434,183.929176 C343.456767,183.515864 311.267352,187.868587 309.00837,171.203057 C306.740788,154.472516 339.451948,165.764988 337.839055,145.1969 C336.996237,134.448895 339.255218,111.610331 318.268619,112.809068 C347.001476,111.167726 225.253325,132.454906 224.069008,98.5910943 Z" id="path-2"></path>
        <filter x="-2.9%" y="-8.0%" width="107.4%" height="115.0%" filterUnits="objectBoundingBox" id="filter-3">
            <feGaussianBlur stdDeviation="11.5" in="SourceAlpha" result="shadowBlurInner1"></feGaussianBlur>
            <feOffset dx="0" dy="-13" in="shadowBlurInner1" result="shadowOffsetInner1"></feOffset>
            <feComposite in="shadowOffsetInner1" in2="SourceAlpha" operator="arithmetic" k2="-1" k3="1" result="shadowInnerInner1"></feComposite>
            <feColorMatrix values="0 0 0 0 0.788056219   0 0 0 0 0.827193393   0 0 0 0 0.897640306  0 0 0 0.337126359 0" type="matrix" in="shadowInnerInner1"></feColorMatrix>
        </filter>
        <linearGradient x1="35.9218931%" y1="57.6659234%" x2="53.3233655%" y2="39.4884687%" id="linearGradient-4">
            <stop stop-color="#ECF1FF" offset="0%"></stop>
            <stop stop-color="#FFFFFF" offset="100%"></stop>
        </linearGradient>
        <path d="M588.118538,246.802181 C588.183455,221.597929 522.541899,224.814614 497.211476,226.294855 C471.8807,227.775288 470.878364,193.206435 492.846498,188.898784 C514.814984,184.590942 554.206339,188.719251 574.843669,184.756327 C595.481352,180.793402 570.547841,154.44637 598.541282,152.434986 C626.53437,150.423602 684.075032,155.420324 701.283744,155.444415 C728.31401,155.482271 740.946058,188.576427 693.598813,188.278352 C680.541982,188.196138 676.843816,217.035795 721.16253,210.740277 C748.974626,206.789589 803.180517,208.709964 813.979711,221.869045 C820.175779,229.419193 817.20017,248.96614 805.673127,259.38882 C797.11005,267.131694 770.776585,267.714842 760.414172,269.189921 C736.103373,272.650191 740.000877,296.265984 748.054495,301.40075 C767.111937,313.551653 821.392977,294.009104 821.65441,325.419395 C821.769779,339.299476 773.02999,339.709019 753.085933,338.790512 C704.170797,336.537838 671.85789,339.700224 670.227197,322.884706 C668.590154,306.003417 700.837085,318.567304 699.9981,297.858075 C699.559556,287.036369 702.672761,264.193008 681.667096,264.609242 C710.426137,264.039477 588.030688,280.842949 588.118538,246.802181 Z" id="path-5"></path>
        <filter x="-3.1%" y="-8.0%" width="107.8%" height="116.7%" filterUnits="objectBoundingBox" id="filter-6">
            <feGaussianBlur stdDeviation="11.5" in="SourceAlpha" result="shadowBlurInner1"></feGaussianBlur>
            <feOffset dx="0" dy="-13" in="shadowBlurInner1" result="shadowOffsetInner1"></feOffset>
            <feComposite in="shadowOffsetInner1" in2="SourceAlpha" operator="arithmetic" k2="-1" k3="1" result="shadowInnerInner1"></feComposite>
            <feColorMatrix values="0 0 0 0 0.788056219   0 0 0 0 0.827193393   0 0 0 0 0.897640306  0 0 0 0.337126359 0" type="matrix" in="shadowInnerInner1"></feColorMatrix>
        </filter>
        <linearGradient x1="46.1673945%" y1="-9.21335019%" x2="60.4540381%" y2="50%" id="linearGradient-7">
            <stop stop-color="#CFDDF3" offset="0%"></stop>
            <stop stop-color="#A1B8E3" offset="100%"></stop>
        </linearGradient>
        <linearGradient x1="50%" y1="0%" x2="50%" y2="100%" id="linearGradient-8">
            <stop stop-color="#CFDDF3" offset="0%"></stop>
            <stop stop-color="#A1B8E3" offset="100%"></stop>
        </linearGradient>
        <linearGradient x1="50%" y1="0%" x2="50%" y2="100%" id="linearGradient-9">
            <stop stop-color="#CFDDF3" offset="0%"></stop>
            <stop stop-color="#A1B8E3" offset="100%"></stop>
        </linearGradient>
        <linearGradient x1="50%" y1="0%" x2="50%" y2="100%" id="linearGradient-10">
            <stop stop-color="#CFDDF3" offset="0%"></stop>
            <stop stop-color="#A1B8E3" offset="100%"></stop>
        </linearGradient>
        <linearGradient x1="50%" y1="0%" x2="50%" y2="100%" id="linearGradient-11">
            <stop stop-color="#CFDDF3" offset="0%"></stop>
            <stop stop-color="#A1B8E3" offset="100%"></stop>
        </linearGradient>
        <linearGradient x1="68.0570353%" y1="-30.2653238%" x2="50%" y2="100%" id="linearGradient-12">
            <stop stop-color="#CFDDF3" offset="0%"></stop>
            <stop stop-color="#A1B8E3" offset="100%"></stop>
        </linearGradient>
        <linearGradient x1="67.997515%" y1="-30.2653238%" x2="50%" y2="100%" id="linearGradient-13">
            <stop stop-color="#CFDDF3" offset="0%"></stop>
            <stop stop-color="#A1B8E3" offset="100%"></stop>
        </linearGradient>
        <linearGradient x1="67.9974426%" y1="-30.2653238%" x2="50%" y2="100%" id="linearGradient-14">
            <stop stop-color="#CFDDF3" offset="0%"></stop>
            <stop stop-color="#A1B8E3" offset="100%"></stop>
        </linearGradient>
        <linearGradient x1="68.0533286%" y1="-30.2653238%" x2="50%" y2="100%" id="linearGradient-15">
            <stop stop-color="#CFDDF3" offset="0%"></stop>
            <stop stop-color="#A1B8E3" offset="100%"></stop>
        </linearGradient>
        <linearGradient x1="68.0426942%" y1="-30.2653238%" x2="50%" y2="100%" id="linearGradient-16">
            <stop stop-color="#CFDDF3" offset="0%"></stop>
            <stop stop-color="#A1B8E3" offset="100%"></stop>
        </linearGradient>
        <linearGradient x1="68.0343904%" y1="-30.2653238%" x2="50%" y2="100%" id="linearGradient-17">
            <stop stop-color="#CFDDF3" offset="0%"></stop>
            <stop stop-color="#A1B8E3" offset="100%"></stop>
        </linearGradient>
        <linearGradient x1="12.0299736%" y1="46.9762268%" x2="20.148299%" y2="52.5865892%" id="linearGradient-18">
            <stop stop-color="#FFFFFF" offset="0%"></stop>
            <stop stop-color="#D6E3FA" offset="100%"></stop>
        </linearGradient>
        <linearGradient x1="50%" y1="100%" x2="50%" y2="-97.5239132%" id="linearGradient-19">
            <stop stop-color="#FFFFFF" offset="0%"></stop>
            <stop stop-color="#D6E3FA" offset="100%"></stop>
        </linearGradient>
        <filter x="-71.0%" y="-1267.4%" width="242.0%" height="2634.8%" filterUnits="objectBoundingBox" id="filter-20">
            <feGaussianBlur stdDeviation="28.0145089 0" in="SourceGraphic"></feGaussianBlur>
        </filter>
        <linearGradient x1="46.1673945%" y1="-9.21335019%" x2="60.4540381%" y2="50%" id="linearGradient-21">
            <stop stop-color="#CFDDF3" offset="0%"></stop>
            <stop stop-color="#A1B8E3" offset="100%"></stop>
        </linearGradient>
        <linearGradient x1="50%" y1="0%" x2="50%" y2="100%" id="linearGradient-22">
            <stop stop-color="#CFDDF3" offset="0%"></stop>
            <stop stop-color="#A1B8E3" offset="100%"></stop>
        </linearGradient>
        <linearGradient x1="50%" y1="0%" x2="50%" y2="100%" id="linearGradient-23">
            <stop stop-color="#CFDDF3" offset="0%"></stop>
            <stop stop-color="#A1B8E3" offset="100%"></stop>
        </linearGradient>
        <linearGradient x1="50%" y1="0%" x2="50%" y2="100%" id="linearGradient-24">
            <stop stop-color="#CFDDF3" offset="0%"></stop>
            <stop stop-color="#A1B8E3" offset="100%"></stop>
        </linearGradient>
        <linearGradient x1="92.0924801%" y1="16.0556086%" x2="-46.0292161%" y2="16.0556093%" id="linearGradient-25">
            <stop stop-color="#D0DCF1" offset="0%"></stop>
            <stop stop-color="#FFFFFF" stop-opacity="0" offset="100%"></stop>
        </linearGradient>
        <linearGradient x1="92.0924801%" y1="16.0556086%" x2="-46.0292161%" y2="16.0556093%" id="linearGradient-26">
            <stop stop-color="#D0DCF1" offset="0%"></stop>
            <stop stop-color="#FFFFFF" stop-opacity="0" offset="100%"></stop>
        </linearGradient>
    </defs>
    <g id="上传" stroke="none" stroke-width="1" fill="none" fill-rule="evenodd">
        <g id="4" transform="translate(-8793.000000, -181.000000)">
            <g id="编组-45" transform="translate(8793.333333, 182.000000)">
                <rect id="矩形备份-30" x="0" y="0" width="1000" height="1000"></rect>
                <g id="编组-121" transform="translate(20.000000, 148.000000)">
                    <g id="编组-5">
                        <g id="cloud" opacity="0.300000012" transform="translate(283.133641, 94.492936) scale(-1, 1) translate(-283.133641, -94.492936) ">
                            <use fill="url(#linearGradient-1)" fill-rule="evenodd" xlink:href="#path-2"></use>
                            <use fill="black" fill-opacity="1" filter="url(#filter-3)" xlink:href="#path-2"></use>
                        </g>
                        <g id="cloud" opacity="0.200000003" transform="translate(646.451613, 244.797488) scale(-1, 1) translate(-646.451613, -244.797488) ">
                            <use fill="url(#linearGradient-4)" fill-rule="evenodd" xlink:href="#path-5"></use>
                            <use fill="black" fill-opacity="1" filter="url(#filter-6)" xlink:href="#path-5"></use>
                        </g>
                        <g id="tree" opacity="0.205803571" transform="translate(583.920313, 414.759273) rotate(-1.000000) translate(-583.920313, -414.759273) translate(541.920313, 309.259273)">
                            <path d="M64.358211,181.126455 C59.6553181,185.282184 41.7702442,176.970727 34.6792132,164.069823 C27.5881823,151.168919 40.7420567,146.576868 22.8504517,125.943562 C4.95884677,105.310256 -6.52143897,97.408135 4.33628723,63.3977732 C15.1940134,29.3874114 0.194164716,10.4860374 20.0136071,1.61291345 C39.8330496,-7.26021054 51.2469993,22.1886903 48.9736061,48.091975 C46.7002128,73.9952596 51.3500598,79.3636434 70.7360419,76.6794515 C90.1220241,73.9952596 73.7778421,112.023583 73.7778421,120.324442 C73.7778421,128.625302 85.5328009,144.043131 83.0942077,155.642837 C80.6556145,167.242543 69.0611038,176.970727 64.358211,181.126455 Z" id="leaves" fill="url(#linearGradient-7)"></path>
                            <path d="M53.0353845,144.964705 C53.0353845,138.593581 54.6468408,118.742789 63.4129932,106.653539" id="branch" stroke="url(#linearGradient-8)" stroke-width="5.4" stroke-linecap="round"></path>
                            <path d="M12.6567835,107.788987 C12.6567835,101.417863 30.5644799,96.9449921 39.3306324,84.8557424" id="branch" stroke="url(#linearGradient-9)" stroke-width="5.4" stroke-linecap="round" transform="translate(25.993708, 96.322365) scale(-1, 1) translate(-25.993708, -96.322365) "></path>
                            <path d="M74.9201538,210.967598 C74.9201538,208.256918 70.2466278,196.037615 65.7807767,181.880234 C51.7960775,137.546754 29.2535903,82.9548331 29.2535903,45.1248672" id="stem" stroke="url(#linearGradient-10)" stroke-width="5.4" stroke-linecap="round"></path>
                        </g>
                        <g id="plant" transform="translate(254.802878, 406.366785) rotate(-7.000000) translate(-254.802878, -406.366785) translate(176.302878, 277.866785)">
                            <path d="M38.0317476,256.018253 C38.0317476,222.675315 65.9341967,119.489627 103.597144,63.0288637" id="stem" stroke="url(#linearGradient-11)" stroke-width="5.4" stroke-linecap="round"></path>
                            <path d="M70.9846321,82.8016506 C77.4319402,73.7458257 80.6529301,63.6305522 80.647602,52.4558303 C80.6395965,35.6937474 76.3003718,22.1033279 70.9556656,22.1007788 C65.6109595,22.0982297 61.2847035,35.6845163 61.2926913,52.4465992 C61.2980312,63.6213211 64.5286782,73.7396716 70.9846321,82.8016506 Z" id="leaf" fill="url(#linearGradient-12)" transform="translate(70.970147, 52.451215) rotate(-30.000000) translate(-70.970147, -52.451215) "></path>
                            <path d="M126.159607,113.785572 C132.606265,104.718946 135.829809,94.5936622 135.830239,83.409719 C135.830883,66.6338042 131.502238,53.03461 126.16194,53.03461 C120.821642,53.03461 116.491953,66.6345477 116.491308,83.4104626 C116.490879,94.5944058 119.713645,104.719442 126.159607,113.785572 Z" id="leaf" fill="url(#linearGradient-13)" transform="translate(126.160774, 83.410091) rotate(88.000000) translate(-126.160774, -83.410091) "></path>
                            <path d="M108.136322,157.798281 C114.582452,148.732019 117.805409,138.60691 117.805194,127.422956 C117.804872,110.647024 113.475448,97.0472582 108.135155,97.0472582 C102.794862,97.0472582 98.465961,110.646652 98.4662833,127.422584 C98.4664982,138.606538 101.689845,148.731771 108.136322,157.798281 Z" id="leaf" fill="url(#linearGradient-14)" transform="translate(108.135739, 127.422770) rotate(91.000000) translate(-108.135739, -127.422770) "></path>
                            <path d="M93.4477784,200.479083 C99.8939078,191.41282 103.116865,181.287712 103.11665,170.103757 C103.116328,153.327826 98.7869039,139.72806 93.4466111,139.72806 C88.1063184,139.72806 83.777417,153.327454 83.7777394,170.103385 C83.7779543,181.28734 87.0013006,191.412572 93.4477784,200.479083 Z" id="leaf" fill="url(#linearGradient-14)" transform="translate(93.447195, 170.103571) rotate(91.000000) translate(-93.447195, -170.103571) "></path>
                            <path d="M123.316565,61.5776163 C129.772425,52.5150029 133.003171,42.3960481 133.008805,31.2207519 C133.01723,14.4578076 128.691552,0.870936099 123.347121,0.873625057 C118.002689,0.876314015 113.663331,14.4675452 113.654886,31.2304895 C113.649266,42.4057857 116.869825,52.5214946 123.316565,61.5776163 Z" id="leaf" fill="url(#linearGradient-15)" transform="translate(123.331845, 31.225621) rotate(33.000000) translate(-123.331845, -31.225621) "></path>
                            <path d="M46.9705484,129.368312 C53.4159543,120.311127 56.6356113,110.194063 56.6295195,99.0171191 C56.6203644,82.2517035 52.2810704,68.6582859 46.9374264,68.6553706 C41.5937823,68.6524563 37.2693175,82.2411481 37.2784494,99.0065637 C37.2845567,110.183507 40.5152563,120.30409 46.9705484,129.368312 Z" id="leaf" fill="url(#linearGradient-16)" transform="translate(46.953984, 99.011841) rotate(-41.000000) translate(-46.953984, -99.011841) "></path>
                            <path d="M28.9456358,176.05192 C35.390263,166.993718 38.6095082,156.875502 38.6033715,145.697272 C38.594149,128.929927 34.2552988,115.334927 28.9122698,115.331991 C23.5692407,115.329055 19.2453291,128.919294 19.2545282,145.686639 C19.2606805,156.864869 22.4910497,166.98663 28.9456358,176.05192 Z" id="leaf" fill="url(#linearGradient-17)" transform="translate(28.928950, 145.691955) rotate(-47.000000) translate(-28.928950, -145.691955) "></path>
                        </g>
                        <g id="plant" opacity="0.200000003" transform="translate(173.739976, 448.521892) rotate(-38.000000) translate(-173.739976, -448.521892) translate(110.239976, 345.021892)">
                            <path d="M30.7490725,206.993481 C30.7490725,180.035361 53.3084995,96.6086342 83.7593931,50.9595068" id="stem" stroke="#A1B8E3" stroke-width="5.4" stroke-linecap="round"></path>
                            <path d="M57.3918302,66.9460154 C62.6045474,59.6242846 65.208752,51.4459784 65.2044441,42.4110968 C65.1979716,28.8587745 61.6896623,17.8707758 57.3684105,17.8687148 C53.0471588,17.8666538 49.5493348,28.8513111 49.555793,42.4036334 C49.5601104,51.438515 52.1721228,59.619309 57.3918302,66.9460154 Z" id="leaf" fill="#A1B8E3" transform="translate(57.380119, 42.407365) rotate(-30.000000) translate(-57.380119, -42.407365) "></path>
                            <path d="M102.001384,91.9968451 C107.213576,84.6663822 109.819846,76.4799822 109.820193,67.4376452 C109.820714,53.8741396 106.320959,42.8790464 102.003271,42.8790464 C97.6855829,42.8790464 94.184983,53.8747407 94.1844621,67.4382463 C94.1841148,76.4805834 96.7897556,84.666783 102.001384,91.9968451 Z" id="leaf" fill="#A1B8E3" transform="translate(102.002328, 67.437946) rotate(88.000000) translate(-102.002328, -67.437946) "></path>
                            <path d="M87.429367,127.581589 C92.6411312,120.251419 95.2469265,112.065161 95.2467527,103.022815 C95.2464921,89.4592959 91.7461068,78.4637407 87.4284233,78.4637407 C83.1107398,78.4637407 79.610777,89.4589952 79.6110376,103.022514 C79.6112113,112.064861 82.2173212,120.251219 87.429367,127.581589 Z" id="leaf" fill="#A1B8E3" transform="translate(87.428895, 103.022665) rotate(91.000000) translate(-87.428895, -103.022665) "></path>
                            <path d="M75.553523,162.089471 C80.7652872,154.759302 83.3710824,146.573044 83.3709086,137.530697 C83.370648,123.967178 79.8702627,112.971623 75.5525792,112.971623 C71.2348957,112.971623 67.7349329,123.966877 67.7351935,137.530397 C67.7353673,146.572743 70.3414771,154.759101 75.553523,162.089471 Z" id="leaf" fill="#A1B8E3" transform="translate(75.553051, 137.530547) rotate(91.000000) translate(-75.553051, -137.530547) "></path>
                            <path d="M99.7027546,49.7861579 C104.922386,42.4589385 107.534479,34.2776559 107.539033,25.24231 C107.545846,11.6892912 104.048489,0.704161102 99.7274593,0.706335152 C95.4064295,0.708509203 91.8980124,11.6971642 91.8911844,25.250183 C91.8866404,34.2855288 94.4904971,42.4641871 99.7027546,49.7861579 Z" id="leaf" fill="#A1B8E3" transform="translate(99.715109, 25.246247) rotate(33.000000) translate(-99.715109, -25.246247) "></path>
                            <path d="M37.9761881,104.595656 C43.1873673,97.2728261 45.7904942,89.0930721 45.7855689,80.0563942 C45.778167,66.5013773 42.2698016,55.5109546 37.9494085,55.5085975 C33.6290155,55.5062413 30.1326397,66.4928432 30.140023,80.04786 C30.1449607,89.0845379 32.7570158,97.2671367 37.9761881,104.595656 Z" id="leaf" fill="#A1B8E3" transform="translate(37.962796, 80.052127) rotate(-41.000000) translate(-37.962796, -80.052127) "></path>
                            <path d="M23.4028545,142.33985 C28.6134041,135.016198 31.2161981,126.835513 31.2112365,117.797794 C31.20378,104.241217 27.6957735,93.2495158 23.3758777,93.2471414 C19.0559818,93.2447678 15.5600533,104.23262 15.5674909,117.789197 C15.5724651,126.826916 18.184253,135.010466 23.4028545,142.33985 Z" id="leaf" fill="#A1B8E3" transform="translate(23.389364, 117.793496) rotate(-47.000000) translate(-23.389364, -117.793496) "></path>
                        </g>
                        <path d="M0,559.895835 C50.5320969,540.724791 179.253938,495.120879 292.448986,495.120879 C405.644034,495.120879 545.962831,568.937048 636.515368,577.313722 C696.883727,582.898172 804.711937,587.624261 960,591.491988 L960,704 L0,704 C0,656.919823 0,608.885101 0,559.895835 Z" id="ground" fill="url(#linearGradient-18)" transform="translate(480.000000, 599.560440) scale(-1, 1) translate(-480.000000, -599.560440) "></path>
                        <path d="M0,559.895835 C50.5320969,540.724791 179.253938,495.120879 292.448986,495.120879 C405.644034,495.120879 545.962831,568.937048 636.515368,577.313722 C696.883727,582.898172 804.711937,587.624261 960,591.491988 L960,704 L0,704 C0,656.919823 0,608.885101 0,559.895835 Z" id="ground" fill="url(#linearGradient-19)"></path>
                        <ellipse id="shadow" fill="#8699BF" opacity="0.200000003" filter="url(#filter-20)" cx="677.419355" cy="543.748823" rx="59.1705069" ry="3.3155416"></ellipse>
                        <g id="tree" opacity="0.821875" transform="translate(673.728571, 382.501395) rotate(18.000000) translate(-673.728571, -382.501395) translate(612.228571, 228.001395)">
                            <path d="M94.2204208,265.169131 C87.3353857,271.253118 61.1516374,259.085144 50.7703682,240.198221 C40.3890989,221.311298 59.646371,214.588534 33.4530613,184.381374 C7.25975167,154.174214 -9.54738665,142.60551 6.34832451,92.81434 C22.2440357,43.0231703 0.284257145,15.3515588 29.2999209,2.36130529 C58.3155846,-10.6289482 75.025607,32.4842426 71.6973593,70.4066513 C68.3691116,108.32906 75.1764876,116.188374 103.557565,112.258717 C131.938643,108.32906 108.010761,164.002525 108.010761,176.154984 C108.010761,188.307442 125.22002,210.879144 121.64992,227.861113 C118.07982,244.843082 101.105456,259.085144 94.2204208,265.169131 Z" id="leaves" fill="url(#linearGradient-21)"></path>
                            <path d="M77.6438029,212.228328 C77.6438029,202.901002 80.0029749,173.839443 92.8366221,156.140781" id="branch" stroke="url(#linearGradient-22)" stroke-width="5.4" stroke-linecap="round"></path>
                            <path d="M18.5295311,157.803077 C18.5295311,148.475751 44.7463986,141.927468 57.5800458,124.228807" id="branch" stroke="url(#linearGradient-23)" stroke-width="5.4" stroke-linecap="round" transform="translate(38.054788, 141.015942) scale(-1, 1) translate(-38.054788, -141.015942) "></path>
                            <path d="M109.683105,308.856564 C109.683105,304.888128 102.841063,286.999069 96.3030572,266.272662 C75.8294575,201.368447 42.8272563,121.445876 42.8272563,66.0628055" id="stem" stroke="url(#linearGradient-24)" stroke-width="5.4" stroke-linecap="round"></path>
                        </g>
                        <path d="M318.525346,631.058085 L581.751152,656.939725 C579.593368,662.826497 573.888175,666.652392 567.622927,666.414095 L318.525346,656.939725" id="shadow" fill="url(#linearGradient-25)" opacity="0.5"></path>
                        <polyline id="shadow" fill="url(#linearGradient-26)" opacity="0.5" points="217.440345 664.213501 468.940092 674.426858 468.940092 688.504182 216.774194 695.158556"></polyline>
                    </g>
                    <g id="90" transform="translate(273.000000, 160.000000)" fill-rule="nonzero">
                        <path d="M332.379487,522.986 C332.379487,522.986 333.484615,528.516 332.379487,530.728 C331.274359,532.94 320.223077,535.152 313.592308,531.834 C306.961538,528.516 305.85641,526.304 295.910256,522.986 C285.964103,520.774 274.912821,518.562 274.912821,507.502 C274.912821,507.502 280.438462,513.032 285.964103,515.244 C292.594872,516.35 301.435897,518.562 304.751282,519.668 C309.171795,519.668 332.379487,522.986 332.379487,522.986 Z" id="路径" fill="#464489"></path>
                        <path d="M10.7871795,212.2 L10.7871795,217.73 C10.7871795,217.73 7.47179487,219.942 4.15641026,216.624 C0.841025641,213.306 -1.36923077,206.67 3.05128205,201.14 C6.36666667,195.61 11.8923077,188.974 12.9974359,184.55 C15.2076923,180.126 18.5230769,164.642 36.2051282,164.642 L25.1538462,175.702 L10.7871795,212.2 Z" id="路径" fill="#464489"></path>
                        <g id="编组" transform="translate(15.102564, 0.000000)">
                            <path d="M0.105128205,214.412 C0.105128205,214.412 11.1564103,213.306 14.4717949,213.306 C18.8923077,213.306 50.9410256,215.518 50.9410256,215.518 L50.9410256,192.292 L29.9435897,195.61 C29.9435897,195.61 24.4179487,194.504 25.5230769,190.08 C26.6282051,185.656 26.6282051,184.55 26.6282051,184.55 L11.1564103,175.702 C4.52564103,187.868 1.21025641,200.034 0.105128205,214.412 Z" id="路径" fill="#FFD9CC"></path>
                            <path d="M308.435897,507.502 C308.435897,507.502 308.435897,507.502 308.435897,507.502 C306.225641,503.078 304.015385,497.548 304.015385,494.23 C304.015385,488.7 301.805128,455.52 301.805128,455.52 L279.702564,464.368 L284.123077,486.488 C284.123077,486.488 285.228205,497.548 284.123077,500.866 C283.017949,503.078 275.282051,504.184 275.282051,504.184 C275.282051,504.184 277.492308,514.138 279.702564,515.244 C281.912821,516.35 296.279487,518.562 298.489744,518.562 C300.7,518.562 306.225641,517.456 306.225641,517.456 C306.225641,517.456 309.541026,513.032 309.541026,513.032 C309.541026,513.032 309.541026,513.032 309.541026,513.032 C310.646154,509.714 310.646154,507.502 308.435897,507.502 Z" id="路径" fill="#FFD9CC"></path>
                            <path d="M317.276923,246.486 L318.382051,254.228 C318.382051,254.228 305.120513,273.03 302.910256,275.242 C302.910256,275.242 292.964103,325.012 287.438462,341.602 C280.807692,359.298 281.912821,380.312 287.438462,390.266 C292.964103,400.22 301.805128,427.87 300.7,437.824 C299.594872,447.778 304.015385,459.944 304.015385,459.944 C304.015385,459.944 291.858974,467.686 278.597436,466.58 C278.597436,466.58 267.546154,426.764 262.020513,413.492 C256.494872,400.22 243.233333,367.04 247.653846,340.496 C250.969231,313.952 253.179487,281.878 246.548718,266.394 C241.023077,250.91 227.761538,243.168 204.553846,238.744 C181.346154,234.32 158.138462,226.578 158.138462,226.578 C158.138462,226.578 131.615385,223.26 123.879487,221.048 C117.248718,218.836 95.1461538,226.578 66.4128205,219.942 L47.625641,218.836 C47.625641,218.836 40.9948718,197.822 50.9410256,192.292 C50.9410256,192.292 75.2538462,192.292 79.674359,188.974 C85.2,186.762 131.615385,185.656 151.507692,188.974 C151.507692,188.974 224.446154,174.596 248.758974,179.02 L317.276923,246.486 Z" id="路径" fill="#464489"></path>
                            <g transform="translate(230.025641, 0.000000)">
                                <path d="M19.8384615,34.134 L16.5230769,39.664 C16.5230769,39.664 16.5230769,49.618 16.5230769,51.83 C15.4179487,54.042 17.6282051,59.572 18.7333333,60.678 C19.8384615,62.89 23.1538462,76.162 24.2589744,79.48 C24.2589744,82.798 31.9948718,108.236 33.1,112.66 C34.2051282,117.084 41.9410256,130.356 43.0461538,134.78 C44.1512821,139.204 50.7820513,135.886 50.7820513,135.886 L64.0435897,117.084 C64.0435897,117.084 49.6769231,107.13 40.8358974,87.222 C33.1,67.314 31.9948718,66.208 31.9948718,66.208 C31.9948718,66.208 29.7846154,63.996 31.9948718,59.572 C33.1,56.254 36.4153846,48.512 36.4153846,48.512 C36.4153846,48.512 38.625641,42.982 35.3102564,41.876 C33.1,40.77 29.7846154,39.664 28.6794872,37.452 C27.574359,36.346 25.3641026,36.346 24.2589744,38.558 L23.1538462,39.664 C23.1538462,39.664 24.2589744,35.24 19.8384615,34.134 Z" id="路径" fill="#FFD9CC"></path>
                                <path d="M66.2538462,17.544 L57.4128205,24.18 C57.4128205,24.18 56.3076923,37.452 58.5179487,40.77 C58.5179487,40.77 61.8333333,45.194 60.7282051,47.406 C59.6230769,50.724 56.3076923,57.36 56.3076923,57.36 C56.3076923,57.36 56.3076923,59.572 58.5179487,59.572 C60.7282051,59.572 62.9384615,60.678 62.9384615,62.89 C62.9384615,65.102 65.1487179,65.102 66.2538462,63.996 C66.2538462,63.996 64.0435897,66.208 66.2538462,68.42 C66.2538462,68.42 69.5692308,68.42 69.5692308,72.844 C69.5692308,77.268 73.9897436,76.162 75.0948718,76.162 C77.3051282,75.056 83.9358974,73.95 83.9358974,73.95 L85.0410256,82.798 L117.089744,78.374 L111.564103,56.254 L104.933333,25.286 L66.2538462,17.544" id="路径" fill="#FFD9CC"></path>
                                <path d="M18.7333333,179.02 C18.7333333,179.02 38.625641,214.412 59.6230769,228.79 C81.725641,243.168 89.4615385,249.804 88.3564103,254.228 C88.3564103,254.228 96.0923077,228.79 96.0923077,211.094 C96.0923077,211.094 97.1974359,202.246 101.617949,197.822 C106.038462,193.398 140.297436,146.946 141.402564,120.402 C142.507692,93.858 115.984615,72.844 115.984615,72.844 C115.984615,70.632 96.0923077,71.738 88.3564103,76.162 C82.8307692,79.48 65.1487179,98.282 62.9384615,103.812 C61.8333333,107.13 59.6230769,109.342 58.5179487,110.448 C56.3076923,111.554 55.2025641,112.66 52.9923077,114.872 C48.5717949,120.402 43.0461538,131.462 50.7820513,145.84 C51.8871795,145.84 41.9410256,173.49 18.7333333,179.02 Z" id="路径" fill="#FF7AA7"></path>
                                <path d="M9.89230769,158.006 C8.78717949,158.006 7.68205128,158.006 6.57692308,158.006 C6.57692308,158.006 6.57692308,156.9 6.57692308,156.9 C6.57692308,156.9 5.47179487,155.794 5.47179487,155.794 C5.47179487,155.794 6.57692308,155.794 6.57692308,155.794 C6.57692308,155.794 7.68205128,155.794 7.68205128,155.794 C7.68205128,155.794 7.68205128,154.688 7.68205128,154.688 C8.78717949,155.794 8.78717949,156.9 9.89230769,158.006 C9.89230769,159.112 10.9974359,159.112 12.1025641,160.218 C10.9974359,159.112 9.89230769,158.006 8.78717949,158.006" id="路径" fill="#FBC5B3"></path>
                                <path d="M86.1461538,125.932 C82.8307692,127.038 79.5153846,127.038 77.3051282,127.038 C76.2,127.038 73.9897436,125.932 73.9897436,123.72 C73.9897436,122.614 73.9897436,120.402 75.0948718,119.296 C76.2,118.19 77.3051282,117.084 78.4102564,117.084 C80.6205128,115.978 81.725641,115.978 83.9358974,114.872 C88.3564103,112.66 92.7769231,110.448 98.3025641,110.448 C102.723077,109.342 108.248718,109.342 112.669231,111.554 C113.774359,111.554 114.879487,112.66 114.879487,113.766 C115.984615,114.872 114.879487,117.084 113.774359,118.19 C112.669231,119.296 110.458974,120.402 109.353846,120.402 C108.248718,120.402 106.038462,121.508 104.933333,121.508 C103.828205,121.508 102.723077,121.508 101.617949,121.508 C97.1974359,122.614 92.7769231,123.72 88.3564103,124.826" id="路径" fill="#464489"></path>
                                <path d="M6.57692308,161.324 L1.05128205,154.688 C1.05128205,154.688 -0.0538461538,153.582 1.05128205,152.476 C1.05128205,152.476 1.05128205,151.37 2.15641026,150.264 C2.15641026,150.264 -0.0538461538,148.052 2.15641026,145.84 C2.15641026,145.84 8.78717949,143.628 12.1025641,141.416 C12.1025641,141.416 14.3128205,139.204 17.6282051,140.31 C20.9435897,141.416 29.7846154,154.688 29.7846154,154.688 C29.7846154,154.688 31.9948718,159.112 39.7307692,158.006 C47.4666667,156.9 60.7282051,158.006 71.7794872,154.688 C82.8307692,151.37 97.1974359,148.052 97.1974359,148.052 C97.1974359,148.052 90.5666667,128.144 90.5666667,124.826 C90.5666667,124.826 85.0410256,119.296 85.0410256,115.978 C85.0410256,115.978 99.4076923,107.13 107.14359,108.236 C114.879487,109.342 118.194872,111.554 119.3,113.766 C120.405128,115.978 123.720513,143.628 123.720513,143.628 C123.720513,143.628 124.825641,159.112 123.720513,163.536 C122.615385,167.96 121.510256,169.066 122.615385,171.278 C122.615385,172.384 120.405128,174.596 115.984615,174.596 C111.564103,174.596 100.512821,176.808 96.0923077,176.808 C91.6717949,176.808 48.5717949,172.384 43.0461538,171.278 C43.0461538,171.278 40.8358974,170.172 37.5205128,171.278 C34.2051282,172.384 28.6794872,171.278 22.0487179,167.96 C13.2076923,165.748 9.89230769,163.536 6.57692308,161.324 Z" id="路径" fill="#FFD9CC"></path>
                                <path d="M68.4641026,26.392 C68.4641026,27.498 68.4641026,28.604 69.5692308,29.71 C69.5692308,29.71 69.5692308,29.71 70.674359,29.71 C73.9897436,30.816 78.4102564,28.604 80.6205128,30.816 C81.725641,31.922 82.8307692,41.876 85.0410256,40.77 C85.0410256,40.77 86.1461538,40.77 86.1461538,40.77 C88.3564103,35.24 86.1461538,28.604 98.3025641,30.816 C99.4076923,30.816 101.617949,30.816 102.723077,31.922 C103.828205,33.028 103.828205,34.134 103.828205,34.134 C104.933333,37.452 104.933333,41.876 106.038462,45.194 C107.14359,48.512 109.353846,52.936 111.564103,55.148 C111.564103,51.83 114.879487,49.618 115.984615,47.406 C119.3,42.982 120.405128,37.452 121.510256,31.922 C121.510256,29.71 121.510256,28.604 121.510256,26.392 C120.405128,24.18 119.3,23.074 119.3,21.968 C118.194872,19.756 118.194872,17.544 120.405128,16.438 C120.405128,16.438 120.405128,16.438 121.510256,15.332 C121.510256,15.332 121.510256,14.226 121.510256,14.226 C120.405128,12.014 120.405128,10.908 119.3,8.696 C118.194872,8.696 118.194872,8.696 117.089744,8.696 C117.089744,8.696 115.984615,8.696 112.669231,6.484 C109.353846,3.166 89.4615385,-4.576 75.0948718,5.378 C60.7282051,15.332 56.3076923,20.862 57.4128205,24.18 C59.6230769,21.968 61.8333333,21.968 64.0435897,20.862 C66.2538462,20.862 69.5692308,24.18 68.4641026,26.392 Z" id="路径" fill="#464489"></path>
                                <ellipse id="椭圆形" fill="#FFD9CC" transform="translate(91.636412, 37.469521) rotate(-2.365638) translate(-91.636412, -37.469521) " cx="91.636412" cy="37.4695211" rx="5.5253843" ry="8.84756514"></ellipse>
                                <path d="M119.3,17.544 C120.405128,16.438 122.615385,17.544 123.720513,18.65 C124.825641,19.756 124.825641,21.968 124.825641,23.074 C124.825641,38.558 121.510256,52.936 120.405128,68.42 C120.405128,70.632 119.3,72.844 120.405128,75.056 C120.405128,76.162 121.510256,77.268 121.510256,79.48 C122.615385,82.798 124.825641,87.222 127.035897,90.54 C124.825641,85.01 123.720513,78.374 123.720513,71.738 C124.825641,77.268 127.035897,82.798 131.45641,88.328 C133.666667,90.54 135.876923,92.752 136.982051,94.964 C143.612821,102.706 143.612821,113.766 142.507692,123.72 C142.507692,128.144 142.507692,133.674 144.717949,136.992 C146.928205,140.31 150.24359,141.416 153.558974,142.522 C153.558974,139.204 152.453846,135.886 153.558974,132.568 C154.664103,129.25 155.769231,127.038 156.874359,123.72 C157.979487,119.296 157.979487,114.872 157.979487,110.448 C157.979487,102.706 157.979487,93.858 154.664103,86.116 C152.453846,81.692 150.24359,78.374 149.138462,73.95 C146.928205,68.42 146.928205,63.996 145.823077,58.466 C144.717949,52.936 143.612821,46.3 143.612821,40.77 C142.507692,35.24 142.507692,29.71 140.297436,25.286 C138.087179,19.756 135.876923,15.332 130.351282,12.014 C125.930769,8.696 119.3,8.696 114.879487,10.908" id="路径" fill="#464489"></path>
                                <path d="M118.194872,18.65 C120.405128,19.756 121.510256,18.65 121.510256,17.544 C120.405128,14.226 121.510256,12.014 121.510256,8.696 C118.194872,7.59 114.879487,7.59 112.669231,8.696 C115.984615,12.014 118.194872,15.332 118.194872,18.65 Z" id="路径" fill="#FF7AA7"></path>
                                <path d="M23.1538462,47.406 C23.1538462,47.406 23.1538462,48.512 23.1538462,48.512 C23.1538462,48.512 23.1538462,49.618 24.2589744,49.618 C24.2589744,49.618 25.3641026,49.618 25.3641026,49.618 C25.3641026,49.618 26.4692308,48.512 26.4692308,48.512 C26.4692308,47.406 26.4692308,46.3 25.3641026,45.194 C25.3641026,45.194 25.3641026,45.194 25.3641026,45.194 C25.3641026,45.194 25.3641026,45.194 25.3641026,45.194 C25.3641026,44.088 25.3641026,42.982 25.3641026,42.982 C25.3641026,42.982 25.3641026,44.088 25.3641026,44.088 C25.3641026,44.088 25.3641026,44.088 25.3641026,44.088 C25.3641026,44.088 25.3641026,44.088 26.4692308,44.088 C27.574359,44.088 27.574359,44.088 28.6794872,44.088 C28.6794872,44.088 27.574359,44.088 27.574359,45.194 C27.574359,46.3 26.4692308,46.3 26.4692308,46.3 C26.4692308,46.3 26.4692308,47.406 26.4692308,47.406 C27.574359,48.512 28.6794872,48.512 29.7846154,48.512 C28.6794872,48.512 28.6794872,48.512 27.574359,48.512 C26.4692308,48.512 26.4692308,48.512 26.4692308,49.618 C26.4692308,49.618 26.4692308,50.724 26.4692308,50.724 C26.4692308,51.83 25.3641026,51.83 25.3641026,51.83 C24.2589744,51.83 24.2589744,50.724 24.2589744,50.724 C24.2589744,48.512 24.2589744,47.406 23.1538462,47.406" id="路径" fill="#FBC5B3"></path>
                            </g>
                        </g>
                        <path d="M24.0487179,214.412 C24.0487179,214.412 19.6282051,214.412 19.6282051,208.882 C19.6282051,203.352 24.0487179,190.08 29.574359,181.232 C29.574359,181.232 41.7307692,186.762 41.7307692,192.292 C41.7307692,192.292 43.9410256,185.656 45.0461538,181.232 C46.1512821,176.808 49.4666667,171.278 42.8358974,166.854 C36.2051282,162.43 27.3641026,167.96 27.3641026,167.96 C27.3641026,167.96 22.9435897,172.384 19.6282051,180.126 C17.4179487,185.656 12.9974359,193.398 9.68205128,197.822 C7.47179487,201.14 5.26153846,205.564 6.36666667,211.094 C6.36666667,214.412 8.57692308,217.73 11.8923077,218.836 C10.7871795,217.73 18.5230769,214.412 24.0487179,214.412 Z" id="路径" fill="#FFAF23"></path>
                        <path d="M293.7,501.972 C293.7,501.972 292.594872,507.502 293.7,509.714 C294.805128,511.926 303.646154,515.244 311.382051,513.032 C315.802564,511.926 320.223077,510.82 322.433333,510.82 C323.538462,510.82 324.64359,508.608 323.538462,507.502 C323.538462,507.502 323.538462,507.502 323.538462,507.502 C323.538462,507.502 326.853846,506.396 327.958974,509.714 C329.064103,513.032 333.484615,524.092 333.484615,524.092 C333.484615,524.092 323.538462,531.834 312.487179,526.304 C301.435897,520.774 297.015385,519.668 291.489744,518.562 C285.964103,517.456 278.228205,514.138 277.123077,509.714 C276.017949,505.29 280.438462,503.078 284.858974,503.078 C289.279487,503.078 293.7,501.972 293.7,501.972 Z" id="路径" fill="#FFAF23"></path>
                    </g>
                </g>
            </g>
        </g>
    </g>
</svg>