<?xml version="1.0" encoding="utf-8"?>
<!-- Generator: Adobe Illustrator 23.0.3, SVG Export Plug-In . SVG Version: 6.00 Build 0)  -->
<svg version="1.1" id="Layer_1" xmlns="http://www.w3.org/2000/svg" xmlns:xlink="http://www.w3.org/1999/xlink" x="0px" y="0px"
	 viewBox="0 0 500 500" style="enable-background:new 0 0 500 500;" xml:space="preserve">
<style type="text/css">
	.st0{fill:#76A343;}
	.st1{fill:#8FC556;}
	.st2{opacity:0.72;}
	.st3{fill:#361999;}
	.st4{fill:#468B49;}
	.st5{fill:#468E4A;}
	.st6{opacity:0.07;fill:#05263F;enable-background:new    ;}
	.st7{fill:#F9A17A;}
	.st8{fill:#053342;}
	.st9{fill:#022730;}
	.st10{fill:#EF8A62;}
	.st11{fill:#E87F56;}
	.st12{fill:#EA515E;}
	.st13{opacity:0.15;fill:#FC3850;enable-background:new    ;}
	.st14{fill:#FAB413;}
	.st15{fill:#EDA20A;}
	.st16{fill:#FFFFFF;}
</style>
<g id="OBJECTS">
	<g>
		<g>
			<ellipse class="st0" cx="252.47" cy="406.37" rx="179.11" ry="27.35"/>
			<g>
				<path class="st1" d="M397.23,412.93c-5.71-4.76-7.74-13.45-4.72-20.25c0.44-0.99,1.11-2.04,2.18-2.23
					c1.2-0.21,2.26,0.75,3.02,1.7c2.25,2.78,3.82,6.1,4.56,9.6c0.52-6.11,2.99-12.45,8.14-15.78c1.39-0.9,3.34-1.51,4.61-0.44
					c1.1,0.93,1.07,2.61,0.86,4.03c-0.88,5.93-3.36,11.62-7.11,16.29c1.52-1.91,3.89-3.11,6.33-3.19c1.2-0.04,2.57,0.29,3.12,1.36
					c0.28,0.54,0.3,1.17,0.23,1.77c-0.4,3.73-3.98,6.05-7.45,7.49C407.13,414.87,403.09,415.49,397.23,412.93"/>
			</g>
			<g>
				<path class="st1" d="M347.4,421.07c-4.82,0.39-9.71-2.72-11.4-7.25c-0.25-0.66-0.41-1.45-0.01-2.03
					c0.46-0.64,1.39-0.68,2.18-0.59c2.31,0.27,4.55,1.09,6.48,2.38c-2.54-3.07-4.28-7.14-3.41-11.02c0.24-1.05,0.86-2.22,1.94-2.3
					c0.93-0.07,1.68,0.72,2.23,1.48c2.29,3.15,3.72,6.92,4.11,10.8c-0.17-1.58,0.39-3.21,1.48-4.36c0.54-0.56,1.33-1.03,2.07-0.79
					c0.37,0.12,0.67,0.41,0.91,0.72c1.51,1.92,0.91,4.62-0.05,6.86C352.87,417.46,351.28,419.59,347.4,421.07"/>
			</g>
			<g>
				<path class="st1" d="M144.99,419.08c-4.8-1.07-10.83-3.51-12.34-8.19c-0.12-0.37-0.22-0.77-0.09-1.13
					c0.29-0.78,1.39-0.8,2.2-0.62c2.79,0.61,5.43,1.87,7.66,3.64c-0.79-2.56-1.49-5.18-1.56-7.85c-0.07-2.68,0.53-5.44,2.12-7.59
					c0.7-0.95,1.71-1.82,2.89-1.79c1.57,0.04,2.64,1.6,3.24,3.05c1.65,3.99,1.89,8.56,0.66,12.7c1.28-1.29,2.66-2.64,4.44-3.05
					c1.77-0.4,4,0.61,4.17,2.42c0.12,1.22-0.68,2.33-1.54,3.21C153.77,417.05,149.41,418.96,144.99,419.08"/>
			</g>
		</g>
		<g class="st2">
			<path class="st3" d="M160.72,362.06c-27.04-1.84-52.81-15.12-71.3-34.93s-29.84-45.82-33.54-72.66
				c-2.26-16.38-1.68-33.53,4.7-48.79s19.19-28.36,35.25-32.32c18.86-4.64,40.48,3.2,57.27-6.55c9.75-5.66,15.53-16.05,21.7-25.48
				c15.74-24.08,36.99-44.82,62.46-58.19s55.23-19.09,83.57-14.15c50.59,8.82,91.61,52.02,104.28,101.79s-0.66,104.03-29.31,146.65
				c-22.14,32.92-56.31,61.07-95.95,62.81"/>
		</g>
		<g>
			<g>
				<path class="st4" d="M89.06,379.89c-14.97,2.7-29.21,1.32-40.27-3.9c-2.4-1.13-4.7-2.49-5.91-4.65
					c-0.51-0.91-0.81-2.03-0.31-3.26c1.12-2.73,5.1-4.06,8.15-4.58c13.27-2.25,26-2.33,38.64-2.4
					c-12.16-4.22-23.94-9.12-33.54-16.26s-16.98-16.67-19.39-28.62c-0.68-3.36-0.95-6.97,0.16-10.8c0.48-1.66,1.27-3.41,2.73-4.85
					c2.67-2.63,6.69-3.35,9.77-2.99c4.32,0.51,7.66,2.58,10.69,4.8c11.13,8.16,19.49,18.8,27.79,29.37
					c2.35,2.99,4.69,5.98,7.04,8.97c-0.08-8.87-0.05-18.18,4.83-27.59c0.66-1.28,1.67-2.76,3.12-3.21c0.74-0.23,1.43-0.13,2.01,0.07
					c2.72,0.94,3.5,3.8,3.94,6.52c1.23,7.6,1.2,15.72-0.08,24.08c2.54-3.96,5.43-7.84,8.64-11.56c1.5-1.74,3.47-3.67,5.56-3.89
					c2.56-0.27,3.36,2.17,3.43,4.34c0.27,8.96-3.78,19.27-11.08,28.21"/>
			</g>
			<g>
				<g>
					<path class="st1" d="M357.19,386.32c-33.21-8.47-48.45-37.66-47.26-58.9c0.21-3.74,0.75-7.54,2.47-10.87s4.78-6.14,8.47-6.75
						c3.86-0.64,7.74,1.16,10.86,3.52s5.78,5.3,9.01,7.51c-3.39-13.24,2.98-27.96,14.08-35.94c11.1-7.98,26.08-9.55,39.2-5.71
						c7.74,2.26,15.35,6.69,18.96,13.91c3.15,6.31,2.78,13.93,0.54,20.62s-6.18,12.66-10.08,18.55c5.23-1.06,10.54-2.03,15.87-1.77
						s10.75,1.87,14.75,5.41c6.02,5.32,7.82,14.34,5.97,22.16s-6.83,14.56-12.57,20.19C413.02,392.4,379.28,392.45,357.19,386.32"/>
				</g>
				<path class="st5" d="M426.66,333.93c-4.34,1.69-8.66,3.4-12.98,5.13c-4.43,1.78-8.84,3.57-13.25,5.39
					c-4.45,1.84-8.9,3.7-13.33,5.57c-4.42,1.87-8.83,3.76-13.23,5.68c-4.27,1.86-8.53,3.74-12.78,5.64
					c-0.27,0.12-0.53,0.24-0.8,0.36c0.92-5.25,1.99-10.48,3.14-15.69c1.3-5.93,2.72-11.84,4.45-17.66s3.79-11.56,6.36-17.07
					c2.54-5.43,5.59-10.63,9.28-15.36c0.46-0.59,0.93-1.17,1.4-1.74c0.37-0.45-0.32-1.02-0.69-0.58c-3.87,4.65-7.12,9.8-9.81,15.22
					c-2.71,5.44-4.87,11.15-6.69,16.94c-0.57,1.81-1.09,3.63-1.6,5.45c-1.21-2.61-2.41-5.23-3.61-7.85
					c-1.08-2.37-2.16-4.74-3.22-7.11c-0.97-2.17-1.92-4.35-2.87-6.53c-1.01-2.34-2.01-4.69-2.99-7.04c-1.23-2.93-2.45-5.86-3.67-8.8
					c-0.17-0.42-0.35-0.84-0.52-1.26c-0.22-0.53-1.06-0.22-0.84,0.32c1.26,3.04,2.52,6.08,3.8,9.12c1.01,2.4,2.02,4.8,3.05,7.19
					c0.94,2.18,1.89,4.36,2.86,6.53c1.04,2.33,2.09,4.66,3.15,6.98c1.32,2.89,2.65,5.78,3.98,8.66c0.18,0.38,0.35,0.76,0.53,1.14
					c-0.99,3.65-1.89,7.32-2.72,11.01c-1.47,6.54-2.84,13.12-3.95,19.73c-0.85,5.04-1.53,10.11-1.94,15.21
					c-2.28-2.69-4.53-5.41-6.74-8.17c-2.37-2.97-4.7-5.98-6.97-9.02c-2.27-3.03-4.49-6.11-6.66-9.21c-2.18-3.12-4.3-6.27-6.38-9.45
					c-2.08-3.18-4.1-6.4-6.07-9.65c-0.24-0.39-0.48-0.79-0.71-1.18c-0.13-0.21-0.44-0.24-0.63-0.11c-0.21,0.15-0.23,0.42-0.11,0.63
					c1.96,3.26,3.97,6.48,6.03,9.68c2.06,3.19,4.18,6.35,6.34,9.48c2.16,3.11,4.36,6.19,6.62,9.24s4.58,6.07,6.94,9.05
					c2.36,2.98,4.77,5.92,7.22,8.82c0.3,0.35,0.6,0.7,0.9,1.05c0.04,0.04,0.08,0.08,0.13,0.11c-0.1,1.34-0.19,2.69-0.25,4.03
					c-0.04,0.85-0.06,1.71-0.08,2.56c-0.01,0.58,0.88,0.48,0.9-0.09c0.16-6.84,0.9-13.65,1.96-20.4c0.16-1.04,0.35-2.07,0.52-3.11
					c4.16-1.87,8.33-3.71,12.51-5.54c4.37-1.91,8.75-3.79,13.14-5.66c4.43-1.88,8.88-3.75,13.33-5.59
					c4.43-1.84,8.88-3.65,13.33-5.44c4.32-1.74,8.65-3.46,12.98-5.15c0.53-0.21,1.06-0.41,1.58-0.62
					C427.52,334.56,427.21,333.72,426.66,333.93z"/>
			</g>
			<g>
				<g>
					<path class="st1" d="M143.09,390.91c-31.14,14.32-61.35,1.22-73.8-16.04c-2.19-3.04-4.16-6.34-4.92-10
						c-0.76-3.67-0.15-7.78,2.34-10.58c2.6-2.93,6.74-3.97,10.65-4.1s7.83,0.48,11.73,0.16c-10.97-8.16-15.28-23.61-11.67-36.79
						c3.61-13.19,14.26-23.83,26.87-29.11c7.44-3.11,16.14-4.46,23.48-1.12c6.42,2.92,10.92,9.08,13.39,15.69
						c2.47,6.61,3.17,13.73,3.84,20.76c3.4-4.12,6.91-8.21,11.22-11.36s9.53-5.31,14.86-5.08c8.03,0.35,15.1,6.22,18.58,13.46
						s3.86,15.62,2.94,23.6C190.3,360.49,164.12,381.77,143.09,390.91"/>
				</g>
				<path class="st5" d="M164.11,306.47c-2.31,4.04-4.6,8.09-6.86,12.16c-2.32,4.17-4.62,8.34-6.91,12.53
					c-2.3,4.23-4.59,8.47-6.85,12.72c-2.26,4.24-4.49,8.48-6.71,12.74c-2.15,4.13-4.28,8.27-6.38,12.42
					c-0.13,0.26-0.26,0.52-0.39,0.78c-2.59-4.66-5.04-9.4-7.43-14.16c-2.72-5.43-5.34-10.91-7.65-16.52
					c-2.32-5.62-4.33-11.37-5.79-17.27c-1.45-5.82-2.35-11.78-2.45-17.78c-0.01-0.75-0.01-1.49,0-2.24c0.01-0.58-0.89-0.59-0.9-0.01
					c-0.08,6.05,0.64,12.1,1.95,18c1.32,5.94,3.23,11.73,5.46,17.38c0.7,1.76,1.43,3.51,2.19,5.25c-2.58-1.27-5.17-2.54-7.74-3.83
					c-2.33-1.16-4.66-2.32-6.98-3.5c-2.12-1.08-4.23-2.17-6.34-3.27c-2.26-1.18-4.51-2.38-6.76-3.59c-2.8-1.5-5.6-3.02-8.39-4.53
					c-0.4-0.22-0.8-0.43-1.2-0.65c-0.51-0.28-0.96,0.5-0.45,0.78c2.89,1.57,5.79,3.14,8.69,4.7c2.29,1.23,4.59,2.46,6.89,3.67
					c2.1,1.11,4.21,2.2,6.33,3.28c2.27,1.16,4.55,2.3,6.83,3.44c2.84,1.42,5.69,2.82,8.55,4.23c0.38,0.19,0.75,0.37,1.13,0.56
					c1.53,3.46,3.14,6.88,4.81,10.27c2.97,6.01,6.05,11.98,9.35,17.82c2.51,4.45,5.18,8.82,8.06,13.04
					c-3.47-0.65-6.93-1.35-10.38-2.11c-3.71-0.82-7.41-1.69-11.1-2.63c-3.67-0.93-7.33-1.92-10.97-2.97
					c-3.65-1.05-7.29-2.16-10.91-3.33c-3.62-1.17-7.22-2.4-10.79-3.68c-0.43-0.16-0.87-0.31-1.3-0.47
					c-0.23-0.08-0.49,0.09-0.55,0.31c-0.07,0.25,0.08,0.47,0.31,0.55c3.57,1.3,7.17,2.54,10.78,3.72s7.24,2.31,10.89,3.38
					c3.64,1.06,7.29,2.07,10.96,3.01c3.68,0.95,7.38,1.84,11.09,2.67c3.71,0.83,7.43,1.6,11.17,2.31c0.45,0.09,0.91,0.17,1.36,0.26
					c0.06,0.01,0.11,0.01,0.17,0c0.77,1.11,1.54,2.21,2.34,3.29c0.51,0.69,1.02,1.37,1.54,2.04c0.35,0.46,0.99-0.18,0.64-0.63
					c-4.17-5.42-7.89-11.17-11.31-17.09c-0.53-0.91-1.04-1.83-1.55-2.75c2.06-4.07,4.14-8.13,6.23-12.17
					c2.2-4.23,4.41-8.46,6.65-12.67c2.26-4.25,4.54-8.5,6.84-12.73c2.29-4.22,4.6-8.42,6.93-12.62c2.26-4.07,4.54-8.13,6.85-12.17
					c0.28-0.49,0.56-0.98,0.84-1.48C165.18,306.42,164.4,305.96,164.11,306.47z"/>
			</g>
			<g>
				<path class="st4" d="M287.16,362.95c-18.8-8.75-33.58-21.47-41.81-35.96c-1.78-3.14-3.28-6.46-2.94-9.82
					c0.14-1.42,0.69-2.9,2.21-3.87c3.39-2.17,8.87-0.52,12.68,1.3c16.55,7.9,30.8,17.82,44.95,27.67
					c-10.24-14.26-19.52-28.96-24.61-44.46c-5.09-15.5-5.83-31.91,0.86-47.12c1.88-4.28,4.41-8.52,8.65-11.91
					c1.84-1.47,4.1-2.81,6.85-3.26c5.04-0.83,10.09,1.52,13.23,4.34c4.42,3.96,6.51,8.89,8.14,13.74
					c5.99,17.84,6.96,36.25,7.9,54.54c0.27,5.17,0.53,10.35,0.8,15.52c6.88-9.95,14.21-20.3,27.04-26.95c1.74-0.9,4.02-1.76,6-1.13
					c1,0.32,1.69,0.98,2.18,1.66c2.29,3.19,0.91,6.99-0.73,10.35c-4.6,9.44-11,18.46-19,26.77c5.94-2.42,12.21-4.47,18.7-6.1
					c3.04-0.76,6.75-1.36,9.25,0.04c3.07,1.71,2.04,5.06,0.41,7.53c-6.73,10.19-19.34,18.51-34.49,22.74"/>
			</g>
			<g>
				<path class="st4" d="M157.19,360.97c-18.8-8.75-33.58-21.47-41.81-35.96c-1.78-3.14-3.28-6.46-2.94-9.82
					c0.14-1.42,0.69-2.9,2.21-3.87c3.39-2.17,8.87-0.52,12.68,1.3c16.55,7.9,30.8,17.82,44.95,27.67
					c-10.24-14.26-19.52-28.96-24.61-44.46s-5.83-31.91,0.86-47.12c1.88-4.28,4.41-8.52,8.65-11.91c1.84-1.47,4.1-2.81,6.85-3.26
					c5.04-0.83,10.09,1.52,13.23,4.34c4.42,3.96,6.51,8.89,8.14,13.74c5.99,17.84,6.96,36.25,7.9,54.54
					c0.27,5.17,0.53,10.35,0.8,15.52c6.88-9.95,14.21-20.3,27.04-26.95c1.74-0.9,4.02-1.76,6-1.13c1,0.32,1.69,0.98,2.18,1.66
					c2.29,3.19,0.91,6.99-0.73,10.35c-4.6,9.44-11,18.46-19,26.77c5.94-2.42,12.21-4.47,18.7-6.1c3.04-0.76,6.75-1.36,9.25,0.04
					c3.07,1.71,2.04,5.06,0.41,7.53c-6.73,10.19-19.34,18.51-34.49,22.74"/>
			</g>
		</g>
		<g>
			<path class="st6" d="M413.57,328.59c-1.11-2.58-4.11-4.65-7.64-5.73c-1.18-0.36-2.66-0.27-2.97,0.91
				c-0.76,2.91,4.63,1.4,5.96,9.66c0.23,1.45-0.82,2.88-2.15,3.57s-2.9,0.79-4.4,0.75c-2.35-0.06-5.01-0.62-6.16-2.62
				c-1.95-3.38,8.66-9.8,5.84-13.59c-0.3-0.41-0.91-0.46-1.33-0.17c-2.7,1.82-6.63,4.49-8.85,6.45c-1.52,1.35-2.95,3.02-3.53,5.66
				c-0.15,0.68,0.01,2.15,0.05,2.85c0.07,1.25-1.03,2.35-2.27,2.68c-1.36,0.36-2.83-0.01-4.15-0.46c-4.39-1.5-8.34-3.99-11.75-7.08
				c-8.5-7.69-19.93-11.01-28.97-17.85c-5.92-4.48-10.65-10.44-13.66-17.13c1.24-0.98,2.43-2.02,3.55-3.13
				c0.28-0.27,0.56-0.56,0.67-0.93c0.13-0.45-0.02-0.92-0.17-1.37c-2.52-7.35-5.04-14.71-7.57-22.06c4.07-1.85,7.75-4.6,10.67-7.92
				c4.56-5.2,7.5-12.42,5.4-18.95c-1.46-4.57-5.09-8.09-8.34-11.67c-6.17-6.8-11.58-15.21-10.97-24.27c0.19-2.8,0.95-5.54,1.13-8.34
				s-0.32-5.82-2.27-7.87c-3.02-3.18-8.42-3.05-11.7-5.98c-3.31-2.95-3.39-7.89-3.74-12.25c-0.79-9.93-4.54-20.13-12.48-26.38
				c-6.91-5.44-16.56-7.28-25.14-5.08c-5.79,1.48-11.02,4.73-15.04,9.07c-6.29,0.62-12.38,2.99-17.07,7.1
				c-6.79,5.96-10.18,15.67-7.68,24.24c1.04,3.55,3,7.13,3.55,10.67c-0.02,0.57,0.03,1.14,0.14,1.7c0.01,1.07-0.14,2.14-0.54,3.2
				c-0.82,2.2-2.57,3.94-4.44,5.41c-2.51,1.98-5.32,3.59-7.66,5.75c-2.35,2.16-4.25,5.04-4.24,8.19c0.02,3.73,2.69,7.08,2.66,10.81
				c-0.03,4.49-3.85,7.99-5.65,12.12c-2.02,4.62-1.3,10.11,1.39,14.41c-0.93,2.14-1.7,4.35-2.45,6.56
				c-3.8,11.09-7.61,22.18-11.41,33.27c-0.15,0.44-0.3,0.92-0.17,1.37c0.11,0.37,0.39,0.66,0.67,0.93c1.99,1.96,4.18,3.73,6.51,5.29
				c-2.56,4.6-5.94,8.77-9.97,12.21c-8.61,7.35-19.82,11.31-27.85,19.47c-3.22,3.28-7.02,5.99-11.31,7.74
				c-1.29,0.53-2.73,0.98-4.11,0.69c-1.26-0.26-2.43-1.29-2.43-2.55c0-0.69,0.06-2.18-0.12-2.84c-0.73-2.6-2.26-4.19-3.86-5.45
				c-2.33-1.83-6.42-4.27-9.22-5.93c-0.44-0.26-1.04-0.17-1.32,0.25c-2.59,3.94,8.38,9.74,6.64,13.23c-1.03,2.06-3.66,2.77-6,2.97
				c-1.5,0.13-3.07,0.12-4.44-0.5c-1.37-0.61-2.5-1.98-2.36-3.45c0.83-8.33,6.3-7.12,5.38-9.99c-0.37-1.15-1.86-1.16-3.02-0.73
				c-3.45,1.28-6.33,3.52-7.28,6.16c-0.85,2.33-0.8,4.86-0.7,7.33c0.17,4.12,1.48,7.64,4.61,10.41c2.27,2.01,5.08,3.05,7.96,3.3
				c3.26,0.29,6.22,0.72,9.42,0.02c9.65-2.12,19.21-4.62,28.66-7.49c14.97-4.56,30.54-10.71,39.56-23.23c3.1-4.3,5.27-9.17,7.41-14
				c0.11-0.24,0.22-0.49,0.32-0.73c1.96,0.44,3.95,0.77,5.96,0.95c0.96,0.09,1.97,0.14,2.87-0.21c0.48-0.19,0.87-0.48,1.22-0.84
				c-0.49,4.43-1.26,9.62-2.48,15.81c-3.38,17.06-20.06,16.75-20.06,16.75c-28.88,3.28-43.39,8.96-50.5,14.47
				c-0.95,0.51-1.84,1.11-2.64,1.84c-5.48,4.99-5.01,13.79-1.92,20.46c4.31,9.31,12.63,16.4,21.84,21.24
				c9.21,4.84,19.37,7.66,29.43,10.44c0.07,0.06,0.15,0.12,0.22,0.18c-0.8,0.98-0.92,2.57,0.08,3.33l0.25,1.29
				c0.35,5.38,4.44,10.02,9.35,12.49c4.91,2.48,10.54,3.15,16.06,3.51c14.26,0.93,28.64,0.04,42.67-2.62
				c0.29,0.05,0.58,0.11,0.87,0.16c1.13,0.33,3.79,0.99,7.59,1.23c11.32,1.55,22.8,1.97,34.21,1.23c5.51-0.36,11.15-1.03,16.06-3.51
				s9-7.11,9.35-12.49l0.25-1.29c1.04-0.79,0.88-2.46,0-3.43c0.1-0.03,0.2-0.05,0.3-0.08c10.06-2.78,20.22-5.6,29.43-10.44
				s17.53-11.93,21.84-21.24c1.55-3.35,2.44-7.24,2.25-10.92c0.65-3.47-0.59-6.71-4.17-9.54c-0.44-0.4-0.92-0.76-1.41-1.1
				c-3.83-2.91-7.36-5.07-10.62-6.66c4.7,0.94,9.43,1.8,14.17,2.55c3.23,0.52,6.16-0.09,9.4-0.56c2.87-0.42,5.61-1.62,7.75-3.75
				c2.96-2.95,4.05-6.53,3.98-10.66C414.67,333.4,414.56,330.87,413.57,328.59z M315.41,310.51c2.43,4.7,4.89,9.43,8.24,13.55
				c9.12,11.21,23.63,16.53,37.91,20.2c-9.81,0.23-17.25,3.74-25.81-1.16c-15.41-8.83-32.56-0.71-33.42-12.16
				c-0.87-11.45-2.48-24.64-2.48-24.64c0.9,0.36,1.9,0.3,2.87,0.21c3.27-0.31,6.5-0.97,9.63-1.95
				C313.36,306.54,314.38,308.52,315.41,310.51z"/>
			<g>
				<g>
					<path class="st7" d="M304.26,286.37c2.84,8.23,8.12,15.6,15,20.94c9.03,7.01,20.47,10.4,28.97,18.28
						c3.41,3.16,7.36,5.71,11.75,7.25c1.32,0.46,2.78,0.84,4.15,0.47c1.24-0.34,2.34-1.46,2.27-2.75c-0.04-0.71-0.2-2.22-0.05-2.91
						c0.58-2.7,2-4.41,3.53-5.79c2.21-2,6.15-4.74,8.85-6.6c0.42-0.29,1.03-0.24,1.33,0.18c2.82,3.87-7.79,10.45-5.84,13.91
						c1.15,2.05,3.82,2.62,6.16,2.68c1.51,0.04,3.07-0.06,4.4-0.77s2.38-2.17,2.15-3.66c-1.33-8.46-6.72-6.91-5.96-9.89
						c0.3-1.2,1.79-1.3,2.97-0.93c3.52,1.11,6.53,3.23,7.64,5.87c0.98,2.33,1.09,4.92,1.14,7.45c0.08,4.22-1.02,7.9-3.98,10.91
						c-2.14,2.18-4.89,3.42-7.75,3.84c-3.24,0.48-6.17,1.1-9.4,0.57c-9.76-1.6-19.46-3.6-29.06-5.98
						c-15.22-3.78-31.13-9.16-40.88-21.44c-3.35-4.22-5.81-9.06-8.24-13.87c-3.62-7.16-7.22-14.33-10.82-21.5"/>
				</g>
				<g>
					<path class="st7" d="M186.97,284.46c-2.35,8.38-7.19,16.05-13.75,21.78c-8.61,7.53-19.82,11.58-27.85,19.94
						c-3.22,3.35-7.02,6.13-11.31,7.92c-1.29,0.54-2.73,1-4.11,0.71c-1.26-0.26-2.43-1.32-2.43-2.61c0-0.71,0.07-2.23-0.12-2.91
						c-0.73-2.66-2.26-4.29-3.86-5.58c-2.33-1.87-6.42-4.37-9.22-6.08c-0.44-0.27-1.04-0.18-1.32,0.25
						c-2.59,4.03,8.38,9.97,6.64,13.55c-1.03,2.11-3.66,2.84-6,3.04c-1.5,0.13-3.07,0.12-4.44-0.51s-2.5-2.03-2.36-3.53
						c0.83-8.52,6.3-7.29,5.38-10.22c-0.37-1.18-1.86-1.19-3.02-0.75c-3.45,1.31-6.33,3.61-7.28,6.31c-0.85,2.38-0.8,4.98-0.7,7.51
						c0.17,4.22,1.48,7.82,4.61,10.66c2.27,2.05,5.08,3.12,7.96,3.38c3.26,0.29,6.22,0.74,9.42,0.02
						c9.65-2.17,19.21-4.73,28.66-7.67c14.97-4.66,30.54-10.97,39.56-23.79c3.1-4.41,5.27-9.39,7.41-14.33
						c3.19-7.36,6.37-14.73,9.55-22.09"/>
				</g>
				<g>
					<g>
						<path class="st8" d="M238.06,139.33c-9.02-1.39-18.74,0.96-25.53,7.06c-6.79,6.1-10.18,16.04-7.68,24.81
							c1.52,5.32,5.05,10.74,3.15,15.94c-0.82,2.25-2.57,4.04-4.44,5.54c-2.51,2.02-5.32,3.68-7.66,5.89
							c-2.35,2.21-4.25,5.16-4.24,8.39c0.02,3.81,2.69,7.25,2.66,11.07c-0.03,4.6-3.85,8.18-5.65,12.41
							c-2.5,5.85-0.81,13.06,3.61,17.64c4.41,4.58,11.17,6.55,17.48,5.72c6.3-0.83,12.11-4.28,16.39-8.98
							c8.48-9.31,10.71-24.25,4.08-34.95c-3.29-5.31-5.88-9.08-7.58-15.09c-1.64-5.76-2.28-12.38,0.12-17.87
							c2.4-5.49,11.68-24.13,11.96-30.12"/>
					</g>
					<g>
						<path class="st9" d="M271.3,181.36c4.01,13.41,18.41,21.13,21.89,34.7c0.91,3.55,1,7.28,0.94,10.96
							c-0.07,4.26-0.37,8.7-2.39,12.38c-1.82,3.33-4.87,5.68-8.01,7.59c-14.81,8.97-33.6,9.49-49.26,2.35
							c-4.21-1.92-8.27-4.41-11.42-7.96c-3.85-4.35-6.12-10.11-6.98-16.02s-0.37-11.97,0.78-17.82c3-15.24,10.35-29.05,17.59-42.58"
							/>
					</g>
					<g>
						<g>
							<path class="st7" d="M227.83,201.45c2.58,4.16,3.17,9.34,2.38,14.17s-2.85,9.37-5.29,13.61c-0.36,0.62-0.73,1.28-0.75,1.99
								c-0.02,0.9,0.51,1.7,1.06,2.41c4.11,5.26,10.47,8.7,17.13,9.26c6.65,0.56,13.5-1.77,18.44-6.27
								c-8.12-10.46-9.29-25.83-2.84-37.4"/>
						</g>
						<g>
							<path class="st10" d="M225.54,199.18c4.41,7.27,5.24,16.61,2.17,24.54c8.06,0.31,19.11-6.36,23.84-12.9
								c4.73-6.54,6.72-12.01,9-19.75"/>
						</g>
					</g>
					<path class="st7" d="M233.61,147.26c-7.13,2.43-12.6,8.62-15.19,15.69s-2.52,14.91-0.92,22.26c0.59,2.69,1.38,5.36,2.67,7.78
						c1.3,2.44,3.09,4.59,4.96,6.63c2.65,2.87,5.54,5.58,8.95,7.48s7.4,2.95,11.26,2.34c3.2-0.5,6.14-2.11,8.67-4.12
						c7.76-6.19,11.83-16.15,12.68-26.04c0.53-6.18-0.08-12.51-2.27-18.31c-2.18-5.81-5.99-11.07-11.1-14.57"/>
					<g>
						<path class="st10" d="M215.65,181.49c7.06-4.56,12.39-11.72,14.74-19.79c1.47,5.94,7.58,9.5,13.45,11.23
							s12.21,2.39,17.39,5.66c3.41,2.15,6.14,5.39,7.68,9.12c0,0,1.55-30.73-12.88-38.77c-14.43-8.05-36.28,2.79-36.06,2.97"/>
					</g>
					<g>
						<path class="st8" d="M246.95,171.67c2.1-1.33,4.64-1.95,7.11-1.75c2.48,0.2,4.88,1.22,6.74,2.87
							c-3.17-1.2-6.71-0.46-9.96,0.48c-0.95,0.28-1.91,0.57-2.9,0.56C246.95,173.82,245.94,172.61,246.95,171.67"/>
						<path class="st8" d="M235.31,171.67c-2.1-1.33-4.64-1.95-7.11-1.75c-2.48,0.2-4.88,1.22-6.74,2.87
							c3.17-1.2,6.71-0.46,9.96,0.48c0.95,0.28,1.91,0.57,2.9,0.56C235.31,173.82,236.32,172.61,235.31,171.67"/>
						<g>
							<path class="st11" d="M248.65,179.84c0.46,0.52,1.06,0.88,1.71,1.12c0.63,0.23,1.32,0.32,1.99,0.31
								c0.7-0.02,1.4-0.16,2.06-0.4c0.75-0.27,1.45-0.65,2.12-1.08c0.67-0.44,1.3-0.93,1.93-1.43c0.07-0.06,0.15-0.12,0.22-0.18
								c0.07-0.05,0.1-0.17,0.1-0.25c0-0.09-0.04-0.19-0.1-0.25c-0.07-0.06-0.15-0.11-0.25-0.1c-0.1,0-0.17,0.04-0.25,0.1
								c-0.28,0.22-0.55,0.44-0.83,0.66c0.02-0.02,0.05-0.04,0.07-0.05c-0.7,0.54-1.43,1.06-2.22,1.47
								c-0.22,0.11-0.44,0.22-0.67,0.32c0.03-0.01,0.06-0.02,0.08-0.04c-0.55,0.23-1.11,0.4-1.7,0.48c0.03,0,0.06-0.01,0.09-0.01
								c-0.51,0.07-1.02,0.07-1.53,0.01c0.03,0,0.06,0.01,0.09,0.01c-0.42-0.06-0.83-0.16-1.22-0.33c0.03,0.01,0.06,0.02,0.08,0.04
								c-0.31-0.13-0.61-0.3-0.88-0.51c0.02,0.02,0.05,0.04,0.07,0.05c-0.17-0.13-0.33-0.28-0.47-0.44c-0.12-0.14-0.37-0.13-0.49,0
								C248.52,179.49,248.52,179.69,248.65,179.84L248.65,179.84z"/>
						</g>
						<g>
							<path class="st11" d="M233.55,179.15c-0.07,0.11-0.14,0.21-0.21,0.31c0.02-0.02,0.04-0.05,0.05-0.07
								c-0.2,0.25-0.43,0.48-0.68,0.68c0.02-0.02,0.05-0.04,0.07-0.05c-0.3,0.23-0.64,0.42-0.99,0.57c0.03-0.01,0.06-0.02,0.08-0.04
								c-0.45,0.19-0.92,0.31-1.4,0.38c0.03,0,0.06-0.01,0.09-0.01c-0.54,0.07-1.08,0.07-1.62-0.01c0.03,0,0.06,0.01,0.09,0.01
								c-0.65-0.09-1.28-0.26-1.9-0.49c-0.17-0.06-0.35-0.13-0.52-0.21c0.03,0.01,0.06,0.02,0.08,0.04
								c-0.63-0.27-1.24-0.58-1.85-0.9c-0.17-0.09-0.34-0.18-0.51-0.28c-0.16-0.09-0.39-0.04-0.48,0.13
								c-0.09,0.16-0.05,0.38,0.13,0.48c0.7,0.39,1.41,0.77,2.14,1.09c0.75,0.33,1.52,0.61,2.32,0.76c0.69,0.13,1.4,0.17,2.1,0.08
								c0.68-0.09,1.35-0.28,1.96-0.6c0.59-0.32,1.11-0.76,1.5-1.31c0.05-0.06,0.09-0.13,0.13-0.2c0.1-0.16,0.04-0.39-0.13-0.48
								C233.86,178.93,233.65,178.98,233.55,179.15L233.55,179.15z"/>
						</g>
						<g>
							<path class="st11" d="M240.45,176.1c0.12,0.4,0.21,0.8,0.26,1.21c0,0.01,0,0.02,0.01,0.04c0.01,0.04,0-0.03,0-0.03
								c0,0.02,0.01,0.05,0.01,0.07c0.01,0.05,0.01,0.11,0.02,0.16c0.01,0.1,0.02,0.21,0.03,0.31c0.01,0.21,0.02,0.41,0.02,0.62
								c0,0.41-0.02,0.83-0.07,1.24c-0.01,0.05-0.01,0.1-0.02,0.15c-0.01,0.07,0.01-0.06,0,0.01c0,0.03-0.01,0.06-0.01,0.09
								c-0.02,0.1-0.03,0.21-0.05,0.31c-0.04,0.2-0.08,0.41-0.12,0.61c-0.09,0.4-0.21,0.8-0.34,1.2c-0.07,0.19-0.14,0.39-0.21,0.58
								c-0.04,0.09-0.08,0.19-0.11,0.28c0,0,0.03-0.06,0.01-0.03c0,0.01-0.01,0.02-0.01,0.03c-0.01,0.02-0.02,0.04-0.03,0.07
								c-0.02,0.05-0.04,0.1-0.06,0.14c-0.33,0.74-0.71,1.44-1.14,2.13s-0.89,1.35-1.38,1.99c-0.03,0.04-0.06,0.08-0.09,0.12
								c-0.01,0.01-0.01,0.02-0.02,0.03c0,0,0.04-0.05,0.02-0.02c-0.02,0.02-0.03,0.04-0.05,0.07c-0.06,0.07-0.11,0.15-0.1,0.25
								c0,0.09,0.03,0.19,0.1,0.25c0.63,0.5,1.32,0.89,2.07,1.19c0.67,0.27,1.37,0.46,2.08,0.62c0.39,0.09,0.79,0.17,1.18,0.25
								c0.18,0.04,0.39-0.05,0.43-0.24c0.04-0.17-0.05-0.39-0.24-0.43c-0.69-0.14-1.39-0.28-2.07-0.47
								c-0.35-0.1-0.69-0.21-1.03-0.34c-0.08-0.03-0.17-0.07-0.25-0.1c-0.01-0.01-0.03-0.01-0.04-0.02c0.09,0.04,0.02,0.01,0,0
								c-0.05-0.02-0.1-0.04-0.15-0.06c-0.17-0.08-0.33-0.16-0.49-0.24c-0.18-0.1-0.36-0.2-0.54-0.32
								c-0.08-0.06-0.17-0.11-0.25-0.17c-0.04-0.03-0.09-0.07-0.13-0.1c-0.07-0.05,0.06,0.05,0,0c-0.03-0.02-0.05-0.04-0.07-0.06
								c0,0.16,0,0.33,0,0.49c0.52-0.66,1.01-1.34,1.47-2.05c0.44-0.69,0.85-1.41,1.2-2.15c0.36-0.77,0.66-1.57,0.88-2.39
								c0.22-0.84,0.35-1.7,0.37-2.56c0.02-0.86-0.07-1.73-0.28-2.57c-0.03-0.1-0.05-0.2-0.08-0.3c-0.05-0.18-0.25-0.3-0.43-0.24
								C240.51,175.73,240.39,175.91,240.45,176.1L240.45,176.1z"/>
						</g>
						<path class="st12" d="M235.67,197.12c0.78,1.31,2.81,3.61,7.59,3.15c2.43-0.23,4.07-1.83,5.67-3.81"/>
						<ellipse class="st13" cx="228.21" cy="186.56" rx="4.67" ry="3.1"/>
						<path class="st13" d="M259.63,186.56c0,1.71-2.09,3.1-4.67,3.1s-4.67-1.39-4.67-3.1s2.09-3.1,4.67-3.1
							C257.54,183.46,259.63,184.85,259.63,186.56z"/>
					</g>
					<g>
						<path class="st8" d="M225.43,148.06c0.74,6.32,5.33,11.54,10.41,15.37s10.85,6.74,15.6,10.98c4.75,4.24,8.49,10.36,7.65,16.66
							c-0.39,2.92-1.73,5.71-1.63,8.66c0.27,8.08,10.5,12.15,13.2,19.76c1.49,4.21,0.45,8.85-0.52,13.21
							c-1.09,4.88-2.08,9.95-1.1,14.86c1.8,8.97,10.41,15.74,19.52,16.57c9.11,0.83,18.24-3.68,24.19-10.62
							c4.56-5.33,7.5-12.71,5.4-19.4c-1.46-4.68-5.09-8.29-8.34-11.95c-6.17-6.96-11.58-15.57-10.97-24.85
							c0.19-2.87,0.95-5.67,1.13-8.54s-0.32-5.96-2.27-8.06c-3.02-3.26-8.42-3.12-11.7-6.12c-3.31-3.02-3.39-8.08-3.74-12.54
							c-0.79-10.17-4.54-20.61-12.48-27.01c-6.91-5.57-16.56-7.45-25.14-5.2c-8.59,2.25-15.98,8.49-19.94,16.43"/>
					</g>
					<g>
						<path class="st8" d="M229.71,145.95c1.97,1.8,2.51,4.77,2.03,7.39s-1.84,4.99-3.22,7.28c-4.76,7.88-10.16,15.82-11.27,24.96
							c-0.65,5.37,0.24,10.79,1.13,16.12c-1.6-0.09-2.77-1.51-3.65-2.86c-4.84-7.48-7.05-16.63-6.15-25.49
							c0.9-8.86,4.89-17.38,11.13-23.74"/>
					</g>
					<g>
						<g>
							<path class="st7" d="M220.43,191.45c0.96-11.21-5.5-13.08-7.04-13.37c-1.55-0.29-3.33,0.11-4.25,1.39
								c-0.52,0.73-0.7,1.66-0.74,2.55c-0.18,4.55,3.49,8.93,8,9.54C217.73,191.75,219.09,191.64,220.43,191.45"/>
						</g>
						<g>
							<path class="st10" d="M212.47,185.96c0.84,1.27,2.17,2.21,3.65,2.56c0.63,0.15,1.39,0.16,1.82-0.32
								c0.4-0.44,0.36-1.13,0.2-1.71c-0.29-1-0.88-1.91-1.63-2.64c-0.42-0.41-0.91-0.77-1.48-0.93c-0.74-0.21-1.57-0.03-2.16,0.46
								C212.3,183.87,212.03,184.97,212.47,185.96"/>
						</g>
					</g>
				</g>
				<g>
					<path class="st14" d="M369.45,350.74c-28.5-23.13-40.3-4.22-55.71-13.26s-32.56-0.73-33.42-12.45
						c-0.87-11.72-2.48-25.23-2.48-25.23c0.9,0.37,1.9,0.31,2.87,0.22c10.65-1.02,20.9-5.87,28.44-13.46
						c0.28-0.28,0.56-0.58,0.67-0.95c0.13-0.46-0.02-0.95-0.17-1.4c-3.8-11.35-7.61-22.71-11.41-34.06
						c-1.43-4.27-2.89-8.61-5.44-12.33s-5.32-6.41-10.34-6.74l-26.66-4.46c-17.07,11.75-29.23-0.4-29.23-0.4l-22.47,6.02
						c-4.8,0.41-8.49,3.62-11.04,7.34c-2.55,3.72-4.01,8.05-5.44,12.33c-3.8,11.35-7.61,22.71-11.41,34.06
						c-0.15,0.45-0.3,0.94-0.17,1.4c0.11,0.38,0.39,0.68,0.67,0.95c7.54,7.59,17.78,12.44,28.44,13.46
						c0.96,0.09,1.97,0.15,2.87-0.22c0.48-0.19,0.87-0.5,1.22-0.86c-0.49,4.53-1.26,9.85-2.48,16.19
						c-3.38,17.47-20.06,17.15-20.06,17.15c-69.34,8.08-55.89,30.28-55.89,30.28c-5.14,13.02,58.17,27.35,102.81,43.27
						C278.23,423.51,397.96,373.87,369.45,350.74z"/>
					<g>
						<path class="st15" d="M257.38,227.31c-0.11-0.94-0.62-2.13-1.68-2.08c-0.37,0.02-0.7,0.2-1.02,0.37
							c-3.82,2.07-9.2,4.26-13.58,5.24c-4.27-0.98-9.52-3.17-13.25-5.24c-0.31-0.17-0.63-0.35-1-0.37
							c-1.03-0.05-1.53,1.13-1.64,2.08c-0.47,4.35,1.1,8.86,4.24,12.14c0.95,0.99,2.06,1.89,3.39,2.37s2.91,0.51,4.14-0.18
							c1.45-0.81,2.13-2.38,2.72-3.84c0.46-1.14,1.05-3.4,1.39-5.14c0.35,1.74,0.96,4,1.43,5.14c0.6,1.46,1.3,3.03,2.78,3.84
							c1.26,0.68,2.88,0.66,4.24,0.18c1.36-0.48,2.5-1.38,3.47-2.37C256.25,236.18,257.86,231.66,257.38,227.31z"/>
					</g>
					<path class="st15" d="M153.59,348.62c0,0,39.64-2.97,68.22,26.16c28.58,29.12,36.4,3.37,67.42-8.9
						c31.01-12.27,41.53-32.76,69.84-15.91s-95.33,67.28-119.73,58.52C214.94,399.72,148.81,358.13,153.59,348.62z"/>
					<path class="st15" d="M197.03,338.66c0,0,19.42-4.4,47.38,9.58c13.59,6.79,46.09-8.16,54.37-6.99s-24.34,31.72-52.82,24.08
						C217.49,357.69,211.4,345.14,197.03,338.66z"/>
					<path class="st15" d="M210.76,282.62c0,0,5.12,11.66,23.33,11.12c18.2-0.54,29.57,3.51,37.68,1.62
						c8.1-1.89-7.64,9.78-23.2,8.09C233.01,301.77,207.59,310.06,210.76,282.62z"/>
					<g>
						<path class="st16" d="M243.03,245.93c0,1.09-0.89,1.98-1.98,1.98s-1.98-0.89-1.98-1.98s0.89-1.98,1.98-1.98
							S243.03,244.83,243.03,245.93z"/>
						<path class="st16" d="M243.03,259.23c0,1.09-0.89,1.98-1.98,1.98s-1.98-0.89-1.98-1.98s0.89-1.98,1.98-1.98
							S243.03,258.14,243.03,259.23z"/>
						<path class="st16" d="M243.03,272.53c0,1.09-0.89,1.98-1.98,1.98s-1.98-0.89-1.98-1.98s0.89-1.98,1.98-1.98
							C242.14,270.56,243.03,271.44,243.03,272.53z"/>
						<path class="st16" d="M243.03,285.84c0,1.09-0.89,1.98-1.98,1.98s-1.98-0.89-1.98-1.98s0.89-1.98,1.98-1.98
							S243.03,284.74,243.03,285.84z"/>
						<path class="st16" d="M243.03,299.14c0,1.09-0.89,1.98-1.98,1.98s-1.98-0.89-1.98-1.98s0.89-1.98,1.98-1.98
							S243.03,298.05,243.03,299.14z"/>
						<path class="st16" d="M243.03,312.44c0,1.09-0.89,1.98-1.98,1.98s-1.98-0.89-1.98-1.98s0.89-1.98,1.98-1.98
							C242.14,310.47,243.03,311.35,243.03,312.44z"/>
						<path class="st16" d="M243.03,325.75c0,1.09-0.89,1.98-1.98,1.98s-1.98-0.89-1.98-1.98s0.89-1.98,1.98-1.98
							S243.03,324.65,243.03,325.75z"/>
					</g>
				</g>
			</g>
		</g>
		<g>
			<g>
				<g>
					<path class="st7" d="M319.81,407.72c1.06-0.83,0.87-2.61-0.06-3.59s-2.32-1.33-3.65-1.56c-15.51-2.68-30.99,6.03-46.7,5.02
						c-14.12-0.9-26.44-9.43-38.14-17.39c-13.55-9.2-27.35-18.02-41.15-26.84c-13.74-8.78-28.74-17.91-45.01-16.82
						c-4.18,0.28-8.51,1.35-11.57,4.2c-5.48,5.11-5.01,14.12-1.92,20.95c4.31,9.53,12.63,16.79,21.84,21.74
						c9.21,4.95,19.37,7.84,29.43,10.69c14.43,4.08,28.85,8.17,43.28,12.25c7.75,2.19,15.5,4.39,23.39,6.01
						c14.65,3.02,29.7,4.04,44.62,3.05c5.51-0.37,11.15-1.05,16.06-3.59s9-7.28,9.35-12.79"/>
				</g>
				<path class="st10" d="M182.88,404.12c0,0,9.68-11.27,40.02-3.99c24.24,5.82,41.12,0.81,41.12,0.81
					C268.16,405.28,200.45,420.68,182.88,404.12z"/>
				<path class="st10" d="M251.76,422.72c0,0,13.95,5.12,32.08-3.31s30.87-13.76,30.87-13.76"/>
				<g>
					<path class="st7" d="M183.18,407.72c-1.06-0.83-0.87-2.61,0.06-3.59s2.32-1.33,3.65-1.56c15.51-2.68,30.99,6.03,46.7,5.02
						c14.12-0.9,26.44-9.43,38.14-17.39c13.55-9.2,27.35-18.02,41.15-26.84c13.74-8.78,28.74-17.91,45.01-16.82
						c4.18,0.28,8.51,1.35,11.57,4.2c5.48,5.11,5.01,14.12,1.92,20.95c-4.31,9.53-12.63,16.79-21.84,21.74
						c-9.21,4.95-19.37,7.84-29.43,10.69c-14.43,4.08-28.85,8.17-43.28,12.25c-7.75,2.19-15.5,4.39-23.39,6.01
						c-14.65,3.02-29.7,4.04-44.62,3.05c-5.51-0.37-11.15-1.05-16.06-3.59s-9-7.28-9.35-12.79"/>
				</g>
			</g>
			<path class="st10" d="M145.1,346.54c0,0,18.79,2.4,40.36,23.43s44.33,32.92,66.3,32.46C251.76,402.43,181.32,341.26,145.1,346.54
				z"/>
		</g>
	</g>
</g>
</svg>
