<svg width="126" height="50" viewBox="0 0 126 50" fill="none" xmlns="http://www.w3.org/2000/svg">
<g clip-path="url(#clip0)">
<path d="M83.5563 8.00006C83.9847 8.57006 64.5807 15.8901 65.9163 21.0001C66.4959 23.2001 70.7421 24.3301 82.2963 30.0001C83.4681 30.5701 86.3031 31.9801 86.0511 32.4501C86.0259 32.5001 85.9755 32.5201 85.9503 32.5301C84.5139 33.2401 65.9163 26.0001 65.9163 26.0001C65.5509 25.8601 64.7823 25.5801 63.8751 25.7101C63.4089 25.7801 63.0561 25.9301 62.9553 25.9901C61.6827 26.7101 62.3253 29.7301 63.5475 32.2001C63.9003 32.9101 65.9919 37.0401 67.0629 38.8901C67.1889 39.1001 67.4787 39.6401 67.2645 39.8101C67.2519 39.8301 67.2267 39.8401 67.1889 39.8401C66.9243 39.9001 65.7651 39.6101 64.6815 38.7701C59.3013 34.6501 56.7435 27.0001 56.7435 27.0001C56.4033 25.9801 55.9371 24.4501 55.5591 22.5501C54.5511 16.9601 55.1307 12.5301 55.5591 9.87006C56.9451 1.15006 58.6083 -4.01994 58.7217 -3.99994C58.8603 -3.97994 56.8821 4.77006 59.5155 9.08006C59.8305 9.61006 60.6495 11.0101 62.5521 11.8401C63.8373 12.4001 65.0469 12.5301 65.8533 12.5701C69.2049 12.7601 71.9517 11.8101 77.2437 10.0001C81.8679 8.43006 83.4429 7.84006 83.5563 8.00006Z" fill="#1C90BF"/>
<path d="M65.6872 10.86C68.2759 10.86 70.3744 9.54819 70.3744 7.93C70.3744 6.31181 68.2759 5 65.6872 5C63.0985 5 61 6.31181 61 7.93C61 9.54819 63.0985 10.86 65.6872 10.86Z" fill="#4DBFD9"/>
<path d="M8.94221 21.4407L10.2866 15.8105L12.0353 22.1786L10.5898 27.4854H6.53648L2.52355 14.0719H6.97113L8.94221 21.4407ZM18.4236 27.4854H14.158L10.4786 14.0719H14.9869L18.4236 27.4854ZM18.4641 14.0719H22.5376L18.8987 26.7879L17.0792 19.6415L18.4641 14.0719ZM27.622 24.7562H29.3V27.4854H25.8632L23.1441 24.8067V16.7506L25.8632 14.0719H29.3V16.791H27.622V24.7562ZM31.7158 16.791H30.0075V14.0719H33.4746L36.1836 16.7506V24.8067L33.4746 27.4854H30.0075V24.7562H31.7158V16.791ZM38.2558 27.4854V14.0719H42.7236V27.4854H38.2558ZM43.4311 16.7506V14.0719H48.5357L51.2245 16.7506V20.7736L49.1624 22.8357L49.0209 22.5526L44.8261 23.1086L44.9878 23.4624H43.4311V20.8646H46.787V16.7506H43.4311ZM51.6794 27.4854H46.9083L44.9878 23.4624H48.5357L49.1624 22.8357L51.6794 27.4854Z" fill="#4DBFD9"/>
<path d="M79.4303 13.9505H84.2596V20.4296H88.7174V23.2812H84.2596V28.4492H79.4303V13.9505ZM85.0244 16.8458V13.9505H92.3885V18.7579H87.5593V16.8458H85.0244ZM93.7433 25.3572H95.1965V17.0316H93.7433V13.9505H101.479V17.0316H100.026V25.3572H101.479V28.4492H93.7433V25.3572ZM106.887 17.862H111.913V28.4492H106.887V17.862ZM103.107 13.9505H115.694V17.1081H103.107V13.9505Z" fill="#4DBFD9"/>
</g>
<defs>
<clipPath id="clip0">
<rect width="126" height="50" fill="white"/>
</clipPath>
</defs>
</svg>
