<?xml version="1.0" encoding="utf-8"?>
<!-- Generator: Adobe Illustrator 23.0.3, SVG Export Plug-In . SVG Version: 6.00 Build 0)  -->
<svg version="1.1" id="Layer_1" xmlns="http://www.w3.org/2000/svg" xmlns:xlink="http://www.w3.org/1999/xlink" x="0px" y="0px"
	 viewBox="0 0 100 50" style="enable-background:new 0 0 100 50;" xml:space="preserve">
<style type="text/css">
	.st0{fill:#1C90BF;}
	.st1{fill:#4DBFD9;}
	.st2{font-family:'BlackOpsOne-Regular';}
	.st3{font-size:25.6474px;}
	.st4{font-size:25.8535px;}
</style>
<g>
	<path class="st0" d="M66,15c0.34,0.57-15.06,7.89-14,13c0.46,2.2,3.83,3.33,13,9c0.93,0.57,3.18,1.98,2.98,2.45
		c-0.02,0.05-0.06,0.07-0.08,0.08C66.76,40.24,52,33,52,33c-0.29-0.14-0.9-0.42-1.62-0.29c-0.37,0.07-0.65,0.22-0.73,0.28
		c-1.01,0.72-0.5,3.74,0.47,6.21c0.28,0.71,1.94,4.84,2.79,6.69c0.1,0.21,0.33,0.75,0.16,0.92c-0.01,0.02-0.03,0.03-0.06,0.03
		c-0.21,0.06-1.13-0.23-1.99-1.07C46.75,41.65,44.72,34,44.72,34c-0.27-1.02-0.64-2.55-0.94-4.45c0,0,0,0,0,0
		c-0.8-5.59-0.34-10.02,0-12.68C44.88,8.15,46.2,2.98,46.29,3c0.11,0.02-1.46,8.77,0.63,13.08c0.25,0.53,0.9,1.93,2.41,2.76
		c1.02,0.56,1.98,0.69,2.62,0.73c2.66,0.19,4.84-0.76,9.04-2.57C64.66,15.43,65.91,14.84,66,15z"/>
	<ellipse class="st1" cx="52.33" cy="15.02" rx="3.72" ry="2.93"/>
	<text transform="matrix(0.6515 0 0 1 2.2114 34.1328)" class="st1 st2 st3">WOR</text>
	<g>
		<text transform="matrix(0.7491 0 0 1 62.0254 34.3027)" class="st1 st2 st4">FIT</text>
	</g>
</g>
</svg>
