<?xml version="1.0" encoding="UTF-8"?>
<svg width="1001px" height="1000px" viewBox="0 0 1001 1000" version="1.1" xmlns="http://www.w3.org/2000/svg" xmlns:xlink="http://www.w3.org/1999/xlink">
    <!-- Generator: Sketch 55.1 (78136) - https://sketchapp.com -->
    <title>编组 189</title>
    <desc>Created with Sketch.</desc>
    <g id="1000个上传" stroke="none" stroke-width="1" fill="none" fill-rule="evenodd">
        <g id="16" transform="translate(-2470.000000, -3562.000000)">
            <g id="编组-189" transform="translate(2470.666667, 3562.000000)">
                <rect id="矩形备份-125" x="0" y="0" width="1000" height="1000"></rect>
                <g id="编组-69" transform="translate(93.000000, 105.000000)" fill-rule="nonzero">
                    <g id="编组-61" transform="translate(225.000000, 0.000000)">
                        <g id="Window_BG">
                            <polygon id="Shape" fill="#CDE2FF" points="8.69240669 17.3951435 356.388674 17.3951435 356.388674 376.604857 8.69240669 376.604857"></polygon>
                            <path d="M8.69240669,0 L356.388674,0 C361.189358,0 365.081081,3.89403551 365.081081,8.69757174 C365.081081,13.501108 361.189358,17.3951435 356.388674,17.3951435 L8.69240669,17.3951435 C3.89172304,17.3951435 0,13.501108 0,8.69757174 C0,3.89403551 3.89172304,0 8.69240669,0 Z" id="Shape" fill="#E3EEFF"></path>
                            <path d="M8.69240669,376.604857 L356.388674,376.604857 C361.189358,376.604857 365.081081,380.498892 365.081081,385.302428 C365.081081,390.105964 361.189358,394 356.388674,394 L8.69240669,394 C3.89172304,394 0,390.105964 0,385.302428 C0,380.498892 3.89172304,376.604857 8.69240669,376.604857 Z" id="Shape" fill="#E3EEFF"></path>
                            <path d="M34.7696268,211.350993 L113.001287,211.350993 C117.801971,211.350993 121.693694,215.245029 121.693694,220.048565 L121.693694,350.512141 C121.693694,355.315678 117.801971,359.209713 113.001287,359.209713 L34.7696268,359.209713 C29.9689431,359.209713 26.0772201,355.315678 26.0772201,350.512141 L26.0772201,220.048565 C26.0772201,215.245029 29.9689431,211.350993 34.7696268,211.350993 Z" id="Shape" fill="#FAFEFF"></path>
                            <path d="M34.7696268,49.5761589 L113.001287,49.5761589 C117.801971,49.5761589 121.693694,53.4701944 121.693694,58.2737307 L121.693694,188.737307 C121.693694,193.540843 117.801971,197.434879 113.001287,197.434879 L34.7696268,197.434879 C29.9689431,197.434879 26.0772201,193.540843 26.0772201,188.737307 L26.0772201,58.2737307 C26.0772201,53.4701944 29.9689431,49.5761589 34.7696268,49.5761589 Z" id="Shape" fill="#FAFEFF"></path>
                            <path d="M143.42471,211.350993 L221.656371,211.350993 C226.457054,211.350993 230.348777,215.245029 230.348777,220.048565 L230.348777,350.512141 C230.348777,355.315678 226.457054,359.209713 221.656371,359.209713 L143.42471,359.209713 C138.624027,359.209713 134.732304,355.315678 134.732304,350.512141 L134.732304,220.048565 C134.732304,215.245029 138.624027,211.350993 143.42471,211.350993 Z" id="Shape" fill="#FAFEFF"></path>
                            <path d="M143.42471,49.5761589 L221.656371,49.5761589 C226.457054,49.5761589 230.348777,53.4701944 230.348777,58.2737307 L230.348777,188.737307 C230.348777,193.540843 226.457054,197.434879 221.656371,197.434879 L143.42471,197.434879 C138.624027,197.434879 134.732304,193.540843 134.732304,188.737307 L134.732304,58.2737307 C134.732304,53.4701944 138.624027,49.5761589 143.42471,49.5761589 Z" id="Shape" fill="#FAFEFF"></path>
                            <path d="M252.079794,211.350993 L330.311454,211.350993 C335.112138,211.350993 339.003861,215.245029 339.003861,220.048565 L339.003861,350.512141 C339.003861,355.315678 335.112138,359.209713 330.311454,359.209713 L252.079794,359.209713 C247.27911,359.209713 243.387387,355.315678 243.387387,350.512141 L243.387387,220.048565 C243.387387,215.245029 247.27911,211.350993 252.079794,211.350993 Z" id="Shape" fill="#FAFEFF"></path>
                            <path d="M252.079794,49.5761589 L330.311454,49.5761589 C335.112138,49.5761589 339.003861,53.4701944 339.003861,58.2737307 L339.003861,188.737307 C339.003861,193.540843 335.112138,197.434879 330.311454,197.434879 L252.079794,197.434879 C247.27911,197.434879 243.387387,193.540843 243.387387,188.737307 L243.387387,58.2737307 C243.387387,53.4701944 247.27911,49.5761589 252.079794,49.5761589 Z" id="Shape" fill="#FAFEFF"></path>
                            <path d="M26.0772201,34.790287 L339.003861,34.790287 L339.003861,151.337748 C339.003861,160.944821 331.220415,168.732892 321.619048,168.732892 L43.4620335,168.732892 C33.8606662,168.732892 26.0772201,160.944821 26.0772201,151.337748 L26.0772201,34.790287 Z" id="Shape" fill="#E3EEFF"></path>
                        </g>
                        <g id="Plant_BG" transform="translate(254.450450, 258.519298)">
                            <polygon id="Shape" fill="#CDE2FF" points="6.10773273 73.3429363 67.1850601 73.3429363 58.4597276 116.126316 14.8330652 116.126316"></polygon>
                            <ellipse id="Shape" fill="#E3EEFF" cx="36.6463964" cy="36.6714681" rx="36.6463964" ry="36.6714681"></ellipse>
                            <path d="M9.22256648,12.1784968 C9.5052891,10.7098837 10.7378199,9.60443213 12.2154655,9.60443213 C13.693111,9.60443213 14.9256418,10.7098837 15.2083645,12.1784968 C15.2286391,12.1780786 15.2489622,12.1778685 15.2693318,12.1778685 C16.9559357,12.1778685 18.3231982,13.6180769 18.3231982,15.3946639 C18.3231982,17.171251 16.9559357,18.6114594 15.2693318,18.6114594 C15.2693318,20.3880465 13.9020693,21.8282548 12.2154655,21.8282548 C10.5288616,21.8282548 9.1615991,20.3880465 9.1615991,18.6114594 C7.47499528,18.6114594 6.10773273,17.171251 6.10773273,15.3946639 C6.10773273,13.6180769 7.47499528,12.1778685 9.1615991,12.1778685 C9.18196875,12.1778685 9.20229183,12.1780786 9.22256648,12.1784968 L9.22256648,12.1784968 Z" id="Shape" fill="#CDE2FF"></path>
                            <path d="M64.1921611,16.5441477 C64.4748837,15.0755347 65.7074145,13.9700831 67.1850601,13.9700831 C68.6627056,13.9700831 69.8952364,15.0755347 70.177959,16.5441477 C70.1982337,16.5437295 70.2185568,16.5435195 70.2389264,16.5435195 C71.9255302,16.5435195 73.2927928,17.9837278 73.2927928,19.7603149 C73.2927928,21.536902 71.9255302,22.9771104 70.2389264,22.9771104 C70.2389264,24.7536974 68.8716639,26.1939058 67.1850601,26.1939058 C65.4984562,26.1939058 64.1311937,24.7536974 64.1311937,22.9771104 C62.4445899,22.9771104 61.0773273,21.536902 61.0773273,19.7603149 C61.0773273,17.9837278 62.4445899,16.5435195 64.1311937,16.5435195 C64.1515633,16.5435195 64.1718864,16.5437295 64.1921611,16.5441477 L64.1921611,16.5441477 Z" id="Shape" fill="#CDE2FF"></path>
                            <path d="M39.7612301,28.7679704 C40.0439528,27.2993574 41.2764836,26.1939058 42.7541291,26.1939058 C44.2317747,26.1939058 45.4643055,27.2993574 45.7470281,28.7679704 C45.7673028,28.7675522 45.7876258,28.7673422 45.8079955,28.7673422 C47.4945993,28.7673422 48.8618619,30.2075506 48.8618619,31.9841376 C48.8618619,33.7607247 47.4945993,35.2009331 45.8079955,35.2009331 C45.8079955,36.9775202 44.440733,38.4177285 42.7541291,38.4177285 C41.0675253,38.4177285 39.7002628,36.9775202 39.7002628,35.2009331 C38.0136589,35.2009331 36.6463964,33.7607247 36.6463964,31.9841376 C36.6463964,30.2075506 38.0136589,28.7673422 39.7002628,28.7673422 C39.7206324,28.7673422 39.7409555,28.7675522 39.7612301,28.7679704 L39.7612301,28.7679704 Z" id="Shape" fill="#CDE2FF"></path>
                            <path d="M54.5942954,53.2156159 C54.877018,51.7470028 56.1095488,50.6415512 57.5871943,50.6415512 C59.0648399,50.6415512 60.2973707,51.7470028 60.5800933,53.2156159 C60.600368,53.2151977 60.620691,53.2149876 60.6410607,53.2149876 C62.3276645,53.2149876 63.6949271,54.655196 63.6949271,56.4317831 C63.6949271,58.2083701 62.3276645,59.6485785 60.6410607,59.6485785 C60.6410607,61.4251656 59.2737982,62.865374 57.5871943,62.865374 C55.9005905,62.865374 54.533328,61.4251656 54.533328,59.6485785 C52.8467241,59.6485785 51.4794616,58.2083701 51.4794616,56.4317831 C51.4794616,54.655196 52.8467241,53.2149876 54.533328,53.2149876 C54.5536976,53.2149876 54.5740207,53.2151977 54.5942954,53.2156159 L54.5942954,53.2156159 Z" id="Shape" fill="#CDE2FF"></path>
                            <path d="M17.947899,50.5962253 C18.2306216,49.1276122 19.4631524,48.0221607 20.9407979,48.0221607 C22.4184435,48.0221607 23.6509743,49.1276122 23.9336969,50.5962253 C23.9539716,50.5958071 23.9742947,50.595597 23.9946643,50.595597 C25.6812681,50.595597 27.0485307,52.0358054 27.0485307,53.8123925 C27.0485307,55.5889795 25.6812681,57.0291879 23.9946643,57.0291879 C23.9946643,58.805775 22.6274018,60.2459834 20.9407979,60.2459834 C19.2541941,60.2459834 17.8869316,58.805775 17.8869316,57.0291879 C16.2003278,57.0291879 14.8330652,55.5889795 14.8330652,53.8123925 C14.8330652,52.0358054 16.2003278,50.595597 17.8869316,50.595597 C17.9073012,50.595597 17.9276243,50.5958071 17.947899,50.5962253 L17.947899,50.5962253 Z" id="Shape" fill="#CDE2FF"></path>
                        </g>
                        <g id="Picture_BG" transform="translate(399.653153, 98.154386)">
                            <polygon id="Shape" fill="#E3EEFF" points="19.2298997 19.0971848 74.2973398 19.0971848 74.2973398 92.8817625 19.2298997 92.8817625"></polygon>
                            <path d="M8.74086351,8.68053856 L8.74086351,103.298409 L83.9122896,103.298409 L83.9122896,8.68053856 L8.74086351,8.68053856 Z M0,0 L92.6531532,0 L92.6531532,111.978947 L0,111.978947 L0,0 Z" id="Shape" fill="#CDE2FF"></path>
                        </g>
                        <g id="Picture_BG" transform="translate(521.346847, 150.687719)">
                            <polygon id="Shape" fill="#E3EEFF" points="19.2298997 19.0971848 74.2973398 19.0971848 74.2973398 92.8817625 19.2298997 92.8817625"></polygon>
                            <path d="M8.74086351,8.68053856 L8.74086351,103.298409 L83.9122896,103.298409 L83.9122896,8.68053856 L8.74086351,8.68053856 Z M0,0 L92.6531532,0 L92.6531532,111.978947 L0,111.978947 L0,0 Z" id="Shape" fill="#CDE2FF"></path>
                        </g>
                    </g>
                    <g id="49" transform="translate(0.000000, 171.000000)">
                        <path d="M2.44117647,651.55 C2.44117647,651.55 -1.70588235,654.316667 1.05882353,657.083333 C1.05882353,657.083333 2.44117647,658.466667 3.82352941,657.083333 C3.82352941,657.083333 2.44117647,659.85 5.20588235,659.85 C5.20588235,659.85 5.20588235,662.616667 10.7352941,661.233333 C10.7352941,661.233333 13.5,665.383333 19.0294118,662.616667 C24.5588235,659.85 24.5588235,658.466667 24.5588235,658.466667 C24.5588235,658.466667 31.4705882,652.933333 31.4705882,648.783333 C31.4705882,644.633333 37,646.016667 37,646.016667 C37,646.016667 43.9117647,646.016667 43.9117647,640.483333 C43.9117647,640.483333 41.1470588,633.566667 42.5294118,629.416667 C43.9117647,625.266667 53.5882353,616.966667 53.5882353,616.966667 L38.3823529,604.516667 C38.3823529,604.516667 23.1764706,616.966667 20.4117647,622.5 C19.0294118,629.416667 7.97058824,647.4 2.44117647,651.55 Z" id="路径" fill="#FBC5B3"></path>
                        <path d="M363.235294,596.216667 C363.235294,596.216667 363.235294,612.816667 361.852941,616.966667 C359.088235,622.5 359.088235,637.716667 366,640.483333 C372.911765,643.25 385.352941,640.483333 385.352941,640.483333 C385.352941,640.483333 395.029412,639.1 403.323529,643.25 C411.617647,647.4 417.147059,646.016667 417.147059,646.016667 C417.147059,646.016667 432.352941,654.316667 433.735294,644.633333 L428.205882,640.483333 C428.205882,640.483333 424.058824,633.566667 418.529412,633.566667 C418.529412,633.566667 413,630.8 407.470588,623.883333 C401.941176,618.35 390.882353,612.816667 390.882353,612.816667 L382.588235,576.85 L363.235294,596.216667 Z" id="路径" fill="#FBC5B3"></path>
                        <g id="编组" transform="translate(37.470588, 374.500000)">
                            <path d="M201.352941,0.383333333 L195.823529,3.15 C195.823529,3.15 182,48.8 237.294118,57.1 C237.294118,55.7166667 238.676471,11.45 201.352941,0.383333333 Z" id="路径" fill="#FBC5B3"></path>
                            <path d="M0.911764706,228.633333 C0.911764706,228.633333 13.3529412,245.233333 17.5,243.85 C17.5,243.85 24.4117647,239.7 27.1764706,235.55 C29.9411765,231.4 49.2941176,217.566667 61.7352941,212.033333 C74.1764706,206.5 86.6176471,188.516667 89.3823529,181.6 C92.1470588,176.066667 101.823529,169.15 110.117647,163.616667 C119.794118,158.083333 148.823529,124.883333 154.352941,117.966667 C154.352941,117.966667 172.323529,104.133333 184.764706,94.45 C197.205882,83.3833333 215.176471,93.0666667 215.176471,93.0666667 C215.176471,93.0666667 269.088235,124.883333 310.558824,116.583333 C310.558824,116.583333 331.294118,119.35 331.294118,123.5 C331.294118,123.5 314.705882,147.016667 323,178.833333 C323,178.833333 325.764706,212.033333 323,223.1 C323,223.1 336.823529,230.016667 349.264706,227.25 C349.264706,227.25 347.882353,194.05 354.794118,180.216667 C361.705882,166.383333 365.852941,130.416667 365.852941,130.416667 L370,106.9 C370,106.9 372.764706,94.45 363.088235,87.5333333 C353.411765,80.6166667 280.147059,51.5666667 263.558824,48.8 L226.235294,47.4166667 C226.235294,47.4166667 191.676471,29.4333333 194.441176,3.15 C194.441176,3.15 179.235294,7.3 164.029412,26.6666667 C147.441176,46.0333333 115.647059,94.45 115.647059,94.45 C115.647059,94.45 83.8529412,149.783333 70.0294118,155.316667 C56.2058824,160.85 10.5882353,218.95 0.911764706,228.633333 Z" id="路径" fill="#313086"></path>
                            <path d="M195.823529,1.76666667 C195.823529,1.76666667 193.058824,26.6666667 241.441176,50.1833333 L270.470588,50.1833333 C270.470588,50.1833333 280.147059,58.4833333 295.352941,58.4833333 C310.558824,59.8666667 356.176471,83.3833333 356.176471,83.3833333 C356.176471,83.3833333 372.764706,90.3 371.382353,102.75 C370,115.2 364.470588,131.8 364.470588,137.333333 C364.470588,142.866667 357.558824,174.683333 352.029412,187.133333 C346.5,199.583333 349.264706,224.483333 349.264706,224.483333 C349.264706,224.483333 332.676471,230.016667 323,221.716667 C323,221.716667 327.147059,189.9 323,178.833333 C320.235294,167.766667 318.852941,134.566667 329.911765,123.5 C329.911765,123.5 305.029412,115.2 289.823529,115.2 C274.617647,115.2 240.058824,106.9 211.029412,91.6833333 C211.029412,91.6833333 195.823529,88.9166667 188.911765,93.0666667 C182,97.2166667 151.588235,122.116667 143.294118,131.8 C135,141.483333 110.117647,166.383333 101.823529,170.533333 C93.5294118,174.683333 85.2352941,188.516667 85.2352941,188.516667 C85.2352941,188.516667 74.1764706,206.5 53.4411765,217.566667 C32.7058824,228.633333 18.8823529,245.233333 18.8823529,245.233333 C18.8823529,245.233333 6.44117647,242.466667 0.911764706,230.016667 C0.911764706,230.016667 32.7058824,194.05 36.8529412,187.133333 C41,178.833333 60.3529412,162.233333 72.7941176,153.933333 C72.7941176,153.933333 97.6764706,129.033333 111.5,101.366667 C125.323529,73.7 164.029412,14.2166667 195.823529,1.76666667 Z" id="路径" fill="#313086"></path>
                        </g>
                        <g id="编组" transform="translate(234.000000, 0.000000)">
                            <path d="M114.029412,35.9666667 C114.029412,35.9666667 115.411765,29.05 114.029412,26.2833333 C114.029412,23.5166667 112.647059,17.9833333 115.411765,16.6 C118.176471,15.2166667 119.558824,17.9833333 119.558824,17.9833333 L119.558824,6.91666667 L125.088235,5.53333333 L125.088235,1.38333333 L130.617647,0 L130.617647,5.53333333 L136.147059,4.15 C136.147059,4.15 138.911765,26.2833333 137.529412,30.4333333 C137.529412,35.9666667 138.911765,44.2666667 138.911765,44.2666667 C138.911765,44.2666667 134.764706,62.25 133.382353,63.6333333 C132,65.0166667 132,78.85 130.617647,84.3833333 C129.235294,88.5333333 125.088235,116.2 123.705882,123.116667 C122.323529,130.033333 118.176471,157.7 114.029412,164.616667 C114.029412,164.616667 114.029412,175.683333 115.411765,178.45 C116.794118,181.216667 109.882353,213.033333 109.882353,213.033333 C109.882353,213.033333 108.5,231.016667 111.264706,239.316667 C116.794118,247.616667 115.411765,276.666667 115.411765,276.666667 L122.323529,284.966667 C122.323529,284.966667 127.852941,284.966667 130.617647,284.966667 C130.617647,284.966667 140.294118,275.283333 143.058824,273.9 L155.5,265.6 L183.147059,272.516667 L192.823529,286.35 L185.911765,290.5 C185.911765,290.5 159.647059,308.483333 158.264706,314.016667 C156.882353,319.55 161.029412,323.7 163.794118,326.466667 C166.558824,329.233333 169.323529,330.616667 169.323529,330.616667 C169.323529,330.616667 185.911765,351.366667 180.382353,367.966667 C174.852941,384.566667 169.323529,405.316667 169.323529,405.316667 C169.323529,405.316667 162.411765,438.516667 162.411765,442.666667 C162.411765,446.816667 154.117647,457.883333 154.117647,457.883333 C154.117647,457.883333 137.529412,471.716667 126.470588,475.866667 C115.411765,480.016667 111.264706,486.933333 109.882353,489.7 C109.882353,493.85 108.5,503.533333 105.735294,506.3 C105.735294,506.3 102.970588,518.75 101.588235,521.516667 C101.588235,524.283333 101.588235,525.666667 101.588235,527.05 C101.588235,527.05 101.588235,528.433333 101.588235,528.433333 C100.205882,529.816667 98.8235294,529.816667 98.8235294,528.433333 C98.8235294,527.05 98.8235294,527.05 98.8235294,525.666667 L101.588235,509.066667 L93.2941176,531.2 C91.9117647,533.966667 87.7647059,532.583333 89.1470588,529.816667 L94.6764706,510.45 L87.7647059,531.2 C86.3823529,535.35 80.8529412,533.966667 82.2352941,529.816667 L89.1470588,507.683333 L80.8529412,528.433333 C79.4705882,532.583333 75.3235294,531.2 76.7058824,527.05 L82.2352941,513.216667 C82.2352941,513.216667 79.4705882,515.983333 76.7058824,514.6 L79.4705882,509.066667 C79.4705882,509.066667 79.4705882,503.533333 82.2352941,500.766667 C82.2352941,500.766667 85,492.466667 90.5294118,488.316667 C94.6764706,482.783333 105.735294,470.333333 105.735294,470.333333 C105.735294,470.333333 122.323529,459.266667 127.852941,453.733333 C132,448.2 144.441176,437.133333 148.588235,435.75 C148.588235,435.75 152.735294,408.083333 152.735294,399.783333 C152.735294,391.483333 152.735294,377.65 152.735294,377.65 L151.352941,376.266667 L123.705882,367.966667 L73.9411765,284.966667 C73.9411765,284.966667 82.2352941,279.433333 85,255.916667 C86.3823529,233.783333 91.9117647,203.35 94.6764706,195.05 C96.0588235,186.75 101.588235,150.783333 101.588235,150.783333 C101.588235,150.783333 115.411765,84.3833333 118.176471,74.7 C118.176471,74.7 119.558824,71.9333333 118.176471,66.4 C112.647059,62.25 109.882353,41.5 114.029412,35.9666667 Z" id="路径" fill="#FBC5B3"></path>
                            <path d="M0.676470588,372.116667 C0.676470588,372.116667 8.97058824,397.016667 26.9411765,415 C44.9117647,432.983333 57.3529412,435.75 64.2647059,432.983333 C71.1764706,430.216667 72.5588235,424.683333 72.5588235,424.683333 C72.5588235,424.683333 73.9411765,420.533333 76.7058824,420.533333 C79.4705882,420.533333 82.2352941,417.766667 82.2352941,415 C82.2352941,415 91.9117647,403.933333 100.205882,402.55 C100.205882,402.55 125.088235,406.7 136.147059,384.566667 C136.147059,384.566667 143.058824,379.033333 145.823529,377.65 C145.823529,377.65 149.970588,369.35 149.970588,359.666667 C151.352941,349.983333 158.264706,333.383333 167.941176,329.233333 C166.558824,326.466667 163.794118,325.083333 162.411765,325.083333 C162.411765,325.083333 151.352941,333.383333 147.205882,340.3 C143.058824,347.216667 134.764706,351.366667 127.852941,348.6 C120.941176,345.833333 109.882353,330.616667 109.882353,320.933333 C109.882353,312.633333 109.882353,308.483333 115.411765,300.183333 C119.558824,293.266667 122.323529,286.35 122.323529,283.583333 C120.941176,279.433333 118.176471,276.666667 115.411765,275.283333 C115.411765,275.283333 116.794118,283.583333 114.029412,287.733333 C111.264706,291.883333 105.735294,294.65 97.4411765,293.266667 C90.5294118,293.266667 76.7058824,291.883333 69.7941176,283.583333 C69.7941176,283.583333 54.5882353,311.25 44.9117647,322.316667 C36.6176471,333.383333 29.7058824,345.833333 29.7058824,345.833333 C29.7058824,345.833333 21.4117647,348.6 21.4117647,355.516667 C21.4117647,363.816667 0.676470588,372.116667 0.676470588,372.116667 Z" id="路径" fill="#E8EAE8"></path>
                        </g>
                        <g id="编组" transform="translate(370.235294, 221.333333)">
                            <path d="M51.0588235,5.53333333 L35.8529412,8.3 C35.8529412,8.3 33.0882353,8.3 33.0882353,11.0666667 C33.0882353,13.8333333 28.9411765,15.2166667 28.9411765,15.2166667 L20.6470588,13.8333333 C20.6470588,13.8333333 17.8823529,13.8333333 17.8823529,17.9833333 L17.8823529,20.75 C17.8823529,20.75 15.1176471,22.1333333 13.7352941,22.1333333 C12.3529412,22.1333333 10.9705882,23.5166667 12.3529412,24.9 C12.3529412,24.9 9.58823529,23.5166667 8.20588235,24.9 C8.20588235,24.9 8.20588235,30.4333333 5.44117647,31.8166667 C2.67647059,31.8166667 -1.47058824,37.35 2.67647059,42.8833333 C6.82352941,47.0333333 30.3235294,60.8666667 51.0588235,59.4833333 C70.4117647,58.1 71.7941176,5.53333333 51.0588235,5.53333333 Z" id="路径" fill="#FFD9CC"></path>
                            <g transform="translate(18.823529, 0.000000)" id="路径">
                                <g transform="translate(15.647059, 0.000000)" fill="#464489">
                                    <path d="M16.5882353,4.15 C16.5882353,4.15 11.0588235,9.68333333 11.0588235,16.6 C11.0588235,16.6 16.5882353,8.3 19.3529412,8.3 C19.3529412,8.3 15.2058824,19.3666667 13.8235294,27.6666667 C13.8235294,35.9666667 16.5882353,44.2666667 13.8235294,47.0333333 C11.0588235,49.8 17.9705882,53.95 17.9705882,53.95 C17.9705882,53.95 16.5882353,66.4 11.0588235,69.1666667 C5.52941176,71.9333333 2.76470588,73.3166667 7.10542736e-15,78.85 C7.10542736e-15,78.85 2.76470588,83 4.14705882,83 C5.52941176,83 31.7941176,76.0833333 38.7058824,63.6333333 C45.6176471,51.1833333 45.6176471,40.1166667 44.2352941,33.2 C42.8529412,26.2833333 29.0294118,4.15 16.5882353,4.15 Z"></path>
                                    <path d="M20.7352941,11.0666667 C20.7352941,11.0666667 20.7352941,9.68333333 20.7352941,11.0666667 C20.7352941,9.68333333 22.1176471,8.3 22.1176471,6.91666667 C22.1176471,6.91666667 22.1176471,5.53333333 22.1176471,5.53333333 C22.1176471,5.53333333 22.1176471,4.15 22.1176471,4.15 C22.1176471,4.15 22.1176471,2.76666667 20.7352941,2.76666667 C20.7352941,2.76666667 19.3529412,1.38333333 19.3529412,1.38333333 C19.3529412,1.38333333 17.9705882,1.38333333 17.9705882,1.38333333 C17.9705882,1.38333333 17.9705882,1.38333333 17.9705882,1.38333333 L17.9705882,1.38333333 C17.9705882,1.38333333 17.9705882,1.38333333 16.5882353,1.38333333 C15.2058824,1.38333333 13.8235294,1.38333333 12.4411765,2.76666667 C11.0588235,2.76666667 11.0588235,4.15 9.67647059,4.15 C9.67647059,4.15 9.67647059,4.15 9.67647059,4.15 C9.67647059,4.15 9.67647059,4.15 9.67647059,4.15 C9.67647059,4.15 9.67647059,4.15 9.67647059,4.15 C9.67647059,4.15 9.67647059,4.15 9.67647059,4.15 C9.67647059,4.15 11.0588235,2.76666667 11.0588235,2.76666667 C12.4411765,1.38333333 13.8235294,1.38333333 15.2058824,1.38333333 C15.2058824,1.38333333 16.5882353,1.38333333 16.5882353,1.38333333 L16.5882353,1.38333333 C16.5882353,1.38333333 16.5882353,1.38333333 16.5882353,1.38333333 C17.9705882,1.38333333 17.9705882,1.38333333 19.3529412,1.38333333 C20.7352941,1.38333333 20.7352941,2.76666667 22.1176471,2.76666667 C22.1176471,2.76666667 23.5,4.15 23.5,5.53333333 C23.5,6.91666667 23.5,6.91666667 23.5,8.3 C23.5,9.68333333 23.5,9.68333333 23.5,9.68333333 C23.5,11.0666667 23.5,12.45 23.5,12.45 C23.5,12.45 23.5,13.8333333 23.5,13.8333333 L20.7352941,11.0666667 Z"></path>
                                    <path d="M19.3529412,8.3 C19.3529412,8.3 19.3529412,8.3 19.3529412,8.3 C19.3529412,8.3 19.3529412,8.3 19.3529412,8.3 C19.3529412,6.91666667 17.9705882,5.53333333 17.9705882,5.53333333 C16.5882353,4.15 16.5882353,4.15 15.2058824,4.15 C15.2058824,4.15 15.2058824,4.15 15.2058824,4.15 C15.2058824,4.15 15.2058824,4.15 15.2058824,4.15 C15.2058824,4.15 13.8235294,4.15 13.8235294,4.15 C12.4411765,4.15 12.4411765,4.15 11.0588235,4.15 C9.67647059,4.15 8.29411765,5.53333333 6.91176471,5.53333333 C5.52941176,6.91666667 4.14705882,6.91666667 4.14705882,8.3 C4.14705882,9.68333333 2.76470588,9.68333333 2.76470588,11.0666667 C2.76470588,11.0666667 2.76470588,12.45 2.76470588,12.45 C2.76470588,12.45 2.76470588,12.45 2.76470588,11.0666667 C2.76470588,11.0666667 2.76470588,9.68333333 4.14705882,8.3 C4.14705882,6.91666667 5.52941176,5.53333333 6.91176471,5.53333333 C8.29411765,4.15 9.67647059,4.15 11.0588235,2.76666667 C12.4411765,2.76666667 12.4411765,2.76666667 13.8235294,2.76666667 C13.8235294,2.76666667 15.2058824,2.76666667 15.2058824,2.76666667 C15.2058824,2.76666667 15.2058824,2.76666667 15.2058824,2.76666667 C15.2058824,2.76666667 15.2058824,2.76666667 15.2058824,2.76666667 C16.5882353,2.76666667 17.9705882,4.15 19.3529412,5.53333333 C20.7352941,6.91666667 20.7352941,6.91666667 20.7352941,8.3 C20.7352941,8.3 20.7352941,8.3 20.7352941,9.68333333 C20.7352941,9.68333333 20.7352941,9.68333333 20.7352941,9.68333333 L19.3529412,8.3 Z"></path>
                                    <path d="M19.3529412,15.2166667 C19.3529412,15.2166667 19.3529412,15.2166667 19.3529412,15.2166667 C17.9705882,16.6 17.9705882,16.6 17.9705882,16.6 C17.9705882,16.6 17.9705882,17.9833333 16.5882353,17.9833333 C16.5882353,17.9833333 16.5882353,19.3666667 15.2058824,19.3666667 C15.2058824,19.3666667 15.2058824,20.75 13.8235294,20.75 C13.8235294,20.75 13.8235294,22.1333333 13.8235294,22.1333333 C13.8235294,22.1333333 13.8235294,23.5166667 13.8235294,23.5166667 C13.8235294,24.9 13.8235294,24.9 13.8235294,26.2833333 C13.8235294,27.6666667 13.8235294,27.6666667 13.8235294,29.05 C13.8235294,30.4333333 13.8235294,30.4333333 13.8235294,31.8166667 C13.8235294,33.2 13.8235294,33.2 13.8235294,34.5833333 C13.8235294,35.9666667 13.8235294,35.9666667 13.8235294,35.9666667 C13.8235294,37.35 13.8235294,38.7333333 13.8235294,38.7333333 C13.8235294,40.1166667 13.8235294,40.1166667 13.8235294,40.1166667 C13.8235294,40.1166667 13.8235294,40.1166667 13.8235294,38.7333333 C13.8235294,37.35 13.8235294,37.35 13.8235294,35.9666667 C13.8235294,35.9666667 13.8235294,34.5833333 13.8235294,34.5833333 C13.8235294,33.2 13.8235294,33.2 13.8235294,31.8166667 C13.8235294,30.4333333 13.8235294,30.4333333 13.8235294,29.05 C13.8235294,27.6666667 13.8235294,27.6666667 13.8235294,26.2833333 C13.8235294,24.9 13.8235294,24.9 13.8235294,23.5166667 C13.8235294,23.5166667 13.8235294,22.1333333 13.8235294,22.1333333 C13.8235294,22.1333333 13.8235294,20.75 13.8235294,20.75 C13.8235294,19.3666667 13.8235294,19.3666667 15.2058824,17.9833333 C15.2058824,17.9833333 15.2058824,16.6 16.5882353,16.6 C16.5882353,16.6 16.5882353,15.2166667 17.9705882,15.2166667 C17.9705882,15.2166667 17.9705882,13.8333333 17.9705882,13.8333333 C17.9705882,13.8333333 17.9705882,12.45 17.9705882,12.45 L19.3529412,15.2166667 Z"></path>
                                </g>
                                <path d="M17.0294118,87.15 C14.2647059,89.9166667 12.8823529,94.0666667 12.8823529,96.8333333 C12.8823529,100.983333 14.2647059,103.75 15.6470588,107.9 C17.0294118,109.283333 18.4117647,110.666667 19.7941176,112.05 C21.1764706,113.433333 21.1764706,116.2 21.1764706,117.583333 C21.1764706,116.2 19.7941176,113.433333 18.4117647,112.05 C18.4117647,114.816667 19.7941176,117.583333 19.7941176,118.966667 C18.4117647,118.966667 17.0294118,117.583333 15.6470588,116.2 C15.6470588,114.816667 15.6470588,113.433333 14.2647059,110.666667 C12.8823529,106.516667 8.73529412,105.133333 5.97058824,102.366667 C3.20588235,99.6 1.82352941,96.8333333 0.441176471,92.6833333 C0.441176471,88.5333333 1.82352941,84.3833333 3.20588235,81.6166667 C4.58823529,80.2333333 5.97058824,78.85 8.73529412,77.4666667 C10.1176471,77.4666667 12.8823529,77.4666667 14.2647059,78.85 C17.0294118,83 18.4117647,85.7666667 17.0294118,87.15" fill="#464489"></path>
                                <path d="M17.0294118,77.4666667 C15.6470588,76.0833333 11.5,78.85 12.8823529,80.2333333 C14.2647059,83 17.0294118,84.3833333 17.0294118,87.15 C18.4117647,88.5333333 22.5588235,85.7666667 21.1764706,84.3833333 C18.4117647,83 17.0294118,80.2333333 17.0294118,77.4666667 Z" fill="#FF7AA7"></path>
                            </g>
                            <ellipse id="椭圆形" fill="#FFD9CC" transform="translate(45.553465, 55.243140) rotate(-6.107975) translate(-45.553465, -55.243140) " cx="45.5534647" cy="55.24314" rx="12.4409868" ry="6.91645018"></ellipse>
                        </g>
                    </g>
                </g>
            </g>
        </g>
    </g>
</svg>