<?xml version="1.0" encoding="utf-8"?>
<!-- Generator: Adobe Illustrator 23.0.3, SVG Export Plug-In . SVG Version: 6.00 Build 0)  -->
<svg version="1.1" id="Layer_1" xmlns="http://www.w3.org/2000/svg" xmlns:xlink="http://www.w3.org/1999/xlink" x="0px" y="0px"
	 viewBox="0 0 1200 1500" style="enable-background:new 0 0 1200 1500;" xml:space="preserve">
<style type="text/css">
	.st0{fill:url(#SVGID_1_);}
	.st1{fill:url(#SVGID_2_);}
	.st2{fill:url(#SVGID_3_);}
	.st3{fill:url(#SVGID_4_);}
	.st4{fill:url(#SVGID_5_);}
	.st5{fill:url(#SVGID_6_);}
	.st6{opacity:0.2;}
	.st7{opacity:0;}
	.st8{opacity:0.0909;}
	.st9{opacity:0.1818;}
	.st10{opacity:0.2727;}
	.st11{opacity:0.3636;}
	.st12{opacity:0.4545;}
	.st13{opacity:0.5455;}
	.st14{opacity:0.6364;}
	.st15{opacity:0.7273;}
	.st16{opacity:0.8182;}
	.st17{opacity:0.9091;}
	.st18{fill:url(#SVGID_7_);}
	.st19{fill:url(#SVGID_8_);}
	.st20{fill:url(#SVGID_9_);}
	.st21{fill:url(#SVGID_10_);}
	.st22{opacity:0.0323;}
	.st23{opacity:0.0645;}
	.st24{opacity:0.0968;}
	.st25{opacity:0.129;}
	.st26{opacity:0.1613;}
	.st27{opacity:0.1935;}
	.st28{opacity:0.2258;}
	.st29{opacity:0.2581;}
	.st30{opacity:0.2903;}
	.st31{opacity:0.3226;}
	.st32{opacity:0.3548;}
	.st33{opacity:0.3871;}
	.st34{opacity:0.4194;}
	.st35{opacity:0.4516;}
	.st36{opacity:0.4839;}
	.st37{opacity:0.5161;}
	.st38{opacity:0.5484;}
	.st39{opacity:0.5806;}
	.st40{opacity:0.6129;}
	.st41{opacity:0.6452;}
	.st42{opacity:0.6774;}
	.st43{opacity:0.7097;}
	.st44{opacity:0.7419;}
	.st45{opacity:0.7742;}
	.st46{opacity:0.8065;}
	.st47{opacity:0.8387;}
	.st48{opacity:0.871;}
	.st49{opacity:0.9032;}
	.st50{opacity:0.9355;}
	.st51{opacity:0.9677;}
	.st52{fill:url(#SVGID_11_);}
	.st53{fill:url(#SVGID_12_);}
	.st54{fill:url(#SVGID_13_);}
	.st55{fill:url(#SVGID_14_);}
	.st56{fill:url(#SVGID_15_);}
	.st57{fill:url(#SVGID_16_);}
	.st58{fill:url(#SVGID_17_);}
	.st59{fill:url(#SVGID_18_);}
	.st60{enable-background:new    ;}
	.st61{fill:url(#SVGID_19_);}
	.st62{fill:url(#SVGID_20_);}
	.st63{fill:url(#SVGID_21_);}
	.st64{fill:url(#SVGID_22_);}
	.st65{fill:url(#SVGID_23_);}
	.st66{fill:url(#SVGID_24_);}
	.st67{fill:url(#SVGID_25_);}
	.st68{fill:url(#SVGID_26_);}
	.st69{fill:url(#SVGID_27_);}
	.st70{fill:url(#SVGID_28_);}
	.st71{fill:url(#SVGID_29_);}
	.st72{fill:url(#SVGID_30_);}
	.st73{fill:url(#SVGID_31_);}
	.st74{fill:#361999;}
	.st75{fill:url(#SVGID_32_);}
	.st76{fill:url(#SVGID_33_);}
	.st77{fill:url(#SVGID_34_);}
	.st78{fill:url(#SVGID_35_);}
	.st79{fill:url(#SVGID_36_);}
	.st80{fill:url(#SVGID_37_);}
	.st81{fill:url(#SVGID_38_);}
	.st82{fill:url(#SVGID_39_);}
	.st83{fill:url(#SVGID_40_);}
	.st84{fill:url(#SVGID_41_);}
	.st85{fill:url(#SVGID_42_);}
	.st86{opacity:0.5;fill:url(#SVGID_43_);}
	.st87{fill:url(#SVGID_44_);}
	.st88{fill:url(#SVGID_45_);}
	.st89{fill:url(#SVGID_46_);}
	.st90{fill:url(#SVGID_47_);}
	.st91{fill:url(#SVGID_48_);}
	.st92{fill:url(#SVGID_49_);}
	.st93{opacity:0.5;fill:url(#SVGID_50_);}
	.st94{fill:url(#SVGID_51_);}
	.st95{fill:url(#SVGID_52_);}
	.st96{fill:url(#SVGID_53_);}
	.st97{fill:url(#SVGID_54_);}
	.st98{fill:#472A6A;}
	.st99{fill:#EA94AD;}
	.st100{fill:#FFFFFF;}
	.st101{fill:#FFB3C5;}
	.st102{fill:#5C407B;}
	.st103{fill:#231F20;}
	.st104{fill:#FFB27D;}
	.st105{fill:#B5453C;}
	.st106{fill:#5153A0;}
	.st107{fill:#F2A672;}
	.st108{fill:#E8945B;}
	.st109{fill:#C65447;}
</style>
<g>
	<linearGradient id="SVGID_1_" gradientUnits="userSpaceOnUse" x1="207.6412" y1="567.5201" x2="207.6412" y2="847.7498">
		<stop  offset="0.0391" style="stop-color:#361999"/>
		<stop  offset="0.0638" style="stop-color:#361999;stop-opacity:0.9735"/>
		<stop  offset="0.9693" style="stop-color:#361999;stop-opacity:0"/>
	</linearGradient>
	<path class="st0" d="M375.41,795.97V551.15H39.89V794.5c-2.63,29.73,13.66,60.08,49.19,82.87c65.9,42.27,172.4,42.48,237.89,0.48
		C361.95,855.41,377.96,825.45,375.41,795.97z"/>
	<linearGradient id="SVGID_2_" gradientUnits="userSpaceOnUse" x1="980.5641" y1="1050.6281" x2="980.5641" y2="1330.8577">
		<stop  offset="0.067" style="stop-color:#361999"/>
		<stop  offset="0.091" style="stop-color:#361999;stop-opacity:0.9735"/>
		<stop  offset="0.9693" style="stop-color:#361999;stop-opacity:0"/>
	</linearGradient>
	<path class="st1" d="M1148.33,1272.76v-244.83H812.81v243.36c-2.63,29.73,13.66,60.08,49.19,82.87
		c65.9,42.27,172.4,42.48,237.89,0.48C1134.88,1332.19,1150.88,1302.24,1148.33,1272.76z"/>
	<g>
		<g>
			<g>
				<linearGradient id="SVGID_3_" gradientUnits="userSpaceOnUse" x1="499.7411" y1="553.0151" x2="727.7193" y2="917.3328">
					<stop  offset="0" style="stop-color:#B6B5C4"/>
					<stop  offset="0.2727" style="stop-color:#EEEBF2"/>
					<stop  offset="0.5808" style="stop-color:#D4D1D8"/>
					<stop  offset="0.7708" style="stop-color:#A5A6B9"/>
					<stop  offset="0.803" style="stop-color:#9D9EB3"/>
				</linearGradient>
				<path class="st2" d="M748.04,830.69c0-99.54-63.3-220.84-141.39-270.93c-37.65-24.15-71.86-27.33-97.2-12.99l-33.77,19.46
					l10.18,19.42c-4.74,14.97-7.31,32.6-7.31,52.64c0,99.54,63.3,220.84,141.39,270.93c16.04,10.29,31.45,16.76,45.82,19.71
					l10.38,19.8l26.44-14.79C730.53,918.93,748.04,883.03,748.04,830.69z"/>
				<linearGradient id="SVGID_4_" gradientUnits="userSpaceOnUse" x1="476.6876" y1="926.3183" x2="652.9818" y2="624.9785">
					<stop  offset="0.0354" style="stop-color:#9D9EB3"/>
					<stop  offset="0.5808" style="stop-color:#D4D1D8"/>
					<stop  offset="1" style="stop-color:#EEEBF2"/>
				</linearGradient>
				<path class="st3" d="M716.58,848.64c0,99.54-63.3,139.64-141.39,89.55C497.1,888.11,433.8,766.81,433.8,667.27
					c0-99.54,63.3-139.64,141.39-89.55C653.27,627.8,716.58,749.1,716.58,848.64z"/>
				
					<radialGradient id="SVGID_5_" cx="241.5485" cy="1077.7502" r="73.5514" gradientTransform="matrix(3.7919 0 0 4.2125 -358.851 -3694.9827)" gradientUnits="userSpaceOnUse">
					<stop  offset="0" style="stop-color:#717694"/>
					<stop  offset="1" style="stop-color:#FFFFFF"/>
				</radialGradient>
				<path class="st4" d="M716.58,848.64c0,99.54-63.3,139.64-141.39,89.55C497.1,888.11,433.8,766.81,433.8,667.27
					c0-99.54,63.3-139.64,141.39-89.55C653.27,627.8,716.58,749.1,716.58,848.64z"/>
				
					<radialGradient id="SVGID_6_" cx="261.4182" cy="1031.1866" r="39.2432" gradientTransform="matrix(3.7919 0 0 4.2125 -358.851 -3694.9827)" gradientUnits="userSpaceOnUse">
					<stop  offset="0" style="stop-color:#FFFFFF"/>
					<stop  offset="0.0656" style="stop-color:#D8D8D8"/>
					<stop  offset="0.1615" style="stop-color:#A6A6A6"/>
					<stop  offset="0.2622" style="stop-color:#797979"/>
					<stop  offset="0.3658" style="stop-color:#545454"/>
					<stop  offset="0.4731" style="stop-color:#353535"/>
					<stop  offset="0.5852" style="stop-color:#1E1E1E"/>
					<stop  offset="0.7042" style="stop-color:#0D0D0D"/>
					<stop  offset="0.835" style="stop-color:#030303"/>
					<stop  offset="1" style="stop-color:#000000"/>
				</radialGradient>
				<path class="st5" d="M579.8,577.03c-28.28-18.14-54.62-24.44-76.72-20.38c21.11-2.45,45.77,4.17,72.11,21.07
					c78.09,50.08,141.39,171.38,141.39,270.93c0,63.49-28.18,100.19-67.09,107.33c41.48-4.81,71.7-42.05,71.7-108.02
					C721.18,748.41,657.88,627.11,579.8,577.03z"/>
			</g>
			<g class="st6">
				<path class="st7" d="M635.43,1320.71c9.06,0,17.27-2.2,23.77-6.36l157.45-101.21c8.67-5.56,13.64-14.36,13.63-24.13
					c0-10.72-5.98-20.7-16.42-27.39l-253.42-159.39c-8.19-5.26-18.44-8.15-28.86-8.15c-9.06,0-17.27,2.2-23.77,6.36l-157.45,101.21
					c-8.67,5.56-13.63,14.35-13.63,24.13c0,10.72,5.98,20.7,16.42,27.39l253.42,159.39
					C614.77,1317.81,625.02,1320.71,635.43,1320.71z"/>
				<path class="st8" d="M353.32,1103.73c-8.16,5.23-12.8,13.48-12.78,22.62c0.03,10,5.65,19.35,15.47,25.65l251.5,158.11
					c7.9,5.07,17.82,7.81,27.81,7.74c4.33-0.03,8.44-0.63,12.24-1.68c3.66-1,7.58-2.78,10.56-4.69L809.78,1214
					c8.16-5.23,12.8-13.48,12.78-22.62c-0.03-10-5.65-19.35-15.47-25.65l-248.21-156.05c-7.45-4.78-18.58-8.54-28.05-8.54
					c-8.23,0-17.19,1.07-23.09,4.86c-0.66-0.42-27.18,15.94-27.76,16.31L353.32,1103.73z"/>
				<path class="st9" d="M356.28,1105.81c-7.65,4.91-11.97,12.6-11.92,21.11c0.05,9.29,5.31,18,14.52,23.91l249.58,156.83
					c7.6,4.88,17.2,7.47,26.77,7.33c4.16-0.07,8.1-0.72,11.73-1.76c3.29-0.93,7.42-2.88,10.1-4.6l145.84-93.75
					c7.65-4.91,11.97-12.6,11.92-21.11c-0.05-9.29-5.31-18-14.52-23.91l-242.99-152.71c-6.7-4.3-18.71-8.93-27.23-8.93
					c-7.41,0-17.1-0.06-22.41,3.35c-1.32-0.85-26.29,13.83-27.43,14.56L356.28,1105.81z"/>
				<path class="st10" d="M359.24,1107.89c-7.15,4.59-11.14,11.72-11.06,19.6c0.08,8.58,4.98,16.65,13.57,22.16L609.4,1305.2
					c7.31,4.69,16.58,7.13,25.72,6.91c4-0.1,7.76-0.82,11.23-1.84c2.91-0.86,7.26-2.99,9.64-4.52l140.04-90.02
					c7.15-4.59,11.14-11.73,11.06-19.6c-0.08-8.58-4.98-16.65-13.57-22.16L555.76,1024.6c-5.96-3.82-18.85-9.33-26.42-9.33
					c-6.59,0-17.01-1.18-21.73,1.85c-1.98-1.27-25.4,11.72-27.11,12.82L359.24,1107.89z"/>
				<path class="st11" d="M362.2,1109.96c-6.64,4.26-10.31,10.85-10.21,18.09c0.1,7.87,4.64,15.3,12.62,20.42l245.73,154.27
					c7.01,4.5,15.96,6.79,24.68,6.5c3.83-0.14,7.42-0.91,10.72-1.92c2.54-0.78,7.1-3.1,9.19-4.43l134.24-86.29
					c6.64-4.26,10.31-10.85,10.21-18.09c-0.1-7.87-4.64-15.3-12.62-20.42l-232.55-146.03c-5.21-3.34-18.98-9.72-25.61-9.72
					c-5.76,0-16.92-2.31-21.06,0.34c-2.64-1.69-24.5,9.61-26.79,11.08L362.2,1109.96z"/>
				<path class="st12" d="M365.16,1112.04c-6.14,3.94-9.47,9.97-9.35,16.58c0.13,7.15,4.31,13.95,11.67,18.68l243.8,153
					c6.72,4.31,15.34,6.45,23.63,6.09c3.67-0.17,7.08-1,10.21-2c2.17-0.69,6.94-3.21,8.73-4.35l128.43-82.56
					c6.14-3.94,9.47-9.97,9.35-16.58c-0.13-7.16-4.31-13.95-11.67-18.67l-227.33-142.69c-4.47-2.87-19.11-10.11-24.79-10.11
					c-4.94,0-16.84-3.44-20.38-1.17c-3.3-2.12-23.61,7.5-26.46,9.33L365.16,1112.04z"/>
				<path class="st13" d="M368.12,1114.12c-5.63,3.61-8.64,9.09-8.49,15.07c0.15,6.44,3.97,12.6,10.72,16.93l241.88,151.72
					c6.42,4.12,14.72,6.11,22.59,5.68c3.51-0.21,6.74-1.09,9.7-2.08c1.8-0.6,6.78-3.31,8.27-4.27l122.63-78.83
					c5.63-3.61,8.64-9.09,8.49-15.07c-0.15-6.44-3.97-12.6-10.72-16.93l-222.12-139.35c-3.72-2.39-19.25-10.5-23.98-10.5
					c-4.12,0-16.75-4.57-19.7-2.67c-3.96-2.54-22.71,5.39-26.14,7.59L368.12,1114.12z"/>
				<path class="st14" d="M371.08,1116.2c-5.12,3.29-7.81,8.22-7.64,13.56c0.18,5.73,3.64,11.25,9.77,15.19l239.95,150.44
					c6.13,3.93,14.1,5.78,21.54,5.26c3.34-0.24,6.39-1.18,9.2-2.16c1.43-0.5,6.62-3.42,7.81-4.18l116.82-75.1
					c5.12-3.29,7.81-8.22,7.64-13.56c-0.18-5.73-3.64-11.25-9.77-15.19l-216.9-136.01c-2.98-1.91-19.38-10.89-23.17-10.89
					c-3.29,0-16.66-5.7-19.02-4.18c-4.62-2.96-21.82,3.28-25.82,5.84L371.08,1116.2z"/>
				<path class="st15" d="M374.04,1118.28c-4.62,2.96-6.98,7.34-6.78,12.05c0.2,5.02,3.3,9.9,8.82,13.44l238.03,149.16
					c5.83,3.74,13.48,5.44,20.5,4.85c3.18-0.27,6.05-1.27,8.69-2.24c1.07-0.39,6.46-3.53,7.36-4.1l111.02-71.37
					c4.62-2.96,6.98-7.34,6.78-12.05c-0.2-5.02-3.3-9.9-8.82-13.44l-211.68-132.68c-2.23-1.43-19.51-11.29-22.36-11.29
					c-2.47,0-16.57-6.82-18.34-5.69c-5.28-3.39-20.92,1.17-25.49,4.1L374.04,1118.28z"/>
				<path class="st16" d="M377,1120.36c-4.11,2.64-6.15,6.46-5.92,10.54c0.23,4.31,2.96,8.55,7.87,11.7l236.1,147.88
					c5.54,3.55,12.86,5.1,19.45,4.44c3.01-0.31,5.7-1.35,8.18-2.32c0.71-0.28,6.3-3.63,6.9-4.02l105.22-67.64
					c4.11-2.64,6.15-6.46,5.92-10.54c-0.23-4.31-2.96-8.55-7.87-11.7l-206.46-129.34c-1.49-0.96-19.65-11.68-21.54-11.68
					c-1.65,0-16.49-7.95-17.67-7.19c-5.94-3.81-20.03-0.94-25.17,2.36L377,1120.36z"/>
				<path class="st17" d="M379.96,1122.44c-3.61,2.31-5.31,5.59-5.07,9.03c0.25,3.59,2.63,7.2,6.92,9.96l234.18,146.61
					c5.24,3.36,12.24,4.76,18.4,4.03c2.85-0.34,5.34-1.44,7.67-2.4c0.35-0.15,6.14-3.74,6.44-3.93l99.41-63.91
					c3.61-2.31,5.31-5.59,5.07-9.03c-0.25-3.59-2.63-7.2-6.92-9.96l-201.24-126c-0.74-0.48-19.78-12.07-20.73-12.07
					c-0.82,0-16.4-9.08-16.99-8.7c-6.6-4.23-19.13-3.05-24.85,0.61L379.96,1122.44z"/>
				<path d="M641.46,1286.7l99.59-64.02c6.29-4.03,5.5-11.08-1.76-15.73l-232.25-145.33c-7.26-4.66-18.24-5.16-24.53-1.13
					l-99.59,64.02c-6.29,4.03-5.5,11.07,1.76,15.73l232.25,145.33C624.19,1290.23,635.17,1290.74,641.46,1286.7z"/>
			</g>
			<g>
				<g>
					<linearGradient id="SVGID_7_" gradientUnits="userSpaceOnUse" x1="689.5386" y1="1236.4785" x2="919.7563" y2="1333.787">
						<stop  offset="0.0354" style="stop-color:#9D9EB3"/>
						<stop  offset="0.5808" style="stop-color:#D4D1D8"/>
						<stop  offset="1" style="stop-color:#EEEBF2"/>
					</linearGradient>
					<polygon class="st18" points="626.15,1265.99 626.15,1306.2 772.14,1215.94 772.14,1174.88 					"/>
					<linearGradient id="SVGID_8_" gradientUnits="userSpaceOnUse" x1="274.2998" y1="1253.619" x2="993.1301" y2="1092.4802">
						<stop  offset="0.0354" style="stop-color:#9D9EB3"/>
						<stop  offset="0.5808" style="stop-color:#D4D1D8"/>
						<stop  offset="1" style="stop-color:#EEEBF2"/>
					</linearGradient>
					<polygon class="st19" points="626.26,1265.99 626.26,1306.2 367.99,1142.2 367.99,1101.14 					"/>
					<linearGradient id="SVGID_9_" gradientUnits="userSpaceOnUse" x1="711.082" y1="869.2625" x2="521.8952" y2="1229.8136">
						<stop  offset="0.0354" style="stop-color:#9D9EB3"/>
						<stop  offset="0.5808" style="stop-color:#D4D1D8"/>
						<stop  offset="1" style="stop-color:#EEEBF2"/>
					</linearGradient>
					<polygon class="st20" points="367.99,1101.14 626.26,1265.99 772.14,1174.88 513.69,1010.32 					"/>
					
						<radialGradient id="SVGID_10_" cx="244.9772" cy="1158.1105" r="40.143" gradientTransform="matrix(3.7919 0 0 4.2125 -358.851 -3694.9827)" gradientUnits="userSpaceOnUse">
						<stop  offset="0" style="stop-color:#FFFFFF"/>
						<stop  offset="1" style="stop-color:#000000"/>
					</radialGradient>
					<polygon class="st21" points="367.99,1101.14 626.26,1265.99 772.14,1174.88 627.93,1262.19 					"/>
				</g>
				<g class="st6">
					<path class="st7" d="M577.61,1214.34l-118.5-78.98c-1.64-1.05,24.47-23.89,51.48-46.46c27.01-22.57,54.93-44.88,56.9-44.88
						c1.71,0,41.05,24.34,79.96,49.14s77.39,50.06,77.39,51.91c0,2.03-36.19,19.74-72.69,36.75
						C615.64,1198.83,578.83,1215.13,577.61,1214.34z"/>
					<path class="st22" d="M509.49,1090.07c4.8-4.01,9.85-8.13,14.55-12c10.63-8.71,20.71-16.6,28.18-22.33
						c7.35-5.64,12.39-9.12,13.17-9.12c1.66,0,40.72,24.22,78.37,48.22c8.93,5.69,18.18,11.64,26.58,17.08
						c26.99,17.48,49.3,32.46,49.3,33.83c0,1.96-34.21,19.58-69.49,36.14c-17.89,8.4-36.74,16.93-50.39,22.84
						c-13.09,5.67-22.29,9.11-22.88,8.73l-67.59-45.06l-49.01-32.67c-1.25-0.8,13.7-14.95,32.94-31.69
						C498.36,1099.58,503.82,1094.77,509.49,1090.07z"/>
					<path class="st23" d="M508.39,1091.23c4.65-3.87,9.74-7.98,14.29-11.72c10.41-8.51,20.4-16.09,27.7-21.6
						c7.14-5.4,12.16-8.7,12.91-8.7c1.6,0,40.38,24.11,76.78,47.31c8.63,5.5,17.93,11.49,26.04,16.75
						c26.09,16.89,48.32,31.83,48.32,33.15c0,1.9-32.23,19.43-66.28,35.54c-17.2,8.14-36.24,16.73-49.53,22.42
						c-12.68,5.43-21.9,8.57-22.46,8.21l-66.49-44.33l-48.21-32.14c-1.21-0.78,12.75-14.71,31.18-31.08
						C497.52,1100.7,502.79,1095.88,508.39,1091.23z"/>
					<path class="st24" d="M507.29,1092.39c4.5-3.73,9.63-7.84,14.03-11.44c10.18-8.33,20.09-15.58,27.22-20.88
						c6.93-5.16,11.92-8.27,12.65-8.27c1.55,0,40.05,24,75.19,46.4c8.34,5.31,17.67,11.34,25.5,16.42
						c25.19,16.31,47.34,31.2,47.34,32.47c0,1.83-30.26,19.27-63.08,34.94c-16.51,7.88-35.74,16.53-48.67,22.01
						c-12.26,5.19-21.51,8.03-22.05,7.68l-65.39-43.6l-47.41-31.61c-1.17-0.75,11.8-14.46,29.42-30.47
						C496.69,1101.81,501.75,1096.98,507.29,1092.39z"/>
					<path class="st25" d="M506.19,1093.55c4.34-3.59,9.52-7.7,13.76-11.16c9.95-8.13,19.78-15.07,26.74-20.16
						c6.73-4.92,11.69-7.85,12.39-7.85c1.49,0,39.71,23.89,73.6,45.49c8.04,5.12,17.41,11.19,24.97,16.08
						c24.29,15.73,46.36,30.57,46.36,31.8c0,1.77-28.28,19.11-59.87,34.34c-15.83,7.63-35.24,16.33-47.81,21.59
						c-11.85,4.95-21.11,7.49-21.64,7.16l-64.29-42.87l-46.61-31.08c-1.13-0.72,10.86-14.22,27.65-29.86
						C495.86,1102.92,500.71,1098.08,506.19,1093.55z"/>
					<path class="st26" d="M505.09,1094.72c4.19-3.45,9.41-7.55,13.5-10.88c9.73-7.94,19.47-14.55,26.26-19.43
						c6.52-4.68,11.46-7.42,12.13-7.42c1.44,0,39.38,23.77,72.01,44.57c7.74,4.93,17.16,11.04,24.43,15.75
						c23.39,15.15,45.38,29.94,45.38,31.12c0,1.7-26.3,18.95-56.67,33.74c-15.14,7.37-34.74,16.13-46.95,21.17
						c-11.43,4.72-20.72,6.96-21.23,6.63l-63.18-42.14l-45.82-30.56c-1.08-0.7,9.92-13.98,25.89-29.24
						C495.03,1104.03,499.66,1099.18,505.09,1094.72z"/>
					<path class="st27" d="M503.99,1095.88c4.03-3.31,9.31-7.4,13.24-10.6c9.51-7.74,19.16-14.04,25.79-18.71
						c6.31-4.44,11.22-7,11.87-7c1.38,0,39.05,23.66,70.42,43.66c7.44,4.74,16.9,10.89,23.9,15.42
						c22.49,14.56,44.41,29.31,44.41,30.45c0,1.64-24.33,18.79-53.46,33.14c-14.45,7.11-34.23,15.93-46.09,20.75
						c-11.02,4.48-20.33,6.42-20.81,6.11l-62.08-41.41l-45.02-30.03c-1.04-0.67,8.98-13.73,24.13-28.63
						C494.2,1105.14,498.62,1100.29,503.99,1095.88z"/>
					<path class="st28" d="M502.89,1097.04c3.87-3.17,9.2-7.25,12.98-10.32c9.28-7.55,18.84-13.53,25.31-17.99
						c6.1-4.21,10.99-6.57,11.61-6.57c1.33,0,38.71,23.55,68.84,42.75c7.15,4.55,16.65,10.74,23.36,15.09
						c21.59,13.98,43.43,28.68,43.43,29.77c0,1.57-22.36,18.63-50.26,32.53c-13.77,6.86-33.73,15.73-45.23,20.33
						c-10.6,4.24-19.93,5.88-20.4,5.58l-60.98-40.68l-44.22-29.5c-1-0.64,8.05-13.49,22.37-28.02
						C493.38,1106.24,497.58,1101.39,502.89,1097.04z"/>
					<path class="st29" d="M501.79,1098.21c3.72-3.03,9.09-7.11,12.71-10.04c9.06-7.35,18.52-13.01,24.83-17.27
						c5.88-3.97,10.76-6.14,11.35-6.14c1.27,0,38.38,23.44,67.25,41.84c6.85,4.37,16.39,10.59,22.83,14.76
						c20.69,13.4,42.45,28.05,42.45,29.09c0,1.5-20.38,18.47-47.06,31.93c-13.08,6.6-33.23,15.52-44.37,19.91
						c-10.18,4.01-19.54,5.34-19.99,5.05l-59.88-39.95l-43.43-28.97c-0.96-0.62,7.13-13.25,20.6-27.41
						C492.56,1107.35,496.54,1102.49,501.79,1098.21z"/>
					<path class="st30" d="M500.69,1099.37c3.56-2.9,8.98-6.96,12.45-9.77c8.84-7.16,18.2-12.49,24.35-16.54
						c5.67-3.74,10.52-5.72,11.09-5.72c1.22,0,38.05,23.32,65.66,40.92c6.55,4.18,16.14,10.44,22.29,14.43
						c19.79,12.82,41.47,27.42,41.47,28.42c0,1.44-18.41,18.31-43.85,31.33c-12.4,6.35-32.72,15.32-43.52,19.49
						c-9.76,3.77-19.15,4.8-19.57,4.53l-58.78-39.22l-42.63-28.45c-0.92-0.59,6.21-13.01,18.84-26.8
						C491.74,1108.44,495.5,1103.59,500.69,1099.37z"/>
					<path class="st31" d="M499.59,1100.53c3.4-2.76,8.87-6.81,12.19-9.49c8.61-6.96,17.88-11.97,23.87-15.82
						c5.45-3.5,10.29-5.29,10.83-5.29c1.16,0,37.71,23.21,64.07,40.01c6.25,3.99,15.88,10.29,21.76,14.1
						c18.89,12.23,40.49,26.79,40.49,27.74c0,1.37-16.45,18.14-40.65,30.73c-11.72,6.09-32.21,15.12-42.66,19.07
						c-9.34,3.54-18.75,4.26-19.16,4l-57.68-38.49l-41.83-27.92c-0.88-0.56,5.3-12.78,17.08-26.19
						C490.93,1109.54,494.45,1104.69,499.59,1100.53z"/>
					<path class="st32" d="M498.49,1101.69c3.25-2.62,8.77-6.66,11.93-9.21c8.39-6.76,17.55-11.45,23.4-15.1
						c5.24-3.27,10.05-4.87,10.57-4.87c1.11,0,37.38,23.1,62.48,39.1c5.96,3.8,15.62,10.14,21.22,13.76
						c17.99,11.65,39.51,26.15,39.51,27.07c0,1.31-14.48,17.98-37.44,30.13c-11.04,5.84-31.7,14.91-41.8,18.65
						c-8.92,3.3-18.36,3.73-18.75,3.48l-56.57-37.76l-41.03-27.39c-0.83-0.54,4.39-12.56,15.32-25.58
						C490.12,1110.63,493.41,1105.79,498.49,1101.69z"/>
					<path class="st33" d="M497.39,1102.86c3.09-2.49,8.66-6.51,11.66-8.93c8.17-6.57,17.23-10.93,22.92-14.37
						c5.02-3.04,9.82-4.44,10.31-4.44c1.05,0,37.04,22.99,60.89,38.19c5.66,3.61,15.37,9.99,20.69,13.43
						c17.09,11.07,38.53,25.52,38.53,26.39c0,1.24-12.52,17.81-34.24,29.53c-10.36,5.59-31.19,14.71-40.94,18.23
						c-8.5,3.07-17.96,3.19-18.33,2.95l-55.47-37.03l-40.24-26.86c-0.79-0.51,1.27-14.49,13.55-24.97
						C488.65,1111.27,492.37,1106.89,497.39,1102.86z"/>
					<path class="st34" d="M496.28,1104.02c2.93-2.35,8.55-6.36,11.4-8.65c7.94-6.37,16.9-10.4,22.44-13.65
						c4.79-2.81,9.59-4.01,10.05-4.01c1,0,36.71,22.87,59.3,37.27c5.36,3.42,15.11,9.84,20.15,13.1
						c16.19,10.49,37.56,24.89,37.56,25.71c0,1.18-10.56,17.64-31.03,28.92c-9.68,5.34-30.68,14.5-40.08,17.82
						c-8.08,2.84-17.57,2.65-17.92,2.43l-54.37-36.3l-39.44-26.33c-0.75-0.48,0.15-14.43,11.79-24.36
						C487.77,1112.34,491.33,1107.99,496.28,1104.02z"/>
					<path class="st35" d="M495.18,1105.18c2.77-2.21,8.45-6.22,11.14-8.37c7.72-6.18,16.56-9.87,21.96-12.93
						c4.57-2.58,9.35-3.59,9.79-3.59c0.94,0,36.38,22.76,57.71,36.36c5.06,3.23,14.86,9.69,19.61,12.77
						c15.29,9.9,36.58,24.26,36.58,25.04c0,1.11-8.6,17.47-27.83,28.32c-9.01,5.09-30.17,14.3-39.22,17.4
						c-7.65,2.62-17.18,2.11-17.51,1.9l-53.27-35.57l-38.64-25.81c-0.71-0.45-0.96-14.37,10.03-23.75
						C486.89,1113.41,490.29,1109.1,495.18,1105.18z"/>
					<path class="st36" d="M494.08,1106.35c2.61-2.08,8.34-6.07,10.87-8.09c7.49-5.98,16.22-9.34,21.48-12.2
						c4.34-2.36,9.12-3.16,9.53-3.16c0.88,0,36.04,22.65,56.12,35.45c4.76,3.04,14.6,9.54,19.08,12.44
						c14.39,9.32,35.6,23.63,35.6,24.36c0,1.05-6.65,17.29-24.62,27.72c-8.34,4.84-29.65,14.09-38.36,16.98
						c-7.22,2.39-16.78,1.57-17.1,1.37l-52.17-34.84l-37.85-25.28c-0.67-0.43-2.08-14.31,8.27-23.14
						C486.01,1114.47,489.24,1110.2,494.08,1106.35z"/>
					<path class="st37" d="M492.98,1107.51c2.45-1.94,8.23-5.92,10.61-7.81c7.27-5.79,15.48-9.78,21-11.48
						c3.65-2.84,8.88-2.74,9.27-2.74c0.83,0,35.71,22.54,54.53,34.54c4.47,2.85,14.35,9.39,18.54,12.11
						c13.49,8.74,34.62,23,34.62,23.68c0,0.98-4.7,17.11-21.42,27.12c-7.68,4.59-29.13,13.88-37.5,16.56
						c-6.8,2.17-16.39,1.04-16.68,0.85l-51.07-34.11l-37.05-24.75c-0.63-0.4-3.19-14.25,6.5-22.53
						C485.13,1115.54,488.2,1111.3,492.98,1107.51z"/>
					<path class="st38" d="M491.88,1108.67c2.29-1.81,8.12-5.77,10.35-7.53c7.05-5.59,15.13-9.32,20.53-10.76
						c3.41-2.65,8.65-2.31,9.01-2.31c0.77,0,35.37,22.42,52.95,33.62c4.17,2.66,14.09,9.24,18.01,11.78
						c12.6,8.16,33.64,22.37,33.64,23.01c0,0.92-2.76,16.93-18.22,26.52c-7.01,4.35-28.61,13.68-36.65,16.14
						c-6.37,1.95-16,0.5-16.27,0.32l-49.96-33.38l-36.25-24.22c-0.58-0.37-4.31-14.2,4.74-21.92
						C484.25,1116.61,487.16,1112.4,491.88,1108.67z"/>
					<path class="st39" d="M490.78,1109.83c2.13-1.68,8.02-5.62,10.09-7.25c6.82-5.4,14.79-8.86,20.05-10.04
						c3.17-2.46,8.42-1.88,8.75-1.88c0.72,0,35.04,22.31,51.36,32.71c3.87,2.47,13.84,9.09,17.47,11.45
						c11.7,7.57,32.66,21.74,32.66,22.33c0,0.85-0.83,16.74-15.01,25.92c-6.36,4.11-28.08,13.47-35.79,15.72
						c-5.93,1.74-15.6-0.04-15.86-0.2l-48.86-32.66l-35.46-23.7c-0.54-0.35-5.43-14.14,2.98-21.31
						C483.37,1117.68,486.12,1113.5,490.78,1109.83z"/>
					<path class="st40" d="M489.68,1111c1.97-1.54,7.91-5.47,9.82-6.97c6.6-5.2,14.44-8.41,19.57-9.31
						c2.92-2.27,8.18-1.46,8.49-1.46c0.66,0,34.71,22.2,49.77,31.8c3.57,2.28,13.58,8.94,16.94,11.11
						c10.8,6.99,31.69,21.11,31.69,21.66c0,0.79,1.09,16.56-11.81,25.31c-5.71,3.88-27.55,13.26-34.93,15.3
						c-5.5,1.53-15.21-0.58-15.44-0.73l-47.76-31.93l-34.66-23.17c-0.5-0.32-6.54-14.08,1.22-20.7
						C482.49,1118.74,485.07,1114.6,489.68,1111z"/>
					<path class="st41" d="M488.58,1112.16c1.81-1.41,7.81-5.32,9.56-6.69c6.38-5,14.09-7.95,19.09-8.59
						c2.68-2.08,7.95-1.03,8.23-1.03c0.61,0,34.37,22.08,48.18,30.88c3.28,2.09,13.32,8.79,16.4,10.78
						c9.9,6.41,30.71,20.48,30.71,20.98c0,0.72,4.35,18.68-8.6,24.71c-4.31,4.54-27.01,13.04-34.07,14.88
						c-5.06,1.32-14.82-1.12-15.03-1.25l-46.66-31.2l-33.86-22.64c-0.46-0.29-7.66-14.02-0.54-20.09
						C481.61,1119.81,484.03,1115.71,488.58,1112.16z"/>
					<path class="st42" d="M487.48,1113.32c1.65-1.28,7.7-5.17,9.3-6.42c6.16-4.81,13.75-7.49,18.61-7.87
						c2.44-1.9,7.72-0.61,7.97-0.61c0.55,0,34.04,21.97,46.59,29.97c2.98,1.9,13.07,8.64,15.87,10.45c9,5.83,29.73,19.85,29.73,20.3
						c0,0.65,6.38,18.62-5.4,24.11c-3.59,4.33-26.47,12.83-33.21,14.46c-4.62,1.12-14.42-1.65-14.62-1.78l-45.56-30.47l-33.06-22.11
						c-0.42-0.27-8.77-13.96-2.31-19.48C480.73,1120.88,482.99,1116.81,487.48,1113.32z"/>
					<path class="st43" d="M486.38,1114.49c1.49-1.15,7.6-5.02,9.04-6.14c5.93-4.61,13.4-7.03,18.13-7.14
						c2.19-1.71,7.48-0.18,7.71-0.18c0.5,0,33.71,21.86,45,29.06c2.68,1.71,12.81,8.49,15.33,10.12
						c8.1,5.24,28.75,19.22,28.75,19.63c0,0.59,8.4,18.57-2.19,23.51c-2.88,4.13-25.77,13.88-32.35,14.04
						c-3.92,1.72-14.03-2.19-14.2-2.3l-44.45-29.74l-32.27-21.58c-0.38-0.24-9.89-13.9-4.07-18.87
						C479.85,1121.94,481.95,1117.91,486.38,1114.49z"/>
					<path class="st44" d="M485.28,1115.65c1.32-1.02,7.49-4.86,8.77-5.86c5.71-4.42,13.06-6.57,17.66-6.42
						c1.95-1.52,7.25,0.24,7.45,0.24c0.44,0,33.37,21.75,43.41,28.15c2.38,1.52,12.56,8.34,14.8,9.79
						c7.2,4.66,27.77,18.59,27.77,18.95c0,0.52,10.43,18.52,1.01,22.91c-2.16,3.92-25.25,13.73-31.49,13.63
						c-3.49,1.53-13.64-2.73-13.79-2.83l-43.35-29.01l-31.47-21.06c-0.33-0.21-11.01-13.84-5.83-18.26
						C478.97,1123.01,480.9,1119.01,485.28,1115.65z"/>
					<path class="st45" d="M484.18,1116.81c1.16-0.89,7.39-4.71,8.51-5.58c5.49-4.22,12.71-6.12,17.18-5.7
						c1.71-1.33,7.01,0.67,7.19,0.67c0.39,0,33.04,21.63,41.82,27.23c2.08,1.33,12.3,8.19,14.26,9.46
						c6.3,4.08,26.79,17.96,26.79,18.27c0,0.46,12.46,18.47,4.22,22.31c-1.45,3.71-24.73,13.58-30.63,13.21
						c-3.05,1.34-13.24-3.27-13.38-3.36l-42.25-28.28l-30.67-20.53c-0.29-0.19-12.12-13.78-7.59-17.64
						C478.1,1124.08,479.86,1120.11,484.18,1116.81z"/>
					<path class="st46" d="M483.08,1117.97c1-0.76,7.28-4.56,8.25-5.3c5.26-4.03,12.36-5.66,16.7-4.97c1.46-1.14,6.78,1.1,6.94,1.1
						c0.33,0,32.7,21.52,40.23,26.32c1.79,1.14,12.05,8.04,13.72,9.13c5.4,3.5,25.81,17.33,25.81,17.6c0,0.39,14.48,18.41,7.42,21.7
						c-0.74,3.51-24.21,13.43-29.78,12.79c-2.61,1.14-12.85-3.81-12.97-3.88l-41.15-27.55l-29.88-20
						c-0.25-0.16-13.24-13.72-9.36-17.03C477.22,1125.15,478.82,1121.21,483.08,1117.97z"/>
					<path class="st47" d="M481.98,1119.14c0.83-0.63,7.18-4.41,7.99-5.02c5.04-3.83,12.02-5.2,16.22-4.25
						c1.22-0.95,6.55,1.52,6.68,1.52c0.28,0,32.37,21.41,38.65,25.41c1.49,0.95,11.79,7.89,13.19,8.79
						c4.5,2.91,24.84,16.69,24.84,16.92c0,0.33,16.51,18.36,10.62,21.1c-0.02,3.3-23.69,13.29-28.92,12.37
						c-2.18,0.95-12.46-4.35-12.55-4.41l-40.05-26.82l-29.08-19.47c-0.21-0.13-14.35-13.67-11.12-16.42
						C476.34,1126.21,477.77,1122.32,481.98,1119.14z"/>
					<path class="st48" d="M480.88,1120.3c0.67-0.5,7.08-4.25,7.72-4.74c4.82-3.64,11.67-4.74,15.74-3.53
						c0.97-0.76,6.31,1.95,6.42,1.95c0.22,0,32.04,21.3,37.06,24.5c1.19,0.76,11.53,7.74,12.65,8.46
						c3.6,2.33,23.86,16.06,23.86,16.25c0,0.26,18.54,18.31,13.83,20.5c0.69,3.1-23.16,13.14-28.06,11.95
						c-1.74,0.76-12.06-4.88-12.14-4.93l-38.95-26.09l-28.28-18.95c-0.17-0.11-15.47-13.61-12.88-15.81
						C475.46,1127.28,476.73,1123.42,480.88,1120.3z"/>
					<path class="st49" d="M479.78,1121.46c0.5-0.37,6.97-4.1,7.46-4.46c4.6-3.44,11.32-4.28,15.26-2.81
						c0.73-0.57,6.08,2.37,6.16,2.37c0.17,0,31.7,21.18,35.47,23.58c0.89,0.57,11.28,7.59,12.12,8.13
						c2.7,1.75,22.88,15.43,22.88,15.57c0,0.2,20.57,18.25,17.03,19.9c1.4,2.89-22.64,12.99-27.2,11.53
						c-1.31,0.57-11.67-5.42-11.73-5.46l-37.84-25.36l-27.49-18.42c-0.13-0.08-16.58-13.55-14.64-15.2
						C474.58,1128.35,475.69,1124.52,479.78,1121.46z"/>
					<path class="st50" d="M478.68,1122.63c0.33-0.25,6.87-3.94,7.2-4.18c4.38-3.25,10.98-3.83,14.79-2.08
						c0.49-0.38,5.84,2.8,5.9,2.8c0.11,0,31.37,21.07,33.88,22.67c0.6,0.38,11.02,7.44,11.58,7.8c1.8,1.17,21.9,14.8,21.9,14.89
						c0,0.13,22.59,18.2,20.24,19.3c2.12,2.69-22.12,12.84-26.34,11.11c-0.87,0.38-11.27-5.96-11.31-5.98l-36.74-24.63l-26.69-17.89
						c-0.08-0.05-17.7-13.49-16.41-14.59C473.7,1129.41,474.65,1125.62,478.68,1122.63z"/>
					<path class="st51" d="M477.58,1123.79c0.17-0.12,6.77-3.78,6.94-3.9c4.15-3.06,10.63-3.37,14.31-1.36
						c0.24-0.19,5.61,3.23,5.64,3.23c0.06,0,31.03,20.96,32.29,21.76c0.3,0.19,10.77,7.29,11.05,7.47
						c0.9,0.58,20.92,14.17,20.92,14.22c0,0.07,24.62,18.15,23.44,18.7c2.83,2.48-21.6,12.69-25.48,10.69
						c-0.44,0.19-10.88-6.5-10.9-6.51l-35.64-23.9l-25.89-17.36c-0.04-0.03-18.82-13.43-18.17-13.98
						C472.82,1130.48,473.6,1126.73,477.58,1123.79z"/>
					<path d="M565.54,1194.23l-45.03-30.21l-45.03-30.21c-3.54-2.27-3.1-6.24,0.99-8.87l6.67-3.62c4.09-2.63,10.29-2.91,13.83-0.64
						l46.59,31.64l46.59,31.64C593.71,1186.23,569.08,1196.51,565.54,1194.23z"/>
				</g>
			</g>
			<g>
				<g>
					<linearGradient id="SVGID_11_" gradientUnits="userSpaceOnUse" x1="656.6184" y1="1048.6742" x2="1216.2808" y2="887.8754">
						<stop  offset="0.0354" style="stop-color:#9D9EB3"/>
						<stop  offset="0.5808" style="stop-color:#D4D1D8"/>
						<stop  offset="1" style="stop-color:#EEEBF2"/>
					</linearGradient>
					<polygon class="st52" points="583.5,961.75 583.5,1209.43 673.67,1152.56 673.67,904.03 					"/>
					
						<radialGradient id="SVGID_12_" cx="241.8796" cy="1079.9476" r="76.6881" gradientTransform="matrix(3.7919 0 0 4.2125 -358.851 -3694.9827)" gradientUnits="userSpaceOnUse">
						<stop  offset="0" style="stop-color:#717694"/>
						<stop  offset="1" style="stop-color:#FFFFFF"/>
					</radialGradient>
					<polygon class="st53" points="583.5,961.75 583.5,1209.43 673.67,1152.56 673.67,904.03 					"/>
					<linearGradient id="SVGID_13_" gradientUnits="userSpaceOnUse" x1="438.836" y1="1221.9517" x2="834.3114" y2="440.6468">
						<stop  offset="0.0354" style="stop-color:#9D9EB3"/>
						<stop  offset="0.5808" style="stop-color:#D4D1D8"/>
						<stop  offset="1" style="stop-color:#EEEBF2"/>
					</linearGradient>
					<polygon class="st54" points="583.61,961.75 583.61,1209.43 469.85,1135.71 469.85,887.18 					"/>
					<linearGradient id="SVGID_14_" gradientUnits="userSpaceOnUse" x1="657.4076" y1="732.3791" x2="542.4579" y2="951.4495">
						<stop  offset="0.0354" style="stop-color:#9D9EB3"/>
						<stop  offset="0.5808" style="stop-color:#D4D1D8"/>
						<stop  offset="1" style="stop-color:#EEEBF2"/>
					</linearGradient>
					<polygon class="st55" points="469.85,887.18 583.61,961.75 673.67,904.03 559.72,829.76 					"/>
				</g>
			</g>
			<g>
				<g>
					<linearGradient id="SVGID_15_" gradientUnits="userSpaceOnUse" x1="1093.9119" y1="1122.5824" x2="1284.2092" y2="1176.781">
						<stop  offset="0.0354" style="stop-color:#9D9EB3"/>
						<stop  offset="0.5808" style="stop-color:#D4D1D8"/>
						<stop  offset="1" style="stop-color:#EEEBF2"/>
					</linearGradient>
					<polygon class="st56" points="1087.64,1126.78 1121.67,1104.82 1121.62,1124.49 1087.59,1146.45 					"/>
				</g>
				<g>
					<linearGradient id="SVGID_16_" gradientUnits="userSpaceOnUse" x1="1020.7974" y1="749.5966" x2="839.1167" y2="1014.0149">
						<stop  offset="0.0354" style="stop-color:#9D9EB3"/>
						<stop  offset="0.5808" style="stop-color:#D4D1D8"/>
						<stop  offset="1" style="stop-color:#EEEBF2"/>
					</linearGradient>
					<polygon class="st57" points="621.93,828.08 655.96,806.11 1121.67,1104.82 1087.64,1126.78 					"/>
				</g>
				<g>
					
						<radialGradient id="SVGID_17_" cx="302.2177" cy="1102.5098" r="52.9114" gradientTransform="matrix(3.7919 0 0 4.2125 -358.851 -3694.9827)" gradientUnits="userSpaceOnUse">
						<stop  offset="0" style="stop-color:#FFFFFF"/>
						<stop  offset="1" style="stop-color:#000000"/>
					</radialGradient>
					<polygon class="st58" points="621.93,828.08 1087.72,1124.76 1121.67,1104.82 1087.64,1126.78 					"/>
				</g>
				<g>
					<linearGradient id="SVGID_18_" gradientUnits="userSpaceOnUse" x1="772.057" y1="1123.3777" x2="997.1901" y2="752.8732">
						<stop  offset="0.0354" style="stop-color:#9D9EB3"/>
						<stop  offset="0.5808" style="stop-color:#D4D1D8"/>
						<stop  offset="1" style="stop-color:#EEEBF2"/>
					</linearGradient>
					<polygon class="st59" points="1087.64,1126.78 1087.59,1146.45 996.76,1127.6 621.78,887.09 621.93,828.08 					"/>
				</g>
				<g class="st60">
					<g>
						<linearGradient id="SVGID_19_" gradientUnits="userSpaceOnUse" x1="501.6167" y1="755.7661" x2="716.6271" y2="922.7153">
							<stop  offset="0.0354" style="stop-color:#9D9EB3"/>
							<stop  offset="0.5808" style="stop-color:#D4D1D8"/>
							<stop  offset="1" style="stop-color:#EEEBF2"/>
						</linearGradient>
						<polygon class="st61" points="503.56,751.9 537.58,729.94 537.43,788.95 503.41,810.92 						"/>
					</g>
					<g>
						<linearGradient id="SVGID_20_" gradientUnits="userSpaceOnUse" x1="413.9744" y1="419.7621" x2="267.9052" y2="618.5269">
							<stop  offset="0.0354" style="stop-color:#9D9EB3"/>
							<stop  offset="0.5808" style="stop-color:#D4D1D8"/>
							<stop  offset="1" style="stop-color:#EEEBF2"/>
						</linearGradient>
						<polygon class="st62" points="37.85,453.2 71.87,431.23 537.58,729.94 503.56,751.9 						"/>
					</g>
					<g>
						
							<radialGradient id="SVGID_21_" cx="170.515" cy="1020.1843" r="52.9113" gradientTransform="matrix(3.7919 0 0 4.2125 -358.851 -3694.9827)" gradientUnits="userSpaceOnUse">
							<stop  offset="0" style="stop-color:#FFFFFF"/>
							<stop  offset="1" style="stop-color:#000000"/>
						</radialGradient>
						<polygon class="st63" points="37.85,453.2 504.41,748.44 537.58,729.94 503.56,751.9 						"/>
					</g>
					<g>
						<linearGradient id="SVGID_22_" gradientUnits="userSpaceOnUse" x1="191.035" y1="731.2794" x2="420.4969" y2="445.2377">
							<stop  offset="0.0354" style="stop-color:#9D9EB3"/>
							<stop  offset="0.5808" style="stop-color:#D4D1D8"/>
							<stop  offset="1" style="stop-color:#EEEBF2"/>
						</linearGradient>
						<polygon class="st64" points="503.56,751.9 503.41,810.92 128.43,570.41 37.8,472.87 37.85,453.2 						"/>
					</g>
				</g>
				
					<radialGradient id="SVGID_23_" cx="258.3475" cy="1078.1169" r="19.025" gradientTransform="matrix(3.7919 0 0 4.2125 -358.851 -3694.9827)" gradientUnits="userSpaceOnUse">
					<stop  offset="0" style="stop-color:#717694"/>
					<stop  offset="1" style="stop-color:#FFFFFF"/>
				</radialGradient>
				<polygon class="st65" points="679.5,927.54 684.32,870.34 713.29,842.64 618.35,782.76 557.21,816.72 562.84,913.24 				"/>
				
					<radialGradient id="SVGID_24_" cx="255.3772" cy="1061.1434" r="29.0687" gradientTransform="matrix(3.7919 0 0 4.2125 -358.851 -3694.9827)" gradientUnits="userSpaceOnUse">
					<stop  offset="0" style="stop-color:#717694"/>
					<stop  offset="1" style="stop-color:#FFFFFF"/>
				</radialGradient>
				<polygon class="st66" points="679.5,927.54 684.32,870.34 713.29,842.64 618.35,782.76 557.21,816.72 562.84,913.24 				"/>
			</g>
			<g>
				<linearGradient id="SVGID_25_" gradientUnits="userSpaceOnUse" x1="436.2274" y1="590.9276" x2="664.2057" y2="955.2453">
					<stop  offset="0" style="stop-color:#B6B5C4"/>
					<stop  offset="0.2727" style="stop-color:#EEEBF2"/>
					<stop  offset="0.5808" style="stop-color:#D4D1D8"/>
					<stop  offset="0.7708" style="stop-color:#A5A6B9"/>
					<stop  offset="0.803" style="stop-color:#9D9EB3"/>
				</linearGradient>
				<path class="st67" d="M684.53,868.6c0-99.54-63.3-220.84-141.39-270.93c-37.65-24.15-71.86-27.33-97.2-12.99l-33.77,19.46
					l10.18,19.42c-4.74,14.97-7.31,32.6-7.31,52.64c0,99.54,63.3,220.84,141.39,270.93c16.04,10.29,31.45,16.76,45.82,19.71
					l10.38,19.8l26.44-14.79C667.02,956.84,684.53,920.95,684.53,868.6z"/>
				<linearGradient id="SVGID_26_" gradientUnits="userSpaceOnUse" x1="367.8689" y1="1041.6709" x2="616.2122" y2="617.1773">
					<stop  offset="0.0354" style="stop-color:#9D9EB3"/>
					<stop  offset="0.5808" style="stop-color:#D4D1D8"/>
					<stop  offset="1" style="stop-color:#EEEBF2"/>
				</linearGradient>
				<path class="st68" d="M653.06,886.55c0,99.54-63.3,139.64-141.39,89.55c-78.09-50.09-141.39-171.38-141.39-270.93
					c0-99.54,63.3-139.64,141.39-89.55C589.76,665.71,653.06,787.01,653.06,886.55z"/>
				
					<radialGradient id="SVGID_27_" cx="244.6682" cy="1040.1866" r="39.2432" gradientTransform="matrix(3.7919 0 0 4.2125 -358.851 -3694.9827)" gradientUnits="userSpaceOnUse">
					<stop  offset="0" style="stop-color:#FFFFFF"/>
					<stop  offset="0.0656" style="stop-color:#D8D8D8"/>
					<stop  offset="0.1615" style="stop-color:#A6A6A6"/>
					<stop  offset="0.2622" style="stop-color:#797979"/>
					<stop  offset="0.3658" style="stop-color:#545454"/>
					<stop  offset="0.4731" style="stop-color:#353535"/>
					<stop  offset="0.5852" style="stop-color:#1E1E1E"/>
					<stop  offset="0.7042" style="stop-color:#0D0D0D"/>
					<stop  offset="0.835" style="stop-color:#030303"/>
					<stop  offset="1" style="stop-color:#000000"/>
				</radialGradient>
				<path class="st69" d="M516.28,614.94c-28.28-18.14-54.62-24.44-76.72-20.38c21.11-2.45,45.77,4.17,72.11,21.07
					c78.09,50.08,141.39,171.38,141.39,270.93c0,63.49-28.18,100.19-67.09,107.33c41.48-4.81,71.7-42.05,71.7-108.02
					C657.67,786.32,594.37,665.03,516.28,614.94z"/>
			</g>
			<g>
				
					<linearGradient id="SVGID_28_" gradientUnits="userSpaceOnUse" x1="1038.647" y1="1065.8976" x2="1122.1368" y2="1065.8976" gradientTransform="matrix(1 0 0 1 -54.8204 0)">
					<stop  offset="0" style="stop-color:#B6B5C4"/>
					<stop  offset="0.2727" style="stop-color:#EEEBF2"/>
					<stop  offset="0.5808" style="stop-color:#D4D1D8"/>
					<stop  offset="0.7708" style="stop-color:#A5A6B9"/>
					<stop  offset="0.803" style="stop-color:#9D9EB3"/>
					<stop  offset="0.9697" style="stop-color:#BCBBC8"/>
				</linearGradient>
				<path class="st70" d="M1068.26,1042.83h-84.83v18.31c0,0,0,0.25,0,0.38c0,15.15,18.99,27.44,42.42,27.44
					c23.43,0,42.42-12.29,42.42-27.44c0-0.13-0.01-0.25-0.01-0.38h0.01V1042.83z"/>
				
					<linearGradient id="SVGID_29_" gradientUnits="userSpaceOnUse" x1="5164.8003" y1="987.8879" x2="5234.1714" y2="1062.2709" gradientTransform="matrix(-1 0 0 1 6242.0571 0)">
					<stop  offset="0.0354" style="stop-color:#9D9EB3"/>
					<stop  offset="0.5808" style="stop-color:#D4D1D8"/>
					<stop  offset="1" style="stop-color:#EEEBF2"/>
				</linearGradient>
				<path class="st71" d="M983.42,1043.02c0,15.15,18.99,27.44,42.42,27.44c23.43,0,42.42-12.29,42.42-27.44
					c0-15.16-18.99-27.44-42.42-27.44C1002.41,1015.58,983.42,1027.87,983.42,1043.02z"/>
				
					<radialGradient id="SVGID_30_" cx="361.5844" cy="1130.3623" r="8.2499" gradientTransform="matrix(3.7919 0 0 4.2125 -358.851 -3694.9827)" gradientUnits="userSpaceOnUse">
					<stop  offset="0" style="stop-color:#FFFFFF"/>
					<stop  offset="1" style="stop-color:#000000"/>
				</radialGradient>
				<path class="st72" d="M1025.84,1070.35c-23.17,0-41.99-12.02-42.4-26.95c0,0.16-0.02,0.33-0.02,0.49
					c0,15.15,18.99,27.44,42.42,27.44c23.43,0,42.42-12.29,42.42-27.44c0-0.16-0.01-0.33-0.02-0.49
					C1067.83,1058.33,1049.01,1070.35,1025.84,1070.35z"/>
			</g>
			<g>
				<linearGradient id="SVGID_31_" gradientUnits="userSpaceOnUse" x1="455.6314" y1="674.0146" x2="603.002" y2="909.5183">
					<stop  offset="0.0101" style="stop-color:#45108A"/>
					<stop  offset="0.0565" style="stop-color:#4F1793"/>
					<stop  offset="0.1358" style="stop-color:#6A2BAA"/>
					<stop  offset="0.2222" style="stop-color:#8F46C9"/>
					<stop  offset="0.268" style="stop-color:#8B3CC9"/>
					<stop  offset="0.3446" style="stop-color:#7F22C9"/>
					<stop  offset="0.3586" style="stop-color:#7C1DC9"/>
					<stop  offset="0.4067" style="stop-color:#6B19B6"/>
					<stop  offset="0.4825" style="stop-color:#56149E"/>
					<stop  offset="0.5526" style="stop-color:#49118F"/>
					<stop  offset="0.6111" style="stop-color:#45108A"/>
					<stop  offset="0.7102" style="stop-color:#4E1295"/>
					<stop  offset="0.8833" style="stop-color:#6818B2"/>
					<stop  offset="1" style="stop-color:#7C1DC9"/>
				</linearGradient>
				<path class="st73" d="M609.28,857.66c0-64.54-41.04-143.18-91.67-175.65c-24.41-15.66-46.59-17.72-63.02-8.42l-7.66,4.68
					l6.6,12.59c-3.07,9.71-4.74,21.14-4.74,34.13c0,64.54,41.04,143.18,91.67,175.65c10.4,6.67,20.39,10.87,29.7,12.78l6.73,12.84
					l2.9-1.66C597.92,914.87,609.28,891.6,609.28,857.66z"/>
				
					<ellipse transform="matrix(0.9024 -0.431 0.431 0.9024 -295.965 298.8032)" class="st74" cx="511.45" cy="802.57" rx="76.35" ry="140.31"/>
				
					<radialGradient id="SVGID_32_" cx="-523.7883" cy="3868.978" r="23.0511" gradientTransform="matrix(3.2837 2.1063 0 4.1864 2231.5361 -14291.3037)" gradientUnits="userSpaceOnUse">
					<stop  offset="0.2778" style="stop-color:#FFFFFF"/>
					<stop  offset="0.4656" style="stop-color:#FBFBFC"/>
					<stop  offset="0.6533" style="stop-color:#F0EFF1"/>
					<stop  offset="0.8403" style="stop-color:#DDDBE1"/>
					<stop  offset="0.9141" style="stop-color:#D4D1D8"/>
					<stop  offset="0.9899" style="stop-color:#B5B2B8"/>
				</radialGradient>
				<path class="st75" d="M587.24,851.06c0,53.29-33.89,74.76-75.7,47.95c-41.81-26.81-75.7-91.76-75.7-145.05
					c0-53.29,33.89-74.76,75.7-47.95C553.35,732.83,587.24,797.77,587.24,851.06z"/>
				
					<radialGradient id="SVGID_33_" cx="239.3016" cy="1050.8818" r="25.4428" gradientTransform="matrix(3.7919 0 0 4.2125 -358.851 -3694.9827)" gradientUnits="userSpaceOnUse">
					<stop  offset="0" style="stop-color:#FFFFFF"/>
					<stop  offset="0.0656" style="stop-color:#D8D8D8"/>
					<stop  offset="0.1615" style="stop-color:#A6A6A6"/>
					<stop  offset="0.2622" style="stop-color:#797979"/>
					<stop  offset="0.3658" style="stop-color:#545454"/>
					<stop  offset="0.4731" style="stop-color:#353535"/>
					<stop  offset="0.5852" style="stop-color:#1E1E1E"/>
					<stop  offset="0.7042" style="stop-color:#0D0D0D"/>
					<stop  offset="0.835" style="stop-color:#030303"/>
					<stop  offset="1" style="stop-color:#000000"/>
				</radialGradient>
				<path class="st76" d="M514.43,685.27c-18.34-11.76-35.41-15.85-49.74-13.21c13.69-1.59,29.67,2.7,46.75,13.66
					c50.63,32.47,91.67,111.11,91.67,175.65c0,41.16-18.27,64.95-43.5,69.59c26.89-3.12,46.49-27.26,46.49-70.03
					C606.1,796.38,565.06,717.74,514.43,685.27z"/>
				<linearGradient id="SVGID_34_" gradientUnits="userSpaceOnUse" x1="538.9481" y1="912.1716" x2="426.5962" y2="707.129">
					<stop  offset="0.0101" style="stop-color:#45108A"/>
					<stop  offset="0.0565" style="stop-color:#4F1793"/>
					<stop  offset="0.1358" style="stop-color:#6A2BAA"/>
					<stop  offset="0.2222" style="stop-color:#8F46C9"/>
					<stop  offset="0.268" style="stop-color:#8B3CC9"/>
					<stop  offset="0.3446" style="stop-color:#7F22C9"/>
					<stop  offset="0.3586" style="stop-color:#7C1DC9"/>
					<stop  offset="0.4067" style="stop-color:#6B19B6"/>
					<stop  offset="0.4825" style="stop-color:#56149E"/>
					<stop  offset="0.5526" style="stop-color:#49118F"/>
					<stop  offset="0.6111" style="stop-color:#45108A"/>
					<stop  offset="0.7102" style="stop-color:#4E1295"/>
					<stop  offset="0.8833" style="stop-color:#6818B2"/>
					<stop  offset="1" style="stop-color:#7C1DC9"/>
				</linearGradient>
				<path class="st77" d="M514.63,897.29c-41.81-26.81-75.7-91.76-75.7-145.05c0-26.68,8.5-45.39,22.23-54.05
					c-15.53,7.71-25.31,27.14-25.31,55.76c0,53.29,33.89,118.24,75.7,145.05c20.87,13.39,39.77,14.74,53.47,6.1
					C551.63,911.75,533.98,909.7,514.63,897.29z"/>
			</g>
			<g>
				<linearGradient id="SVGID_35_" gradientUnits="userSpaceOnUse" x1="492.9708" y1="760.6577" x2="541.2709" y2="837.8429">
					<stop  offset="0" style="stop-color:#B6B5C4"/>
					<stop  offset="0.2727" style="stop-color:#EEEBF2"/>
					<stop  offset="0.5808" style="stop-color:#D4D1D8"/>
					<stop  offset="0.7708" style="stop-color:#A5A6B9"/>
					<stop  offset="0.803" style="stop-color:#9D9EB3"/>
				</linearGradient>
				<path class="st78" d="M545.92,819.23c0-21.14-13.44-46.91-30.03-57.54c-8-5.13-15.26-5.8-20.64-2.76l-7.71,4.74l2.16,4.12
					c-1.01,3.18-1.55,6.92-1.55,11.18c0,21.14,13.44,46.91,30.03,57.54c3.41,2.18,6.68,3.56,9.73,4.19l2.2,4.21l6.16-3.75
					C542.2,837.97,545.92,830.35,545.92,819.23z"/>
				<linearGradient id="SVGID_36_" gradientUnits="userSpaceOnUse" x1="426.5504" y1="868.6049" x2="606.4587" y2="727.9182">
					<stop  offset="0.0354" style="stop-color:#9D9EB3"/>
					<stop  offset="0.5808" style="stop-color:#D4D1D8"/>
					<stop  offset="1" style="stop-color:#EEEBF2"/>
				</linearGradient>
				<path class="st79" d="M538.69,823.65c0,21.14-13.44,29.66-30.03,19.02c-16.58-10.64-30.03-36.4-30.03-57.54
					c0-21.14,13.44-29.66,30.03-19.02C525.25,776.75,538.69,802.51,538.69,823.65z"/>
				<linearGradient id="SVGID_37_" gradientUnits="userSpaceOnUse" x1="494.876" y1="780.4059" x2="525.2963" y2="829.0186">
					<stop  offset="0" style="stop-color:#FFBB96"/>
					<stop  offset="0.2273" style="stop-color:#FFFBC9"/>
					<stop  offset="0.5404" style="stop-color:#F9B673"/>
					<stop  offset="0.6391" style="stop-color:#F9B876"/>
					<stop  offset="0.7249" style="stop-color:#FABE81"/>
					<stop  offset="0.8057" style="stop-color:#FCC993"/>
					<stop  offset="0.8586" style="stop-color:#FED2A3"/>
					<stop  offset="0.9697" style="stop-color:#FFC28C"/>
				</linearGradient>
				<path class="st80" d="M528.22,817.3c0-13.32-8.47-29.54-18.91-36.24c-5.04-3.23-9.61-3.66-13-1.74l-4.86,2.99l1.36,2.6
					c-0.63,2-0.98,4.36-0.98,7.04c0,13.32,8.47,29.54,18.91,36.24c2.15,1.38,4.21,2.24,6.13,2.64l1.39,2.65l3.88-2.36
					C525.88,829.1,528.22,824.3,528.22,817.3z"/>
				<linearGradient id="SVGID_38_" gradientUnits="userSpaceOnUse" x1="453.0434" y1="848.3931" x2="566.3528" y2="759.7861">
					<stop  offset="0.0354" style="stop-color:#FFBA78"/>
					<stop  offset="0.395" style="stop-color:#FFC987"/>
					<stop  offset="1" style="stop-color:#FEECA8"/>
				</linearGradient>
				<path class="st81" d="M523.67,820.08c0,13.32-8.47,18.68-18.91,11.98c-10.45-6.7-18.91-22.93-18.91-36.24
					c0-13.32,8.47-18.68,18.91-11.98C515.21,790.54,523.67,806.77,523.67,820.08z"/>
				<path class="st74" d="M512.43,763.93c9.12,5.85,17.28,16.29,22.79,28.01l-21.97-67.71l-20.2,36.33
					C498.29,758.28,505.04,759.19,512.43,763.93z"/>
				<path class="st74" d="M512.45,725.8l19.38,59.73c1.21,2.08,2.36,4.21,3.39,6.41l-21.97-67.71l-20.2,36.33
					c0.03-0.01,0.05-0.02,0.08-0.03L512.45,725.8z"/>
				
					<radialGradient id="SVGID_39_" cx="231.9887" cy="1062.6012" r="8.335" gradientTransform="matrix(3.7919 0 0 4.2125 -358.851 -3694.9827)" gradientUnits="userSpaceOnUse">
					<stop  offset="0" style="stop-color:#FFFFFF"/>
					<stop  offset="0.0656" style="stop-color:#D8D8D8"/>
					<stop  offset="0.1615" style="stop-color:#A6A6A6"/>
					<stop  offset="0.2622" style="stop-color:#797979"/>
					<stop  offset="0.3658" style="stop-color:#545454"/>
					<stop  offset="0.4731" style="stop-color:#353535"/>
					<stop  offset="0.5852" style="stop-color:#1E1E1E"/>
					<stop  offset="0.7042" style="stop-color:#0D0D0D"/>
					<stop  offset="0.835" style="stop-color:#030303"/>
					<stop  offset="1" style="stop-color:#000000"/>
				</radialGradient>
				<path class="st82" d="M509.64,765.97c-6.01-3.85-11.6-5.19-16.29-4.33c4.48-0.52,9.72,0.89,15.32,4.47
					c16.59,10.64,30.03,36.4,30.03,57.54c0,13.49-5.99,21.28-14.25,22.8c8.81-1.02,15.23-8.93,15.23-22.94
					C539.67,802.37,526.23,776.6,509.64,765.97z"/>
				
					<radialGradient id="SVGID_40_" cx="229.5766" cy="1065.6493" r="4.7939" gradientTransform="matrix(3.7919 0 0 4.2125 -358.851 -3694.9827)" gradientUnits="userSpaceOnUse">
					<stop  offset="0" style="stop-color:#FFFFFF"/>
					<stop  offset="0.0656" style="stop-color:#D8D8D8"/>
					<stop  offset="0.1615" style="stop-color:#A6A6A6"/>
					<stop  offset="0.2622" style="stop-color:#797979"/>
					<stop  offset="0.3658" style="stop-color:#545454"/>
					<stop  offset="0.4731" style="stop-color:#353535"/>
					<stop  offset="0.5852" style="stop-color:#1E1E1E"/>
					<stop  offset="0.7042" style="stop-color:#0D0D0D"/>
					<stop  offset="0.835" style="stop-color:#030303"/>
					<stop  offset="1" style="stop-color:#000000"/>
				</radialGradient>
				<path class="st83" d="M505.47,783.84c-7.07-4.53-13.22-3.53-16.47,1.71c3.42-4.06,9.56-4.6,15.99-0.47
					c10.45,6.7,18.91,22.93,18.91,36.24c0,4.3-1.37,7.84-2.92,10.34c2.13-2.53,3.39-6.46,3.39-11.58
					C524.38,806.77,515.92,790.54,505.47,783.84z"/>
			</g>
			<g>
				
					<radialGradient id="SVGID_41_" cx="1729.4996" cy="-1517.6017" r="33.1722" gradientTransform="matrix(5.6726 0 0 3.1842 -8805.1494 5870.9307)" gradientUnits="userSpaceOnUse">
					<stop  offset="0" style="stop-color:#5F5C5D"/>
					<stop  offset="1" style="stop-color:#FFFFFF"/>
				</radialGradient>
				<ellipse class="st84" cx="1005.64" cy="1038.53" rx="188.18" ry="105.63"/>
				
					<linearGradient id="SVGID_42_" gradientUnits="userSpaceOnUse" x1="860.3115" y1="1071.762" x2="1205.4744" y2="1071.762" gradientTransform="matrix(1 0 0 1 -54.8204 0)">
					<stop  offset="0" style="stop-color:#B6B5C4"/>
					<stop  offset="0.2727" style="stop-color:#EEEBF2"/>
					<stop  offset="0.5808" style="stop-color:#D4D1D8"/>
					<stop  offset="0.7708" style="stop-color:#A5A6B9"/>
					<stop  offset="0.803" style="stop-color:#9D9EB3"/>
				</linearGradient>
				<path class="st85" d="M803.82,1014.26c0,0,0,1.04,0,1.56c0,62.65,78.51,113.44,175.36,113.44
					c96.85,0,175.36-50.79,175.36-113.44c0-0.52-0.05-1.04-0.06-1.56h0.06H803.82z"/>
				<linearGradient id="SVGID_43_" gradientUnits="userSpaceOnUse" x1="979.1768" y1="1132.3314" x2="979.1768" y2="888.4997">
					<stop  offset="0.0354" style="stop-color:#9D9EB3"/>
					<stop  offset="1" style="stop-color:#FFFFFF"/>
				</linearGradient>
				<path class="st86" d="M803.82,1014.26c0,0,0,1.04,0,1.56c0,62.65,78.51,113.44,175.36,113.44
					c96.85,0,175.36-50.79,175.36-113.44c0-0.52-0.05-1.04-0.06-1.56h0.06H803.82z"/>
				
					<linearGradient id="SVGID_44_" gradientUnits="userSpaceOnUse" x1="847.3007" y1="1039.4464" x2="1218.3198" y2="1039.4464" gradientTransform="matrix(1 0 0 1 -54.8204 0)">
					<stop  offset="0" style="stop-color:#B6B5C4"/>
					<stop  offset="0.2727" style="stop-color:#EEEBF2"/>
					<stop  offset="0.5808" style="stop-color:#D4D1D8"/>
					<stop  offset="0.7708" style="stop-color:#A5A6B9"/>
					<stop  offset="0.803" style="stop-color:#9D9EB3"/>
				</linearGradient>
				<path class="st87" d="M1167.67,969.55H790.68v16.17c0,0,0,1.12,0,1.68c0,67.35,84.39,121.94,188.49,121.94
					c104.1,0,188.49-54.6,188.49-121.94c0-0.56-0.05-1.12-0.07-1.68h0.07V969.55z"/>
				
					<linearGradient id="SVGID_45_" gradientUnits="userSpaceOnUse" x1="5034.3843" y1="725.3853" x2="5342.6616" y2="1055.9338" gradientTransform="matrix(-1 0 0 1 6242.0571 0)">
					<stop  offset="0.0354" style="stop-color:#9D9EB3"/>
					<stop  offset="0.5808" style="stop-color:#D4D1D8"/>
					<stop  offset="1" style="stop-color:#EEEBF2"/>
				</linearGradient>
				<ellipse class="st88" cx="979.18" cy="970.39" rx="188.49" ry="121.94"/>
				<linearGradient id="SVGID_46_" gradientUnits="userSpaceOnUse" x1="1227.334" y1="698.7841" x2="799.7223" y2="1167.7308">
					<stop  offset="0.0354" style="stop-color:#9D9EB3"/>
					<stop  offset="0.5808" style="stop-color:#D4D1D8"/>
					<stop  offset="1" style="stop-color:#EEEBF2"/>
				</linearGradient>
				<ellipse class="st89" cx="979.18" cy="970.93" rx="170.55" ry="110.34"/>
				<ellipse class="st74" cx="979.18" cy="970.93" rx="172.56" ry="111.63"/>
				<path class="st74" d="M979.18,871.7c92.01,0,167.17,46.59,172.26,105.29c0.17-2.01,0.29-4.03,0.29-6.06
					c0-61.65-77.25-111.63-172.55-111.63c-95.3,0-172.56,49.98-172.56,111.63c0,2.04,0.13,4.05,0.29,6.06
					C812,918.29,887.17,871.7,979.18,871.7z"/>
				
					<radialGradient id="SVGID_47_" cx="336.9148" cy="1132.4583" r="36.6617" gradientTransform="matrix(3.7919 0 0 4.2125 -358.851 -3694.9827)" gradientUnits="userSpaceOnUse">
					<stop  offset="0" style="stop-color:#FFFFFF"/>
					<stop  offset="1" style="stop-color:#000000"/>
				</radialGradient>
				<path class="st90" d="M979.18,1091.85c-102.97,0-186.6-53.42-188.41-119.76c-0.02,0.73-0.09,1.45-0.09,2.18
					c0,67.35,84.39,121.94,188.49,121.94c104.1,0,188.49-54.6,188.49-121.94c0-0.73-0.06-1.45-0.09-2.18
					C1165.78,1038.42,1082.15,1091.85,979.18,1091.85z"/>
			</g>
			<g>
				
					<radialGradient id="SVGID_48_" cx="1593.4633" cy="-1668.2097" r="33.1722" gradientTransform="matrix(5.6726 0 0 3.1842 -8805.1494 5870.9307)" gradientUnits="userSpaceOnUse">
					<stop  offset="0" style="stop-color:#5F5C5D"/>
					<stop  offset="1" style="stop-color:#FFFFFF"/>
				</radialGradient>
				<ellipse class="st91" cx="233.96" cy="558.96" rx="188.18" ry="105.63"/>
				
					<linearGradient id="SVGID_49_" gradientUnits="userSpaceOnUse" x1="88.6287" y1="592.1908" x2="433.792" y2="592.1908" gradientTransform="matrix(1 0 0 1 -54.8204 0)">
					<stop  offset="0" style="stop-color:#B6B5C4"/>
					<stop  offset="0.2727" style="stop-color:#EEEBF2"/>
					<stop  offset="0.5808" style="stop-color:#D4D1D8"/>
					<stop  offset="0.7708" style="stop-color:#A5A6B9"/>
					<stop  offset="0.803" style="stop-color:#9D9EB3"/>
				</linearGradient>
				<path class="st92" d="M32.14,534.69c0,0,0,1.04,0,1.56c0,62.65,78.51,113.44,175.36,113.44c96.85,0,175.36-50.79,175.36-113.44
					c0-0.52-0.05-1.04-0.06-1.56h0.06H32.14z"/>
				<linearGradient id="SVGID_50_" gradientUnits="userSpaceOnUse" x1="207.4942" y1="652.7599" x2="207.4942" y2="408.9292">
					<stop  offset="0.0354" style="stop-color:#9D9EB3"/>
					<stop  offset="1" style="stop-color:#FFFFFF"/>
				</linearGradient>
				<path class="st93" d="M32.14,534.69c0,0,0,1.04,0,1.56c0,62.65,78.51,113.44,175.36,113.44c96.85,0,175.36-50.79,175.36-113.44
					c0-0.52-0.05-1.04-0.06-1.56h0.06H32.14z"/>
				
					<linearGradient id="SVGID_51_" gradientUnits="userSpaceOnUse" x1="75.6179" y1="559.8752" x2="446.6374" y2="559.8752" gradientTransform="matrix(1 0 0 1 -54.8204 0)">
					<stop  offset="0" style="stop-color:#B6B5C4"/>
					<stop  offset="0.2727" style="stop-color:#EEEBF2"/>
					<stop  offset="0.5808" style="stop-color:#D4D1D8"/>
					<stop  offset="0.7708" style="stop-color:#A5A6B9"/>
					<stop  offset="0.803" style="stop-color:#9D9EB3"/>
				</linearGradient>
				<path class="st94" d="M395.99,489.98H19v16.17c0,0,0,1.12,0,1.68c0,67.35,84.39,121.94,188.49,121.94
					c104.1,0,188.49-54.6,188.49-121.94c0-0.56-0.05-1.12-0.07-1.68h0.07V489.98z"/>
				
					<linearGradient id="SVGID_52_" gradientUnits="userSpaceOnUse" x1="5806.0669" y1="245.8142" x2="6114.3442" y2="576.3629" gradientTransform="matrix(-1 0 0 1 6242.0571 0)">
					<stop  offset="0.0354" style="stop-color:#9D9EB3"/>
					<stop  offset="0.5808" style="stop-color:#D4D1D8"/>
					<stop  offset="1" style="stop-color:#EEEBF2"/>
				</linearGradient>
				<ellipse class="st95" cx="207.49" cy="490.82" rx="188.49" ry="121.94"/>
				<linearGradient id="SVGID_53_" gradientUnits="userSpaceOnUse" x1="455.6512" y1="219.2133" x2="28.0397" y2="688.1598">
					<stop  offset="0.0354" style="stop-color:#9D9EB3"/>
					<stop  offset="0.5808" style="stop-color:#D4D1D8"/>
					<stop  offset="1" style="stop-color:#EEEBF2"/>
				</linearGradient>
				<ellipse class="st96" cx="207.49" cy="491.36" rx="170.55" ry="110.34"/>
				<ellipse class="st74" cx="207.49" cy="491.36" rx="172.56" ry="111.63"/>
				<path class="st74" d="M207.5,392.13c92.01,0,167.17,46.59,172.26,105.29c0.17-2.01,0.29-4.03,0.29-6.06
					c0-61.65-77.26-111.63-172.55-111.63c-95.3,0-172.56,49.98-172.56,111.63c0,2.04,0.13,4.05,0.29,6.06
					C40.32,438.72,115.49,392.13,207.5,392.13z"/>
				
					<radialGradient id="SVGID_54_" cx="133.4044" cy="1018.6136" r="36.6616" gradientTransform="matrix(3.7919 0 0 4.2125 -358.851 -3694.9827)" gradientUnits="userSpaceOnUse">
					<stop  offset="0" style="stop-color:#FFFFFF"/>
					<stop  offset="1" style="stop-color:#000000"/>
				</radialGradient>
				<path class="st97" d="M207.49,612.27c-102.97,0-186.6-53.42-188.41-119.76c-0.02,0.73-0.08,1.45-0.08,2.18
					c0,67.35,84.39,121.94,188.49,121.94c104.1,0,188.49-54.6,188.49-121.94c0-0.73-0.06-1.45-0.08-2.18
					C394.1,558.85,310.47,612.27,207.49,612.27z"/>
			</g>
		</g>
		<g>
			<g>
				<g>
					<path class="st98" d="M314.15,274.18c5.61-25.58-7.29-50.94-31.95-60.46c0.16-14.56-5.99-29.16-16.61-39.12
						c-20.96-19.66-64.14-28.16-79.55-3.1c-20.36,10.77-19.07,24.15-13,45.41c-19.73,19.12-12.52,50.41,16.25,66.75
						c-0.46,21.45-1.05,53.79,19,62.96c4.81,2.2,12.34,5.27,13.29,6.22c-1.25-1.11,14.85,40.84,64.88,21.64
						C337.5,354.88,347.42,299.73,314.15,274.18z"/>
					<path class="st99" d="M102.04,446.8c4.02-3.7,11.09-6.97,10.67-7.52c-1.67-2.2-19.15,14.65-18.01,9.9
						c0.64-2.64,13.15-16.41,17.59-16.92c4.3-0.5,32.17-4.6,32.17-4.6l64.39-39.92c0,0,3.19-47.21-10.48-79.02
						c14.94-4.25,17.86-5.16,33.22-4.05c8.76,32.26,18.19,86.6,6.8,102.44c-4.79,6.66-88.48,32.43-88.48,32.43
						s-18.11,6.36-21.48,6.56c-2.56,0.15-9.61-0.4-13.05,0.1c-7.82,1.13-17.51,11.98-18.17,10.73
						C96.73,456.01,97.94,450.57,102.04,446.8z"/>
					<path class="st100" d="M190.54,304.94c6.05-10.43,12.28-18.71,12.28-18.71c6.27-10.44,22.48-15.71,22.48-15.71
						s5.42,0.1,11.64,0.39c0.39,0.97,0.78,1.66,1.17,1.93c2.34,1.64,15.74-0.48,24.4,5.02c29.02,23.28,20.99,136.12,18.71,171.77
						l-72.45,0.29c0,0-4.79-76.19-22.75-95.9C173.52,340.3,181.57,320.42,190.54,304.94z"/>
					<path class="st99" d="M170.68,701.95c-0.78-1.34-10.85-23.99-19.07-34.08c-11.95-14.65-115.23-147.31-110.98-179.6
						c1.86-14.1,46.61-26.06,51.92-26.91c28.48,3.56-1.44,26.43,19.96,45.23c-13.91,4.44-22.11,9.98-19.11,13.63
						c12.04,14.61,75.97,132.3,78.75,133.82c12.38,6.77,17.24,3.63,17.24,3.63s-2.85,66.2-8.76,64.11
						C174.73,719.71,179.44,717,170.68,701.95z"/>
					<path class="st100" d="M194.61,658.1l-11.94,66.7c-2.69,8.63-7.2,8.54-8.36,7.38c-2.38-2.38-3.47-20.19-3.76-30.31
						c5.39-15.45,4.88-44.53,1.56-47.82C180.23,654.19,194.61,656.62,194.61,658.1z"/>
					<path class="st101" d="M151.92,494.69c-16.03-24.78-15.17-21.65-43.06-32.84c-11.17,4.19-48.58,26.05-53.32,30.09l59.49,40.24
						C113.08,527.68,133.8,505.33,151.92,494.69z"/>
					<path class="st101" d="M230.38,232.35c0,0,4.86,32.47,8.25,40.36c3.39,7.89-18.66,24.77-37.01,29.89
						c-18.35,5.12,5.61-17.43,4.85-25.86c-0.76-8.43-4.09-48.37-4.09-48.37L230.38,232.35z"/>
					<path class="st99" d="M203.31,239.81c-0.54-6.61-0.93-11.45-0.93-11.45l28,3.99c0,0,0.71,3.81,1.49,9.21
						C220.52,247.72,210.31,245.77,203.31,239.81z"/>
					<path class="st101" d="M221.6,173.04c0,0,11.04,2.33,17.85,12.06c6.81,9.73,11.49,38.39-10.95,51.76
						c-22.45,13.37-39.9-5.54-40.19-24C188.02,194.41,192.24,169.78,221.6,173.04z"/>
					<path class="st101" d="M183.17,207.08c1.92,4.45,5.71,7.22,8.49,6.17c2.77-1.04,3.47-5.5,1.55-9.95
						c-1.92-4.45-5.71-7.22-8.49-6.17C181.95,198.18,181.26,202.63,183.17,207.08z"/>
					<path class="st101" d="M239.81,210.74c-1.63,4.8-0.14,9.52,3.33,10.55c3.46,1.03,7.59-2.02,9.22-6.82
						c1.63-4.8,0.14-9.52-3.33-10.55C245.57,202.89,241.44,205.95,239.81,210.74z"/>
					<path class="st102" d="M155.19,451.82c12.39-1.06,53.41-4.95,53.41-4.95l72.76-9.12c0,0,12.86,28.65,13.36,46.63
						c0.88,31.45-30.15,57.95-56.69,56.43c-15.8-0.9-105.22-2.73-122.68-8.77c-3.61-25.62-7.75-53.39-26.27-71.82
						C118.73,456.43,138.37,453.26,155.19,451.82z"/>
					<path class="st101" d="M154.26,689.02c-1.99-1.92-17.96-103.76-27.59-146.5c-2.32-10.29-9.34-19.12-19.23-24.16l-51.9-26.42
						c-17.98,15.34,65.92,187.59,73.6,205.65c5.29,12.43,8.61,38.11,8.99,39.68c4.32,17.61-1.31,19.11,4.06,22.8
						c5.37,3.69,29.44-60.6,29.44-60.6S164.79,699.19,154.26,689.02z"/>
					<path class="st103" d="M169.89,456.25L169.89,456.25c0.01,2.56-2.52,4.65-5.64,4.66L76.1,461.1c-3.12,0.01-6.26-2.51-7.27-5.63
						l1.61,1c-0.01-2.56,2.52-4.65,5.64-4.66l88.15-0.19C167.35,451.62,169.89,453.69,169.89,456.25z"/>
					<g>
						<path class="st103" d="M76.99,459.43c0.52,0,1.06-0.03,1.59-0.09c4.56-0.54,7.56-3.25,6.68-6.07L51.61,344.68
							c-0.87-2.81-5.27-4.66-9.84-4.12c-4.56,0.54-7.55,3.25-6.68,6.07l33.65,108.58C69.5,457.7,73.03,459.43,76.99,459.43z"/>
					</g>
					<path class="st101" d="M102.95,444.71c5.05-2.35,12.86-3.43,12.65-4.06c-0.86-2.58-23.28,10.75-20.61,6.57
						c1.48-2.33,18.16-14.15,22.55-13.36c4.26,0.77,32.11,4.92,32.11,4.92l71.69-24.17c0,0,13.67-41.58,11.24-75.77
						c15.62,0.28,26.53,2.7,40.77,8.19c-2.39,33.21-11.48,87.6-27.57,99.37c-6.77,4.95-94.9,5.25-94.9,5.25s-19.33,0.81-22.6,0.03
						c-2.48-0.6-9-3.16-12.44-3.68c-7.81-1.18-20.63,6.33-20.84,4.95C94.83,451.94,97.79,447.12,102.95,444.71z"/>
					<path class="st100" d="M227.59,302.57c1-10.51,2.38-21.09,13.86-25.64c7.12-2.82,15.63-1.78,22.08,2.08
						c7.68,4.6,10.7,12.97,11.69,21.11c2.23,18.47,3.27,37.76,1.94,56.33c-14.23-5.49-33.59-2.59-49.21-2.86
						C224.46,337.31,226.29,316.26,227.59,302.57z"/>
				</g>
				<path class="st101" d="M113.6,434.79c-12.25,2.92-11.57,2.71-12.06,3c-8.66,5.09-7.97,7.29,5.32,1.98
					c0.34-0.13,0.7-0.2,1.06-0.2l6.3,0.06c2.45,0.02,3.61-2.8,1.77-4.31l0,0C115.34,434.79,114.44,434.59,113.6,434.79z"/>
				<path class="st100" d="M137.59,733.5c0,0,0.52,8.08-2.39,14.55c-2.91,6.47-14.03,8.91-11.35,12.25c2.69,3.34,24.18,0,24.18,0
					l24.87-56.73c1.02-2.11,0.44-4.58-1.42-6.1c-2.99-2.44-8.47-5.91-17.1-8.33C154.38,689.14,155.73,724.73,137.59,733.5z"/>
			</g>
		</g>
		<g>
			<g id="girl_2_7_">
				<path class="st98" d="M1017.16,587.64c-1.36-4.69-6.3-12.43-9.69-14.86c-10.08-7.23-31.2-21.91-53.9-4.72
					c-30.21,22.87-20.19,56.89-29.59,68.12c-9.41,11.23-25.71,15.18-16.99,33.25c8.72,18.07,0.62,34.04,3.43,42.65
					c2.81,8.6,32.34,44.36,59.13,27.37c26.78-16.99,27.44,7.87,46.49,7.93c19.05,0.05,47.22-28.36,25.88-51.59
					c-16.24-17.68,13.78-34.91-1.97-59.21C1035.33,629.46,1025.92,617.89,1017.16,587.64z"/>
				<path class="st104" d="M1043.88,934.78c-1.16-7.08-17.33-42.47-18.49-46.94c-1.16-4.47,6.66-50.31,12.13-82.44
					c5.47-32.13-9.91-86.4-9.91-86.4s-10.39-3.23-25.08-8.83c-4.46-1.7-7.6-6.82-7.9-12.8c-0.54-10.97-0.03-23.59-0.03-23.59
					l-31.81,0.92c0.91,8.36,0.27,17.94-0.54,25.74c-0.48,4.62-3.09,8.36-6.59,9.51c-11.37,3.71-15.84,7.44-28.16,14.84
					c0,0,0.18,1.71,0.5,4.84c-0.15-0.15-0.23-0.24-0.23-0.24s-0.58,23.12-0.19,52.84c0.35,26.82,12.92,93.45,15.38,106.21
					c0.07,0.86,0.14,1.71,0.21,2.57c-8.46,17.87-20.53,43.78-20.53,43.78S1045.04,941.86,1043.88,934.78z"/>
				<path class="st102" d="M1084.42,968.87c-29.35,30.56-71.43,47.18-71.43,47.18s-33.87,0.81-72.28,0
					c-37.31-0.78-73.79-57.9-73.79-57.9s31.11-0.51,39.64-9.53c5.95-6.29,13.13-16.75,20.11-28.11c5.02-8.16,9.93-16.79,14.21-24.68
					c0,0,8.81,10.72,44.62,9.57c35.81-1.16,44.53-6.09,44.53-6.09s4.22,6.45,9.8,14.61c6.73,9.84,15.42,22.17,21.02,28.7
					C1063.31,945.49,1084.42,968.87,1084.42,968.87z"/>
				<path class="st105" d="M979.84,609.87c0,0,13.48-0.31,16.55,5.51c3.06,5.82,3.48,12.33,5.02,15.61
					c1.54,3.28,1.28,6.96,1.28,6.96s11.61-38.32-15.19-30.69C985.57,607.82,979.84,609.87,979.84,609.87z"/>
				<path class="st106" d="M812.65,844.8c0.14-0.06,0.29-0.12,0.44-0.17C813.01,844.67,812.86,844.74,812.65,844.8z"/>
				<path class="st107" d="M1088.47,967.46c-8.94,9.98-35.43,20.94-60.39,29.62c-7,2.43-13.89,4.68-20.23,6.68
					c-5.72,2.3-17.34,7.06-29.79,12.64c-17.57,7.89-25.25,4.12-33.96,2.14c-8.71-1.98-18.53,5.87-31.43-0.21
					c-12.89-6.08-9.64-38.83-9.64-38.83c4.37-3.7,21.34-4.76,32.84,5.89c11.49,10.64,26.9,8.66,26.9,8.66
					c0.59,0.08,1.99-0.83,3.91-2.38c0,0,11.18-8.43,31.78-29.59c6.63-6.81,14.23-14.94,22.76-24.53
					c16.26-18.28,30.28-42.33,46.47-46.77c27.6-7.55,37.42,6.27,37.42,6.27S1111.92,941.28,1088.47,967.46z"/>
				<path class="st108" d="M963.24,683.55c0,0,6.28,18.78,16.6,17.66c10.32-1.12,14.56-18.08,14.56-18.08L963.24,683.55z"/>
				<path class="st109" d="M952.74,660.86c0,0-4.92-13.25-7.94-28.66c-2.16-11.01-0.07-52.74,32.47-49.78c0,0,9.42,0.32,18.64,7.16
					c7.33,5.44,18.16,17.65,8.89,54.76l-2.25,12.45L952.74,660.86z"/>
				<path class="st104" d="M998.22,678.57c-8.42,10.33-18.89,24.09-41.32-1.52c-4.39-5.01-5.93-15.26-6.16-26.29
					c-0.28-13.05-0.84-18.48,0.31-26c1.36-9,9.09-25.59,21.48-26.93c22.75-2.46,30.38,16.62,30.92,31.29
					C1004.6,660.86,1006.78,668.06,998.22,678.57z"/>
				<path class="st104" d="M955.67,709.95l-7.29,66.24c0,0-5.64,13.07-14.29,30.33c-6.12,12.21-13.73,26.52-21.92,39.79
					c-1.47,2.38-2.95,4.74-4.45,7.03c-12.37,18.95-25.62,34.39-36.7,36.12c-0.34,0.05-0.68,0.09-1.03,0.12
					c-0.17,0.01-0.35,0.02-0.53,0.03c-3.38,0.15-7.16-0.86-11.13-2.68c-0.21-0.1-0.42-0.19-0.64-0.3c-0.09-0.04-0.18-0.07-0.27-0.13
					c-23.26-11.26-60.45-17.46-60.45-17.46l2.26-16.36l0,0c16.09-2.55,61.93-0.9,67.7-0.5c2,0.14,8.27-13.77,15.88-32.39
					c0-0.01,0-0.01,0-0.01c14.29-34.99,33.3-86.6,37.64-92.92c1.53-2.23,4.21-4.32,7.44-6.23
					C938.71,714.24,955.67,709.95,955.67,709.95z"/>
				<path class="st104" d="M1163.84,862.22c0,0-53.26,30.82-76.25,27.24c-10.44-1.63-22.81-15.44-34.56-32.89
					c-1.03-1.53-2.06-3.09-3.07-4.67c-21.28-33-39.73-75.71-39.73-75.71l-2.46-21.08l-5.23-44.93c0,0,14.27,3.44,25.07,8.85
					c4.59,2.29,8.56,4.94,10.54,7.83c4.81,7.01,27.66,69.71,42.11,103.68c5.52,12.97,9.81,21.75,11.41,21.64
					c5.78-0.4,52.45,3.87,66.56-4.06l5.61,5.84V862.22z"/>
				<path class="st100" d="M1038.15,726.86c-1.98-2.89-5.94-5.53-10.53-7.82c0-0.01,0-0.03,0-0.03s-15.8,24.53-48.8,24.9
					c-33,0.37-50.6-23.47-50.6-23.47l-0.34,0.19c-3.23,1.91-5.92,4-7.44,6.23c-4.33,6.32-23.34,57.93-37.64,92.92c0,0,0,0,0,0.01
					c0.04,0.39,1.3,12.46,9.72,22.62v0.01c3.6,4.34,8.5,8.34,15.18,10.93c7.87-12.05,15.38-25.52,21.77-37.8
					c0.25-0.48,0.48-0.94,0.73-1.41l0.65,3.97l2.55,91.09c15.48,6.38,33.79,13.2,45.48,13.2c29.96,0,58.41-12.19,58.41-12.19
					s-0.39-62.95-2.7-83.77c-0.02-0.16,0.05-0.31,0.08-0.47c5.65,10.36,11.9,21.03,18.35,30.6c6.84-1.93,12.19-5.47,16.35-9.55
					c5.48-5.37,8.88-11.67,10.89-16.48C1065.81,796.57,1042.96,733.87,1038.15,726.86z"/>
				<g>
					<path class="st104" d="M798.06,868.93c0,0-14.49,12.81-19.12,13.51c-4.64,0.7-20.58-0.34-20.58-0.34s0.87-4.73,8.32-6.04
						c7.44-1.31,11.52-16.29,16.34-19.49c4.82-3.2,16.22-3.9,16.22-3.9L798.06,868.93z"/>
					<path class="st104" d="M795.65,853.03c0,0-11.53-2.61-15.75-0.66c-2.58,1.19-6.01,6.75-12.48,8.47
						c-2.23,0.6-0.52,2.65,0.49,3.19c2.07,1.11,15.46-0.27,15.46-0.27L795.65,853.03z"/>
					<path class="st104" d="M778.49,879.36c-0.66,0.18-18.13,8.97-18.13,8.97s-0.22-6.59,2.23-7.13
						C765.03,880.65,778.49,879.36,778.49,879.36z"/>
					<path class="st104" d="M764.77,863.24c0,0-0.15,9.21,0.87,11.01c1.03,1.81,6.7,2.32,6.7,2.32s3.12-4.74,3.2-5.16
						c0.08-0.42-7.1-0.85-7.27-1.3C768.1,869.66,767.62,862.97,764.77,863.24z"/>
				</g>
				<g>
					<path class="st104" d="M1159.86,863.32c0,0,14.93,11.94,19.59,12.36c4.66,0.42,20.55-1.56,20.55-1.56s-1.04-4.67-8.52-5.54
						c-7.48-0.87-11.96-15.97-17.01-18.5c-9.75-4.87-16.24-1.96-16.24-1.96L1159.86,863.32z"/>
					<path class="st104" d="M1161.7,847.29c0,0,11.42-3.29,15.71-1.6c2.62,1.04,6.25,6.38,12.77,7.72c2.25,0.46,0.61,2.62-0.37,3.22
						c-2.03,1.23-15.45,0.64-15.45,0.64L1161.7,847.29z"/>
					<path class="st104" d="M1179.78,872.57c0.66,0.14,18.43,7.88,18.43,7.88s-0.02-6.59-2.48-6.99
						C1193.28,873.06,1179.78,872.57,1179.78,872.57z"/>
					<path class="st104" d="M1192.92,855.66c0,0,0.48,9.19-0.48,11.05c-0.96,1.87-6.61,2.71-6.61,2.71s-3.28-4.55-3.38-4.97
						c-0.1-0.41,7.06-1.27,7.21-1.73C1189.82,862.27,1190.07,855.55,1192.92,855.66z"/>
				</g>
				<path class="st102" d="M996.36,964.46c0,0,50.89-74.71,83.22-79.67c32.33-4.96,29.9,10.72,29.9,19.42s-0.35,42.18-12.86,60.25
					c-12.51,18.06-71.88,43.82-71.88,43.82S995.77,1002.08,996.36,964.46z"/>
				<path class="st104" d="M1045.78,987.34c0,0-0.58,28.52-8.7,31.92c-11.15,4.66-19.91-2.81-29.11-0.63
					c-9.21,2.18-16.67,5.27-35.21-3.08c-12.31-5.55-23.86-10.32-30.23-12.9c-3.12-1.08-6.35-2.22-9.65-3.42
					c-24.64-8.96-52.67-20.95-61.64-31.76c-21.69-26.17-13.38-72.62-13.38-72.62s7.06-11.61,32.59-4.05
					c14.98,4.43,30.45,23.58,45.42,41.76c6.21,7.54,12.1,14.52,17.49,20.82c18.8,21.93,31.69,35.54,31.69,35.54l-0.06,0.14
					c1.96,1.59,3.39,2.5,4,2.42c0,0,9.8,5.01,26.82-2.37C1027.68,983.94,1041.18,983.41,1045.78,987.34z"/>
				<path class="st102" d="M966.79,964.46c0,0-50.89-74.71-83.22-79.67c-32.33-4.96-29.9,10.72-29.9,19.42s0.35,42.18,12.86,60.25
					c12.51,18.06,71.88,43.82,71.88,43.82S967.38,1002.08,966.79,964.46z"/>
			</g>
		</g>
	</g>
</g>
</svg>
