<?xml version="1.0" encoding="utf-8"?>
<!-- Generator: Adobe Illustrator 23.0.3, SVG Export Plug-In . SVG Version: 6.00 Build 0)  -->
<svg version="1.1" id="Layer_1" xmlns="http://www.w3.org/2000/svg" xmlns:xlink="http://www.w3.org/1999/xlink" x="0px" y="0px"
	 viewBox="0 0 1080 1080" style="enable-background:new 0 0 1080 1080;" xml:space="preserve">
<style type="text/css">
	.st0{fill:#FFFFFF;}
	.st1{fill:#4A4A49;}
	.st2{fill:#E6A87F;}
	.st3{fill:#010001;}
	.st4{fill:#FAB587;}
	.st5{fill:#131F44;}
	.st6{fill:#B32627;}
	.st7{fill:#EB7171;}
	.st8{fill:#EEE7E0;}
	.st9{fill:#FACAC1;}
	.st10{fill:#E8A67C;}
</style>
<g>
	<path class="st0" d="M923,256H753c-6.6,0-12,5.4-12,12v209c0,6.6,5.4,12,12,12h170c6.6,0,12-5.4,12-12V268
		C935,261.4,929.6,256,923,256z"/>
</g>
<g>
	<g>
		<path class="st0" d="M612,328H442c-6.6,0-12,5.4-12,12v209c0,6.6,5.4,12,12,12h170c6.6,0,12-5.4,12-12V340
			C624,333.4,618.6,328,612,328z"/>
	</g>
	<g>
		<path class="st1" d="M614.28,494.12l-168.84-0.74c-0.77,0-1.17-0.82-0.65-1.32l10.19-9.92c1.05-1.02,2.53-1.6,4.08-1.6h143.49
			c1.69,0,3.3,0.67,4.39,1.83l8.68,9.26C616.53,492.62,615.73,494.12,614.28,494.12z"/>
	</g>
	<g>
		<path class="st2" d="M494.92,463.14c0.36-9.67,5.53-24.29,6.03-29.31c0.26-2.59-0.6-6.61-0.6-6.61l11.82-2.17l-6.7-10.36
			c0,0-4.05,1.78-8.61,3.31c-1.69,0.56-4.09,5.99-4.3,7.68c-1.65,12.84-1.87,36.58-1.87,36.58S494.86,464.63,494.92,463.14z"/>
		<path class="st3" d="M505.48,414.69c0,0-1.58,7.72-1.59,11.88c0,0,18.93-1.88,21.96-1.47c1.14,0.31,2.99-17.23,2.99-17.23
			L505.48,414.69z"/>
		<g>
			<path class="st2" d="M486.63,480.68c0.26-0.67,1.33-1.66,1.64-3.04c1.4-6.16,2.24-13.86,2.42-15.39
				c0.42-3.46,0.94-12.05,0.94-12.05l4.38,2.3c0,0-0.94,6.33-1.22,9.7c-0.02,0.28,0.16,1.67,0.92,3.04c1.23,2.21,2.42,4.3-0.02,6.3
				c-3.05,2.5-2.47,5.2-4.49,7.33C489.47,480.71,486.32,481.48,486.63,480.68z"/>
		</g>
		<g>
			<path class="st4" d="M471.47,472.96c5.8-7.06,20.53-19.33,23.78-22.76c1.67-1.77,2.56-5.32,2.56-5.32l28.03-14.78l-8.11-12.92
				c0,0-13.26,11.35-21.83,19.87c-8.58,8.51-27.13,32.11-27.13,32.11S470.58,474.06,471.47,472.96z"/>
			<g>
				<path class="st4" d="M455.18,480.1c0.58-0.32,1.96-0.27,2.98-1.08c4.58-3.63,9.6-8.84,10.62-9.87c2.29-2.31,7.58-8.44,7.58-8.44
					l2.02,5.01c0,0-4.33,4.11-6.46,6.45c-0.18,0.19-0.83,1.38-1.04,2.99c-0.33,2.59-0.62,5.07-3.61,4.77
					c-3.74-0.37-4.84,2.1-7.59,2.22C457.31,482.24,454.48,480.48,455.18,480.1z"/>
			</g>
			<path class="st4" d="M528.89,411.92c1.95,11.47,9.13,12.47,9.13,12.47c3.59-3.09,5.75-2.79,5.75-2.79l6.35,2.72
				c0,0,9.93-16.5,6.41-18.75c-1.72-1.29-18.07,0.05-18.07,0.05S527.96,406.5,528.89,411.92z"/>
			<path class="st5" d="M566.63,457.48l-5.59-3.49c0,0-5.2-0.31-3.68,5.91c1.32,5.41,4.32,11.94,7.53,3.88
				C567.09,461.64,566.63,457.48,566.63,457.48z"/>
			<path class="st6" d="M565.58,457.33c-1.34-2.91-2.23-5.38-3.25-4.77c-1.02,0.61-2.59,2.14-0.44,6.99c1.91,4.32,3,4.34,4.02,3.73
				C566.93,462.67,566.92,460.24,565.58,457.33z"/>
			<path class="st3" d="M501.87,431.2c0.01,4.38,5.1,8.85,5.1,8.85l18.81-8.6c9.2,1.56,13.23-7.87,13.23-7.87s-2.4-9.38-0.57-17.97
				c0,0-4.92-2.08-15.79,6.35C519.79,414.19,503.34,429.69,501.87,431.2z"/>
			<path class="st5" d="M572.72,435c7.12-0.41,9.66,15.16,9.66,15.16s2.81,4.32,0.76,8.99c-1.62,3.69-11.18,6.19-15.99,4.48
				c-3.5-1.24-5.2-8.87-5.2-13.39C561.95,442.78,568.05,435.26,572.72,435z"/>
			<path class="st7" d="M550.11,424.31c0.87,0.47,2.24,1.09,3.31,2.32c2.36,2.72,7.56,9.93,10.06,9.12
				c0.97-0.31,3.16-1.22,3.16-1.22l1.84-6.18c0,0,2.97,1.38,2.91,0.45c-0.16-2.25-0.81-9.64-1.59-15.83
				c-0.52-4.15-6.99-3.73-6.99-3.73l-6.29-3.69C556.52,405.56,548.16,413.55,550.11,424.31z"/>
			<path class="st4" d="M570.49,419.02c0,0-6.57,7.25-5.45,14.1c0.65-0.17,2.11-0.21,1.37-0.35c0,0,2.44,1.91,2.61,6.06
				c-0.15,1.22,7.33-3.57,5.36-4.7c-2.77-1.6-2.99-5.33-2.99-5.33L570.49,419.02z"/>
			<path class="st4" d="M569.98,455.78l-1.28-13.25c0.05-8,8.14-9.65,10.5-9.11c1.96,0.44,2.94,4.45,3.26,8.04
				c0.31,3.47,0.93,12.17-0.55,13.69L569.98,455.78z"/>
			<path class="st4" d="M570.49,445.57l-1.64-2.66c0,0-0.48-0.77-1.54-0.03c-1.05,0.73-1.64,4.95,0.73,4.92
				C569.67,447.79,570.49,445.57,570.49,445.57z"/>
			<path class="st8" d="M568.03,456.59c0,0,1.04-1.74,1.48-3.73c1.09-5.02-0.49-14.02-0.49-14.02s3.45,3.17,3.66,6.95
				c-0.05,1.48,0.78,3.14,4.62,2.89c4.43-0.29,5.47,4.17,5.47,4.17l-0.74,2.9L568.03,456.59z"/>
			<path class="st5" d="M582.76,452.85c-3.53-5-10.09,0.11-11.37-5.25c0.04-2.16-1.92-4.24-1.92-4.24s-0.08,0.43-0.33,3.92
				c-0.17,2.44-3.79,6.27-3.53,9.25c0,0,6.5,4.71,11.69,4C582.5,459.82,584.84,454.97,582.76,452.85z"/>
			<path class="st4" d="M584.12,442.48c0.37-0.71-0.17-1.44-0.68-1.27c-0.51,0.17-1.47,0.09-1.47,0.09l0.85,5.91
				C582.81,447.21,583.26,444.15,584.12,442.48z"/>
			<g>
				<path class="st4" d="M575.86,476.92c0,0-1.55-18.42-2.48-23.36c-0.75-4.01-3.05-13.59-6.27-20.06c-0.27-0.55-2.5-12.57-8.9-7.97
					c-4.12,2.96,2.08,10.43,2.08,10.43s6.96,15.32,8.43,18.85c-0.03,8.12,4.7,22.77,4.7,22.77L575.86,476.92z"/>
				<path class="st9" d="M565.8,431.3c0.21,0.83,0.35,1.18,0.33,2c-0.05,2.06,0.6,1.51,1.31,2.78c2.15,3.89,2.96,9.11,3.97,13.52
					c2.05,8.98,2.81,18.23,4.46,27.3c-0.05-0.63-1.56-18.48-2.48-23.33c-0.75-4.01-3.05-13.59-6.27-20.06
					c-0.19-0.39-1.37-6.55-4.32-8.45C563.58,427.26,565.21,429.01,565.8,431.3z"/>
				<g>
					<path class="st10" d="M571.61,478.87c0,0,1.47,1.14,1.45,1.55c-0.02,0.47-2.34,0.26-2.34,0.26s-3.44,0.53-4.74,0.57
						c-0.7,0.02-0.93-0.97,0.17-1.26C567.85,479.55,571.61,478.87,571.61,478.87z"/>
					<path class="st10" d="M572.22,478.43c0,0,1.47,1.14,1.45,1.55c-0.02,0.47-2.34,0.26-2.34,0.26s-3.26,0.09-4.56,0.12
						c-0.7,0.02-1.18-0.72-0.08-1.01C568.4,478.92,572.22,478.43,572.22,478.43z"/>
					<path class="st10" d="M572.84,478.02l-0.26,1.92c0,0-1.69-0.23-2.92-0.43c-0.77-0.13-1.37-1.95-0.32-1.67
						C570.77,478.22,572.84,478.02,572.84,478.02z"/>
					<path class="st4" d="M571.67,478.6l2.13-1.56c0,0,2.04-1.34,2.07-0.12c0.03,1.22,0.71,2.56-0.07,3.4
						c-0.89,0.95-2.18,0.96-3.34,0.75c-1.31,0.35-6.27,0.61-6.71,0.61c-0.96,0.02-0.88-1.05,0.02-1.17c1.9-0.25,5.17-0.9,5.17-0.9
						L571.67,478.6z"/>
				</g>
			</g>
		</g>
	</g>
</g>
</svg>
