<?xml version="1.0" encoding="utf-8"?>
<!-- Generator: Adobe Illustrator 23.0.3, SVG Export Plug-In . SVG Version: 6.00 Build 0)  -->
<svg version="1.1" id="Layer_1" xmlns="http://www.w3.org/2000/svg" xmlns:xlink="http://www.w3.org/1999/xlink" x="0px" y="0px"
	 viewBox="0 0 1080 1080" style="enable-background:new 0 0 1080 1080;" xml:space="preserve">
<style type="text/css">
	.st0{fill:#FFFFFF;}
	.st1{fill:#4A4A49;}
	.st2{fill:#EFCAA6;}
	.st3{clip-path:url(#SVGID_2_);}
	.st4{fill:#D2948B;}
	.st5{fill:#EB7171;}
	.st6{fill:#E2BD9F;}
	.st7{fill:#010001;}
</style>
<g>
	<path class="st0" d="M923,256H753c-6.6,0-12,5.4-12,12v209c0,6.6,5.4,12,12,12h170c6.6,0,12-5.4,12-12V268
		C935,261.4,929.6,256,923,256z"/>
</g>
<g>
	<g>
		<path class="st0" d="M921,243H754c-6.6,0-12,5.4-12,12v221c0,6.6,5.4,12,12,12h167c6.6,0,12-5.4,12-12V255
			C933,248.4,927.6,243,921,243z"/>
	</g>
	<g>
		<path class="st1" d="M914.88,463.05l-162.18-0.81c-0.74,0-1.13-0.89-0.63-1.44l9.78-10.77c1-1.11,2.43-1.74,3.92-1.74H903.6
			c1.63,0,3.17,0.73,4.21,1.98l8.34,10.05C917.04,461.42,916.27,463.06,914.88,463.05z"/>
	</g>
	<g>
		<path class="st2" d="M850.64,374.35c0,0,12.19,2.79,16.44,0c1.13-0.8-2.49-11.04-3.63-13.09c-1.13-2.05-1.7-13.55-1.7-17.08
			c0-3.53-3.06-18.33-2.27-20.72c0.79-2.39,3.06-2.05,3.17-4.67c0.11-2.62,0.23-4.55-0.23-4.55s-1.25,2.16-1.25,2.16
			s0.91-6.26,0.34-6.83c-0.57-0.57-3.63-0.46-4.53,0.91c-0.91,1.37-2.04,9.11-2.21,9.56c-0.17,0.46,0.06,2.16,0.51,3.53
			c0.45,1.37,0.11,11.39,0.11,11.39s-1.25,13.09-0.62,14.92s0.51,14.12,1.87,16.85c1.36,2.73-6.91,6.6-6.91,6.6L850.64,374.35z"/>
	</g>
	<g>
		<path class="st2" d="M843.41,399.18c1.33-0.46,6.32-0.1,6.32-0.1l-4.51-24.85c0,0-6.86,5.01-9.68,5.35
			c-1.12,0.14-2.58,0.07-4.44,0.13c1.8,4.72,6.34,15.87,10.86,21.17C842.35,400.09,842.85,399.37,843.41,399.18z"/>
	</g>
	<g>
		<path class="st2" d="M871.83,389.15c0,0,2.49,5.01,2.61,7.74c0.11,2.73-0.34,6.15-0.57,9.91c-0.23,3.76-1.46,13.78-0.73,14.35
			c0.73,0.57,1.97,2.16,2.2,5.01c0.23,2.85-0.45,10.93,0.68,12.75c1.13,1.82,2.83,6.38,4.42,8.2c1.59,1.82-1.02,1.37-1.02,1.37
			s0.23,5.47-0.23,6.6c-0.45,1.14-1.98,2.16-2.8,1.94c-0.82-0.23-3.16-1.37-3.58-7.06c-0.42-5.69,0.6-8.31-0.98-12.18
			c-1.59-3.87-4.65-11.39-4.65-16.28c0-4.9-1.13-16.96-1.02-19.13s-5.67-4.67-5.67-4.67l6.8-6.95L871.83,389.15z"/>
	</g>
	<g>
		<defs>
			<path id="SVGID_1_" d="M883.68,366.27c0,0,3.06,0.28,6.63,2.79c3.57,2.51,4.76,12.07,1.53,14.12c-0.34,1.2,2.58,1.95,1.89,4.39
				c-0.7,2.44-3.29,4.49-4.97,3.81s-1.51-3.86-2.19-3.81c-0.68,0.05-5.44,1.08-7.48,0.73c-2.04-0.34-1.53-2.61-3.4-2.67
				c-1.87-0.06-1.87-0.06-1.87-0.06l10.01-16.51L883.68,366.27z"/>
		</defs>
		<use xlink:href="#SVGID_1_"  style="overflow:visible;fill:#5B453B;"/>
		<clipPath id="SVGID_2_">
			<use xlink:href="#SVGID_1_"  style="overflow:visible;"/>
		</clipPath>
		<g class="st3">
			<g>
				<g>
					<path class="st4" d="M886,389.64c-0.1-0.47-0.04-0.9,0.08-1.31c0.06-0.2,0.14-0.4,0.24-0.58c0.09-0.19,0.22-0.36,0.37-0.51
						c0.31-0.29,0.74-0.48,1.03-0.76c0.3-0.28,0.52-0.61,0.73-0.99c0.11-0.19,0.21-0.38,0.34-0.55c0.13-0.17,0.28-0.32,0.43-0.47
						c0.3-0.29,0.63-0.58,1-0.77c0.38-0.19,0.78-0.33,1.2-0.4c0.42-0.07,0.86-0.08,1.31,0.02l0.04,0.14
						c-0.6,0.67-1.19,1.13-1.79,1.55c-0.3,0.2-0.64,0.36-0.97,0.54c-0.16,0.09-0.32,0.19-0.5,0.27c-0.17,0.08-0.36,0.16-0.54,0.24
						c-0.37,0.16-0.7,0.39-0.91,0.72c-0.22,0.32-0.27,0.77-0.4,1.13c-0.07,0.18-0.16,0.34-0.27,0.49c-0.1,0.15-0.22,0.3-0.34,0.45
						c-0.25,0.29-0.52,0.58-0.92,0.84L886,389.64z"/>
				</g>
			</g>
		</g>
	</g>
	<g>
		<path class="st2" d="M885.32,369.68c0,0-0.62-2.16-1.81-2.45c-1.19-0.28-3.4,1.14-4.08,0.97c-0.68-0.17-4.08-0.46-4.25-0.17
			c-0.17,0.28,0.28,1.59-0.23,1.65c-0.33,0.04-0.84,0.03-1.16,0.01c-0.19-0.01-0.37,0.1-0.46,0.27l-0.36,0.69c0,0-1.08-0.46-1.25,0
			c-0.17,0.46,0.06,0.8-0.4,0.91c-0.45,0.11-1.3,0.4-1.25,0.91c0.06,0.51,0.96,5.52,0.57,5.69c-0.4,0.17-4.59-3.53-5.72-2.79
			s-7.59,2.05-7.88,3.07c-0.28,1.02-2.27,6.89-2.27,6.89s0.23,9.91,5.1,9.56c4.87-0.34,13.6-1.65,13.43-1.82
			c-0.15-0.15-1.84-4.17,0.51-7.51c1.71-2.43,4.41-2.88,4.93-2.96c0.41,0.16,1.31,0.44,2.38,0.17c0.41-0.1,1.14-0.29,1.64-0.97
			c0.43-0.58,0.72-1.57,0.28-2.22c-0.23-0.33-0.57-0.47-0.86-0.59c-0.66-0.27-1.27-0.2-1.57-0.15c-0.08,0.05-0.55,0.34-0.79,0.17
			c-0.12-0.08-0.14-0.24-0.17-0.74c-0.02-0.36-0.04-0.69-0.06-0.97c0.75-0.14,1.78-0.46,2.78-1.2
			C885.27,373.98,885.32,370.21,885.32,369.68z"/>
	</g>
	<g>
		<path class="st5" d="M867.29,373.61c0.52,0.95,1.95,2.22,1.5,3.43c-0.56,1.5-2.11,1.49-3.39,3.19c-0.83,1.1-1.77,3.21-1.08,4.76
			c1.33,3.01,8.5,3.22,8.5,3.22v1.98c-2.07,0.8-3.74,1.58-4.94,2.18c-1.79,0.89-2.69,1.35-3.15,1.9c-1.43,1.7-1.53,4.16-2.54,4.24
			c0,0-0.06,0-1-0.03l0,0l-13.15,0.68c0,0-1.59,0.57-2.61-7.29s-2.72-15.14-1.7-16.62c1.02-1.48,8.16-3.19,8.16-3.19
			s0.04,0.77,0.62,1.52c1.12,1.45,3.4,1.36,5.6,1.21C860.64,374.63,863.15,374.34,867.29,373.61z"/>
	</g>
	<g>
		<g>
			<path class="st2" d="M797.98,420.92c-0.63-1.13-1.23-3.21-1.72-5.28c-3.26,3.68-10.88,14.72-13.58,20.31
				c-3.06,6.32-7.99,13.66-9.86,14.86c-1.87,1.2-5.27,3.93-3.91,4.61s5.27,1.2,6.8,0.68c1.53-0.51,1.7-2.39,3.06-2.56
				c1.36-0.17,0.85-2.9,1.87-4.27c1.02-1.37,14.28-15.2,15.3-16.74c0.91-1.37,2.63-4.02,6.36-7.94
				C800.88,423.84,798.91,422.57,797.98,420.92z"/>
		</g>
		<g>
			<path class="st6" d="M884.53,449.78c-0.85-0.51-22.27-18.44-22.27-18.44s-2.21-1.54-2.55-2.9c-0.06-0.26-0.76-1.28-1.85-2.78
				c-0.43,1.42-1.03,3.02-1.73,3.63c-0.74,0.65-3.26,1.82-5.4,2.74c1.27,1.16,2.16,2.04,2.33,2.39c0.68,1.37,2.71,5.98,5.44,7.34
				c2.73,1.37,16.5,9.73,16.5,9.73s0.06,4.55,1.39,5.52c1.33,0.97,8.64-0.63,11.36,0c2.72,0.63,8.67,0.19,9.35,0.32
				C897.79,457.47,885.38,450.29,884.53,449.78z"/>
		</g>
		<g>
			<path class="st7" d="M857.86,425.65c-4.66-6.43-16.55-21.57-16.69-21.98c-0.1-0.3,0.23-1.63,0.78-2.78
				c-4.52-5.31-9.06-16.46-10.86-21.17c-2.81,0.08-6.55,0.44-11.52,2.15c-8.27,2.85-20.06,31.03-22.27,32.73
				c-0.26,0.2-0.61,0.56-1.04,1.04c0.49,2.06,1.09,4.15,1.72,5.28c0.92,1.65,2.9,2.92,4.32,3.68c0.46-0.48,0.94-0.98,1.46-1.5
				c4.76-4.74,17.85-20.28,17.85-20.28s15.81,18.1,17.17,19.13c1.02,0.77,8.15,6.62,11.95,10.08c2.13-0.92,4.65-2.08,5.4-2.74
				C856.83,428.68,857.43,427.07,857.86,425.65z"/>
		</g>
	</g>
</g>
</svg>
