<?xml version="1.0" encoding="utf-8"?>
<!-- Generator: Adobe Illustrator 23.0.3, SVG Export Plug-In . SVG Version: 6.00 Build 0)  -->
<svg version="1.1" id="Layer_1" xmlns="http://www.w3.org/2000/svg" xmlns:xlink="http://www.w3.org/1999/xlink" x="0px" y="0px"
	 viewBox="0 0 1080 1080" style="enable-background:new 0 0 1080 1080;" xml:space="preserve">
<style type="text/css">
	.st0{fill:#FFFFFF;}
	.st1{fill:#4A4A49;}
	.st2{fill:#E3AD83;}
	.st3{fill:#2A1104;}
	.st4{fill:#391F15;}
	.st5{fill:#482A21;}
	.st6{fill:#010001;}
	.st7{fill-rule:evenodd;clip-rule:evenodd;fill:#FFFFFF;}
	.st8{fill:#D3D4D6;}
	.st9{fill-rule:evenodd;clip-rule:evenodd;fill:#000007;}
	.st10{fill-rule:evenodd;clip-rule:evenodd;fill:#060007;}
	.st11{fill-rule:evenodd;clip-rule:evenodd;fill:#D3D4D6;}
	.st12{fill-rule:evenodd;clip-rule:evenodd;fill:#362F37;}
	.st13{fill:#060007;}
	.st14{fill-rule:evenodd;clip-rule:evenodd;}
	.st15{fill-rule:evenodd;clip-rule:evenodd;fill:#231F20;}
	.st16{fill-rule:evenodd;clip-rule:evenodd;fill:#BBBDBF;}
	.st17{fill-rule:evenodd;clip-rule:evenodd;fill:#D0D2D3;}
	.st18{fill:#717275;}
	.st19{fill:#362F37;}
	.st20{fill:#AAACAF;}
	.st21{fill:#251F27;}
	.st22{fill:#EB7171;}
	.st23{opacity:0.33;}
</style>
<g>
	<path class="st0" d="M908,259H738c-6.6,0-12,5.4-12,12v209c0,6.6,5.4,12,12,12h170c6.6,0,12-5.4,12-12V271
		C920,264.4,914.6,259,908,259z"/>
</g>
<g>
	<g>
		<path class="st0" d="M915,262H745c-6.6,0-12,5.4-12,12v209c0,6.6,5.4,12,12,12h170c6.6,0,12-5.4,12-12V274
			C927,267.4,921.6,262,915,262z"/>
	</g>
	<g>
		<path class="st1" d="M898.75,471.12l-152.41-0.59c-0.7,0-1.06-0.65-0.59-1.05l9.19-7.84c0.94-0.81,2.28-1.26,3.68-1.26h129.53
			c1.53,0,2.98,0.53,3.96,1.44l7.83,7.32C900.79,469.93,900.07,471.12,898.75,471.12z"/>
	</g>
	<g>
		<g>
			<g>
				<g>
					<path class="st2" d="M874.79,397.36c0.31,0.35,0.51,0.9,0.68,1.32c1.03,2.52-0.17,9.31-2.29,14.92
						c-1.82,4.8,0.02,10.62,0.02,10.62l-5.6,0.56c0,0,0.19-5.16-0.18-13.11c-0.34-7.51,0.68-12.11,1.32-15.82
						C869.42,394.54,874.17,396.41,874.79,397.36z"/>
				</g>
				<g>
					<path class="st2" d="M875.47,398.68c-0.23,1.6-6.77,1.46-6.98-1.19c0.37-6.66-8.77-31.01,0.38-32.24c0,0,7.48-2.62,7.68,4.5
						c0.05,1.77-1.14,10.77-0.84,15.79C875.87,388.27,875.41,396.73,875.47,398.68z"/>
				</g>
				<g>
					<path class="st2" d="M872.42,419.81c0,0,0.22,2.76,0.96,4.15c0.59,1.12,0.47,1.67,0.99,3.69c0.56,2.2,0.85,2.28,1.3,2.95
						c0.45,0.67-0.97,1.74-2.18-0.12c-1.22-1.86-1.21-2.31-1.21-2.31s0.06,3.05,0.07,4.67c0.01,1.61,0.25,2.97-0.81,2.87
						c-0.54-0.05-0.92-0.61-1.06-2.76c-0.14-2.15-0.34-4.58-0.34-4.58s0.31,8.19-0.95,8.2c-0.81,0.01-1.16-0.61-1.12-3.17
						c0.03-2.56,0.23-5.01,0.23-5.01s-0.97,6.82-1.05,7.37c-0.1,0.69-1.82,1.1-1.42-1.55c0.4-2.65,0.91-6.1,0.91-6.1
						s-1.21,5.94-2.24,5.92c-1.32-0.03-0.11-3.05,0.71-6.44c0.82-3.39,1.2-3.26,1.83-4.11c0.62-0.85,0.6-3.83,0.6-3.83
						L872.42,419.81z"/>
				</g>
			</g>
			<g>
				<g>
					<path class="st2" d="M877.23,319.36c0.33-0.34,0.57-0.89,0.77-1.29c1.19-2.48,0.44-9.3-1.32-14.98
						c-1.51-4.86,0.71-10.61,0.71-10.61l-5.55-0.76c0,0-0.15,5.16-1.03,13.09c-0.83,7.49-0.1,12.11,0.29,15.85
						C871.69,321.99,876.55,320.29,877.23,319.36z"/>
				</g>
				<g>
					<path class="st2" d="M878,318.07c-0.12-1.6-6.66-1.7-7.05,0.94c-0.07,6.66-10.78,30.66-1.72,32.22c0,0,7.29,2.88,7.96-4.22
						c0.17-1.77-0.44-10.8,0.18-15.8C877.73,328.48,877.81,320.01,878,318.07z"/>
				</g>
				<g>
					<path class="st2" d="M876.33,296.86c0,0,0.4-2.75,1.23-4.11c0.66-1.1,0.58-1.65,1.23-3.66c0.7-2.18,1-2.25,1.49-2.9
						c0.49-0.65-0.85-1.77-2.19,0.03c-1.34,1.81-1.35,2.27-1.35,2.27s0.26-3.05,0.37-4.66c0.11-1.61,0.44-2.96-0.62-2.89
						c-0.54,0.04-0.95,0.57-1.24,2.72c-0.28,2.15-0.64,4.56-0.64,4.56s0.84-8.17-0.42-8.22c-0.8-0.03-1.19,0.57-1.32,3.13
						c-0.13,2.56-0.09,5.01-0.09,5.01s-0.53-6.85-0.57-7.39c-0.05-0.69-1.74-1.16-1.51,1.5c0.23,2.66,0.51,6.13,0.51,6.13
						s-0.82-5.98-1.85-5.99c-1.31-0.02-0.32,3.05,0.28,6.46c0.6,3.41,0.99,3.3,1.56,4.17c0.57,0.87,0.36,3.85,0.36,3.85
						L876.33,296.86z"/>
				</g>
			</g>
			<g>
				<g>
					<path class="st3" d="M894.14,358.63c0,0-4.06,6.98-0.89,10.46c3.14,3.44,6.52,5.36,5.56,8.11c-0.96,2.75-2.43,5.99-1.18,8.26
						c1.26,2.28,2.58,2.88,0.36,5.47c-2.23,2.59-1.96,5.27-0.87,7.68c1.1,2.41,1.59,5.01-0.18,7.16c0,0,3.85-1.8,3.13-4.62
						c-0.72-2.83-0.81-5.84,0.82-7.93c1.62-2.08,2.88-3.6,1.68-6.54c-1.2-2.94,0.29-4.77,1.81-7.96c1.51-3.19,3.64-5.71,1.97-8.34
						c-1.68-2.63-2.26-4.92-2.37-6.6c-0.16-2.54,1.85-7.2-6.81-6.55C892.51,357.58,897,357.7,894.14,358.63z"/>
				</g>
				<g>
					<path class="st3" d="M889.69,358.5c0,0-4.06,6.98-0.89,10.45c3.14,3.44,6.52,5.36,5.56,8.11c-0.96,2.75-2.43,5.99-1.18,8.26
						c1.25,2.27,2.58,2.88,0.36,5.47c-2.23,2.59-1.96,5.27-0.86,7.67c1.1,2.41,1.58,5.01-0.18,7.17c0,0,3.85-1.8,3.13-4.62
						c-0.71-2.82-0.8-5.84,0.82-7.93c1.62-2.09,2.88-3.6,1.68-6.54c-1.2-2.94,0.3-4.77,1.81-7.96c1.51-3.18,3.64-5.71,1.97-8.34
						c-1.68-2.63-2.26-4.92-2.37-6.6c-0.16-2.54,1.85-7.2-6.8-6.55C888.05,357.44,892.55,357.57,889.69,358.5z"/>
				</g>
				<g>
					<path class="st3" d="M900.78,360.22c0,0,1.74,5.76-1.8,9.04c-3.5,3.24-7.07,4.96-6.4,7.76c0.67,2.8,1.79,6.11,0.3,8.3
						c-1.5,2.19-2.88,2.72-0.94,5.44c1.94,2.71,1.39,5.36,0.05,7.7c-1.35,2.33-2.12,4.9-0.59,7.15c0,0-3.64-2.02-2.63-4.79
						c1.01-2.77,1.43-5.78,0.03-7.95c-1.4-2.17-2.49-3.76-0.98-6.62c1.51-2.86,0.22-4.77-0.95-8.04c-1.17-3.27-3.02-5.91-1.08-8.43
						c1.95-2.53,2.78-4.77,3.07-6.44c0.44-2.52-1.08-7.29,7.48-6.13C900.96,357.82,898.03,359.12,900.78,360.22z"/>
				</g>
				<g>
					<path class="st4" d="M891.14,369.93c1.29-3.43-5.79-6.59-0.72-13.33c2.41-3.2,7.39-3.91,8.26,4.47
						c0.76,7.3-5.82,14.35-3.64,25.49c0.68,3.45,1.9,8.98,0.53,11.74c-1.37,2.76-2.16,5.79-0.65,8.43c0,0-5.97-2.2-4.55-5.39
						c5.3-11.91-1.05-5.41-0.25-14.76c0.29-3.39-2.24-5.47-2.49-7.68C887.06,373.71,891.26,373.69,891.14,369.93z"/>
				</g>
				<g>
					<path class="st5" d="M902.52,370.26c-0.93-3.5,4.08-6.05-0.25-13.07c-2.06-3.33-11.9-5.64-13.67,2.66
						c-1.54,7.24,14.64,15.83,6.18,27.94c-2.17,3.1-0.77,7.65,0.3,10.48c1.08,2.83,1.54,5.89-0.24,8.44c0,0,6.18-1.85,5.1-5.11
						c-4.02-12.18,1.62-5.33,1.81-14.7c0.07-3.4,2.81-5.32,3.3-7.51C906.18,374.27,902,374,902.52,370.26z"/>
				</g>
			</g>
			<g>
				<path class="st2" d="M846.45,368.85c4.5-1.75,9.6-2.6,12.57-2.13c6.53,1.03,13.08,2.65,15.65,1.71
					c2.57-0.95,1.44-7.29,1.59-9.98c0.29-5.15,1.17-9.3-1.02-10.92c-2.75-2.04-6.08-2.77-13.99-2.08
					c-5.5,0.48-31.87,6.57-35.91,8.72c-3.47,1.03-7.92,1.72-13.57,6.09c-2.13,1.65-0.49,4.11-0.2,14.69
					c0.16,2.22,6.51,2.06,7.91,6.57c0,0,0.62,0.13,0.95,0.06c0.32,0.11,0.95,0.07,0.95,0.07c1.69-1.95,8.94,3.51,9.55,1.51
					c1.78-3.68,8.84-4.82,11.74-9.98C843.38,370.9,845.31,369.32,846.45,368.85z"/>
			</g>
			<g>
				<path class="st5" d="M909.97,353.34c0,0-4.82-3.11-11.11-4.21c-5.56-0.97-7.3-1.4-12.72-0.14c-5,1.17,1.56-2.6,5.6-3.54
					c4.04-0.94,11.67-0.29,13.75-0.24c7.09,0.18,9.88,3.25,8.67,6.15C912.91,354.36,914.25,353.82,909.97,353.34z"/>
			</g>
			<g>
				<path class="st2" d="M883.26,353.53c0,0-5.59,1.39-8.36-0.24c-2.78-1.63-2.27,8.77-0.8,8.23c1.92-0.71,6.2-0.72,8.74,0
					C882.84,361.52,882.9,357.18,883.26,353.53z"/>
			</g>
			<g>
				<g>
					<path class="st2" d="M781.04,417.97c-0.7,0.26-1.42,0.8-1.98,1.2c-3.42,2.43-8.76,11.31-11.37,17.62
						c-2.61,6.31-8.63,14.9-8.63,14.9l6.77,2.8c0,0,5.49-10.12,11.7-17.51c7.53-8.97,8.27-11.29,10.5-15.96
						C788.23,419.15,782.63,417.16,781.04,417.97z"/>
				</g>
				<g>
					<path class="st2" d="M779.45,418.9c-1.02,1.98,6.15,5.06,8.6,2.07c4.18-6.37,21.02-26.76,24.7-33.37c0,0-6.99-15.09-14.42-7.45
						c-4.98,5.13-11.05,20.09-14.69,26.84C781.98,410.07,780,416.3,779.45,418.9z"/>
				</g>
			</g>
			<g>
				<path class="st6" d="M828.09,389.03l1.94-20.93l-18.49-6.88c-14.22,5.88-24.72,39.86-27.9,45.77
					c-1.66,3.08-3.31,9.03-4.98,11.68c-1.67,2.65-7.42,8.41-10.96,18.12c-1.17,3.2-3.48,6.92-5.32,9.86l6.64,2.42
					c2.18-3.53,5.25-8.19,8.53-12.1c7.53-8.97,8.27-11.29,10.5-15.96c0-0.01,0-0.02,0-0.03c0-0.01,0.01-0.01,0.01-0.02
					c3.87-5.9,28.3-29.5,33.38-37.36C826.82,382.33,828.06,389.02,828.09,389.03z"/>
			</g>
			<g>
				<path class="st7" d="M758.91,452.47l0.93-2.24l7.86,1.15l-0.63,2.29C767.07,453.67,759.55,454.6,758.91,452.47z"/>
			</g>
			<g>
				<g>
					<path class="st8" d="M769.63,458.77c0,0,0.44,2.17,0.06,3.26c-0.37,1.08-1.33,3.13-7.25,2.94l-0.09-0.96
						C762.35,464,769.66,458.93,769.63,458.77z"/>
				</g>
				<g>
					<path class="st8" d="M755.72,458.77c0,0-0.43,2.17-0.06,3.26c0.37,1.08,1.33,3.13,7.25,2.94l0.09-0.96
						C763.01,464,755.7,458.93,755.72,458.77z"/>
				</g>
				<g>
					<path class="st9" d="M767.05,452.59c0,0-4.12-0.95-8.47-0.03c0,0,0.64,1.96,1.3,2.37c0.66,0.41,4.85,0.76,4.97,0.73
						C764.97,455.62,767.05,452.59,767.05,452.59z"/>
				</g>
				<g>
					<path class="st10" d="M757.44,453.64c-0.06-3.75,2.03-0.81,2.2-0.48c0.29,0.57,5.77,0.57,6.06,0c0.16-0.33,1.96-3.61,2.32,0.61
						c0,0,1.88,5.67,1.49,7.44c-0.9,2.62-1.49,2.93-6.84,2.93c-5.35,0-6.37-0.47-6.84-2.93
						C755.44,459.45,757.44,453.64,757.44,453.64z"/>
				</g>
				<g>
					<path class="st11" d="M760.54,464.08c0,0.39,0.75,0.4,1.69,0.4c0.93,0,1.68-0.01,1.68-0.4c0-0.39-0.75-0.7-1.68-0.7
						C761.3,463.37,760.54,463.69,760.54,464.08z"/>
				</g>
				<g>
					<g>
						<path class="st12" d="M755.83,461.22c-0.12-0.53-0.02-1.42,0.17-2.41c0.31-0.12,0.64-0.23,0.92-0.32
							c1.7-0.52,4.77-2.03,3.61,0.47c0,0-4.19,1.67-2.84,4.75C756.5,463.3,756.09,462.55,755.83,461.22z"/>
					</g>
					<g>
						<path class="st12" d="M769.31,458.54c-1.25-1.98-3.96-2.41-3.96-2.41l0.07-0.85c1.48,0.14,2.67,0.93,3.48,1.69
							c-1.09-1.93-3.44-2.21-3.44-2.21l0.07-0.99c1.32,0.35,2.31,0.97,2.97,1.5C768.75,456.2,769.08,457.41,769.31,458.54
							L769.31,458.54z"/>
					</g>
					<g>
						<path class="st12" d="M759.89,454.77c0,0-2.35,0.28-3.44,2.21c0.81-0.75,1.99-1.55,3.48-1.69l0.07,0.85
							c0,0-2.66,0.41-3.92,2.35c0.24-1.13,0.58-2.34,0.87-3.27c0.65-0.52,1.62-1.1,2.88-1.43L759.89,454.77z"/>
					</g>
					<g>
						<path class="st12" d="M764.79,458.96c-1.75-2.83,1.91-1,3.61-0.47c0.3,0.09,0.63,0.2,0.95,0.33c0.18,0.98,0.27,1.87,0.15,2.4
							c-0.47,1.36-0.85,2.1-1.87,2.49C769.56,460.49,764.79,458.96,764.79,458.96z"/>
					</g>
				</g>
				<g>
					<path class="st13" d="M765.22,452.82c0,0-0.71,6.78-1.77,7.55c-1.06,0.77-1.94-0.09-2.61-2.59c-0.67-2.5-1.26-5.06-1.26-5.06
						s-0.37-0.9,1.5-1.23C763.11,451.13,765.9,451.66,765.22,452.82z"/>
				</g>
				<g>
					<path class="st14" d="M763.86,453.48c0,0,0.23-0.42,1.65-0.3c0,0-0.06,4.21-0.72,5.78c-0.66,1.58-1,2.34-2.71,2.2
						c-1.71-0.14-2.13-2.29-2.59-4.04c-0.46-1.75-0.51-3.86-0.51-3.86s1.16-0.27,1.84,0.22c0,0,0.29,7.1,1.53,7.26
						C763.59,460.9,764.13,455.09,763.86,453.48z"/>
				</g>
				<g>
					<g>
						<g>
							<path class="st7" d="M760.89,454.43c-0.25,0.06-0.57,0.03-0.71-0.08c-0.15-0.11-0.06-0.24,0.19-0.3
								c0.25-0.06,0.57-0.03,0.71,0.08C761.22,454.23,761.14,454.37,760.89,454.43z"/>
						</g>
						<g>
							<path class="st15" d="M760.83,454.38c-0.2,0.05-0.45,0.02-0.57-0.06c-0.11-0.08-0.05-0.19,0.15-0.24
								c0.2-0.05,0.45-0.02,0.57,0.06C761.1,454.23,761.03,454.34,760.83,454.38z"/>
						</g>
					</g>
					<g>
						<g>
							<path class="st7" d="M761.13,455.98c-0.23,0.08-0.56,0.05-0.73-0.05c-0.17-0.1-0.12-0.24,0.11-0.31
								c0.23-0.07,0.56-0.05,0.73,0.05C761.41,455.76,761.36,455.9,761.13,455.98z"/>
						</g>
						<g>
							<path class="st15" d="M761.06,455.94c-0.18,0.06-0.44,0.04-0.58-0.04c-0.14-0.08-0.1-0.19,0.09-0.25
								c0.18-0.06,0.44-0.04,0.58,0.04C761.28,455.77,761.25,455.88,761.06,455.94z"/>
						</g>
					</g>
					<g>
						<g>
							<path class="st7" d="M761.55,457.47c-0.21,0.09-0.54,0.08-0.74-0.01c-0.2-0.09-0.19-0.23,0.02-0.32
								c0.21-0.08,0.54-0.08,0.74,0.01C761.77,457.24,761.76,457.38,761.55,457.47z"/>
						</g>
						<g>
							<path class="st15" d="M761.48,457.43c-0.17,0.07-0.43,0.06-0.59-0.01c-0.16-0.07-0.15-0.18,0.02-0.25
								c0.17-0.07,0.43-0.06,0.58,0.01C761.65,457.26,761.65,457.37,761.48,457.43z"/>
						</g>
					</g>
					<g>
						<g>
							<path class="st7" d="M761.73,458.97c-0.18,0.1-0.5,0.12-0.73,0.04c-0.23-0.08-0.28-0.21-0.11-0.31
								c0.17-0.1,0.5-0.12,0.73-0.05C761.86,458.73,761.9,458.87,761.73,458.97z"/>
						</g>
						<g>
							<path class="st15" d="M761.64,458.94c-0.14,0.08-0.4,0.1-0.58,0.03c-0.18-0.06-0.22-0.17-0.08-0.24
								c0.14-0.08,0.4-0.1,0.58-0.04C761.75,458.75,761.78,458.86,761.64,458.94z"/>
						</g>
					</g>
					<g>
						<g>
							<path class="st7" d="M760.91,455.14c-0.25,0.06-0.57,0.03-0.71-0.08c-0.15-0.11-0.06-0.24,0.19-0.31
								c0.25-0.06,0.57-0.03,0.71,0.08C761.25,454.94,761.16,455.08,760.91,455.14z"/>
						</g>
						<g>
							<path class="st15" d="M760.86,455.1c-0.2,0.05-0.45,0.02-0.57-0.06c-0.11-0.08-0.05-0.19,0.15-0.24
								c0.2-0.05,0.45-0.02,0.57,0.07C761.12,454.94,761.06,455.05,760.86,455.1z"/>
						</g>
					</g>
					<g>
						<g>
							<path class="st7" d="M761.24,456.7c-0.23,0.07-0.56,0.05-0.73-0.05c-0.17-0.1-0.12-0.24,0.11-0.32
								c0.23-0.07,0.55-0.05,0.73,0.05C761.52,456.48,761.48,456.63,761.24,456.7z"/>
						</g>
						<g>
							<path class="st15" d="M761.18,456.66c-0.18,0.06-0.44,0.04-0.58-0.04c-0.14-0.08-0.1-0.19,0.09-0.25
								c0.19-0.06,0.44-0.04,0.58,0.04C761.4,456.49,761.36,456.6,761.18,456.66z"/>
						</g>
					</g>
					<g>
						<g>
							<path class="st7" d="M761.62,458.19c-0.21,0.08-0.54,0.08-0.74-0.01c-0.2-0.09-0.19-0.23,0.02-0.32
								c0.21-0.08,0.54-0.08,0.74,0.01C761.84,457.96,761.83,458.11,761.62,458.19z"/>
						</g>
						<g>
							<path class="st15" d="M761.55,458.16c-0.17,0.07-0.43,0.07-0.59-0.01c-0.16-0.07-0.15-0.18,0.02-0.25
								c0.17-0.07,0.43-0.06,0.59,0.01C761.72,457.98,761.71,458.09,761.55,458.16z"/>
						</g>
					</g>
					<g>
						<g>
							<path class="st7" d="M762.09,459.68c-0.18,0.1-0.5,0.12-0.73,0.04c-0.23-0.07-0.28-0.21-0.11-0.32
								c0.17-0.1,0.5-0.12,0.73-0.04C762.21,459.44,762.26,459.58,762.09,459.68z"/>
						</g>
						<g>
							<path class="st15" d="M762,459.65c-0.14,0.08-0.39,0.09-0.58,0.03c-0.18-0.06-0.22-0.17-0.09-0.25
								c0.14-0.08,0.4-0.09,0.58-0.03C762.1,459.46,762.14,459.57,762,459.65z"/>
						</g>
					</g>
					<g>
						<g>
							<path class="st7" d="M764.23,454.43c0.25,0.06,0.57,0.03,0.71-0.08c0.15-0.11,0.06-0.24-0.19-0.3
								c-0.25-0.06-0.57-0.03-0.71,0.08C763.9,454.23,763.99,454.37,764.23,454.43z"/>
						</g>
						<g>
							<path class="st15" d="M764.29,454.38c0.2,0.05,0.45,0.02,0.56-0.06c0.12-0.08,0.05-0.19-0.15-0.24
								c-0.2-0.05-0.45-0.02-0.57,0.06C764.03,454.23,764.09,454.34,764.29,454.38z"/>
						</g>
					</g>
					<g>
						<path class="st16" d="M760.6,454.94c0.12-0.09,0.11-0.15,0.82-0.02c1.44,0.24,2.19-0.4,2.72-0.78c0,0,0.87-0.04,0.6,0.29
							c0,0-1.17,0.91-2.24,0.86c0,0-0.01,0-0.02-0.01c-0.2,0.02-0.46,0.01-0.8-0.01C760.5,455.16,760.5,455.02,760.6,454.94z"/>
					</g>
					<g>
						<g>
							<path class="st7" d="M763.99,455.98c0.23,0.08,0.56,0.05,0.73-0.05c0.17-0.1,0.12-0.24-0.11-0.31
								c-0.23-0.07-0.56-0.05-0.73,0.05C763.71,455.76,763.76,455.9,763.99,455.98z"/>
						</g>
						<g>
							<path class="st15" d="M764.05,455.94c0.19,0.06,0.45,0.04,0.58-0.04c0.14-0.08,0.09-0.19-0.09-0.25
								c-0.19-0.06-0.44-0.04-0.58,0.04C763.84,455.77,763.88,455.88,764.05,455.94z"/>
						</g>
					</g>
					<g>
						<path class="st16" d="M760.89,456.52c0.09-0.1,0.07-0.18,0.81-0.06c0.13,0.02,0.27,0.03,0.4,0.04
							c1.07-0.14,1.04-0.33,1.87-0.8c0,0,0.88,0,0.52,0.31c0,0-0.48,0.29-1.08,0.51c-0.08,0.16-0.4,0.31-1.38,0.27
							C760.84,456.74,760.8,456.6,760.89,456.52z"/>
					</g>
					<g>
						<g>
							<path class="st7" d="M763.57,457.47c0.21,0.09,0.54,0.08,0.74-0.01c0.2-0.09,0.19-0.23-0.02-0.32
								c-0.21-0.08-0.54-0.08-0.74,0.01C763.35,457.24,763.36,457.38,763.57,457.47z"/>
						</g>
						<g>
							<path class="st15" d="M763.65,457.43c0.16,0.07,0.43,0.06,0.58-0.01c0.16-0.07,0.15-0.18-0.02-0.25
								c-0.16-0.07-0.43-0.06-0.59,0.01C763.47,457.26,763.48,457.37,763.65,457.43z"/>
						</g>
					</g>
					<g>
						<path class="st16" d="M761.21,458.03c0.04-0.06,0.04-0.11,0.18-0.13c0.03-0.02,0.08-0.03,0.15-0.03
							c1.17-0.09,1.1-0.26,2.08-0.69c0,0,0.87,0.04,0.44,0.33c0,0-0.2,0.1-0.5,0.21C761.84,458.45,761.16,458.12,761.21,458.03z"/>
					</g>
					<g>
						<g>
							<path class="st7" d="M763.39,458.97c0.17,0.1,0.5,0.12,0.73,0.04c0.23-0.08,0.28-0.21,0.1-0.31c-0.17-0.1-0.5-0.12-0.73-0.05
								C763.27,458.73,763.22,458.87,763.39,458.97z"/>
						</g>
						<g>
							<path class="st15" d="M763.48,458.94c0.14,0.08,0.39,0.1,0.58,0.03c0.18-0.06,0.22-0.17,0.08-0.24
								c-0.14-0.08-0.4-0.1-0.57-0.04C763.38,458.75,763.34,458.86,763.48,458.94z"/>
						</g>
					</g>
					<g>
						<path class="st16" d="M761.47,459.61c0.08,0.02,0.17,0.04,0.27,0.04c0.95-0.03,2.11-0.6,2.11-0.6
							c0.54-0.26-0.29-0.37-0.29-0.37c-1.12,0.39-0.98,0.56-1.96,0.69C761.19,459.43,761.47,459.61,761.47,459.61z"/>
					</g>
					<g>
						<g>
							<path class="st7" d="M764.21,455.14c0.25,0.06,0.57,0.03,0.71-0.08c0.14-0.11,0.06-0.24-0.19-0.31
								c-0.25-0.06-0.57-0.03-0.71,0.08C763.88,454.94,763.96,455.08,764.21,455.14z"/>
						</g>
						<g>
							<path class="st15" d="M764.27,455.1c0.2,0.05,0.45,0.02,0.56-0.06c0.12-0.08,0.05-0.19-0.15-0.24
								c-0.19-0.05-0.45-0.02-0.56,0.07C764,454.94,764.07,455.05,764.27,455.1z"/>
						</g>
					</g>
					<g>
						<path class="st7" d="M760.98,454.14c0.52,0.38,0.62,0.58,1.04,0.74c0.4,0.16,0.82,0.23,1.67,0.04
							c0.71-0.15,0.71-0.07,0.82,0.02c0.1,0.08,0.1,0.18-1.08,0.32c-1.99,0.23-3.06-0.83-3.06-0.83
							C760.11,454.1,760.98,454.14,760.98,454.14z"/>
					</g>
					<g>
						<g>
							<path class="st7" d="M763.88,456.7c0.23,0.07,0.56,0.05,0.73-0.05c0.17-0.1,0.12-0.24-0.11-0.32
								c-0.23-0.07-0.56-0.05-0.73,0.05C763.6,456.48,763.65,456.63,763.88,456.7z"/>
						</g>
						<g>
							<path class="st15" d="M763.95,456.66c0.18,0.06,0.44,0.04,0.57-0.04c0.14-0.08,0.1-0.19-0.08-0.25
								c-0.19-0.06-0.44-0.04-0.58,0.04C763.73,456.49,763.76,456.6,763.95,456.66z"/>
						</g>
					</g>
					<g>
						<g>
							<path class="st0" d="M760.63,456c-0.35-0.31,0.53-0.31,0.53-0.31c0.84,0.47,0.6,0.65,1.8,0.79c0.2,0.02,0.36-0.01,0.47-0.03
								c0.74-0.12,0.72-0.04,0.82,0.06c0.08,0.08,0.04,0.22-1.16,0.26C761.5,456.84,760.63,456,760.63,456z"/>
						</g>
						<g>
							<path class="st0" d="M761.35,456.39c0,0,0,0.01,0,0.03C761.34,456.41,761.34,456.4,761.35,456.39z"/>
						</g>
					</g>
					<g>
						<g>
							<path class="st7" d="M763.5,458.19c0.21,0.08,0.54,0.08,0.74-0.01c0.2-0.09,0.19-0.23-0.02-0.32
								c-0.21-0.08-0.54-0.08-0.74,0.01C763.28,457.96,763.29,458.11,763.5,458.19z"/>
						</g>
						<g>
							<path class="st15" d="M763.58,458.16c0.17,0.07,0.43,0.07,0.59-0.01c0.16-0.07,0.15-0.18-0.02-0.25
								c-0.16-0.07-0.42-0.06-0.58,0.01C763.4,457.98,763.41,458.09,763.58,458.16z"/>
						</g>
					</g>
					<g>
						<path class="st7" d="M761.5,457.18c0.98,0.43,0.91,0.61,2.08,0.69c0.07,0,0.12,0.01,0.15,0.03c0.14,0.02,0.14,0.07,0.18,0.13
							c0.06,0.09-0.46,0.24-2.35-0.3c-0.3-0.11-0.5-0.21-0.5-0.21C760.63,457.23,761.5,457.18,761.5,457.18z"/>
					</g>
					<g>
						<g>
							<path class="st7" d="M763.04,459.68c0.17,0.1,0.5,0.12,0.73,0.04c0.23-0.07,0.28-0.21,0.11-0.32
								c-0.18-0.1-0.5-0.12-0.73-0.04C762.91,459.44,762.87,459.58,763.04,459.68z"/>
						</g>
						<g>
							<path class="st15" d="M763.12,459.65c0.14,0.08,0.4,0.09,0.58,0.03c0.18-0.06,0.22-0.17,0.08-0.25
								c-0.14-0.08-0.4-0.09-0.58-0.03C763.02,459.46,762.99,459.57,763.12,459.65z"/>
						</g>
					</g>
					<g>
						<path class="st7" d="M761.27,459.05c0,0,0.02,0.01,0.07,0.03c2.07,0.79,2.19,0.56,2.16,0.47c0-0.03,0-0.05-0.02-0.08
							c0.1-0.01-0.99-0.24-1.93-0.78C761.56,458.69,760.72,458.8,761.27,459.05z"/>
					</g>
				</g>
				<g>
					<g>
						<path class="st16" d="M762.33,454.01c0,0-5.22-0.17-4.57-2.2c0.66-2.03,3.96,1.11,4.59,1.98l-0.31,0.03
							c0,0-1.94-2.09-3.07-2.15c-1.13-0.06-0.85,0.62-0.49,0.86c0.32,0.21,1.32,0.91,3.04,1.32c0.11,0.03,0.51-0.08,0.62-0.06
							C762.3,453.83,762.17,453.98,762.33,454.01z"/>
					</g>
					<g>
						<path class="st16" d="M762.03,453.54c0,0,1.56-2.37,3.62-2.22c2.05,0.15,2.14,1.31-0.78,2.08c-2.93,0.77-2.93,0.77-2.93,0.77
							l-0.02-0.35c0,0,2.14-0.46,3.11-0.89c0.98-0.43,1.95-0.94,1.06-1.08c-0.9-0.14-1.57-0.15-2.74,0.83
							c-0.56,0.46-0.9,0.98-1.15,1.17c-0.26,0.21-0.41,0.07-0.41,0.07L762.03,453.54z"/>
					</g>
					<g>
						<path class="st17" d="M762.38,454.21c0,0,0.16,0.4,1.03,1.17c0.87,0.78,0.78,2.09,0.7,2.15c-0.08,0.05,0.14,0.27,0.14,0.27
							s0.32,0.01,0.51-0.41c0.19-0.42,0.52-1.25-0.93-2.22c-1.45-0.96-1.63-1.4-1.63-1.4S761.57,453.7,762.38,454.21z"/>
					</g>
					<g>
						<path class="st17" d="M762.23,453.67c0,0-0.55,1.39-0.67,2.19c-0.12,0.8-0.96,1.89-0.87,2.33c0.1,0.44-0.4,0.41-0.4,0.41
							s-0.31-0.21,0.53-1.68c0.84-1.47,0.6-2.04,0.82-2.52C761.86,453.91,761.84,453.73,762.23,453.67z"/>
					</g>
				</g>
			</g>
			<g>
				<g>
					<g>
						<path class="st2" d="M845.38,419.66c-0.16,0.56-0.01,1.32,0.04,1.89c0.48,5.28,3.56,13.51,9.26,18.58
							c7.45,6.62,14.35,16.19,14.35,16.19l7.3-1.34c0,0-4.9-7.17-10.93-17.54c-6.97-11.99-10.51-21.8-14.06-25.99
							C849.48,410.18,845.51,418.23,845.38,419.66z"/>
					</g>
					<g>
						<path class="st2" d="M845.61,424.64c1.28,1.9,11.49-3.11,10.17-6.46c0.96-4.81-2.25-6.59-3.39-9.22
							c-5.65-13.09-11.27-24.19-22.33-36.83c0,0-11.79,8.22-3.83,15.56c10.24,9.45,4.98,16.46,10.11,22.66
							C839.7,414.41,843.89,419.5,845.61,424.64z"/>
					</g>
					<g>
						<path class="st6" d="M871.8,448.01c-1.8-2.85-4.01-6.46-6.4-10.57c-6.97-11.99-10.51-21.8-14.06-25.99
							c-1.86-1.27-5.83,6.77-5.96,8.2c-0.16,0.56-0.01,1.32,0.04,1.89c0.48,5.28,3.56,13.51,9.26,18.58
							c2.74,2.44,5.41,5.27,7.68,7.88H871.8z"/>
					</g>
					<g>
						<path class="st6" d="M845.61,424.64c1.28,1.9,11.49-3.11,10.17-6.46c0.96-4.81-2.25-6.59-3.39-9.22
							c-5.65-13.09-5.11-15.25-10.92-34.71c0,0-19.39-10.84-27.18-7.53c-6.96,2.95,4.58,8.49,6.06,12.8
							c4.79,13.93,10.86,24.64,15.98,30.83C839.7,414.41,843.89,419.5,845.61,424.64z"/>
					</g>
					<g>
						<path class="st2" d="M867.56,459c0.98,2.28,4.27,3.55,7.35,2.83c3.08-0.73,4.79-3.16,3.81-5.45
							c-0.97-2.28-4.26-3.55-7.35-2.83C868.29,454.28,866.58,456.71,867.56,459z"/>
					</g>
				</g>
				<g>
					<path class="st0" d="M877.74,455.36l-0.64-1.86c0,0-5.35,0.9-8.34-0.13l-0.94,1.25C867.82,454.63,870.92,457.61,877.74,455.36z
						"/>
				</g>
				<g>
					<g>
						<path class="st18" d="M863.95,462.36c-0.07,0.98,0.08,1.94,7.88,2.16c2.83,0.08,6.13-0.05,10.92,0.39
							c7.09,0.66,11.39-0.03,13.7-0.66c1.9-0.52,3.51-1.06,3.57-1.44c0-0.06,0.01-0.11,0.01-0.17c-0.01,0.19-0.03,0.37-0.04,0.5
							c-0.06,0.38-1.67,0.92-3.58,1.44c-2.31,0.63-6.48,1.21-13.59,0.77c-4.87-0.3-8.2-0.42-11.02-0.5
							c-8.04-0.22-7.95-1.23-7.87-2.25C863.93,462.54,863.94,462.45,863.95,462.36z"/>
					</g>
					<g>
						<path d="M865.5,453.32c0.11,0.25,0.26,0.48,0.4,0.69c0.29,0.45,0.54,0.83,0.47,1.39l0.39,0.03c0.04-0.31-0.01-0.58-0.11-0.82
							l0.04,0c0-0.03,0.16-0.73-0.23-1.48c-0.23-0.44-0.55-0.66-0.83-0.59C865.5,452.58,865.24,452.73,865.5,453.32z M865.78,452.85
							c0.07,0.05,0.19,0.16,0.31,0.39c0.14,0.27,0.2,0.53,0.22,0.75c-0.02-0.03-0.04-0.07-0.07-0.11c-0.13-0.21-0.27-0.42-0.38-0.65
							C865.78,453.04,865.77,452.91,865.78,452.85z"/>
					</g>
					<g>
						<path class="st10" d="M871.17,462.38c1.65,0.08,2.98,0.41,5.38,0.75c2.4,0.35,6.02,0.83,8.85,0.94
							c2.83,0.11,6.86-0.12,8.56-0.25c2.86-0.21,5.72-1.02,5.76-1.06l0.23-0.6c0,0-0.23-0.49-0.8-0.8c-0.57-0.3-1.87-0.58-5.35-1.5
							c-4.46-1.19-5.9-1.72-8.1-3.06c-2.2-1.34-4.94-2.59-5.71-2.44c-0.78,0.14-2.16,0.79-4.88,1.37c-5.35,1.13-2.55,1.22-6.34,0.05
							c-1.71-0.53-1.69-2.09-1.85-1.77c0,0,0.04,1.26-0.94,2.16c-1.21,1.11-1.65,2.99-1.45,5
							C866.2,461.96,869.56,462.3,871.17,462.38z"/>
					</g>
					<g>
						<path class="st10" d="M876.51,452.86c0.57-0.54,0.52-1.13,1.34-1.55c0.44-0.23,1.47,0.11,2.77,1.84
							c1.13,1.5,3.45,2.7,3.45,2.7l-0.12-0.01c3.08,1.8,5.79,2.62,5.79,2.62l-0.29,0.42c-3.37-1.32-6.39-2.66-8.5-3.63
							c-0.93-0.27-2.39,0.09-2.96-0.16C876.26,454.33,876.14,453.2,876.51,452.86z"/>
					</g>
					<g>
						<path class="st10" d="M899.39,462.41c-0.15,0.49-0.65,0.62-0.95,0.69c-0.13,0.03-0.28,0.06-0.43,0.1c0,0-0.01,0-0.02,0.01
							c-0.15,0.03-0.31,0.07-0.48,0.1c0,0,0,0-0.01,0c-0.17,0.03-0.34,0.07-0.52,0.1c0,0-0.01,0-0.01,0
							c-0.17,0.03-0.35,0.06-0.53,0.1c-0.02,0-0.03,0-0.04,0c-0.19,0.03-0.37,0.06-0.57,0.09c0,0,0,0-0.01,0
							c-0.2,0.03-0.39,0.06-0.59,0.08c-0.01,0-0.03,0-0.04,0c-0.19,0.03-0.38,0.05-0.57,0.07c-0.02,0-0.04,0-0.05,0.01
							c-0.2,0.02-0.41,0.04-0.61,0.05c-1.7,0.13-5.73,0.36-8.56,0.25c-2.83-0.11-6.45-0.58-8.85-0.94
							c-1.9-0.29-10.49-0.94-12.17-1.73c-0.02-0.16,0.16-0.77,0.16-0.93c0.2,0.13,1.16,0.72,1.53,0.87
							c2.46,0.98,10.29,1.38,12.98,1.79c2.7,0.41,8.61,1.15,16.37-0.18c0,0,3.46-0.77,1.06-1.74c-2.08-0.84-7.04-2.32-7.04-2.32
							l0.06-0.49c7.12,2.51,7.61,1.45,9.34,2.36c0.28,0.15,1.08,0.73,1.04,1.23C899.75,461.97,899.48,462.1,899.39,462.41z"/>
					</g>
					<g>
						<path d="M864.48,460.61c-0.13-1.87,0.34-3.38,1.49-4.44c0.05-0.05,0.11-0.1,0.16-0.16c0.36,0.06,0.55,0.28,0.03,0.88
							c-0.92,1.06-1.27,3.1-1.36,3.84C864.7,460.68,864.59,460.65,864.48,460.61z"/>
					</g>
					<g>
						<path class="st10" d="M889.83,460.07c0,0-1.58-1.55,0.81-1.1c0.87,0.17,8.1,2.16,7.47,3.02c-0.41,0.55-0.2,0.6-1.79,1.09
							c-1.59,0.49-9,0.81-7.64,0.58c2.93-0.51,2.47-1.4,0.67-2.6c-1.8-1.2-2.56-1.52-2.56-1.52L889.83,460.07z"/>
					</g>
					<g>
						<path class="st19" d="M887.62,459.69c0,0-7.82,4.02-1.57,4.06c0,0-4.5,0.15-5.42-0.46c-0.93-0.6,0.33-2.67,4.31-4.76
							L887.62,459.69z"/>
					</g>
					<g>
						<path class="st19" d="M884.26,458.02c0,0-8.15,4.61-3.64,5.37c0,0-3.48,0.03-4.27-0.67c-1.6-1.42,1.24-3.76,5.22-5.85
							L884.26,458.02z"/>
					</g>
					<g>
						<path class="st19" d="M880.83,456.53c0,0-9.72,5.44-4.71,6.4c0,0-4.35,0.05-5.13-0.65c-1-0.89,4.27-4.16-0.83-5.89
							c-1.02-0.34,7.07-0.38,8.56-1.17L880.83,456.53z"/>
					</g>
					<g>
						<path class="st14" d="M865.5,456.68c0.14-0.18,0.29-0.35,0.47-0.51c0.04-0.03,0.07-0.07,0.11-0.11
							c0.58-1.04,0.55-1.98,0.55-1.98c0.04-2.14,1.36-0.94,1.47-0.61c0.22,0.72,0.17,2.35,4.35,2.32c3.48-0.03,5.88-1.03,6.42-1.26
							c1.19-0.51,1.68-0.5,1.83-0.46c1.96,0.76,2.2,1.28,3.86,2.36c3.73,2.04,5.87,2.68,6.67,2.99c0,0-1.19,1.08-3.05,0.64l0,0
							c0,0,0,0-0.01,0c-0.06-0.01-0.12-0.03-0.19-0.05l0,0c-0.07-0.02-0.13-0.04-0.2-0.06c-0.01,0-0.03-0.01-0.04-0.01
							c-0.06-0.02-0.11-0.03-0.17-0.06c-0.07-0.03-0.14-0.06-0.22-0.09c-2.46-1.03-6.41-3.12-7.38-3.55
							c-0.97-0.43-3.01-0.25-4.48,0.05c-4.28,0.88-4.87-0.03-7.54,0.53c-0.93,0.2-2.15,1.02-3.09,2.76
							c-0.02,0.03,0.16-1.57,0.13-1.57c-0.01,0,1.05-1.08,1.04-1.08c-0.03,0-0.06,0-0.1,0c0,0-0.01,0-0.01,0
							c-0.04,0-0.07-0.01-0.11-0.03c0,0-0.01-0.01-0.01-0.01c-0.04-0.02-0.07-0.03-0.1-0.05c0,0-0.01,0-0.01,0l0,0
							C865.62,456.78,865.56,456.74,865.5,456.68z"/>
					</g>
					<g>
						<g>
							<g>
								<path class="st7" d="M880.25,454.89c-0.01,0.16-0.2,0.29-0.43,0.28c-0.22-0.01-0.39-0.15-0.38-0.31
									c0.01-0.17,0.2-0.29,0.43-0.28C880.1,454.58,880.27,454.72,880.25,454.89z"/>
							</g>
							<g>
								<path class="st15" d="M880.17,454.89c-0.01,0.13-0.16,0.23-0.34,0.22c-0.18-0.01-0.31-0.12-0.3-0.25
									c0.01-0.13,0.16-0.23,0.34-0.22C880.05,454.64,880.18,454.75,880.17,454.89z"/>
							</g>
						</g>
						<g>
							<path class="st16" d="M880.04,455.13c0,0,1.87,0.11,2.24-0.43c0,0-0.04-0.36-0.32-0.22c-0.76,0.38-1,0.19-2.09,0.16
								C879.87,454.64,879.43,455.02,880.04,455.13z"/>
						</g>
						<g>
							<g>
								<path class="st7" d="M882.34,456.31c0.01,0.17-0.16,0.3-0.39,0.32c-0.22,0.01-0.41-0.12-0.42-0.29
									c-0.01-0.16,0.16-0.31,0.38-0.31C882.14,456.02,882.33,456.14,882.34,456.31z"/>
							</g>
							<g>
								<path class="st15" d="M882.25,456.31c0.01,0.13-0.13,0.24-0.31,0.25c-0.17,0.01-0.32-0.1-0.33-0.22
									c-0.01-0.13,0.13-0.25,0.3-0.25C882.1,456.08,882.24,456.18,882.25,456.31z"/>
							</g>
						</g>
						<g>
							<path class="st16" d="M882.16,456.57c0,0,1.88-0.04,2.16-0.62c0,0-0.09-0.35-0.35-0.19c-0.7,0.43-0.97,0.27-2.06,0.32
								C881.92,456.09,881.54,456.51,882.16,456.57z"/>
						</g>
						<g>
							<g>
								<path class="st7" d="M884.52,457.48c0.04,0.16-0.11,0.32-0.33,0.35c-0.22,0.03-0.43-0.08-0.47-0.25
									c-0.04-0.16,0.11-0.32,0.33-0.34C884.27,457.21,884.48,457.32,884.52,457.48z"/>
							</g>
							<g>
								<path class="st15" d="M884.43,457.49c0.03,0.13-0.08,0.25-0.26,0.27c-0.17,0.02-0.34-0.07-0.37-0.19
									c-0.03-0.13,0.09-0.25,0.26-0.27C884.24,457.28,884.41,457.37,884.43,457.49z"/>
							</g>
						</g>
						<g>
							<path class="st16" d="M884.38,457.76c0,0,1.8-0.18,1.99-0.78c0,0-0.15-0.34-0.38-0.16c-0.63,0.5-0.86,0.34-1.93,0.48
								C884.06,457.3,883.76,457.75,884.38,457.76z"/>
						</g>
						<g>
							<g>
								<path class="st7" d="M886.85,458.51c0.07,0.16-0.04,0.33-0.25,0.38c-0.21,0.06-0.44-0.02-0.52-0.18
									c-0.07-0.16,0.04-0.33,0.24-0.38C886.54,458.27,886.77,458.35,886.85,458.51z"/>
							</g>
							<g>
								<path class="st15" d="M886.77,458.53c0.06,0.13-0.03,0.26-0.2,0.3c-0.16,0.04-0.35-0.02-0.4-0.15
									c-0.06-0.12,0.02-0.26,0.19-0.3C886.52,458.34,886.71,458.41,886.77,458.53z"/>
							</g>
						</g>
						<g>
							<path class="st16" d="M886.78,458.79c0,0,1.58-0.3,1.63-0.92c0,0-0.23-0.31-0.41-0.11c-0.5,0.57-0.62,0.33-1.64,0.61
								C886.36,458.38,886.16,458.87,886.78,458.79z"/>
						</g>
						<g>
							<g>
								<path class="st7" d="M881.19,455.57c-0.01,0.16-0.21,0.29-0.43,0.28c-0.22-0.01-0.39-0.15-0.38-0.32
									c0.01-0.17,0.2-0.29,0.43-0.28C881.03,455.26,881.2,455.4,881.19,455.57z"/>
							</g>
							<g>
								<path class="st15" d="M881.1,455.56c-0.01,0.13-0.16,0.23-0.34,0.22c-0.18-0.01-0.31-0.12-0.3-0.25
									c0.01-0.13,0.16-0.23,0.34-0.22C880.98,455.32,881.11,455.43,881.1,455.56z"/>
							</g>
						</g>
						<g>
							<path class="st7" d="M881.54,454.28c0,0,1.21,0.23,0.16,1.01c-0.66,0.49-0.87,0.39-0.94,0.28c-0.09-0.13-0.21-0.18,0.32-0.41
								C881.72,454.89,881.8,454.33,881.54,454.28z"/>
						</g>
						<g>
							<g>
								<path class="st7" d="M883.37,456.91c0.01,0.16-0.16,0.3-0.38,0.31c-0.22,0.01-0.41-0.12-0.42-0.28
									c-0.01-0.17,0.16-0.31,0.38-0.32C883.17,456.61,883.36,456.74,883.37,456.91z"/>
							</g>
							<g>
								<path class="st15" d="M883.28,456.91c0.01,0.13-0.13,0.24-0.31,0.25c-0.18,0.01-0.32-0.09-0.33-0.22
									c-0.01-0.13,0.12-0.24,0.31-0.25C883.12,456.68,883.27,456.78,883.28,456.91z"/>
							</g>
						</g>
						<g>
							<path class="st7" d="M883.53,455.54c0,0,1.23,0.19,0.3,1.05c-0.58,0.54-0.79,0.46-0.89,0.36c-0.11-0.12-0.24-0.16,0.26-0.43
								C883.8,456.19,883.8,455.57,883.53,455.54z"/>
						</g>
						<g>
							<g>
								<path class="st7" d="M885.64,457.99c0.04,0.16-0.11,0.32-0.33,0.35c-0.22,0.03-0.43-0.08-0.47-0.24
									c-0.04-0.16,0.11-0.32,0.33-0.35C885.39,457.71,885.6,457.82,885.64,457.99z"/>
							</g>
							<g>
								<path class="st15" d="M885.55,458c0.03,0.13-0.08,0.25-0.26,0.27c-0.18,0.02-0.34-0.06-0.37-0.19
									c-0.03-0.13,0.09-0.25,0.26-0.27C885.36,457.78,885.52,457.87,885.55,458z"/>
							</g>
						</g>
						<g>
							<path class="st7" d="M885.52,456.7c0,0,1.3,0,0.52,0.94c-0.49,0.58-0.72,0.52-0.83,0.43c-0.13-0.1-0.26-0.14,0.19-0.45
								C885.95,457.24,885.79,456.7,885.52,456.7z"/>
						</g>
						<g>
							<g>
								<path class="st7" d="M888.06,458.86c0.07,0.16-0.04,0.33-0.24,0.38c-0.21,0.05-0.44-0.03-0.52-0.18
									c-0.07-0.16,0.04-0.33,0.24-0.38C887.75,458.62,887.99,458.7,888.06,458.86z"/>
							</g>
							<g>
								<path class="st15" d="M887.99,458.88c0.06,0.12-0.03,0.26-0.2,0.3c-0.17,0.05-0.35-0.02-0.41-0.14
									c-0.06-0.12,0.03-0.26,0.19-0.3C887.74,458.69,887.93,458.76,887.99,458.88z"/>
							</g>
						</g>
						<g>
							<path class="st7" d="M887.51,457.62c0,0,1.43-0.18,0.88,0.84c-0.35,0.64-0.59,0.61-0.72,0.53c-0.15-0.09-0.29-0.11,0.08-0.47
								C888.2,458.08,887.77,457.58,887.51,457.62z"/>
						</g>
						<g>
							<path class="st16" d="M881.49,454.47c0,0-3.68-1.24-2.43-2.53c1.25-1.29,2.41,1.63,2.53,2.38l-0.24-0.04
								c0,0-0.58-1.9-1.37-2.18c-0.79-0.28-0.85,0.26-0.68,0.5c0.14,0.22,0.6,0.93,1.67,1.58c0.07,0.04,0.39,0.05,0.47,0.09
								C881.53,454.33,881.38,454.41,881.49,454.47z"/>
						</g>
						<g>
							<path class="st16" d="M881.13,454.06c0,0-0.63-1.96,0.69-2.62c1.32-0.67,2.14-0.02,0.91,1.5c-1.23,1.53-1.23,1.53-1.23,1.53
								l-0.24-0.2c0,0,0.96-1.06,1.26-1.66c0.3-0.61,0.55-1.27-0.08-1.02c-0.63,0.25-1.03,0.49-1.09,1.49
								c-0.02,0.48,0.11,0.9,0.1,1.11c-0.02,0.22-0.2,0.2-0.2,0.2L881.13,454.06z"/>
						</g>
						<g>
							<path class="st17" d="M881.67,454.37c0,0,0.36,0.17,1.38,0.31c1.02,0.13,1.84,0.94,1.82,1c-0.01,0.06,0.26,0.11,0.26,0.11
								s0.2-0.11,0.04-0.43c-0.16-0.32-0.52-0.92-2.01-0.95c-1.5-0.03-1.89-0.22-1.89-0.22S880.86,454.37,881.67,454.37z"/>
						</g>
						<g>
							<path class="st17" d="M881.16,454.15c0,0,1.23,0.62,1.98,0.88c0.75,0.25,1.62,0.96,2.07,1.02c0.46,0.05,0.31,0.31,0.31,0.31
								s-0.28,0.12-1.52-0.68c-1.24-0.8-1.85-0.8-2.26-1.03C881.31,454.41,881.13,454.38,881.16,454.15z"/>
						</g>
					</g>
					<g>
						<path class="st8" d="M864.15,461.47c0.13-0.2,0.33-0.76,0.39-1c0.94,0.27,5.16,1.86,11.73,2.34c2.44,0.18,6.36,0.7,9.19,0.81
							c2.83,0.11,6.64,0.08,8.34-0.05c1.68-0.13,3.47-0.43,4.58-0.7c0.3-0.07,0.79-0.27,0.82-0.84c0.03-0.51,0.25-0.99,0.64-0.47
							c0.24,0.32,0.18,1.17,0.16,1.41c-0.06,0.38-1.67,0.92-3.58,1.44c-2.3,0.63-6.55,1.21-13.66,0.77
							c-4.86-0.3-8.13-0.42-10.96-0.5c-8.03-0.22-7.95-1.23-7.87-2.24C863.95,462.08,864.07,461.59,864.15,461.47z"/>
					</g>
					<g>
						<path class="st20" d="M866,462.17c0,0,4.95,1.15,7.12,1.25c3.39,0.15,1.23,0.61-2.29,0.71
							C864.89,464.3,863.81,461.99,866,462.17z"/>
					</g>
					<g>
						<path class="st20" d="M887.34,465.03c0,0,6,0.3,10.09-1.12c0,0-2.37,0.19-4.02,0.33
							C887.36,464.75,886.66,463.72,887.34,465.03z"/>
					</g>
				</g>
			</g>
			<g>
				<g>
					<path class="st5" d="M890.74,345.73c0,0-10.14,2.45-10.74,9.3l-0.87,2.6l16.83-10.35L890.74,345.73z"/>
				</g>
				<g>
					<path class="st5" d="M888.79,369.63c0,0-9.74-3.63-9.05-9.52l-0.6-2.65l15.7,11.29L888.79,369.63z"/>
				</g>
			</g>
			<g>
				<path class="st2" d="M896.97,369.82c-10.2-0.29-18.19-5.88-17.84-12.49c0.35-6.6,8.89-11.72,19.1-11.43
					c10.2,0.29,18.19,5.88,17.84,12.49C915.72,365,907.17,370.12,896.97,369.82z"/>
			</g>
			<g>
				<path class="st5" d="M908.76,350.92c0,0,1.95,3.25-1.69,6.39c-7.35,6.35-6.98,11.72-18.46,10.31c-3.1-0.38-5.24-0.19,0.17,2.01
					c3.71,1.5,13.27,1.49,15.34,1.56c7.09,0.23,17.79-5.89,14.13-16.23C917.18,351.93,916.54,349.96,908.76,350.92z"/>
			</g>
			<g>
				<g>
					<path class="st5" d="M908.3,353.2c0,0-15.49-1.35-17.43-6.79c0,0,7.68-3.38,17.23-0.34c7.77,2.48,5.93,7,5.93,7
						s6.66,3.93,1.99,10.68c-6.08,8.77-23.56,7.38-23.56,7.38S889.08,356.13,908.3,353.2z"/>
				</g>
				<g>
					<path class="st3" d="M902.07,370.91c4.76-0.69,11.11-2.49,14.3-7.09c1.04-1.5,1.6-2.98,1.68-4.41c0.2-3.73-2.78-6.87-3.46-7.31
						c0.05-0.15-0.02,0.44,0,0c0.08-1.54-0.63-4.39-6.29-6.19c-9.67-3.09-17.58,0.32-17.67,0.35l-0.16,0.07l0.04,0.11
						c0.82,2.29,4.16,4.22,9.66,5.58c2.67,0.66,5.22,1.04,6.72,1.22c-12.47,2.38-14.76,10.03-14.99,14.47
						c-0.11,2.01,0.21,3.42,0.21,3.43l0.03,0.15l0.29,0.02C892.6,371.33,896.93,371.66,902.07,370.91z M915.68,363.68
						c-2.48,3.57-7.12,5.88-13.79,6.86c-2.16,0.32-4.19,0.44-5.81,0.47c16.17-1.77,19.96-7.2,20.2-11.6
						c0.11-2.07-0.59-3.95-1.16-5.12c1.05,1.03,2.33,2.78,2.2,5.11C917.24,360.78,916.68,362.22,915.68,363.68z M894.07,346.77
						c4.44,0.43,13.17,1.81,18.45,6.14l-0.45,0.01C907.91,350.12,898.65,347.8,894.07,346.77z M911.08,352.88
						c-3.4-0.72-13.09-2.95-18.53-6.03C896.25,347.65,906.43,350.03,911.08,352.88z M908,348.17c3.03,1.31,4.14,3.05,4.55,4.06
						c-3.82-2.85-9.08-4.33-12.96-5.08c-2.01-0.39-3.83-0.62-5.24-0.76C900.18,346.18,904.76,346.77,908,348.17z M912.67,353.34
						l0.07-0.03c-0.02,0.01-0.03,0.03-0.04,0.04L912.67,353.34z M913.52,353.27l0.17,0c0.14,0.82,0.19,1.62,0.15,2.4
						c-0.32,6.1-6.14,9.92-10.96,12.06c-2.91,1.29-5.82,2.14-7.85,2.63c8.87-3.66,13.38-7.83,15.62-10.79
						c2.13-2.81,2.67-5.03,2.8-5.87l0.1,0.09L913.52,353.27z M914.59,354.79c0.51,1.15,1.03,2.8,0.94,4.59
						c-0.22,4.29-3.96,9.6-19.98,11.28c2.05-0.51,4.93-1.36,7.8-2.63c4.94-2.18,10.91-6.1,11.23-12.34
						C914.59,355.39,914.6,355.09,914.59,354.79z M893.96,370.31c3.45-2.71,13.53-10.75,18.61-15.94c-0.28,1.07-0.95,2.88-2.61,5.06
						C907.71,362.4,903.11,366.63,893.96,370.31z M912.5,353.57c-4.99,5.31-16.32,14.3-19.5,16.79
						c2.18-8.46,17.55-16.01,19.27-16.83L912.5,353.57z M902.58,358.57c-3.51,2.42-7.67,5.89-9.56,9.72
						c0.78-4.18,4.13-11.17,17.39-14.38C908.68,354.8,905.65,356.45,902.58,358.57z M907.92,346.24c5.34,1.7,6.01,4.4,5.93,5.85
						c0,0.06-0.01,0.11-0.02,0.16l-0.22,0.56l-0.09,0.02l0.02-0.4l-0.13,0.14c-0.26-0.95-1.26-3.08-4.94-4.69
						c-3.74-1.63-9.17-2.22-16.12-1.76C894.86,345.35,900.9,344,907.92,346.24z M891.38,346.73c4.87,3.02,13.91,5.28,18.25,6.25
						l-1.31,0.03C907.53,352.93,893.72,351.56,891.38,346.73z M908.38,353.39l2.73-0.06c-7.13,1.57-12.38,4.35-15.62,8.28
						c-1.42,1.73-2.26,3.46-2.75,4.95C893.33,361.99,896.31,355.24,908.38,353.39z"/>
				</g>
			</g>
			<g>
				<polygon class="st21" points="842.67,373.18 812.97,359.03 809.73,362.32 842.03,375.16 				"/>
			</g>
			<g>
				<g>
					<path class="st22" d="M877.43,349.14c-0.05,0.12-10.73-0.14-16.18-3.7c0.03,0.02-4.29,0.19-7.79,0.64
						c-6.88,0.71-28.5,6.28-37.73,11.55c0,0,12.75,8.36,26.24,15.67c-0.3-0.16,9.54-6.7,12.02-6.53c1.77,0.1,8.64,0.55,8.66,0.56
						c0,0,4.71-4.14,14.04-1.47c0,0-0.01-1.45,0.21-2.13c0.09-0.29-15.72-0.38-15.45-7.11c0.63-7.7,6.9-6.95,15.51-5.41
						C877.13,350.53,877.28,349.84,877.43,349.14z"/>
				</g>
				<g class="st23">
					<path class="st22" d="M847.83,351.91c-0.75-2.2,0.51-4.44,3.21-5.43c-3.29,0.69-4.98,3.2-4.07,5.59
						c0.91,2.41,3.47,4.01,5.91,4.1C850.72,355.7,848.58,354.12,847.83,351.91z"/>
				</g>
				<g class="st23">
					<path class="st22" d="M850.91,361.53c-0.73-2.16,0.03-4.27,2-5.17c-2.43,0.59-3.49,2.93-2.6,5.28c0.88,2.36,2.8,4.06,4.4,4.23
						C853.27,365.34,851.65,363.69,850.91,361.53z"/>
				</g>
			</g>
		</g>
	</g>
</g>
</svg>
