<?xml version="1.0" encoding="utf-8"?>
<!-- Generator: Adobe Illustrator 23.0.3, SVG Export Plug-In . SVG Version: 6.00 Build 0)  -->
<svg version="1.1" id="Layer_1" xmlns="http://www.w3.org/2000/svg" xmlns:xlink="http://www.w3.org/1999/xlink" x="0px" y="0px"
	 viewBox="0 0 1080 1080" style="enable-background:new 0 0 1080 1080;" xml:space="preserve">
<style type="text/css">
	.st0{fill:#FFFFFF;}
	.st1{fill:#4A4A49;}
	.st2{fill:#FED2A5;}
	.st3{fill:#010001;}
	.st4{fill:#EB7171;}
	.st5{fill:#FF8442;}
	.st6{fill:#00A6BC;}
	.st7{fill:#77B5C6;}
	.st8{fill:#F7BD8D;}
	.st9{fill:#E6A87F;}
	.st10{fill:#2A5285;}
	.st11{fill:#EE4645;}
	.st12{fill:#FAB587;}
	.st13{fill:#1B2952;}
	.st14{fill:#E5D6CE;}
	.st15{fill:#E8A67C;}
	.st16{opacity:0.2;}
	.st17{fill:#E8C2A3;}
	.st18{fill:#E2BD9F;}
	.st19{fill:#EFCAA6;}
	.st20{clip-path:url(#SVGID_2_);}
	.st21{fill:#D2948B;}
	.st22{fill:#DBB79C;}
</style>
<g>
	<path class="st0" d="M923,256H753c-6.6,0-12,5.4-12,12v209c0,6.6,5.4,12,12,12h170c6.6,0,12-5.4,12-12V268
		C935,261.4,929.6,256,923,256z"/>
</g>
<g>
	<g>
		<path class="st0" d="M625,424H455c-6.6,0-12,5.4-12,12v209c0,6.6,5.4,12,12,12h170c6.6,0,12-5.4,12-12V436
			C637,429.4,631.6,424,625,424z"/>
	</g>
	<g>
		<path class="st1" d="M606.75,634.12l-152.41-0.59c-0.7,0-1.06-0.65-0.59-1.05l9.19-7.84c0.94-0.81,2.28-1.26,3.68-1.26h129.53
			c1.53,0,2.98,0.53,3.96,1.44l7.83,7.32C608.79,632.93,608.07,634.12,606.75,634.12z"/>
	</g>
	<g>
		<g>
			<path class="st2" d="M552.8,618.01c0,0,4.99-1.32,5.45-13.08l6.43,1.09c0,0,0.57,8.41,1.09,13.14
				C566.29,623.89,552.8,618.01,552.8,618.01z"/>
			<g>
				<path class="st2" d="M568.01,551.96c-1.64-8.05,3.59-32.34,3.59-46.64c0-22.97-16.52-28.7-25.57-25.63
					c-8.82,2.99-22.64,17.07-19.2,28.17c1.27,4.12,25.66-3.82,25.66,2.39c0,21.67-1.09,38.19,3.58,45.62
					c1.65,8.61,1.65,15.59,1.65,28.38c0,22.96-0.85,34.1,4.12,34.1c1.69,0,3.11-2.3,3.33-6.56c0.3-5.77,4.37-19.54,5.69-30
					C573.29,562.48,569.1,557.38,568.01,551.96z"/>
				<path class="st3" d="M545.77,507.86c0.01,0.01,0.96,1.51,0.96,1.53l3.28,5.21c0.74,5.46,1.4,10.18,1.4,10.18
					c0,0,24.15-4.41,24.15-4.41l1.44,0.16c-0.64-11.48-1.76-20.19-2.96-26.26c-0.93-4.68-3.78-7.54-6.37-10.19
					c-4.16-4.27-11.5-7.07-11.5-7.07S543.5,498.98,545.77,507.86z"/>
				<g>
					<g>
						<g>
							<g>
								<g>
									<g>
										<g>
											<g>
												<g>
													<path class="st2" d="M550.3,570.65c-0.05-1.26-1.52-0.85-1.66-2.63c-0.02-0.44,0.21-0.82,0.13-1.09
														c-0.11-0.39-0.56-0.62-0.7-0.88c-0.12-0.25,0.27-0.69,0.12-1.05c-0.07-0.2-0.68-0.24-0.75-0.51
														c-0.4-1.37-0.2-0.4-0.37-1.62c-0.48-3.25-1.49-3.81-8.02-2.58l0.04-0.04c0,0-2.14,0.15-2.09-2.04
														c0.1-4.11,0.45-6.78,2.46-9.57l-5.76,1.19l-5.71,2.17c-2.51,14.54-0.81,9.56-2.32,14.14
														c-0.61,1.05-6.36,13.8-6.41,15.03c-0.52,12.34,5.6,16.67,15.37,17.12c9.04,0.42,14.39-4.37,15.9-15.39
														c0.13-0.89-1.43-6.8-1.51-7.72C548.84,572.59,550.35,571.91,550.3,570.65z"/>
												</g>
											</g>
										</g>
									</g>
								</g>
								<path class="st0" d="M550.71,539.73c1.36-4.93-1.22-10.08-5.75-11.48c-4.54-1.4-9.32,1.47-10.68,6.4
									c0.26-0.96,0.24,20.99,1.94,16.83C538.88,545,549.35,544.68,550.71,539.73z"/>
								<path class="st4" d="M538.37,555.12c-3.78-0.03-8.35,2.29-12.08,2.7c-2.34-6.75-6.73-14.64-6.06-26.77
									c1.03-18.58-0.82-21.07,2.61-31.79l23.21,4.7c0,0,0.6,15.89-1.39,29.37C543.06,544.18,542.42,548.83,538.37,555.12z"/>
								<path class="st5" d="M550.24,589.41c0.05,6.37-7.95,9.67-14.91,15.51c-11.81,9.91-0.97,20.88-8.08,20.76
									c-8.38-0.14-19.63-25.32-2.3-60.36c2.33-4.7,12.69,2.37,12.69,2.37c-1.85,1.13-6.74,7.21-4.14,9.2
									c0.61,0.47,1.98,0.21,3.19-0.61C536.69,576.28,550.22,587.83,550.24,589.41z"/>
								<path class="st6" d="M551.74,588.28c0,0,0.5,4.65-2.96,5.38c0,0-8.06-10.95-15.27-16.77c0,0,0.93,0.31,1.87,0.05
									c0.73-0.21,1.25-0.69,1.31-0.66C538.94,577.28,544.85,580.12,551.74,588.28z"/>
							</g>
						</g>
					</g>
				</g>
				<path class="st7" d="M555.08,615.57c3.48,0.83,7.07,1.24,10.74,1.19c0.14,0,0.28-0.03,0.42-0.03l0.08,11.27h-29.18
					C537.09,622.22,545.73,618.04,555.08,615.57z"/>
			</g>
			<path class="st8" d="M499.16,622.93c0,0-9.53-0.46-12.61,0.27c-2.38,0.57-8.85,2.85-7.9,4.15c0.46,0.63,1.57,0.98,3.81,0
				c1.16-0.51,3.34-1.19,4.6-1.2c1.59-0.03,4.66,1.75,6.25,1.84c1.22,0.08,3.69-0.63,4.87-0.96c1.46-0.4,5.47-2.66,5.47-2.66
				l29.98-32.33c0,0,5.59-35.16,5.39-43.96c-0.13-5.6-5.93-12.36-11.1-4.74c-1.4,2.07-1.09,43.35-3.65,44.96
				C522.19,589.63,501.32,621.8,499.16,622.93z"/>
		</g>
	</g>
</g>
<g>
	<g>
		<path class="st0" d="M625,424H455c-6.6,0-12,5.4-12,12v209c0,6.6,5.4,12,12,12h170c6.6,0,12-5.4,12-12V436
			C637,429.4,631.6,424,625,424z"/>
	</g>
	<g>
		<path class="st1" d="M618.75,647.12l-152.41-0.59c-0.7,0-1.06-0.65-0.59-1.05l9.19-7.84c0.94-0.81,2.28-1.26,3.68-1.26h129.53
			c1.53,0,2.98,0.53,3.96,1.44l7.83,7.32C620.79,645.93,620.07,647.12,618.75,647.12z"/>
	</g>
	<g>
		<path class="st3" d="M527.49,575.65c-11-4.98-23.93-15.94-29.43-18.87c-2.84-1.5-9.71-0.17-9.71-0.17l42.71-11.46l-15.86-12.95
			c0,0-33.46,9.75-38.13,23.12c-0.72,2.05,3.15,6.21,4.98,7.25c13.83,7.87,41.59,17.22,41.59,17.22S529.2,576.42,527.49,575.65z"/>
		<g>
			<path class="st9" d="M538.87,594.51c0.4,4.89-3.16,3.06-2.78-0.49c-3.69-5.96-7.76-11.4-9.42-12.32
				c-3.74-2.09-14.59-6.03-14.59-6.03l3.77-6.25c0,0,6.74,4.02,10.47,5.92c0.31,0.16,2.05,0.62,4.15,0.44
				c3.38-0.28,6.61-0.58,7.32,3.01C538.67,583.28,538.8,593.58,538.87,594.51z"/>
		</g>
		<path class="st10" d="M517.86,451.02c-1.04,1.85,2.05,20.65,7.06,24.95c4.94,4.24,4.69,19.73-7.13,20.4
			c-5.85,0.33-6.66-5.55-11.87-7.47c-5.97-2.2,1.3-6.59-3.63-11.88c-4.94-5.29,4.8-10.77,2.92-14.84
			c-3.74-8.08,4.29-12.91,6.86-15.6c3.7-3.86,7.06-2.19,8.54-1.63C522.09,445.51,519.57,448,517.86,451.02z"/>
		<path class="st11" d="M522.62,451.02c-1.71,3.02-2.82,5.58-4.3,5.02c-1.48-0.56-3.81-2-1.07-7.04c2.43-4.48,3.97-4.57,5.45-4.02
			C524.17,445.54,524.33,448,522.62,451.02z"/>
		<path class="st12" d="M547.1,625.56c-0.31-7.99,4.19-79.51,4.19-79.51l-15.2,0.85l6.25,30.1l-3.12,13.85l1.21,33.51
			C540.44,624.37,543.92,629.14,547.1,625.56z"/>
		<path class="st3" d="M540.04,612.87l-5.28-69.06c0,0,20.91-18.02,22.5-5.29c1.59,12.73-8.21,58.03-9.75,74.35H540.04z"/>
		<g>
			<path class="st12" d="M553.75,640.53c1.38-1.19-5.93-5.6-6.54-13.15c-0.3-3.69-0.17-9.39-0.17-9.39l-6.81-1.27
				c0,0,0.3,5.62,0.18,9.2c-0.01,0.3-1.08,2.55-1.08,4.27c0,2.23,1.33,3.85,1.79,10.19C541.32,643.19,552.36,641.73,553.75,640.53z"
				/>
		</g>
		<path class="st13" d="M517.24,531.7c0.88-8.06,4.01-10.06,4.01-10.06c0.67-0.02,19.91-9.96,19.91-9.96s11.91,13.15,14.32,15.29
			l1.78,11.54l-17.89,6.64h-8.3C531.07,545.16,516.36,539.76,517.24,531.7z"/>
		<path class="st10" d="M534.62,474.39c10.12-0.02,12.71-8.46,13.05-13c0.33-4.54,2.92-8.66-0.29-13.27
			c-2.54-3.64-16.24-5.58-22.95-3.56c-4.88,1.47-6.79,9.29-6.5,13.85C518.41,465.96,528,474.4,534.62,474.39z"/>
		<path class="st4" d="M513.99,539.59c0.65-9.37,6.93-23.73,6.93-23.73s-4.05-17.65-2.95-21.81c1.09-4.15,2.37-12.26,5.81-13.48
			c1.34-0.47,3.17-1.16,3.17-1.16l8.31,4.61l8.12-5.03c0,0,1.74,0.47,3.5,0.99c1.19,0.35,3.52,10.18,4.68,14.9
			c1.16,4.72-2.61,21.07-2.61,21.07s6.71,14.18,7.9,22.46C557.28,541.57,524.98,549.26,513.99,539.59z"/>
		<path class="st12" d="M543.37,479.01c1.46,5.99-13.86,8.49-16.43,0.42c0.92-0.16,5.07-1.37,4.19-0.89c0,0,2.16-2.94,0.24-6.84
			c-0.82-1.05,11.01-1.91,9.84,0.45c-1.16,2.36-0.95,6.4-0.95,6.4S542.58,478.91,543.37,479.01z"/>
		<path class="st14" d="M532.62,471.67l8.14,0.46l-0.51,4.89C532.49,476.04,532.62,471.67,532.62,471.67z"/>
		<path class="st12" d="M526.13,451.63l-0.45,13.34c0.57,6.31,10.47,10.56,14.56,10.58c2.92,0.01,7.1-5.85,7.32-9.49
			c0.21-3.53,0.52-12.36-1.67-13.81L526.13,451.63z"/>
		<path class="st12" d="M528,462.62l-2.15,2.79c0,0-0.64,0.8-2.18,0.13c-1.54-0.68-2.64-4.91,0.71-5.03
			C526.69,460.43,528,462.62,528,462.62z"/>
		<path class="st14" d="M526.13,451.63c0,0-2.29,2.01-2.09,4.08c0.2,2.07,3.27,9.35,3.27,9.35s1.23-2.29,1.83-5.98
			c0.81-4.98,4.83-1.99,10.1-3.12c5.27-1.14,6.36-0.54,8.66,1.76l-1.9-6.1H526.13z"/>
		<path class="st10" d="M547.52,450.06c1.07,3.2,0.07,7.8,0.07,7.8s-0.51-2.27-2.41-3.63c-1.33-0.95-5.73,1.23-8.48,0.15
			c-5.17-2.04-10.44,2.02-9.76,4.7c1.05,4.11,0.38,5.98,0.38,5.98s-2.22-1.24-2.93-4.55c-0.52-2.44-1.85-5.64-1.68-8.68
			c0,0,8.9-5.16,16.31-4.76C546.43,447.48,547.52,450.06,547.52,450.06z"/>
		<path class="st12" d="M532.7,509.89c0,0-15.12,6.78-23.36,6.21c-1.8-0.12-4.55-2.4-4.55-4.77c0.01-3.97,4.03-14.23,9.05-22.96
			c2.21-7.02,9.27-7.42,10.02-7.9c2.17,18.68-5.43,20.39-5.43,20.39l-0.47-2.56c0,0-5.13,10.29-7.07,13.36
			c0.85-0.71,1.54-1.44,2.95-1.8c1.42-0.36,12.34-0.36,17.23-2C532.07,507.51,532.7,509.89,532.7,509.89z"/>
		<path class="st12" d="M537.68,509.85c0,0,15.34,6.1,23.58,5.53c1.8-0.13,4.49-2.23,4.49-4.6c-0.01-3.97-4.2-14.39-9.22-23.13
			c-2.2-7.02-9.28-7.63-10.06-7.88c-2.17,18.68,4.76,20.34,4.76,20.34l0.5-3.02c0,0,5.8,10.79,7.75,13.86
			c-0.85-0.71-2.25-1.44-3.35-1.74c-1.1-0.31-7.08,0.18-16.78-1.34C538.04,507.32,537.68,509.85,537.68,509.85z"/>
		<g>
			<path class="st15" d="M536.9,503.73l1.61,0.95c0,0-0.06-2.8,0.25-3.89c0.19-0.68-0.83-1.05-1.29-0.15
				C536.91,501.71,536.9,503.73,536.9,503.73z"/>
			<path class="st12" d="M537.54,503.42c0,0-0.43,1.46-0.84,1.44c-0.45-0.02-0.62-2.42-0.62-2.42s-0.09-3.08-0.16-4.26
				c-0.04-0.69,0.6-1.16,0.91-0.32C537.28,499.1,537.54,503.42,537.54,503.42z"/>
			<path class="st12" d="M538.06,503.24c0,0-0.44,1.68-0.84,1.66c-0.45-0.02-0.62-2.42-0.62-2.42s0.2-2.99,0.13-4.17
				c-0.04-0.69,0.6-1.09,0.81-0.25C537.86,499.33,538.06,503.24,538.06,503.24z"/>
			<path class="st12" d="M536.66,503.35c0,0,1.15-1.21,1.39-0.34c0.25,0.87,1.31,4.85,1.31,4.85s-0.01,2.55-1.68,1.98
				c-1.68-0.57-2.69-3.62-2.69-5.17c0-0.81,0.23-1.4,0.23-1.4s-0.15-4.41-0.09-4.8c0.14-1.04,1.03-0.79,1.14,0.02
				C536.62,500.98,536.66,502.15,536.66,503.35z"/>
		</g>
		<g>
			<path class="st15" d="M533.54,503.73l-1.61,0.95c0,0,0.06-2.8-0.25-3.89c-0.19-0.68,0.83-1.05,1.29-0.15
				C533.53,501.71,533.54,503.73,533.54,503.73z"/>
			<path class="st12" d="M532.89,503.42c0,0,0.43,1.46,0.84,1.44c0.46-0.02,0.62-2.42,0.62-2.42s0.09-3.08,0.16-4.26
				c0.04-0.69-0.6-1.16-0.91-0.32C533.15,499.1,532.89,503.42,532.89,503.42z"/>
			<path class="st12" d="M532.37,503.24c0,0,0.44,1.68,0.84,1.66c0.45-0.02,0.62-2.42,0.62-2.42s-0.2-2.99-0.13-4.17
				c0.04-0.69-0.6-1.09-0.81-0.25C532.58,499.33,532.37,503.24,532.37,503.24z"/>
			<path class="st12" d="M533.78,503.35c0,0-1.14-1.21-1.39-0.34c-0.25,0.87-1.31,4.85-1.31,4.85s-0.09,2.48,1.63,2.02
				c1.72-0.45,2.74-3.66,2.74-5.22c0-0.81-0.23-1.4-0.23-1.4s0.15-4.41,0.09-4.8c-0.14-1.04-1.03-0.79-1.14,0.02
				C533.82,500.98,533.78,502.15,533.78,503.35z"/>
		</g>
	</g>
</g>
<g>
	<g>
		<path class="st0" d="M625,424H455c-6.6,0-12,5.4-12,12v209c0,6.6,5.4,12,12,12h170c6.6,0,12-5.4,12-12V436
			C637,429.4,631.6,424,625,424z"/>
	</g>
	<g>
		<g>
			<path class="st1" d="M623.31,647.01l-165.44-1.14c-0.75-0.01-1.15-1.26-0.64-2.03l9.98-15.25c1.02-1.57,2.47-2.46,4-2.46h140.6
				c1.66,0,3.23,1.03,4.3,2.81l8.5,14.24C625.52,644.7,624.74,647.02,623.31,647.01z"/>
		</g>
		<g class="st16">
			<path class="st1" d="M604.22,628.37c0,0,11.06,1.26,12.33,4.5c1.27,3.25-24.55,5.31-24.55,5.31s-126.77,9.15-127.2,5.9
				c-0.42-3.25,2.54-15.8,6.56-15.72S604.22,628.37,604.22,628.37z"/>
		</g>
		<g>
			<g>
				<path class="st17" d="M562.91,529.56c0,0-0.41-4.13,0-6.35s1.04-5.61,1.04-5.61s1.27-18.74,1.16-20.66
					c-0.11-1.92,0.95-5.61,0.63-6.35c-0.32-0.74-5.93-18.89-6.24-19.19c-0.32-0.3-8.57-25.68-8.57-25.68s-1.8-4.72-2.54-4.72
					c-0.74,0-1.27,2.36-1.27,2.36s-0.85,0.44-0.53,1.48c0.32,1.03,2.75,9.59,2.75,9.59l2.86,9.3l3.96,13.73v47.82L562.91,529.56z"/>
			</g>
			<g>
				<path class="st18" d="M589.6,587.41c0,0-1.83,4.13-1.83,5.51c0,1.38,0.14,7.67,0.92,10.82c0.78,3.15,2.47,16.53,2.47,17.12v2.86
					c0,0.85-0.05,1.7-0.15,2.53l-0.56,4.84c0,0-0.56,1.57,0.71,1.97c1.27,0.39,3.1,0.59,5.78,0c1.98-0.43,5.02,0.52,6.49,1.05
					c0.62,0.22,1.24,0.35,1.88,0.38c1.88,0.09,5.7,0.24,6.02-0.05c0.42-0.39,1.41-1.77,0.56-1.97c-0.85-0.2-4.37-2.56-4.37-2.56
					l-6.15-2.89c-1.17-0.55-2.21-1.56-2.96-2.94c-0.78-1.45-1.55-3.52-1.48-5.98c0.14-4.92,0.56-36.01,0.56-36.01L589.6,587.41z"/>
			</g>
			<g>
				<path class="st19" d="M509.59,609.85h-4.09c0,0-5.22,1.97-5.93,2.56c-0.71,0.59-11.85,10.23-11.85,10.23s-4.37,3.15-4.8,3.35
					s-3.67,2.56-3.67,2.56l-1.83,1.57c0,0-0.99-1.18-1.55,0c-0.56,1.18-2.12,6.69-2.12,6.69s-1.55,5.31,0,5.51
					c1.55,0.2,5.64,0,5.64,0s1.98-1.57,2.12-2.36c0.14-0.79,0.42-5.31,0.42-5.31s1.13,0.59,1.55,0.2c0.42-0.39,1.69-2.76,2.82-3.54
					c1.13-0.79,9.31-5.23,10.86-5.17c1.55,0.05,6.35-2.31,7.9-3.68c1.55-1.38,5.08-3.35,5.08-3.35L509.59,609.85z"/>
			</g>
			<g>
				<defs>
					<path id="SVGID_1_" d="M557.6,494.36c0,0-2.65-0.96-3.17-0.96c-2.21,0-5.79,2.75-5.79,2.75c-0.34,0.33-0.8,0.81-1.3,1.45
						c-1.16,1.48-2.09,3.23-2.54,4.51c-1.71,4.8,0.79,9.89-0.75,11.36c-0.69,0.65-1.62,0.08-2.02,1.03c-0.19,0.44-0.13,1.33,0,2.36
						c0.13,1.03,0.02,1.92,0.76,2.21c0.74,0.3,0.26,2.36,1.34,2.66c1.09,0.3,1.58,1.18,2.39,0c0.81-1.18,1.32-2.07,1.01-3.39
						c-0.31-1.33,0.54-1.48,0.54-1.48s0.27,1.68,1.16,2.36s2.97,2.51,2.97,2.51L557.6,494.36z"/>
				</defs>
				<use xlink:href="#SVGID_1_"  style="overflow:visible;fill:#5B453B;"/>
				<clipPath id="SVGID_2_">
					<use xlink:href="#SVGID_1_"  style="overflow:visible;"/>
				</clipPath>
				<g class="st20">
					<g>
						<g>
							<path class="st21" d="M544.16,512.44c0.32-0.25,0.6-0.26,0.85-0.21c0.13,0.03,0.24,0.08,0.36,0.15
								c0.11,0.07,0.21,0.17,0.28,0.32c0.15,0.3,0.2,0.76,0.35,1.01c0.15,0.26,0.36,0.39,0.64,0.49c0.13,0.06,0.27,0.11,0.39,0.2
								c0.12,0.08,0.21,0.19,0.31,0.3c0.19,0.22,0.38,0.45,0.5,0.75c0.11,0.3,0.18,0.64,0.2,1.01c0.01,0.37,0,0.78-0.16,1.2
								l-0.14,0.06c-0.58-0.31-0.93-0.64-1.21-1.08c-0.13-0.22-0.2-0.49-0.28-0.77c-0.04-0.14-0.09-0.26-0.11-0.42
								c-0.03-0.15-0.04-0.32-0.07-0.49c-0.04-0.34-0.16-0.63-0.36-0.76c-0.2-0.14-0.51-0.05-0.73-0.09
								c-0.11-0.02-0.2-0.09-0.28-0.18c-0.08-0.09-0.16-0.19-0.23-0.31c-0.14-0.25-0.26-0.53-0.36-1L544.16,512.44z"/>
						</g>
					</g>
				</g>
			</g>
			<g>
				<g>
					<path class="st19" d="M568.28,555.23c0-0.01,0.02-0.22,0.05-0.51c0.02-0.17,0.03-0.34,0.05-0.51
						c-2.58,1.02-5.46,2.09-7.07,2.51c-2.75,0.72-6.64,1.25-11.59,0.41c0.08,1.74,0.04,3.48-0.13,5.33
						c-0.43,4.59-2.5,8.54-4.73,11.97c-0.34,0.53-0.72,1.12-0.72,1.83c0,0.44,0.14,0.86,0.3,1.25c1.58,3.86,4.8,5.85,7.94,6.66
						c3.68,0.95,7.53,0.59,11.08-1.02c1.48-0.67,4.19-2.28,4.45-4.91c0.13-1.27-0.41-1.91-1.03-4.39c-0.2-0.82-0.9-3.6-0.85-6.49
						C566.11,562.6,568.22,555.98,568.28,555.23z"/>
				</g>
				<g>
					<path class="st21" d="M561.31,556.71c1.61-0.42,4.49-1.49,7.07-2.51c0.18-1.96,0.42-3.93,1-5.73c0.34-1.04,0.43-2.13,0.46-3.27
						c0.03-1.04,0.07-1.95-0.25-2.89c-1.43-4.16-3.39-8.11-4.82-12.27c-0.89-2.59-1.9-4.82-3.64-6.09c0.04,0.23,0.08,0.49,0.1,0.78
						c0.04,0.39,0.05,0.75,0.04,1.06c-0.04,0.23-0.11,0.36-0.18,0.43c-0.39,0.4-1.31-0.2-2.33-1.46c0.95,5.61,0.22,11.73-1.98,16.61
						c-0.83,1.84-2.12,3.66-3.67,3.45c-0.69-0.09-1.33-0.6-1.87-1.2c-2.02-2.21-3.08-5.8-3.32-9.36c-0.17-2.43,0.83-8.05,1.11-10.3
						c-1.5,1.86-2.57,5.8-2.47,8.39c0.25,6.37,1.48,13.14,2.54,19.35c0.32,1.86,0.53,3.64,0.61,5.42
						C554.67,557.96,558.56,557.43,561.31,556.71z"/>
				</g>
			</g>
			<g>
				<path class="st18" d="M560.14,515.46c0.05,0.44,2.22,0.81,3.33,1.03c0.88,0.18,2.73-0.58,3.45-0.9c0.05-0.69-0.37-1.87-0.62-2.5
					c-0.29-0.74-0.19-0.44-0.1-0.96c0.09-0.52,0.18-0.66,0-1.03c-0.18-0.37-0.67-0.37-0.67-0.37s0,0,0.27-0.66
					c0.27-0.66-0.06-0.59-0.32-0.74c-0.26-0.15-0.42-0.89-0.42-0.89s0-0.74,0.75-1.48c0.75-0.74,0.26-1.62,0-1.84
					c-0.26-0.22-1.65-1.4-2.12-1.99s-0.48-2.51-0.78-2.95c-0.12-0.17-0.52-0.75-0.95-1.38l-0.86,5.52
					C561.09,504.32,560.09,515.02,560.14,515.46z"/>
			</g>
			<g>
				<path class="st19" d="M559.14,463.46c0-0.01,0-0.03,0-0.03C559.13,463.57,559.14,463.55,559.14,463.46z"/>
			</g>
			<g>
				<path class="st22" d="M557.85,522.47c0.14,0.89,1.2,2.56,1.69,4.03c0.02,0.05,0.03,0.11,0.04,0.19l1.88,0.28
					c0,0-0.23-1.84-0.34-3.02c-0.11-1.17,1.66-4.51,2.08-5.47c0.42-0.96,2.17-1.25,2.6-1.4c0.43-0.15,0.79-0.59,1.05-1.18
					c0.04-0.08,0.06-0.19,0.07-0.31c-0.72,0.32-2.57,1.07-3.45,0.9c-1.11-0.22-3.28-0.59-3.33-1.03s0.95-11.14,0.95-11.14l0.86-5.52
					c-0.17-0.24-0.34-0.49-0.5-0.72C560.4,504.86,557.73,521.75,557.85,522.47z"/>
			</g>
			<g>
				<path class="st19" d="M562.86,486.16c0.07-0.87-3.58-21.92-3.72-22.7c-0.01,0.09-0.01,0.11,0-0.03c0,0,0,0.01,0,0.03
					c0.02-0.26,0.05-1.14,0.01-1.49c-0.04-0.42-0.2-0.99-0.71-1.63c0,0-0.05-3.47-0.21-4.72c-0.16-1.25-1.9-4.21-1.9-4.21
					s-1.06-2.51-1.22-2.66c-0.16-0.15-2.12-3.76-2.59-3.98c-0.48-0.22-0.69,0.89-0.69,0.89c-0.45-0.91-0.89-1.81-1.34-2.72
					c0.32,0.47,0.39,0.58,0.39,0.58c0.01-0.01-0.82-1.48-1.38-1.48c-0.48,0-0.58,1.55-0.74,1.11s-0.58-0.59-0.95-0.37
					c-0.43,0.26-0.23,1.92-0.21,2.07c0.45,3.65,3.42,4.74,4.02,8.27c0.15,0.89,0.12,1.72,0.11,1.99c-0.04,0.87-0.11,2.36-0.69,2.73
					c-0.4,0.25-0.66-0.26-1.88-0.41c-0.49-0.06-0.85-0.1-0.92,0.12c-0.04,0.12-0.05,0.43,1.32,2.07c1.18,1.4,1.76,2.12,2.59,2.58
					c0.53,0.3,2.03,0.66,2.03,0.66c0.36,1.78,0.84,4.54,1.07,7.97c0.3,4.33-0.05,6.75,0,11.91c0.02,1.77,0.34,10.43,0.34,10.43
					s-0.28,4.72-0.34,5.12s-1.85,10.73-1.85,10.73s-2.75,9.05-2.89,9.64c-0.14,0.59-2.54,8.27-2.54,8.27l-0.37,11.71l4.68,8.07
					l6.42-4.53c0,0,1.09-11.56,0.94-14.88c-0.01-0.23-0.03-0.43-0.05-0.57c-0.01-0.07-0.03-0.14-0.04-0.19
					c-0.49-1.48-1.55-3.15-1.69-4.03c-0.11-0.72,2.55-17.61,3.61-24.39c0.19-1.22,0.33-2.11,0.38-2.52
					c0.02-0.12,0.03-0.21,0.03-0.24c0.07-0.79,0.85-3.15,0.99-3.74S562.79,487.05,562.86,486.16z"/>
			</g>
			<g>
				<path class="st4" d="M561.31,556.71c1.61-0.42,4.49-1.49,7.07-2.51c0.18-1.96,0.42-3.93,1-5.73c0.34-1.04,0.43-2.13,0.46-3.27
					c0.03-1.04,0.07-1.95-0.25-2.89c-1.43-4.16-3.39-8.11-4.82-12.27c-0.89-2.59-1.9-4.82-3.64-6.09c0.04,0.23,0.08,0.49,0.1,0.78
					c0.04,0.39,0.05,0.75,0.04,1.06c-0.04,0.23-0.11,0.36-0.18,0.43c-0.39,0.4-1.31-0.2-2.33-1.46c0.95,5.61,0.22,11.73-1.98,16.61
					c-0.83,1.84-2.12,3.66-3.67,3.45c-0.69-0.09-1.33-0.6-1.87-1.2c-2.02-2.21-3.08-5.8-3.32-9.36c-0.17-2.43,0.83-8.05,1.11-10.3
					c-1.5,1.86-2.57,5.8-2.47,8.39c0.25,6.37,1.48,13.14,2.54,19.35c0.32,1.86,0.53,3.64,0.61,5.42
					C554.67,557.96,558.56,557.43,561.31,556.71z"/>
			</g>
			<g>
				<g>
					<path class="st3" d="M567.87,582.1c0.73-1.21,1.22-2.85,1.53-4.25c-0.15,0.04-0.28,0.08-0.37,0.1c-1-3.54-1.99-7.07-2.99-10.61
						c-5.77-0.22-11.55-0.44-17.32-0.66c-0.28,1.26-0.81,2.99-1.9,4.46c-0.95,1.27-1.6,1.38-3.28,2.84
						c-0.61,0.53-2.18,1.92-3.49,3.84c-0.82,1.2-2.01,3.28-2.86,6.58c-3.51,4.35-6.61,7.99-9.09,10.83
						c-5.89,6.75-8.4,9.13-11.71,11.07c-2.14,1.26-3.99,1.96-5.22,2.36c-0.99-0.2-2.96,0.01-2.96,0.01s-2.82,5.3-1.69,8.25
						s1.83,3.94,1.83,3.94s0.42,0,1.69,0c1.27,0,2.12-1.18,2.96-1.18s1.83,0,2.82-0.2s1.27-0.59,2.54-0.79
						c1.4-0.22,5.83-1.56,6.49-1.77c3.4-1.09,5.39-4.87,10.92-9.1c0,0,4.97-3.8,14.33-6.84c0.5-0.16,1.08-0.33,1.74-0.48
						C558.27,593.36,566.91,583.68,567.87,582.1z"/>
				</g>
				<g>
					<path class="st3" d="M598.2,583.67l-0.71-1.57c0,0-0.71-6.3-2.26-7.08c-1.92-0.97-3.58-1.67-4.8-1.57
						c-6.01,0.49-15.22,2.83-19.42,3.96c-0.05,0.79-0.15,1.59-0.33,2.34c-0.85,3.54-9.17,14.96-6.63,16.33
						c2.54,1.38,22.01-10.23,24.55-9.21c1.85,0.75,0.68,2.97-0.1,4.12c1.76,0.19,3.06-0.25,3.93-0.72
						C594.75,589.01,599.97,581.24,598.2,583.67z"/>
				</g>
				<g>
					<path class="st3" d="M588.61,586.87c-2.54-1.03-22.01,10.58-24.55,9.21c-2.54-1.38,5.78-12.79,6.63-16.33
						c0.18-0.75,0.28-1.54,0.33-2.34c-0.69,0.19-1.24,0.34-1.63,0.44c-0.31,1.4-0.79,3.05-1.53,4.25
						c-0.96,1.58-9.6,11.27-16.04,18.42c0.84-0.18,1.81-0.32,2.92-0.31c1.81,0.01,3.14,0.39,3.56,0.49
						c3.78,0.98,9.25-0.4,12.67-1.87c5.78-2.48,6.63-5.6,13.4-7.87c1.6-0.54,2.94-0.82,3.81-0.98v0.98
						c0.11,0.02,0.22,0.02,0.33,0.04C589.29,589.83,590.45,587.61,588.61,586.87z"/>
				</g>
			</g>
		</g>
	</g>
</g>
</svg>
