<?xml version="1.0" encoding="utf-8"?>
<!-- Generator: Adobe Illustrator 23.0.3, SVG Export Plug-In . SVG Version: 6.00 Build 0)  -->
<svg version="1.1" id="Layer_1" xmlns="http://www.w3.org/2000/svg" xmlns:xlink="http://www.w3.org/1999/xlink" x="0px" y="0px"
	 viewBox="0 0 1080 1080" style="enable-background:new 0 0 1080 1080;" xml:space="preserve">
<style type="text/css">
	.st0{fill:#FFFFFF;}
	.st1{fill:#4A4A49;}
	.st2{fill:#FED2A5;}
	.st3{fill:#010001;}
	.st4{fill:#EB7171;}
	.st5{fill:#FF8442;}
	.st6{fill:#00A6BC;}
	.st7{fill:#77B5C6;}
	.st8{fill:#F7BD8D;}
	.st9{fill:#E6A87F;}
	.st10{fill:#2A5285;}
	.st11{fill:#EE4645;}
	.st12{fill:#FAB587;}
	.st13{fill:#1B2952;}
	.st14{fill:#E5D6CE;}
	.st15{fill:#E8A67C;}
</style>
<g>
	<path class="st0" d="M923,256H753c-6.6,0-12,5.4-12,12v209c0,6.6,5.4,12,12,12h170c6.6,0,12-5.4,12-12V268
		C935,261.4,929.6,256,923,256z"/>
</g>
<g>
	<g>
		<path class="st0" d="M625,424H455c-6.6,0-12,5.4-12,12v209c0,6.6,5.4,12,12,12h170c6.6,0,12-5.4,12-12V436
			C637,429.4,631.6,424,625,424z"/>
	</g>
	<g>
		<path class="st1" d="M606.75,634.12l-152.41-0.59c-0.7,0-1.06-0.65-0.59-1.05l9.19-7.84c0.94-0.81,2.28-1.26,3.68-1.26h129.53
			c1.53,0,2.98,0.53,3.96,1.44l7.83,7.32C608.79,632.93,608.07,634.12,606.75,634.12z"/>
	</g>
	<g>
		<g>
			<path class="st2" d="M552.8,618.01c0,0,4.99-1.32,5.45-13.08l6.43,1.09c0,0,0.57,8.41,1.09,13.14
				C566.29,623.89,552.8,618.01,552.8,618.01z"/>
			<g>
				<path class="st2" d="M568.01,551.96c-1.64-8.05,3.59-32.34,3.59-46.64c0-22.97-16.52-28.7-25.57-25.63
					c-8.82,2.99-22.64,17.07-19.2,28.17c1.27,4.12,25.66-3.82,25.66,2.39c0,21.67-1.09,38.19,3.58,45.62
					c1.65,8.61,1.65,15.59,1.65,28.38c0,22.96-0.85,34.1,4.12,34.1c1.69,0,3.11-2.3,3.33-6.56c0.3-5.77,4.37-19.54,5.69-30
					C573.29,562.48,569.1,557.38,568.01,551.96z"/>
				<path class="st3" d="M545.77,507.86c0.01,0.01,0.96,1.51,0.96,1.53l3.28,5.21c0.74,5.46,1.4,10.18,1.4,10.18
					c0,0,24.15-4.41,24.15-4.41l1.44,0.16c-0.64-11.48-1.76-20.19-2.96-26.26c-0.93-4.68-3.78-7.54-6.37-10.19
					c-4.16-4.27-11.5-7.07-11.5-7.07S543.5,498.98,545.77,507.86z"/>
				<g>
					<g>
						<g>
							<g>
								<g>
									<g>
										<g>
											<g>
												<g>
													<path class="st2" d="M550.3,570.65c-0.05-1.26-1.52-0.85-1.66-2.63c-0.02-0.44,0.21-0.82,0.13-1.09
														c-0.11-0.39-0.56-0.62-0.7-0.88c-0.12-0.25,0.27-0.69,0.12-1.05c-0.07-0.2-0.68-0.24-0.75-0.51
														c-0.4-1.37-0.2-0.4-0.37-1.62c-0.48-3.25-1.49-3.81-8.02-2.58l0.04-0.04c0,0-2.14,0.15-2.09-2.04
														c0.1-4.11,0.45-6.78,2.46-9.57l-5.76,1.19l-5.71,2.17c-2.51,14.54-0.81,9.56-2.32,14.14
														c-0.61,1.05-6.36,13.8-6.41,15.03c-0.52,12.34,5.6,16.67,15.37,17.12c9.04,0.42,14.39-4.37,15.9-15.39
														c0.13-0.89-1.43-6.8-1.51-7.72C548.84,572.59,550.35,571.91,550.3,570.65z"/>
												</g>
											</g>
										</g>
									</g>
								</g>
								<path class="st0" d="M550.71,539.73c1.36-4.93-1.22-10.08-5.75-11.48c-4.54-1.4-9.32,1.47-10.68,6.4
									c0.26-0.96,0.24,20.99,1.94,16.83C538.88,545,549.35,544.68,550.71,539.73z"/>
								<path class="st4" d="M538.37,555.12c-3.78-0.03-8.35,2.29-12.08,2.7c-2.34-6.75-6.73-14.64-6.06-26.77
									c1.03-18.58-0.82-21.07,2.61-31.79l23.21,4.7c0,0,0.6,15.89-1.39,29.37C543.06,544.18,542.42,548.83,538.37,555.12z"/>
								<path class="st5" d="M550.24,589.41c0.05,6.37-7.95,9.67-14.91,15.51c-11.81,9.91-0.97,20.88-8.08,20.76
									c-8.38-0.14-19.63-25.32-2.3-60.36c2.33-4.7,12.69,2.37,12.69,2.37c-1.85,1.13-6.74,7.21-4.14,9.2
									c0.61,0.47,1.98,0.21,3.19-0.61C536.69,576.28,550.22,587.83,550.24,589.41z"/>
								<path class="st6" d="M551.74,588.28c0,0,0.5,4.65-2.96,5.38c0,0-8.06-10.95-15.27-16.77c0,0,0.93,0.31,1.87,0.05
									c0.73-0.21,1.25-0.69,1.31-0.66C538.94,577.28,544.85,580.12,551.74,588.28z"/>
							</g>
						</g>
					</g>
				</g>
				<path class="st7" d="M555.08,615.57c3.48,0.83,7.07,1.24,10.74,1.19c0.14,0,0.28-0.03,0.42-0.03l0.08,11.27h-29.18
					C537.09,622.22,545.73,618.04,555.08,615.57z"/>
			</g>
			<path class="st8" d="M499.16,622.93c0,0-9.53-0.46-12.61,0.27c-2.38,0.57-8.85,2.85-7.9,4.15c0.46,0.63,1.57,0.98,3.81,0
				c1.16-0.51,3.34-1.19,4.6-1.2c1.59-0.03,4.66,1.75,6.25,1.84c1.22,0.08,3.69-0.63,4.87-0.96c1.46-0.4,5.47-2.66,5.47-2.66
				l29.98-32.33c0,0,5.59-35.16,5.39-43.96c-0.13-5.6-5.93-12.36-11.1-4.74c-1.4,2.07-1.09,43.35-3.65,44.96
				C522.19,589.63,501.32,621.8,499.16,622.93z"/>
		</g>
	</g>
</g>
<g>
	<g>
		<path class="st0" d="M625,424H455c-6.6,0-12,5.4-12,12v209c0,6.6,5.4,12,12,12h170c6.6,0,12-5.4,12-12V436
			C637,429.4,631.6,424,625,424z"/>
	</g>
	<g>
		<path class="st1" d="M618.75,647.12l-152.41-0.59c-0.7,0-1.06-0.65-0.59-1.05l9.19-7.84c0.94-0.81,2.28-1.26,3.68-1.26h129.53
			c1.53,0,2.98,0.53,3.96,1.44l7.83,7.32C620.79,645.93,620.07,647.12,618.75,647.12z"/>
	</g>
	<g>
		<path class="st3" d="M527.49,575.65c-11-4.98-23.93-15.94-29.43-18.87c-2.84-1.5-9.71-0.17-9.71-0.17l42.71-11.46l-15.86-12.95
			c0,0-33.46,9.75-38.13,23.12c-0.72,2.05,3.15,6.21,4.98,7.25c13.83,7.87,41.59,17.22,41.59,17.22S529.2,576.42,527.49,575.65z"/>
		<g>
			<path class="st9" d="M538.87,594.51c0.4,4.89-3.16,3.06-2.78-0.49c-3.69-5.96-7.76-11.4-9.42-12.32
				c-3.74-2.09-14.59-6.03-14.59-6.03l3.77-6.25c0,0,6.74,4.02,10.47,5.92c0.31,0.16,2.05,0.62,4.15,0.44
				c3.38-0.28,6.61-0.58,7.32,3.01C538.67,583.28,538.8,593.58,538.87,594.51z"/>
		</g>
		<path class="st10" d="M517.86,451.02c-1.04,1.85,2.05,20.65,7.06,24.95c4.94,4.24,4.69,19.73-7.13,20.4
			c-5.85,0.33-6.66-5.55-11.87-7.47c-5.97-2.2,1.3-6.59-3.63-11.88c-4.94-5.29,4.8-10.77,2.92-14.84
			c-3.74-8.08,4.29-12.91,6.86-15.6c3.7-3.86,7.06-2.19,8.54-1.63C522.09,445.51,519.57,448,517.86,451.02z"/>
		<path class="st11" d="M522.62,451.02c-1.71,3.02-2.82,5.58-4.3,5.02c-1.48-0.56-3.81-2-1.07-7.04c2.43-4.48,3.97-4.57,5.45-4.02
			C524.17,445.54,524.33,448,522.62,451.02z"/>
		<path class="st12" d="M547.1,625.56c-0.31-7.99,4.19-79.51,4.19-79.51l-15.2,0.85l6.25,30.1l-3.12,13.85l1.21,33.51
			C540.44,624.37,543.92,629.14,547.1,625.56z"/>
		<path class="st3" d="M540.04,612.87l-5.28-69.06c0,0,20.91-18.02,22.5-5.29c1.59,12.73-8.21,58.03-9.75,74.35H540.04z"/>
		<g>
			<path class="st12" d="M553.75,640.53c1.38-1.19-5.93-5.6-6.54-13.15c-0.3-3.69-0.17-9.39-0.17-9.39l-6.81-1.27
				c0,0,0.3,5.62,0.18,9.2c-0.01,0.3-1.08,2.55-1.08,4.27c0,2.23,1.33,3.85,1.79,10.19C541.32,643.19,552.36,641.73,553.75,640.53z"
				/>
		</g>
		<path class="st13" d="M517.24,531.7c0.88-8.06,4.01-10.06,4.01-10.06c0.67-0.02,19.91-9.96,19.91-9.96s11.91,13.15,14.32,15.29
			l1.78,11.54l-17.89,6.64h-8.3C531.07,545.16,516.36,539.76,517.24,531.7z"/>
		<path class="st10" d="M534.62,474.39c10.12-0.02,12.71-8.46,13.05-13c0.33-4.54,2.92-8.66-0.29-13.27
			c-2.54-3.64-16.24-5.58-22.95-3.56c-4.88,1.47-6.79,9.29-6.5,13.85C518.41,465.96,528,474.4,534.62,474.39z"/>
		<path class="st4" d="M513.99,539.59c0.65-9.37,6.93-23.73,6.93-23.73s-4.05-17.65-2.95-21.81c1.09-4.15,2.37-12.26,5.81-13.48
			c1.34-0.47,3.17-1.16,3.17-1.16l8.31,4.61l8.12-5.03c0,0,1.74,0.47,3.5,0.99c1.19,0.35,3.52,10.18,4.68,14.9
			c1.16,4.72-2.61,21.07-2.61,21.07s6.71,14.18,7.9,22.46C557.28,541.57,524.98,549.26,513.99,539.59z"/>
		<path class="st12" d="M543.37,479.01c1.46,5.99-13.86,8.49-16.43,0.42c0.92-0.16,5.07-1.37,4.19-0.89c0,0,2.16-2.94,0.24-6.84
			c-0.82-1.05,11.01-1.91,9.84,0.45c-1.16,2.36-0.95,6.4-0.95,6.4S542.58,478.91,543.37,479.01z"/>
		<path class="st14" d="M532.62,471.67l8.14,0.46l-0.51,4.89C532.49,476.04,532.62,471.67,532.62,471.67z"/>
		<path class="st12" d="M526.13,451.63l-0.45,13.34c0.57,6.31,10.47,10.56,14.56,10.58c2.92,0.01,7.1-5.85,7.32-9.49
			c0.21-3.53,0.52-12.36-1.67-13.81L526.13,451.63z"/>
		<path class="st12" d="M528,462.62l-2.15,2.79c0,0-0.64,0.8-2.18,0.13c-1.54-0.68-2.64-4.91,0.71-5.03
			C526.69,460.43,528,462.62,528,462.62z"/>
		<path class="st14" d="M526.13,451.63c0,0-2.29,2.01-2.09,4.08c0.2,2.07,3.27,9.35,3.27,9.35s1.23-2.29,1.83-5.98
			c0.81-4.98,4.83-1.99,10.1-3.12c5.27-1.14,6.36-0.54,8.66,1.76l-1.9-6.1H526.13z"/>
		<path class="st10" d="M547.52,450.06c1.07,3.2,0.07,7.8,0.07,7.8s-0.51-2.27-2.41-3.63c-1.33-0.95-5.73,1.23-8.48,0.15
			c-5.17-2.04-10.44,2.02-9.76,4.7c1.05,4.11,0.38,5.98,0.38,5.98s-2.22-1.24-2.93-4.55c-0.52-2.44-1.85-5.64-1.68-8.68
			c0,0,8.9-5.16,16.31-4.76C546.43,447.48,547.52,450.06,547.52,450.06z"/>
		<path class="st12" d="M532.7,509.89c0,0-15.12,6.78-23.36,6.21c-1.8-0.12-4.55-2.4-4.55-4.77c0.01-3.97,4.03-14.23,9.05-22.96
			c2.21-7.02,9.27-7.42,10.02-7.9c2.17,18.68-5.43,20.39-5.43,20.39l-0.47-2.56c0,0-5.13,10.29-7.07,13.36
			c0.85-0.71,1.54-1.44,2.95-1.8c1.42-0.36,12.34-0.36,17.23-2C532.07,507.51,532.7,509.89,532.7,509.89z"/>
		<path class="st12" d="M537.68,509.85c0,0,15.34,6.1,23.58,5.53c1.8-0.13,4.49-2.23,4.49-4.6c-0.01-3.97-4.2-14.39-9.22-23.13
			c-2.2-7.02-9.28-7.63-10.06-7.88c-2.17,18.68,4.76,20.34,4.76,20.34l0.5-3.02c0,0,5.8,10.79,7.75,13.86
			c-0.85-0.71-2.25-1.44-3.35-1.74c-1.1-0.31-7.08,0.18-16.78-1.34C538.04,507.32,537.68,509.85,537.68,509.85z"/>
		<g>
			<path class="st15" d="M536.9,503.73l1.61,0.95c0,0-0.06-2.8,0.25-3.89c0.19-0.68-0.83-1.05-1.29-0.15
				C536.91,501.71,536.9,503.73,536.9,503.73z"/>
			<path class="st12" d="M537.54,503.42c0,0-0.43,1.46-0.84,1.44c-0.45-0.02-0.62-2.42-0.62-2.42s-0.09-3.08-0.16-4.26
				c-0.04-0.69,0.6-1.16,0.91-0.32C537.28,499.1,537.54,503.42,537.54,503.42z"/>
			<path class="st12" d="M538.06,503.24c0,0-0.44,1.68-0.84,1.66c-0.45-0.02-0.62-2.42-0.62-2.42s0.2-2.99,0.13-4.17
				c-0.04-0.69,0.6-1.09,0.81-0.25C537.86,499.33,538.06,503.24,538.06,503.24z"/>
			<path class="st12" d="M536.66,503.35c0,0,1.15-1.21,1.39-0.34c0.25,0.87,1.31,4.85,1.31,4.85s-0.01,2.55-1.68,1.98
				c-1.68-0.57-2.69-3.62-2.69-5.17c0-0.81,0.23-1.4,0.23-1.4s-0.15-4.41-0.09-4.8c0.14-1.04,1.03-0.79,1.14,0.02
				C536.62,500.98,536.66,502.15,536.66,503.35z"/>
		</g>
		<g>
			<path class="st15" d="M533.54,503.73l-1.61,0.95c0,0,0.06-2.8-0.25-3.89c-0.19-0.68,0.83-1.05,1.29-0.15
				C533.53,501.71,533.54,503.73,533.54,503.73z"/>
			<path class="st12" d="M532.89,503.42c0,0,0.43,1.46,0.84,1.44c0.46-0.02,0.62-2.42,0.62-2.42s0.09-3.08,0.16-4.26
				c0.04-0.69-0.6-1.16-0.91-0.32C533.15,499.1,532.89,503.42,532.89,503.42z"/>
			<path class="st12" d="M532.37,503.24c0,0,0.44,1.68,0.84,1.66c0.45-0.02,0.62-2.42,0.62-2.42s-0.2-2.99-0.13-4.17
				c0.04-0.69-0.6-1.09-0.81-0.25C532.58,499.33,532.37,503.24,532.37,503.24z"/>
			<path class="st12" d="M533.78,503.35c0,0-1.14-1.21-1.39-0.34c-0.25,0.87-1.31,4.85-1.31,4.85s-0.09,2.48,1.63,2.02
				c1.72-0.45,2.74-3.66,2.74-5.22c0-0.81-0.23-1.4-0.23-1.4s0.15-4.41,0.09-4.8c-0.14-1.04-1.03-0.79-1.14,0.02
				C533.82,500.98,533.78,502.15,533.78,503.35z"/>
		</g>
	</g>
</g>
</svg>
